<?xml version="1.0" encoding="UTF-8"?>
<!DOCTYPE svg PUBLIC "-//W3C//DTD SVG 1.1//EN" "http://www.w3.org/Graphics/SVG/1.1/DTD/svg11.dtd">
<!-- Creator: CorelDRAW -->
<svg xmlns="http://www.w3.org/2000/svg" xml:space="preserve" width="82.441mm" height="35.2878mm" version="1.1" style="shape-rendering:geometricPrecision; text-rendering:geometricPrecision; image-rendering:optimizeQuality; fill-rule:evenodd; clip-rule:evenodd"
viewBox="0 0 8244.1 3528.78"
 xmlns:xlink="http://www.w3.org/1999/xlink"
 xmlns:xodm="http://www.corel.com/coreldraw/odm/2003">
 <defs>
  <style type="text/css">
   <![CDATA[
    .fil0 {fill:#FEFEFE;fill-rule:nonzero}
   ]]>
  </style>
 </defs>
 <g id="Capa_x0020_1">
  <metadata id="CorelCorpID_0Corel-Layer"/>
  <g id="_2004952543504">
   <path class="fil0" d="M300.8 555.48c4.9,0 12.62,-2.82 12.62,-6.41l-0.45 -0.93c-4.3,-6.41 -6.08,-15.62 -6.08,-27.02 0,-118.53 224.82,-475.36 296.94,-504.56 1.78,-1.4 3.56,-2.81 4,-4.68 0,-2.19 -0.89,-3.6 -2.67,-4.53 -12.16,-5 -26.41,-7.34 -40.8,-7.34 -37.84,0 -78.66,15.15 -100.47,38.88 -20.92,22.49 -101.66,143.2 -157.3,262.67l-108.77 -0.47c47.33,-82.77 93.93,-168.34 93.93,-212.23l0 -1.87c-0.89,-28.42 -67.82,-80.11 -107.44,-80.11 -59.5,0 -112.63,45.29 -129.55,110.25 -1.34,5.47 -2.08,11.87 -2.08,18.43 0,26.08 12.61,56.21 34.72,73.55 0.45,0.47 1.34,0.94 2.24,0.94 2.07,0 5.19,-1.88 5.19,-5l-0.9 -2.81c-2.22,-5 -3.55,-10.93 -3.55,-16.87 0,-46.22 64.84,-114 126.58,-130.39 2.22,-0.47 4.3,-0.94 6.08,-0.94 6.53,0 9.5,4.06 9.5,11.4 0,33.89 -62.03,138.67 -116.94,235.65l-57.28 0c-3.56,0 -51.35,0.93 -58.32,43.41l0 0.47c0,1.4 0.89,2.34 2.23,2.34l1.33 -0.47c6.82,-4.99 45.11,-7.8 91.71,-8.27 -31.31,56.84 -56.09,107.12 -58.32,132.27l0 2.34c0,22.33 24.34,49.81 50.01,49.81 5.19,0 10.39,-1.4 15.29,-3.59 1.18,-0.47 1.63,-1.87 1.63,-2.81 0,-1.4 -0.89,-2.81 -2.53,-3.28 -4,-0.78 -5.18,-4.53 -5.18,-9.06 0,-11.4 8.6,-29.82 10.83,-35.29 13.06,-32.48 39.91,-79.64 69.6,-130.86 51.19,0 97.79,0.94 112.92,0.94 -22.11,54.03 -37.4,104.78 -37.4,144.13 0,37.01 13.51,63.56 47.05,72.31l1.63 0zm255.4 -365.11c-50.02,0 -147.95,140.39 -147.95,237.52 0,26.55 7.41,49.35 24.77,65.75 12.17,11.55 32.2,17.95 50.01,17.95 5.34,0 10.1,-0.46 14.4,-1.4 57.87,-12.81 142.16,-116.19 178.22,-165.22 0.45,-0.94 0.9,-1.72 0.9,-2.19 0,-0.93 -0.45,-1.4 -0.45,-1.87 -0.89,-1.87 -4.75,-2.81 -9.5,-2.81 -7.42,0 -17.36,2.34 -20.93,6.4 -25.22,28.42 -118.27,132.74 -158.18,132.74 -8.76,0 -14.84,-5 -17.07,-16.87 -0.44,-3.28 -0.74,-6.4 -0.74,-10.15 0,-19.67 8.6,-44.35 22.11,-70.43 12.17,10.93 26.57,19.68 36.95,22.02 1.33,0.47 2.97,0.47 4.31,0.47 40.95,0 109.21,-99.32 109.21,-141.95 0,-2.19 -0.44,-4.53 -0.88,-6.87 -3.12,-12.34 -27.46,-32.95 -41.41,-43.41 -10.83,-9.53 -34.28,-19.68 -43.77,-19.68zm36.94 45.75c-12.16,49.04 -59.21,128.53 -94.82,131.81 29.08,-52.16 73.46,-107.13 94.82,-131.81zm246.05 -45.75c-11.73,0 -52.09,46.69 -92.6,100.26 8.76,-17.03 18.25,-34.83 29.53,-52.16 1.34,-1.88 1.78,-3.75 1.78,-5.94 0,-16.08 -29.53,-37.16 -48.23,-37.16 -5.19,0 -9.94,1.87 -12.61,5.93 -45.71,67.77 -99.57,176.62 -106.55,258.6 0.44,13.75 22.71,51.69 39.62,51.69 5.2,0 9.94,-3.74 13.5,-12.33 3.42,-7.34 7.27,-16.56 12.62,-27.02 31.61,-64.96 93.79,-175.68 152.55,-232.52 2.23,-1.72 3.41,-2.66 4.31,-2.66 0.89,0 1.33,0.94 1.33,2.34 0,5.94 -6.08,20.93 -6.98,23.27 -29.97,74.96 -63.95,118.06 -70.78,197.23 0.44,13.75 22.56,52.16 39.92,52.16 5.19,0 10.09,-3.75 13.95,-12.8 2.96,-7.81 7.42,-17.02 12.62,-27.96l2.96 -8.27c32.21,-65.43 83.1,-166.94 141.72,-223.31 2.23,-1.72 3.56,-2.66 4.45,-2.66 0.89,0 1.33,0.94 1.33,2.34 0,5.94 -6.23,20.93 -7.41,23.27 -12.62,32.48 -69.16,133.21 -69.16,190.36 0,10.93 1.79,20.15 6.53,27.02 7.87,11.87 25.23,22.8 37.4,29.2 1.33,0.47 2.97,0.94 4.31,0.94 32.64,0 126.13,-120.87 152.54,-158.35 0.45,-0.47 0.45,-1.4 0.45,-1.72 0,-5.15 -9.94,-12.02 -16.03,-12.02 -0.88,0 -1.78,0 -2.67,0.47 -23.89,29.82 -95.57,121.8 -113.37,121.8 -2.23,0 -4.01,-2.34 -4.01,-6.4 0,-3.28 0.89,-7.34 2.67,-13.27 15.59,-54.5 69.15,-124.93 69.15,-184.9 0,-8.74 -1.33,-17.33 -4.01,-25.61 -4.29,-13.74 -36.94,-39.82 -51.63,-39.82 -11.28,0 -49.12,43.41 -88.3,94.79 2.67,-12.02 3.85,-22.96 3.85,-32.95 0,-7.81 -0.74,-15.15 -2.96,-22.02 -4.31,-13.74 -36.95,-39.82 -51.79,-39.82zm396.07 1.4c-89.63,0.47 -184.75,142.74 -184.75,237.37 0,46.69 23.44,81.99 82.5,81.99 34,0 73.61,-39.36 104.92,-90.11 27.75,-5.93 61.3,-31.7 93.35,-79.17 0.45,-0.47 0.45,-0.47 0.45,-0.94 0,-0.47 0,-0.94 -0.45,-1.41 -0.45,-0.93 -3.41,-1.4 -7.27,-1.4 -6.54,0 -14.4,1.4 -17.51,5.15 -20.34,26.08 -38.58,42.48 -53.43,50.75 21.82,-43.1 36.51,-89.32 36.51,-125.39 0,-23.74 -6.54,-42.95 -21.66,-53.57 2.07,-1.71 6.08,-6.4 6.97,-7.81 0.3,-0.78 0.74,-1.71 0.74,-2.65 0,-4.53 -8.16,-6.87 -17.36,-9.68 -7.42,-2.19 -15.14,-3.13 -23.01,-3.13zm24.79 55.75c4.75,0 6.97,4.69 6.97,12.81 0,25.14 -20.48,83.39 -46.6,132.74 -6.08,-6.87 -8.6,-19.21 -8.6,-33.89 0,-42.48 21.67,-104.32 46.45,-111.66l1.78 0zm-69.6 35.77c-7.87,21.39 -11.73,44.81 -11.73,66.36 0,30.61 8.32,57.63 27.9,67.62 -20.03,32.95 -41.85,57.63 -59.66,57.63 -4.29,0 -8.15,-1.25 -12.16,-4.53 -5.64,-4.53 -7.87,-13.74 -7.87,-26.08 0,-38.42 24.79,-107.91 63.52,-161zm231.2 -93.39c-1.19,0 -2.07,0.47 -2.96,0.47 -23.45,8.74 -79.54,44.82 -85.63,94.79l0 5c0,5.46 0.44,10.93 1.63,16.86 -11.71,14.21 -22.99,28.89 -33.38,44.82 -1.79,2.34 -2.23,4.69 -2.23,7.34 0,3.75 1.78,7.34 4.75,9.68 2.22,1.72 4.45,2.19 6.53,2.19 4.01,0 7.42,-1.72 9.64,-5 7.42,-10.93 15.14,-22.02 23.01,-32.01 8.3,21.55 17.36,43.88 17.36,62.62l0 1.4c-0.89,40.76 -33.84,61.84 -67.82,61.84 -19.14,0 -39.03,-6.87 -53.43,-20.14 -0.88,-0.94 -1.33,-0.94 -2.22,-0.94 -2.07,0 -4.31,1.88 -4.31,3.59 0,0.47 0.45,0.94 0.45,1.41 15.59,45.76 56.99,68.24 96.9,68.24 41.71,0 82.22,-25.14 88.3,-74.17 0.45,-5 0.89,-9.53 0.89,-14.68 0,-40.29 -19.59,-79.49 -19.59,-112.91 0,-16.55 4.75,-31.54 18.25,-44.82 17.37,-16.55 45.71,-32.95 45.71,-32.95 0.3,-1.4 0.3,-3.28 0.3,-4.68 0,-20.15 -29.97,-37.95 -42.15,-37.95zm490.9 361.98c5.2,0 10.54,-1.4 15.29,-4.21 0.89,-0.94 1.77,-2.19 1.77,-3.13 0,-1.87 -1.33,-4.21 -3.11,-4.68 -4.3,-1.25 -6.08,-6.87 -6.08,-13.74 0,-13.59 6.52,-33.27 8.31,-39.67 29.08,-111.19 151.22,-382.59 221.25,-404.93 1.79,-0.46 3.43,-2.34 3.43,-4.21l0 -0.78c0,-2.34 -0.76,-4.22 -2.53,-5.16 -19.14,-14.05 -37.84,-20.45 -55.2,-20.45 -23.15,0 -43.49,10.93 -58.77,29.67 -22.11,27.48 -62.18,93.85 -98.69,167.4 -23.89,31.55 -129.1,203.17 -147.8,203.17 -1.78,0 -2.52,-1.87 -2.52,-5 0,-2.34 0.29,-4.99 0.74,-8.27 9.2,-46.23 134.89,-333.57 206.13,-356.37 2.22,-0.46 3.41,-2.34 3.85,-4.21 0,-2.19 -0.74,-5 -2.52,-5.94 -19.14,-14.05 -37.84,-20.45 -55.65,-20.45 -22.7,0 -43.48,10.93 -58.77,29.67 -45.11,55.75 -167.84,274.06 -167.84,367.29 0,13.27 2.68,24.36 8.32,31.7 9.2,11.87 33.53,22.8 46.15,29.2l2.97 0.47c18.25,0 65.29,-63.56 107.88,-126.33 -14.84,41.22 -24.33,78.7 -24.33,105.72 0,27.48 30.86,63.24 57.72,63.24zm213.99 -361.51c-50.01,0 -147.95,140.39 -147.95,237.52 0,26.55 7.41,49.35 24.78,65.75 12.17,11.55 32.2,17.95 50.01,17.95 5.34,0 10.09,-0.46 14.4,-1.4 57.87,-12.81 142.16,-116.19 178.22,-165.22 0.45,-0.94 0.89,-1.72 0.89,-2.19 0,-0.93 -0.44,-1.4 -0.44,-1.87 -0.9,-1.87 -4.75,-2.81 -9.51,-2.81 -7.42,0 -17.36,2.34 -20.92,6.4 -25.22,28.42 -118.27,132.74 -158.18,132.74 -8.77,0 -14.85,-5 -17.07,-16.87 -0.45,-3.28 -0.74,-6.4 -0.74,-10.15 0,-19.67 8.6,-44.35 22.1,-70.43 12.17,10.93 26.57,19.68 36.96,22.02 1.33,0.47 2.96,0.47 4.3,0.47 40.96,0 109.22,-99.32 109.22,-141.95 0,-2.19 -0.45,-4.53 -0.89,-6.87 -3.11,-12.34 -27.45,-32.95 -41.4,-43.41 -10.83,-9.53 -34.29,-19.68 -43.78,-19.68zm36.95 45.75c-12.17,49.04 -59.21,128.53 -94.82,131.81 29.08,-52.16 73.46,-107.13 94.82,-131.81zm98.68 190.37c-2.22,0 -2.96,-1.41 -2.96,-4.69 0,-2.19 0.29,-5.46 1.63,-9.52 20.48,-70.9 51.79,-124.47 85.33,-163.35 3.86,-4.06 7.27,-5.93 10.83,-5.93 13.51,0 24.34,27.95 28.2,41.22 -5.2,6.87 -104.77,142.27 -123.03,142.27zm-106.09 291.39c6.08,0 12.16,-0.46 18.69,-1.4 169.18,-27.8 230.01,-340.75 322.17,-473.48 1.34,-1.88 2.22,-4.06 2.22,-5.94 0,-16.55 -31.75,-40.76 -50.45,-40.76 -4.3,0 -8.31,1.41 -10.38,5 -10.54,16.09 -21.82,36.23 -33.55,58.09 -9.94,-36.54 -43.03,-69.02 -56.98,-69.02 -69.59,0 -169.47,180.21 -169.47,264.07 0,14.99 2.97,26.86 10.39,34.2 6.08,5.93 41.7,20.14 55.65,20.14 12.62,0 77.31,-80.89 107.43,-128.05 -33.98,96.98 -103.58,262.2 -219.62,262.2 -40.81,0 -52.09,-21.09 -58.62,-38.89 -0.89,-1.4 -2.67,-2.34 -4.89,-2.34 -2.98,0 -6.09,1.4 -6.53,4.06l0 7.34c0,67.77 42.29,104.78 93.94,104.78zm470.86 -527.51c-69.16,0 -168.29,180.68 -168.29,264.38 0,15.15 3.57,27.02 10.54,34.36 5.64,6.4 41.25,20.61 54.76,20.61 12.61,0 77.31,-81.36 106.54,-128.05 -4.89,13.27 -12.16,40.6 -12.16,64.96 0,13.27 2.52,25.14 8.61,33.42 9.2,11.87 27.01,22.8 40.06,29.2 1.19,0.47 2.97,0.94 4.31,0.94 32.2,0 116.05,-120.87 138.75,-158.35 0.29,-0.47 0.29,-1.4 0.29,-1.72 0,-5.15 -10.83,-12.02 -16.47,-12.02 -1.34,0 -2.08,0 -2.52,0.47 -22.26,30.29 -86.52,128.67 -103.14,128.67 -2.52,0 -3.86,-2.34 -3.86,-7.34 0,-2.81 0.45,-6.87 1.34,-11.55 9.5,-48.41 41.26,-135.86 89.04,-205.35 1.34,-1.88 1.78,-3.6 1.78,-5.94 0,-16.55 -30.86,-40.76 -49.12,-40.76 -4.75,0 -8.76,1.41 -10.83,5 -10.54,16.09 -21.82,36.23 -33.54,58.09 -9.5,-36.07 -42.14,-69.02 -56.09,-69.02zm8.75 52.63c13.5,0 24.34,27.95 27.75,41.69 -4.75,6.87 -103.43,142.26 -121.68,142.26 -2.23,0 -3.12,-1.4 -3.12,-4.21 0,-2.66 0.45,-5.94 1.78,-10 20.04,-70.89 51.35,-125.39 84.73,-163.81 3.57,-4.06 6.98,-5.93 10.54,-5.93zm344.28 267.66c32.65,0 118.27,-121.34 141.28,-157.88l0.88 -1.88c0,-4.99 -11.27,-12.33 -17.36,-12.33l-2.23 0.47c-22.11,29.82 -87.85,124.92 -105.66,124.92 -2.52,0 -4.29,-2.81 -4.29,-7.8 0,-3.13 0.43,-6.87 1.33,-11.4 9.94,-49.35 130.44,-338.56 204.78,-362.77 2.08,-0.47 3.42,-2.34 3.86,-4.68 0,-2.19 -1.33,-4.06 -3.11,-5.94 -18.7,-13.74 -37.69,-20.14 -55.21,-20.14 -22.99,0 -43.47,11.09 -59.06,29.83 -41.7,52.15 -73.45,119.77 -104.77,179.27 -10.09,-36.54 -42.59,-69.02 -56.54,-69.02 -70.04,0 -170.06,180.68 -170.06,264.38 0,14.68 3.12,26.55 10.09,33.89 6.53,5.93 41.7,20.14 55.65,20.14 13.06,0 78.21,-81.05 107.44,-128.05 -4.45,13.74 -11.87,41.54 -11.87,65.43 0,13.27 2.22,25.14 8.31,33.26 9.2,11.56 38.73,22.96 51.79,29.36 1.34,0.47 2.97,0.94 4.75,0.94zm-142.61 -83.24c-1.78,0 -2.67,-1.4 -2.67,-4.68 0,-2.19 0.45,-5.47 1.78,-9.53 20.04,-70.9 52.23,-124.46 85.18,-163.34 3.56,-4.06 7.42,-5.94 10.54,-5.94 13.8,0 24.78,27.96 28.19,41.23 -4.75,6.71 -104.32,142.26 -123.02,142.26zm423.08 -235.65c-89.63,0.47 -184.75,142.74 -184.75,237.37 0,46.69 23.44,81.99 82.5,81.99 33.99,0 73.61,-39.36 104.92,-90.11 27.75,-5.93 61.3,-31.7 93.35,-79.17 0.44,-0.47 0.44,-0.47 0.44,-0.94 0,-0.47 0,-0.94 -0.44,-1.41 -0.45,-0.93 -3.41,-1.4 -7.27,-1.4 -6.54,0 -14.4,1.4 -17.52,5.15 -20.33,26.08 -38.58,42.48 -53.42,50.75 21.82,-43.1 36.51,-89.32 36.51,-125.39 0,-23.74 -6.54,-42.95 -21.67,-53.57 2.08,-1.71 6.09,-6.4 6.98,-7.81 0.29,-0.78 0.74,-1.71 0.74,-2.65 0,-4.53 -8.16,-6.87 -17.36,-9.68 -7.42,-2.19 -15.14,-3.13 -23.01,-3.13zm24.79 55.75c4.75,0 6.97,4.69 6.97,12.81 0,25.14 -20.48,83.39 -46.6,132.74 -6.08,-6.87 -8.6,-19.21 -8.6,-33.89 0,-42.48 21.67,-104.32 46.45,-111.66l1.78 0zm-69.6 35.77c-7.87,21.39 -11.73,44.81 -11.73,66.36 0,30.61 8.32,57.63 27.9,67.62 -20.03,32.95 -41.85,57.63 -59.66,57.63 -4.29,0 -8.15,-1.25 -12.16,-4.53 -5.65,-4.53 -7.87,-13.74 -7.87,-26.08 0,-38.42 24.78,-107.91 63.52,-161zm468.2 -92.92c-69.16,0 -168.29,180.68 -168.29,264.38 0,15.15 3.57,27.02 10.54,34.36 5.64,6.4 41.25,20.61 54.76,20.61 12.61,0 77.31,-81.36 106.54,-128.05 -4.89,13.27 -12.16,40.6 -12.16,64.96 0,13.27 2.52,25.14 8.61,33.42 9.2,11.87 27.01,22.8 40.06,29.2 1.19,0.47 2.97,0.94 4.31,0.94 32.2,0 116.05,-120.87 138.75,-158.35 0.29,-0.47 0.29,-1.4 0.29,-1.72 0,-5.15 -10.83,-12.02 -16.47,-12.02 -1.34,0 -2.08,0 -2.52,0.47 -22.26,30.29 -86.52,128.67 -103.14,128.67 -2.52,0 -3.86,-2.34 -3.86,-7.34 0,-2.81 0.45,-6.87 1.34,-11.55 9.5,-48.41 41.26,-135.86 89.04,-205.35 1.34,-1.88 1.78,-3.6 1.78,-5.94 0,-16.55 -30.86,-40.76 -49.12,-40.76 -4.75,0 -8.76,1.41 -10.83,5 -10.54,16.09 -21.82,36.23 -33.54,58.09 -9.5,-36.07 -42.14,-69.02 -56.09,-69.02zm8.75 52.63c13.5,0 24.34,27.95 27.75,41.69 -4.75,6.87 -103.43,142.26 -121.68,142.26 -2.23,0 -3.12,-1.4 -3.12,-4.21 0,-2.66 0.45,-5.94 1.78,-10 20.04,-70.89 51.35,-125.39 84.73,-163.81 3.57,-4.06 6.98,-5.93 10.54,-5.93zm450.83 -46.7c-4.75,0 -8.31,1.41 -10.83,5 -24.34,38.1 -98.24,173.5 -98.24,245.8 0,13.74 2.53,25.14 8.61,32.95 9.2,11.87 27.45,22.8 40.06,29.2 0.9,0.47 1.64,0.47 2.53,0.47 16.92,0 63.95,-63.56 109.22,-131.33 -8.31,25.14 -13.51,49.03 -13.51,68.24 0,14.21 2.53,25.14 8.61,33.42 9.2,11.87 27.46,22.8 40.07,29.2 1.34,0.47 2.96,0.94 4.3,0.94 32.65,0 117.83,-120.87 140.83,-158.35 0.45,-0.47 0.45,-0.94 0.45,-1.72 0,-5.15 -10.83,-12.02 -16.93,-12.02 -1.33,0 -2.22,0 -2.67,0.47 -21.66,29.82 -86.51,123.05 -104.32,123.05 -2.52,0 -4.3,-2.18 -4.3,-8.12 0,-2.81 0.44,-6.4 1.34,-11.09 9.49,-48.41 41.25,-129.92 89.03,-199.41 1.34,-1.88 1.79,-3.6 1.79,-5.94 0,-16.55 -30.87,-40.76 -49.12,-40.76 -4.76,0 -8.61,1.41 -10.84,5 -1.34,1.87 -2.67,4.69 -4.3,7.34 -24.04,32.48 -152.26,245.33 -171.4,245.33 -1.63,0 -2.52,-1.41 -2.52,-4.68 0,-1.72 0.44,-4.06 0.89,-6.88 9.49,-48.41 41.25,-129.92 89.03,-199.41 1.34,-1.88 1.79,-3.6 1.79,-5.94 0,-16.08 -31.31,-40.76 -49.57,-40.76zm400.97 -5.93c-11.42,0 -50.45,44.82 -90.07,96.98 8.76,-17.81 18.7,-36.55 29.98,-55.75 0.88,-1.88 1.77,-3.75 1.77,-5.47 0,-14.68 -27.9,-31.7 -47.33,-31.7 -6.54,0 -12.17,2.34 -15.29,6.87 -45.26,67.77 -99.12,176.62 -106.1,258.6 0.44,13.75 22.26,51.69 39.62,51.69 5.2,0 9.94,-3.74 13.5,-12.33 2.53,-5.94 5.65,-13.28 9.51,-21.55 32.19,-65.43 95.26,-181.62 153.88,-237.99 2.23,-1.72 3.56,-2.66 4.75,-2.66 0.89,0 1.34,0.94 1.34,2.34 0,5.94 -6.53,20.93 -7.43,23.27 -12.91,32.48 -69.44,132.74 -69.44,189.89 0,10.94 2.07,20.62 6.97,27.49 7.72,11.87 24.78,22.8 37.24,29.2 1.34,0.47 2.67,0.94 4.46,0.94 32.2,0 125.99,-120.87 152.1,-158.35 0.45,-0.47 0.9,-1.4 0.9,-1.72 0,-5.15 -10.39,-12.02 -16.04,-12.02 -1.33,0 -2.22,0 -2.67,0.47 -23.89,29.82 -95.56,121.8 -113.52,121.8 -2.08,0 -3.85,-2.34 -3.85,-6.4 0,-3.28 0.89,-7.34 2.67,-13.27 15.58,-54.5 68.7,-124.46 68.7,-184.43 0,-8.75 -1.33,-17.8 -4,-26.08 -4.3,-13.74 -36.51,-39.82 -51.65,-39.82zm509.9 0c-11.72,0 -52.08,46.69 -92.59,100.26 8.75,-17.03 18.24,-34.83 29.52,-52.16 1.34,-1.88 1.79,-3.75 1.79,-5.94 0,-16.08 -29.53,-37.16 -48.24,-37.16 -5.18,0 -9.94,1.87 -12.61,5.93 -45.7,67.77 -99.57,176.62 -106.54,258.6 0.44,13.75 22.7,51.69 39.62,51.69 5.19,0 9.94,-3.74 13.5,-12.33 3.41,-7.34 7.27,-16.56 12.62,-27.02 31.61,-64.96 93.78,-175.68 152.55,-232.52 2.22,-1.72 3.41,-2.66 4.3,-2.66 0.9,0 1.33,0.94 1.33,2.34 0,5.94 -6.08,20.93 -6.97,23.27 -29.97,74.96 -63.96,118.06 -70.79,197.23 0.45,13.75 22.56,52.16 39.92,52.16 5.2,0 10.09,-3.75 13.95,-12.8 2.97,-7.81 7.42,-17.02 12.62,-27.96l2.97 -8.27c32.2,-65.43 83.1,-166.94 141.71,-223.31 2.24,-1.72 3.57,-2.66 4.46,-2.66 0.88,0 1.33,0.94 1.33,2.34 0,5.94 -6.23,20.93 -7.41,23.27 -12.62,32.48 -69.16,133.21 -69.16,190.36 0,10.93 1.78,20.15 6.52,27.02 7.87,11.87 25.23,22.8 37.41,29.2 1.33,0.47 2.96,0.94 4.3,0.94 32.64,0 126.13,-120.87 152.55,-158.35 0.45,-0.47 0.45,-1.4 0.45,-1.72 0,-5.15 -9.94,-12.02 -16.03,-12.02 -0.89,0 -1.78,0 -2.67,0.47 -23.89,29.82 -95.57,121.8 -113.37,121.8 -2.24,0 -4.01,-2.34 -4.01,-6.4 0,-3.28 0.89,-7.34 2.67,-13.27 15.58,-54.5 69.15,-124.93 69.15,-184.9 0,-8.74 -1.33,-17.33 -4.01,-25.61 -4.3,-13.74 -36.95,-39.82 -51.64,-39.82 -11.28,0 -49.12,43.41 -88.3,94.79 2.68,-12.02 3.86,-22.96 3.86,-32.95 0,-7.81 -0.74,-15.15 -2.97,-22.02 -4.3,-13.74 -36.94,-39.82 -51.79,-39.82zm316.1 5.93c-4.76,0 -8.32,1.41 -10.84,5 -24.33,38.1 -98.24,173.5 -98.24,245.8 0,13.74 2.53,25.14 8.61,32.95 9.2,11.87 27.46,22.8 40.07,29.2 0.89,0.47 1.63,0.47 2.52,0.47 16.92,0 63.96,-63.56 109.22,-131.33 -8.31,25.14 -13.5,49.03 -13.5,68.24 0,14.21 2.52,25.14 8.6,33.42 9.2,11.87 27.46,22.8 40.07,29.2 1.34,0.47 2.96,0.94 4.3,0.94 32.65,0 117.83,-120.87 140.83,-158.35 0.45,-0.47 0.45,-0.94 0.45,-1.72 0,-5.15 -10.83,-12.02 -16.92,-12.02 -1.33,0 -2.23,0 -2.67,0.47 -21.67,29.82 -86.52,123.05 -104.33,123.05 -2.51,0 -4.3,-2.18 -4.3,-8.12 0,-2.81 0.45,-6.4 1.34,-11.09 9.49,-48.41 41.25,-129.92 89.03,-199.41 1.34,-1.88 1.79,-3.6 1.79,-5.94 0,-16.55 -30.87,-40.76 -49.12,-40.76 -4.75,0 -8.61,1.41 -10.83,5 -1.34,1.87 -2.68,4.69 -4.31,7.34 -24.04,32.48 -152.25,245.33 -171.4,245.33 -1.63,0 -2.52,-1.41 -2.52,-4.68 0,-1.72 0.45,-4.06 0.89,-6.88 9.5,-48.41 41.26,-129.92 89.04,-199.41 1.33,-1.88 1.78,-3.6 1.78,-5.94 0,-16.08 -31.31,-40.76 -49.56,-40.76zm400.97 -5.93c-11.43,0 -50.46,44.82 -90.08,96.98 8.76,-17.81 18.7,-36.55 29.98,-55.75 0.88,-1.88 1.78,-3.75 1.78,-5.47 0,-14.68 -27.9,-31.7 -47.34,-31.7 -6.53,0 -12.17,2.34 -15.29,6.87 -45.26,67.77 -99.12,176.62 -106.1,258.6 0.44,13.75 22.26,51.69 39.62,51.69 5.2,0 9.94,-3.74 13.51,-12.33 2.52,-5.94 5.64,-13.28 9.5,-21.55 32.19,-65.43 95.26,-181.62 153.89,-237.99 2.22,-1.72 3.55,-2.66 4.74,-2.66 0.89,0 1.34,0.94 1.34,2.34 0,5.94 -6.53,20.93 -7.42,23.27 -12.92,32.48 -69.45,132.74 -69.45,189.89 0,10.94 2.07,20.62 6.97,27.49 7.72,11.87 24.78,22.8 37.25,29.2 1.34,0.47 2.67,0.94 4.45,0.94 32.2,0 125.99,-120.87 152.1,-158.35 0.45,-0.47 0.9,-1.4 0.9,-1.72 0,-5.15 -10.39,-12.02 -16.03,-12.02 -1.33,0 -2.23,0 -2.67,0.47 -23.89,29.82 -95.56,121.8 -113.52,121.8 -2.08,0 -3.86,-2.34 -3.86,-6.4 0,-3.28 0.89,-7.34 2.67,-13.27 15.58,-54.5 68.7,-124.46 68.7,-184.43 0,-8.75 -1.33,-17.8 -4,-26.08 -4.3,-13.74 -36.51,-39.82 -51.64,-39.82zm288.19 320.29c32.65,0 118.27,-121.34 141.27,-157.88l0.89 -1.88c0,-4.99 -11.27,-12.33 -17.36,-12.33l-2.23 0.47c-22.11,29.82 -87.85,124.92 -105.66,124.92 -2.52,0 -4.29,-2.81 -4.29,-7.8 0,-3.13 0.43,-6.87 1.33,-11.4 9.94,-49.35 130.44,-338.56 204.78,-362.77 2.08,-0.47 3.42,-2.34 3.86,-4.68 0,-2.19 -1.33,-4.06 -3.11,-5.94 -18.7,-13.74 -37.7,-20.14 -55.21,-20.14 -23,0 -43.47,11.09 -59.06,29.83 -41.7,52.15 -73.46,119.77 -104.77,179.27 -10.09,-36.54 -42.59,-69.02 -56.54,-69.02 -70.04,0 -170.06,180.68 -170.06,264.38 0,14.68 3.12,26.55 10.09,33.89 6.53,5.93 41.7,20.14 55.65,20.14 13.06,0 78.21,-81.05 107.44,-128.05 -4.45,13.74 -11.87,41.54 -11.87,65.43 0,13.27 2.22,25.14 8.3,33.26 9.21,11.56 38.74,22.96 51.79,29.36 1.34,0.47 2.98,0.94 4.76,0.94zm-142.61 -83.24c-1.78,0 -2.67,-1.4 -2.67,-4.68 0,-2.19 0.44,-5.47 1.77,-9.53 20.05,-70.9 52.24,-124.46 85.19,-163.34 3.56,-4.06 7.42,-5.94 10.54,-5.94 13.79,0 24.78,27.96 28.19,41.23 -4.75,6.71 -104.32,142.26 -123.02,142.26z"/>
   <path class="fil0" d="M6340.01 191.77c-89.63,0.47 -184.75,142.74 -184.75,237.37 0,46.69 23.44,81.99 82.5,81.99 33.99,0 73.61,-39.36 104.92,-90.11 27.75,-5.93 61.29,-31.7 93.35,-79.17 0.44,-0.47 0.44,-0.47 0.44,-0.94 0,-0.47 0,-0.94 -0.44,-1.41 -0.45,-0.93 -3.41,-1.4 -7.27,-1.4 -6.54,0 -14.4,1.4 -17.52,5.15 -20.33,26.08 -38.58,42.48 -53.42,50.75 21.82,-43.1 36.51,-89.32 36.51,-125.39 0,-23.74 -6.54,-42.95 -21.67,-53.57 2.07,-1.71 6.08,-6.4 6.98,-7.81 0.29,-0.78 0.74,-1.71 0.74,-2.65 0,-4.53 -8.16,-6.87 -17.36,-9.68 -7.42,-2.19 -15.14,-3.13 -23.01,-3.13zm24.78 55.75c4.76,0 6.98,4.69 6.98,12.81 0,25.14 -20.48,83.39 -46.6,132.74 -6.08,-6.87 -8.6,-19.21 -8.6,-33.89 0,-42.48 21.66,-104.32 46.45,-111.66l1.77 0zm-69.59 35.77c-7.87,21.39 -11.73,44.81 -11.73,66.36 0,30.61 8.31,57.63 27.9,67.62 -20.03,32.95 -41.85,57.63 -59.66,57.63 -4.29,0 -8.15,-1.25 -12.16,-4.53 -5.65,-4.53 -7.87,-13.74 -7.87,-26.08 0,-38.42 24.78,-107.91 63.52,-161zm529.48 -92.92c-11.72,0 -52.08,46.69 -92.59,100.26 8.75,-17.03 18.24,-34.83 29.52,-52.16 1.34,-1.88 1.79,-3.75 1.79,-5.94 0,-16.08 -29.54,-37.16 -48.24,-37.16 -5.19,0 -9.94,1.87 -12.61,5.93 -45.71,67.77 -99.57,176.62 -106.54,258.6 0.43,13.75 22.7,51.69 39.61,51.69 5.2,0 9.94,-3.74 13.51,-12.33 3.41,-7.34 7.27,-16.56 12.62,-27.02 31.6,-64.96 93.78,-175.68 152.55,-232.52 2.22,-1.72 3.41,-2.66 4.3,-2.66 0.89,0 1.33,0.94 1.33,2.34 0,5.94 -6.08,20.93 -6.97,23.27 -29.98,74.96 -63.96,118.06 -70.79,197.23 0.45,13.75 22.56,52.16 39.92,52.16 5.2,0 10.09,-3.75 13.95,-12.8 2.97,-7.81 7.42,-17.02 12.62,-27.96l2.97 -8.27c32.2,-65.43 83.1,-166.94 141.71,-223.31 2.23,-1.72 3.56,-2.66 4.46,-2.66 0.88,0 1.33,0.94 1.33,2.34 0,5.94 -6.24,20.93 -7.41,23.27 -12.62,32.48 -69.17,133.21 -69.17,190.36 0,10.93 1.79,20.15 6.53,27.02 7.87,11.87 25.23,22.8 37.41,29.2 1.33,0.47 2.96,0.94 4.3,0.94 32.64,0 126.13,-120.87 152.55,-158.35 0.45,-0.47 0.45,-1.4 0.45,-1.72 0,-5.15 -9.94,-12.02 -16.04,-12.02 -0.88,0 -1.77,0 -2.67,0.47 -23.89,29.82 -95.57,121.8 -113.36,121.8 -2.24,0 -4.01,-2.34 -4.01,-6.4 0,-3.28 0.89,-7.34 2.67,-13.27 15.58,-54.5 69.15,-124.93 69.15,-184.9 0,-8.74 -1.33,-17.33 -4.01,-25.61 -4.3,-13.74 -36.95,-39.82 -51.64,-39.82 -11.28,0 -49.12,43.41 -88.3,94.79 2.68,-12.02 3.86,-22.96 3.86,-32.95 0,-7.81 -0.74,-15.15 -2.97,-22.02 -4.3,-13.74 -36.94,-39.82 -51.79,-39.82zm369.96 0c-69.16,0 -168.28,180.68 -168.28,264.38 0,15.15 3.56,27.02 10.54,34.36 5.63,6.4 41.25,20.61 54.75,20.61 12.61,0 77.32,-81.36 106.55,-128.05 -4.9,13.27 -12.16,40.6 -12.16,64.96 0,13.27 2.51,25.14 8.6,33.42 9.2,11.87 27.01,22.8 40.07,29.2 1.19,0.47 2.96,0.94 4.3,0.94 32.21,0 116.05,-120.87 138.75,-158.35 0.3,-0.47 0.3,-1.4 0.3,-1.72 0,-5.15 -10.84,-12.02 -16.47,-12.02 -1.34,0 -2.08,0 -2.53,0.47 -22.25,30.29 -86.51,128.67 -103.13,128.67 -2.52,0 -3.86,-2.34 -3.86,-7.34 0,-2.81 0.45,-6.87 1.34,-11.55 9.49,-48.41 41.25,-135.86 89.03,-205.35 1.34,-1.88 1.79,-3.6 1.79,-5.94 0,-16.55 -30.87,-40.76 -49.12,-40.76 -4.75,0 -8.76,1.41 -10.84,5 -10.53,16.09 -21.81,36.23 -33.53,58.09 -9.5,-36.07 -42.15,-69.02 -56.1,-69.02zm8.76 52.63c13.5,0 24.33,27.95 27.74,41.69 -4.75,6.87 -103.42,142.26 -121.68,142.26 -2.22,0 -3.12,-1.4 -3.12,-4.21 0,-2.66 0.45,-5.94 1.78,-10 20.04,-70.89 51.35,-125.39 84.74,-163.81 3.56,-4.06 6.97,-5.93 10.54,-5.93zm134.74 -193.49l-0.89 0c-23.89,0 -67.82,86.83 -67.82,107.91 0,14.21 9.65,20.14 17.36,20.14 3.12,0 6.08,-0.93 7.87,-3.12 13.5,-14.68 60.85,-76.52 83.1,-87.45 0.74,-0.47 1.64,-1.41 1.64,-2.81 0,-9.06 -27.76,-33.26 -41.26,-34.67zm66.48 376.98c-2.23,0 -2.97,-1.41 -2.97,-4.69 0,-2.19 0.3,-5.46 1.64,-9.52 20.48,-70.9 51.79,-124.47 85.32,-163.35 3.86,-4.06 7.27,-5.93 10.84,-5.93 13.5,0 24.33,27.95 28.19,41.22 -5.2,6.87 -104.77,142.27 -123.02,142.27zm-106.1 291.39c6.08,0 12.16,-0.46 18.69,-1.4 169.18,-27.8 230.02,-340.75 322.17,-473.48 1.34,-1.88 2.23,-4.06 2.23,-5.94 0,-16.55 -31.76,-40.76 -50.45,-40.76 -4.31,0 -8.32,1.41 -10.39,5 -10.54,16.09 -21.82,36.23 -33.54,58.09 -9.94,-36.54 -43.03,-69.02 -56.98,-69.02 -69.6,0 -169.47,180.21 -169.47,264.07 0,14.99 2.96,26.86 10.38,34.2 6.08,5.93 41.7,20.14 55.65,20.14 12.62,0 77.31,-80.89 107.44,-128.05 -33.98,96.98 -103.58,262.2 -219.63,262.2 -40.8,0 -52.08,-21.09 -58.61,-38.89 -0.9,-1.4 -2.67,-2.34 -4.9,-2.34 -2.97,0 -6.09,1.4 -6.53,4.06l0 7.34c0,67.77 42.29,104.78 93.94,104.78zm496.53 -652.91c-2.22,0 -3.86,0.94 -5.19,1.88 -19.59,18.73 -43.48,59.02 -43.48,88.23 0,17.96 8.61,31.7 31.31,34.82 13.06,-30.14 33.84,-49.81 54.75,-81.36 1.34,-1.87 1.79,-3.75 1.79,-5.93 0,-14.68 -26.12,-37.17 -39.18,-37.64zm-79.99 131.33c-4.3,0 -8.3,1.41 -10.38,5 -24.34,38.1 -98.24,173.5 -98.24,245.8 0,13.74 2.53,24.67 8.61,32.95 9.2,11.87 27.01,22.8 40.06,29.2 1.19,0.47 2.97,0.94 4.31,0.94 32.65,0 117.82,-120.87 140.83,-158.35 0.44,-0.47 0.44,-0.94 0.44,-1.72 0,-5.15 -10.83,-12.02 -16.92,-12.02 -1.33,0 -2.22,0 -2.67,0.47 -21.67,29.82 -86.51,123.05 -104.32,123.05 -2.52,0 -4.31,-2.18 -4.31,-7.65 0,-3.28 0.45,-6.87 1.34,-11.56 9.5,-48.41 41.25,-129.92 89.03,-199.41 1.34,-1.88 1.79,-4.06 1.79,-5.94 0,-16.55 -31.31,-40.76 -49.57,-40.76zm186.09 -5.93c-50.01,0 -148.24,140.08 -148.24,237.05 0,26.55 7.42,49.82 25.22,66.22 12.17,11.55 31.76,17.95 49.56,17.95 5.2,0 9.95,-0.46 14.26,-1.4 58.31,-12.81 140.52,-116.19 176.59,-165.22 0.44,-0.94 0.89,-1.72 0.89,-2.19 0,-0.93 -0.45,-1.4 -0.45,-1.87 -0.89,-1.87 -4.45,-2.81 -9.21,-2.81 -7.71,0 -17.79,2.34 -21.21,6.4 -25.23,28.42 -117.38,132.74 -156.56,132.74 -8.76,0 -14.84,-5 -16.92,-16.87 -0.44,-3.28 -0.89,-6.4 -0.89,-10.15 0,-56.68 74.35,-156.47 113.82,-204.1 7.87,-9.06 12.61,-13.12 15.73,-13.12 1.79,0 2.67,1.72 2.67,4.06 0,10.93 -13.5,39.82 -33.09,57.16 -1.34,1.4 -2.22,2.81 -2.22,4.53 0,1.4 0.88,2.81 1.78,4.21 9.5,10 21.21,18.27 33.09,18.27 2.07,0 4.75,-0.47 6.83,-0.93 16.17,-5 31.75,-32.02 31.75,-55.75 0,-10.15 -2.97,-19.68 -9.94,-26.55 -20.04,-19.68 -46.89,-47.63 -73.46,-47.63zm246.49 1.4c-89.63,0.47 -184.75,142.74 -184.75,237.37 0,46.69 23.44,81.99 82.5,81.99 33.99,0 73.61,-39.36 104.92,-90.11 27.75,-5.93 61.29,-31.7 93.35,-79.17 0.44,-0.47 0.44,-0.47 0.44,-0.94 0,-0.47 0,-0.94 -0.44,-1.41 -0.45,-0.93 -3.41,-1.4 -7.27,-1.4 -6.54,0 -14.4,1.4 -17.52,5.15 -20.33,26.08 -38.58,42.48 -53.42,50.75 21.82,-43.1 36.51,-89.32 36.51,-125.39 0,-23.74 -6.54,-42.95 -21.67,-53.57 2.07,-1.71 6.08,-6.4 6.98,-7.81 0.29,-0.78 0.74,-1.71 0.74,-2.65 0,-4.53 -8.16,-6.87 -17.36,-9.68 -7.42,-2.19 -15.14,-3.13 -23.01,-3.13zm24.78 55.75c4.76,0 6.98,4.69 6.98,12.81 0,25.14 -20.48,83.39 -46.6,132.74 -6.08,-6.87 -8.6,-19.21 -8.6,-33.89 0,-42.48 21.66,-104.32 46.45,-111.66l1.77 0zm-69.59 35.77c-7.87,21.39 -11.73,44.81 -11.73,66.36 0,30.61 8.31,57.63 27.9,67.62 -20.03,32.95 -41.85,57.63 -59.66,57.63 -4.29,0 -8.15,-1.25 -12.16,-4.53 -5.65,-4.53 -7.87,-13.74 -7.87,-26.08 0,-38.42 24.78,-107.91 63.52,-161z"/>
  </g>
  <g id="_2004952536448">
   <path class="fil0" d="M1986.98 1488.84c5.19,0 10.54,-1.4 15.29,-4.21 0.89,-0.94 1.77,-2.19 1.77,-3.13 0,-1.87 -1.33,-4.21 -3.11,-4.68 -4.3,-1.25 -6.09,-6.87 -6.09,-13.74 0,-13.59 6.53,-33.27 8.32,-39.67 29.08,-111.19 151.22,-382.59 221.25,-404.93 1.79,-0.46 3.42,-2.34 3.42,-4.21l0 -0.78c0,-2.34 -0.75,-4.22 -2.52,-5.16 -19.14,-14.05 -37.84,-20.45 -55.21,-20.45 -23.14,0 -43.48,10.93 -58.76,29.67 -22.11,27.48 -62.18,93.85 -98.69,167.4 -23.89,31.55 -129.1,203.17 -147.8,203.17 -1.78,0 -2.52,-1.87 -2.52,-5 0,-2.34 0.29,-4.99 0.74,-8.27 9.2,-46.23 134.89,-333.57 206.12,-356.37 2.23,-0.46 3.42,-2.34 3.86,-4.21 0,-2.19 -0.74,-5 -2.52,-5.94 -19.14,-14.05 -37.84,-20.45 -55.65,-20.45 -22.71,0 -43.48,10.93 -58.77,29.67 -45.11,55.75 -167.84,274.06 -167.84,367.29 0,13.27 2.68,24.36 8.32,31.7 9.2,11.87 33.53,22.8 46.15,29.2l2.97 0.47c18.25,0 65.29,-63.56 107.88,-126.33 -14.84,41.22 -24.33,78.7 -24.33,105.72 0,27.48 30.86,63.24 57.72,63.24zm213.99 -361.51c-50.01,0 -147.95,140.39 -147.95,237.52 0,26.55 7.41,49.35 24.77,65.75 12.18,11.55 32.21,17.95 50.02,17.95 5.34,0 10.09,-0.46 14.39,-1.4 57.88,-12.81 142.17,-116.19 178.23,-165.22 0.45,-0.94 0.89,-1.72 0.89,-2.19 0,-0.93 -0.44,-1.4 -0.44,-1.87 -0.9,-1.87 -4.76,-2.81 -9.51,-2.81 -7.42,0 -17.36,2.34 -20.92,6.4 -25.22,28.42 -118.27,132.74 -158.19,132.74 -8.76,0 -14.84,-5 -17.06,-16.87 -0.45,-3.28 -0.74,-6.4 -0.74,-10.15 0,-19.67 8.6,-44.35 22.1,-70.43 12.17,10.93 26.57,19.68 36.96,22.02 1.33,0.47 2.96,0.47 4.3,0.47 40.96,0 109.22,-99.32 109.22,-141.95 0,-2.19 -0.45,-4.53 -0.89,-6.87 -3.11,-12.34 -27.45,-32.95 -41.4,-43.41 -10.83,-9.53 -34.29,-19.68 -43.78,-19.68zm36.95 45.75c-12.17,49.04 -59.22,128.53 -94.82,131.81 29.08,-52.16 73.45,-107.13 94.82,-131.81zm244.41 -45.75c-11.42,0 -50.45,44.82 -90.08,96.98 8.76,-17.81 18.7,-36.55 29.98,-55.75 0.89,-1.88 1.78,-3.75 1.78,-5.47 0,-14.68 -27.9,-31.7 -47.33,-31.7 -6.54,0 -12.18,2.34 -15.29,6.87 -45.27,67.77 -99.13,176.62 -106.1,258.6 0.44,13.75 22.25,51.69 39.62,51.69 5.19,0 9.93,-3.74 13.5,-12.33 2.53,-5.94 5.64,-13.28 9.5,-21.55 32.2,-65.43 95.27,-181.62 153.89,-237.99 2.22,-1.72 3.55,-2.66 4.74,-2.66 0.89,0 1.34,0.94 1.34,2.34 0,5.94 -6.53,20.93 -7.42,23.27 -12.91,32.48 -69.45,132.74 -69.45,189.89 0,10.94 2.07,20.62 6.98,27.49 7.71,11.87 24.77,22.8 37.24,29.2 1.34,0.47 2.67,0.94 4.46,0.94 32.19,0 125.98,-120.87 152.1,-158.35 0.44,-0.47 0.89,-1.4 0.89,-1.72 0,-5.15 -10.39,-12.02 -16.03,-12.02 -1.33,0 -2.22,0 -2.67,0.47 -23.89,29.82 -95.56,121.8 -113.52,121.8 -2.08,0 -3.86,-2.34 -3.86,-6.4 0,-3.28 0.89,-7.34 2.67,-13.27 15.59,-54.5 68.71,-124.46 68.71,-184.43 0,-8.75 -1.33,-17.8 -4,-26.08 -4.31,-13.74 -36.51,-39.82 -51.65,-39.82zm257.32 1.4c-89.63,0.47 -184.75,142.74 -184.75,237.37 0,46.69 23.44,81.99 82.5,81.99 34,0 73.61,-39.36 104.92,-90.11 27.75,-5.93 61.3,-31.7 93.35,-79.17 0.45,-0.47 0.45,-0.47 0.45,-0.94 0,-0.47 0,-0.94 -0.45,-1.41 -0.45,-0.93 -3.41,-1.4 -7.27,-1.4 -6.54,0 -14.4,1.4 -17.51,5.15 -20.34,26.08 -38.58,42.48 -53.43,50.75 21.82,-43.1 36.51,-89.32 36.51,-125.39 0,-23.74 -6.54,-42.95 -21.66,-53.57 2.07,-1.71 6.08,-6.4 6.97,-7.81 0.3,-0.78 0.74,-1.71 0.74,-2.65 0,-4.53 -8.16,-6.87 -17.36,-9.68 -7.42,-2.19 -15.14,-3.13 -23.01,-3.13zm24.79 55.75c4.75,0 6.97,4.69 6.97,12.81 0,25.14 -20.48,83.39 -46.6,132.74 -6.08,-6.87 -8.6,-19.21 -8.6,-33.89 0,-42.48 21.67,-104.32 46.45,-111.66l1.78 0zm-69.6 35.77c-7.87,21.39 -11.73,44.81 -11.73,66.36 0,30.61 8.32,57.63 27.9,67.62 -20.03,32.95 -41.85,57.63 -59.66,57.63 -4.29,0 -8.15,-1.25 -12.16,-4.53 -5.64,-4.53 -7.87,-13.74 -7.87,-26.08 0,-38.42 24.79,-107.91 63.52,-161zm525.18 227.37c32.65,0 118.27,-121.34 141.28,-157.88l0.88 -1.88c0,-4.99 -11.27,-12.33 -17.36,-12.33l-2.22 0.47c-22.12,29.82 -87.86,124.92 -105.66,124.92 -2.52,0 -4.3,-2.81 -4.3,-7.8 0,-3.13 0.44,-6.87 1.33,-11.4 9.94,-49.35 130.45,-338.56 204.79,-362.77 2.08,-0.47 3.42,-2.34 3.85,-4.68 0,-2.19 -1.33,-4.06 -3.1,-5.94 -18.7,-13.74 -37.7,-20.14 -55.21,-20.14 -23,0 -43.48,11.09 -59.06,29.83 -41.7,52.15 -73.46,119.77 -104.77,179.27 -10.09,-36.54 -42.59,-69.02 -56.54,-69.02 -70.05,0 -170.07,180.68 -170.07,264.38 0,14.68 3.12,26.55 10.1,33.89 6.52,5.93 41.69,20.14 55.64,20.14 13.06,0 78.21,-81.05 107.44,-128.05 -4.44,13.74 -11.87,41.54 -11.87,65.43 0,13.27 2.23,25.14 8.31,33.26 9.21,11.56 38.73,22.96 51.79,29.36 1.34,0.47 2.97,0.94 4.75,0.94zm-142.61 -83.24c-1.77,0 -2.67,-1.4 -2.67,-4.68 0,-2.19 0.45,-5.47 1.78,-9.53 20.04,-70.9 52.24,-124.46 85.18,-163.34 3.57,-4.06 7.42,-5.94 10.54,-5.94 13.8,0 24.78,27.96 28.2,41.23 -4.76,6.71 -104.33,142.26 -123.03,142.26zm388.36 -237.05c-50.01,0 -147.95,140.39 -147.95,237.52 0,26.55 7.42,49.35 24.78,65.75 12.17,11.55 32.2,17.95 50.01,17.95 5.34,0 10.09,-0.46 14.4,-1.4 57.87,-12.81 142.16,-116.19 178.22,-165.22 0.45,-0.94 0.9,-1.72 0.9,-2.19 0,-0.93 -0.45,-1.4 -0.45,-1.87 -0.89,-1.87 -4.75,-2.81 -9.5,-2.81 -7.43,0 -17.37,2.34 -20.93,6.4 -25.22,28.42 -118.27,132.74 -158.18,132.74 -8.76,0 -14.85,-5 -17.07,-16.87 -0.45,-3.28 -0.74,-6.4 -0.74,-10.15 0,-19.67 8.6,-44.35 22.1,-70.43 12.18,10.93 26.57,19.68 36.96,22.02 1.33,0.47 2.96,0.47 4.3,0.47 40.96,0 109.22,-99.32 109.22,-141.95 0,-2.19 -0.45,-4.53 -0.88,-6.87 -3.12,-12.34 -27.46,-32.95 -41.41,-43.41 -10.83,-9.53 -34.28,-19.68 -43.78,-19.68zm36.95 45.75c-12.16,49.04 -59.21,128.53 -94.82,131.81 29.08,-52.16 73.46,-107.13 94.82,-131.81zm402.17 -45.75c-69.16,0 -168.29,180.68 -168.29,264.38 0,15.15 3.57,27.02 10.54,34.36 5.64,6.4 41.25,20.61 54.76,20.61 12.61,0 77.31,-81.36 106.54,-128.05 -4.89,13.27 -12.16,40.6 -12.16,64.96 0,13.27 2.52,25.14 8.61,33.42 9.2,11.87 27,22.8 40.06,29.2 1.19,0.47 2.97,0.94 4.31,0.94 32.2,0 116.04,-120.87 138.75,-158.35 0.29,-0.47 0.29,-1.4 0.29,-1.72 0,-5.15 -10.83,-12.02 -16.47,-12.02 -1.34,0 -2.08,0 -2.53,0.47 -22.25,30.29 -86.51,128.67 -103.13,128.67 -2.52,0 -3.86,-2.34 -3.86,-7.34 0,-2.81 0.45,-6.87 1.34,-11.55 9.5,-48.41 41.25,-135.86 89.03,-205.35 1.34,-1.88 1.79,-3.6 1.79,-5.94 0,-16.55 -30.86,-40.76 -49.12,-40.76 -4.75,0 -8.76,1.41 -10.83,5 -10.54,16.09 -21.82,36.23 -33.54,58.09 -9.5,-36.07 -42.14,-69.02 -56.09,-69.02zm8.75 52.63c13.5,0 24.34,27.95 27.75,41.69 -4.75,6.87 -103.43,142.26 -121.69,142.26 -2.22,0 -3.11,-1.4 -3.11,-4.21 0,-2.66 0.44,-5.94 1.77,-10 20.05,-70.89 51.36,-125.39 84.74,-163.81 3.56,-4.06 6.98,-5.93 10.54,-5.93zm384.2 -105.73c-0.74,0 -2.08,0.47 -2.97,1.41 -1.34,1.41 -1.78,3.28 -1.78,4.53 0.89,4.21 1.34,8.74 1.34,13.74 0,91.51 -154.79,302.02 -184.32,302.02 -2.22,0 -4,-1.41 -4.3,-4.22 -0.44,-0.78 -0.44,-2.19 -0.44,-4.06 0,-2.81 0.44,-6.87 1.18,-11.4 9.65,-48.1 40.07,-126.8 87.85,-196.29 1.34,-1.88 1.79,-3.6 1.79,-5.94 0,-16.55 -30.87,-40.76 -49.12,-40.76 -4.76,0 -8.76,1.41 -10.84,5 -24.33,38.1 -98.24,173.5 -98.24,245.8 0,13.74 2.53,24.67 8.61,32.95 10.84,14.52 33.98,29.67 53.43,29.67 6.52,0 12.16,-1.41 17.5,-5 55.21,-38.41 203.9,-214.09 226.02,-286.4 2.22,-6.4 3.11,-12.33 3.11,-18.74 0,-27.48 -19.15,-53.09 -47.49,-62.31l-1.33 0zm159.67 53.1c-50.01,0 -147.95,140.39 -147.95,237.52 0,26.55 7.42,49.35 24.78,65.75 12.17,11.55 32.2,17.95 50.01,17.95 5.34,0 10.09,-0.46 14.4,-1.4 57.87,-12.81 142.16,-116.19 178.22,-165.22 0.45,-0.94 0.89,-1.72 0.89,-2.19 0,-0.93 -0.44,-1.4 -0.44,-1.87 -0.9,-1.87 -4.75,-2.81 -9.5,-2.81 -7.43,0 -17.37,2.34 -20.93,6.4 -25.22,28.42 -118.27,132.74 -158.18,132.74 -8.76,0 -14.85,-5 -17.07,-16.87 -0.45,-3.28 -0.74,-6.4 -0.74,-10.15 0,-19.67 8.6,-44.35 22.1,-70.43 12.18,10.93 26.57,19.68 36.96,22.02 1.33,0.47 2.96,0.47 4.3,0.47 40.96,0 109.22,-99.32 109.22,-141.95 0,-2.19 -0.45,-4.53 -0.89,-6.87 -3.11,-12.34 -27.45,-32.95 -41.4,-43.41 -10.83,-9.53 -34.28,-19.68 -43.78,-19.68zm36.95 45.75c-12.16,49.04 -59.21,128.53 -94.82,131.81 29.08,-52.16 73.46,-107.13 94.82,-131.81zm244.41 -45.75c-11.42,0 -50.45,44.82 -90.08,96.98 8.77,-17.81 18.71,-36.55 29.98,-55.75 0.89,-1.88 1.78,-3.75 1.78,-5.47 0,-14.68 -27.9,-31.7 -47.33,-31.7 -6.54,0 -12.17,2.34 -15.29,6.87 -45.26,67.77 -99.13,176.62 -106.1,258.6 0.44,13.75 22.26,51.69 39.62,51.69 5.2,0 9.94,-3.74 13.5,-12.33 2.53,-5.94 5.65,-13.28 9.5,-21.55 32.2,-65.43 95.27,-181.62 153.89,-237.99 2.23,-1.72 3.56,-2.66 4.74,-2.66 0.9,0 1.34,0.94 1.34,2.34 0,5.94 -6.53,20.93 -7.42,23.27 -12.91,32.48 -69.44,132.74 -69.44,189.89 0,10.94 2.07,20.62 6.97,27.49 7.72,11.87 24.77,22.8 37.24,29.2 1.34,0.47 2.67,0.94 4.46,0.94 32.19,0 125.99,-120.87 152.1,-158.35 0.45,-0.47 0.89,-1.4 0.89,-1.72 0,-5.15 -10.38,-12.02 -16.03,-12.02 -1.33,0 -2.22,0 -2.67,0.47 -23.89,29.82 -95.56,121.8 -113.52,121.8 -2.08,0 -3.86,-2.34 -3.86,-6.4 0,-3.28 0.9,-7.34 2.67,-13.27 15.59,-54.5 68.71,-124.46 68.71,-184.43 0,-8.75 -1.33,-17.8 -4,-26.08 -4.31,-13.74 -36.51,-39.82 -51.65,-39.82zm126.88 319.35c33.55,0 120.8,-121.18 144.4,-157.88l0.44 -1.72c0,-5.15 -11.43,-12.49 -17.51,-12.49l-2.52 0.47c-21.82,29.83 -88.75,124.93 -107,124.93 -2.52,0 -4.3,-2.66 -4.3,-8.28 0,-2.65 0.44,-6.4 1.34,-10.93 6.52,-32.01 69,-182.08 130.73,-279.53 41.85,0.47 72.27,1.41 85.33,1.87 3.41,0 46,-1.4 54.76,-49.03l0 -0.47c0,-1.25 -0.89,-2.19 -2.23,-2.19l-1.33 0.47c-8.16,7.34 -57.73,9.53 -108.63,9.53 17.37,-22.8 34.73,-38.42 49.12,-43.41 1.78,-0.47 3.42,-2.35 3.86,-4.53 0,-2.34 -1.19,-4.22 -2.97,-6.09 -18.69,-13.59 -37.84,-19.99 -55.2,-19.99 -23,0 -43.48,10.93 -59.22,29.67 -7.71,9.99 -18.24,25.14 -29.97,43.41l-20.03 -0.47c-3.86,0 -46.45,0.94 -55.21,49.04l0 0.47c0,1.4 0.89,2.18 2.23,2.18l1.33 -0.31c4.75,-4.22 22.56,-6.87 46.01,-8.28 -51.64,89.17 -111.75,215.98 -111.75,281.41 0,13.58 2.24,24.67 8.32,32.01 8.75,11.4 32.64,22.8 45.71,29.2 1.33,0.47 2.96,0.94 4.29,0.94zm199.6 -313.42c-4.75,0 -8.32,1.41 -10.83,5 -24.34,38.1 -98.24,173.5 -98.24,245.8 0,13.74 2.52,25.14 8.6,32.95 9.2,11.87 27.46,22.8 40.07,29.2 0.89,0.47 1.63,0.47 2.53,0.47 16.91,0 63.95,-63.56 109.21,-131.33 -8.3,25.14 -13.5,49.03 -13.5,68.24 0,14.21 2.53,25.14 8.61,33.42 9.2,11.87 27.45,22.8 40.06,29.2 1.34,0.47 2.97,0.94 4.31,0.94 32.65,0 117.82,-120.87 140.83,-158.35 0.44,-0.47 0.44,-0.94 0.44,-1.72 0,-5.15 -10.83,-12.02 -16.92,-12.02 -1.33,0 -2.22,0 -2.67,0.47 -21.67,29.82 -86.51,123.05 -104.32,123.05 -2.52,0 -4.31,-2.18 -4.31,-8.12 0,-2.81 0.45,-6.4 1.34,-11.09 9.5,-48.41 41.25,-129.92 89.03,-199.41 1.34,-1.88 1.79,-3.6 1.79,-5.94 0,-16.55 -30.86,-40.76 -49.12,-40.76 -4.75,0 -8.61,1.41 -10.83,5 -1.34,1.87 -2.67,4.69 -4.31,7.34 -24.04,32.48 -152.25,245.33 -171.4,245.33 -1.62,0 -2.52,-1.41 -2.52,-4.68 0,-1.72 0.45,-4.06 0.9,-6.88 9.49,-48.41 41.25,-129.92 89.03,-199.41 1.34,-1.88 1.78,-3.6 1.78,-5.94 0,-16.08 -31.31,-40.76 -49.56,-40.76zm420.86 -29.2c-14.25,0 -87.41,91.51 -133.41,157.26 12.61,-28.27 27.3,-56.22 45.26,-81.36 1.19,-1.88 1.63,-3.6 1.63,-5.94 0,-16.08 -30.87,-40.76 -49.12,-40.76 -4.75,0 -8.6,1.41 -10.83,5 -43.93,67.77 -95.27,176.62 -100.46,258.6 0.88,13.75 24.77,52.16 41.7,52.16 4.89,0 9.64,-3.75 12.31,-12.8 20.77,-69.18 73.91,-156.01 127.33,-222.38 -9.95,27.49 -19.15,58.1 -19.15,83.71 0,25.14 8.75,44.81 33.54,50.75 1.63,0.47 2.97,0.47 4.75,0.47 27.3,0 82.95,-43.42 107.73,-65.44 1.79,-1.87 2.67,-3.12 2.67,-4.06 0,-3.27 -6.08,-4.68 -13.06,-4.68 -7.42,0 -15.57,1.41 -18.69,4.22 -13.06,11.4 -31.31,24.67 -43.04,24.67 -2.22,0 -3.85,0 -5.19,-0.94 -5.64,-2.65 -7.86,-7.34 -7.86,-12.8 0,-32.02 72.11,-101.51 72.11,-139.92 0,-1.88 -0.29,-4.22 -0.74,-5.94 -2.22,-7.34 -12.61,-19.36 -24.33,-28.89l0.29 -0.47c-9.05,-6.4 -17.81,-10.46 -23.44,-10.46zm164.72 23.27c-69.16,0 -168.29,180.68 -168.29,264.38 0,15.15 3.57,27.02 10.54,34.36 5.64,6.4 41.25,20.61 54.76,20.61 12.61,0 77.31,-81.36 106.54,-128.05 -4.89,13.27 -12.16,40.6 -12.16,64.96 0,13.27 2.52,25.14 8.61,33.42 9.2,11.87 27.01,22.8 40.06,29.2 1.19,0.47 2.97,0.94 4.31,0.94 32.2,0 116.05,-120.87 138.75,-158.35 0.29,-0.47 0.29,-1.4 0.29,-1.72 0,-5.15 -10.83,-12.02 -16.47,-12.02 -1.34,0 -2.08,0 -2.52,0.47 -22.26,30.29 -86.52,128.67 -103.14,128.67 -2.52,0 -3.86,-2.34 -3.86,-7.34 0,-2.81 0.45,-6.87 1.34,-11.55 9.5,-48.41 41.26,-135.86 89.04,-205.35 1.34,-1.88 1.78,-3.6 1.78,-5.94 0,-16.55 -30.86,-40.76 -49.12,-40.76 -4.75,0 -8.76,1.41 -10.83,5 -10.54,16.09 -21.82,36.23 -33.54,58.09 -9.5,-36.07 -42.14,-69.02 -56.09,-69.02zm8.75 52.63c13.5,0 24.34,27.95 27.75,41.69 -4.75,6.87 -103.43,142.26 -121.68,142.26 -2.23,0 -3.12,-1.4 -3.12,-4.21 0,-2.66 0.45,-5.94 1.78,-10 20.04,-70.89 51.35,-125.39 84.73,-163.81 3.57,-4.06 6.98,-5.93 10.54,-5.93zm267.7 -53.1c-1.18,0 -2.07,0.47 -2.96,0.47 -23.44,8.74 -79.54,44.82 -85.63,94.79l0 5c0,5.46 0.45,10.93 1.63,16.86 -11.71,14.21 -22.99,28.89 -33.38,44.82 -1.79,2.34 -2.23,4.69 -2.23,7.34 0,3.75 1.78,7.34 4.75,9.68 2.22,1.72 4.46,2.19 6.53,2.19 4.01,0 7.42,-1.72 9.64,-5 7.42,-10.93 15.14,-22.02 23.01,-32.01 8.3,21.55 17.36,43.88 17.36,62.62l0 1.4c-0.89,40.76 -33.84,61.84 -67.82,61.84 -19.14,0 -39.03,-6.87 -53.43,-20.14 -0.88,-0.94 -1.33,-0.94 -2.22,-0.94 -2.07,0 -4.3,1.88 -4.3,3.59 0,0.47 0.44,0.94 0.44,1.41 15.59,45.76 56.99,68.24 96.9,68.24 41.71,0 82.22,-25.14 88.3,-74.17 0.45,-5 0.9,-9.53 0.9,-14.68 0,-40.29 -19.6,-79.49 -19.6,-112.91 0,-16.55 4.75,-31.54 18.26,-44.82 17.36,-16.55 45.7,-32.95 45.7,-32.95 0.3,-1.4 0.3,-3.28 0.3,-4.68 0,-20.15 -29.97,-37.95 -42.15,-37.95zm222.3 527.98c78.21,0 141.73,-70.43 191.73,-165.22 52.98,-98.69 89.49,-222.68 150.33,-309.66 1.34,-1.88 1.78,-3.6 1.78,-5.94 0,-16.08 -31.76,-40.76 -50.46,-40.76 -4.29,0 -8.16,1.41 -10.38,5 -33.54,54.97 -158.63,250.33 -177.34,250.33 -1.34,0 -2.22,-0.94 -2.22,-4.06l0.88 -5.62c9.51,-48.41 41.71,-129.46 89.94,-198.95 1.33,-1.88 1.78,-3.6 1.78,-5.94 0,-16.08 -31.76,-40.76 -50.45,-40.76 -4.31,0 -8.17,1.41 -10.39,5 -24.78,38.1 -99.13,172.56 -99.13,244.86 0,13.74 2.67,25.14 8.75,33.42 9.05,11.4 27.31,22.8 39.92,29.2l2.67 0.47c16.91,0 61.73,-60.43 106.4,-125.86 -22.56,51.68 -45.55,103.06 -72.56,149.13 -35.62,61.84 -81.33,110.41 -145.14,110.41 -40.95,0 -51.79,-21.09 -58.76,-38.89 -0.45,-1.4 -2.52,-2.34 -4.75,-2.34 -2.67,0 -5.64,1.4 -6.09,4.06l0 7.34c0,67.77 42.15,104.78 93.49,104.78z"/>
  </g>
  <g id="_2004952536208">
   <path class="fil0" d="M1830.12 2063.83c-1.18,0 -2.07,0.47 -2.96,0.47 -23.45,8.74 -79.54,44.82 -85.63,94.79l0 5c0,5.46 0.45,10.93 1.63,16.86 -11.71,14.21 -22.99,28.89 -33.38,44.82 -1.79,2.34 -2.23,4.69 -2.23,7.34 0,3.75 1.78,7.34 4.75,9.68 2.22,1.72 4.45,2.19 6.53,2.19 4.01,0 7.42,-1.72 9.64,-5 7.42,-10.93 15.14,-22.02 23.01,-32.01 8.3,21.55 17.36,43.88 17.36,62.62l0 1.4c-0.89,40.76 -33.84,61.84 -67.82,61.84 -19.14,0 -39.03,-6.87 -53.43,-20.14 -0.88,-0.94 -1.33,-0.94 -2.22,-0.94 -2.07,0 -4.3,1.88 -4.3,3.59 0,0.47 0.44,0.94 0.44,1.41 15.59,45.76 56.99,68.24 96.9,68.24 41.71,0 82.22,-25.14 88.3,-74.17 0.45,-5 0.89,-9.53 0.89,-14.68 0,-40.29 -19.59,-79.49 -19.59,-112.91 0,-16.55 4.75,-31.54 18.26,-44.82 17.36,-16.55 45.7,-32.95 45.7,-32.95 0.3,-1.4 0.3,-3.28 0.3,-4.68 0,-20.15 -29.97,-37.95 -42.15,-37.95zm139.65 6.4c-4.75,0 -8.32,1.41 -10.84,5 -24.33,38.1 -98.24,173.5 -98.24,245.8 0,13.74 2.53,25.14 8.61,32.95 9.2,11.87 27.46,22.8 40.07,29.2 0.89,0.47 1.63,0.47 2.52,0.47 16.92,0 63.96,-63.56 109.22,-131.33 -8.31,25.14 -13.5,49.03 -13.5,68.24 0,14.21 2.52,25.14 8.61,33.42 9.2,11.87 27.45,22.8 40.06,29.2 1.34,0.47 2.96,0.94 4.3,0.94 32.66,0 117.83,-120.87 140.84,-158.35 0.44,-0.47 0.44,-0.94 0.44,-1.72 0,-5.15 -10.83,-12.02 -16.92,-12.02 -1.33,0 -2.23,0 -2.67,0.47 -21.67,29.82 -86.52,123.05 -104.32,123.05 -2.52,0 -4.31,-2.18 -4.31,-8.12 0,-2.81 0.45,-6.4 1.34,-11.09 9.49,-48.41 41.25,-129.92 89.03,-199.41 1.34,-1.88 1.79,-3.6 1.79,-5.94 0,-16.55 -30.87,-40.76 -49.12,-40.76 -4.75,0 -8.61,1.41 -10.83,5 -1.34,1.87 -2.67,4.69 -4.31,7.34 -24.04,32.48 -152.25,245.33 -171.4,245.33 -1.62,0 -2.52,-1.41 -2.52,-4.68 0,-1.72 0.45,-4.06 0.9,-6.88 9.49,-48.41 41.25,-129.92 89.03,-199.41 1.34,-1.88 1.78,-3.6 1.78,-5.94 0,-16.08 -31.31,-40.76 -49.56,-40.76zm332.71 -5.93c-50.01,0 -147.95,140.39 -147.95,237.52 0,26.55 7.41,49.35 24.77,65.75 12.18,11.55 32.21,17.95 50.02,17.95 5.34,0 10.09,-0.46 14.39,-1.4 57.88,-12.81 142.16,-116.19 178.23,-165.22 0.44,-0.94 0.89,-1.72 0.89,-2.19 0,-0.93 -0.45,-1.4 -0.45,-1.87 -0.89,-1.87 -4.75,-2.81 -9.5,-2.81 -7.42,0 -17.36,2.34 -20.92,6.4 -25.22,28.42 -118.28,132.74 -158.19,132.74 -8.76,0 -14.84,-5 -17.06,-16.87 -0.45,-3.28 -0.74,-6.4 -0.74,-10.15 0,-19.67 8.6,-44.35 22.1,-70.43 12.17,10.93 26.57,19.68 36.95,22.02 1.34,0.47 2.97,0.47 4.31,0.47 40.96,0 109.22,-99.32 109.22,-141.95 0,-2.19 -0.45,-4.53 -0.89,-6.87 -3.12,-12.34 -27.45,-32.95 -41.4,-43.41 -10.84,-9.53 -34.29,-19.68 -43.78,-19.68zm36.95 45.75c-12.17,49.04 -59.22,128.53 -94.82,131.81 29.07,-52.16 73.45,-107.13 94.82,-131.81zm244.41 -45.75c-11.43,0 -50.45,44.82 -90.08,96.98 8.76,-17.81 18.7,-36.55 29.98,-55.75 0.89,-1.88 1.78,-3.75 1.78,-5.47 0,-14.68 -27.9,-31.7 -47.34,-31.7 -6.53,0 -12.17,2.34 -15.28,6.87 -45.27,67.77 -99.13,176.62 -106.1,258.6 0.43,13.75 22.25,51.69 39.61,51.69 5.2,0 9.94,-3.74 13.51,-12.33 2.52,-5.94 5.64,-13.28 9.5,-21.55 32.2,-65.43 95.27,-181.62 153.89,-237.99 2.22,-1.72 3.55,-2.66 4.74,-2.66 0.89,0 1.34,0.94 1.34,2.34 0,5.94 -6.53,20.93 -7.42,23.27 -12.92,32.48 -69.45,132.74 -69.45,189.89 0,10.94 2.07,20.62 6.98,27.49 7.71,11.87 24.77,22.8 37.24,29.2 1.34,0.47 2.67,0.94 4.45,0.94 32.2,0 125.99,-120.87 152.11,-158.35 0.44,-0.47 0.89,-1.4 0.89,-1.72 0,-5.15 -10.39,-12.02 -16.03,-12.02 -1.33,0 -2.23,0 -2.67,0.47 -23.89,29.82 -95.56,121.8 -113.52,121.8 -2.08,0 -3.86,-2.34 -3.86,-6.4 0,-3.28 0.89,-7.34 2.67,-13.27 15.58,-54.5 68.71,-124.46 68.71,-184.43 0,-8.75 -1.34,-17.8 -4.01,-26.08 -4.3,-13.74 -36.51,-39.82 -51.64,-39.82zm52.98 -71.83c-13.96,0 -30.42,4.06 -46.89,9.68 -15.74,5.46 -32.21,9.05 -46.6,9.05 -13.95,0 -26.12,-3.59 -35.17,-12.8 0,-0.47 -0.45,-0.47 -1.34,-0.47 -2.67,0 -6.53,9.21 -6.53,19.68 0,11.4 4.3,25.14 18.7,30.29 4.75,1.72 10.83,2.66 16.91,2.66 17.37,0 39.18,-5.94 60.11,-12.81 14.69,-4.53 30.42,-8.27 44.22,-8.27 12.62,0 23.59,3.27 31.31,11.55 0.44,0.94 1.34,1.25 1.78,1.25 1.34,0 2.23,-1.25 2.23,-5.47l0 -2.18c0,-32.01 -16.18,-42.16 -38.73,-42.16zm204.34 73.23c-89.63,0.47 -184.75,142.74 -184.75,237.37 0,46.69 23.44,81.99 82.5,81.99 33.99,0 73.61,-39.36 104.92,-90.11 27.75,-5.93 61.3,-31.7 93.35,-79.17 0.45,-0.47 0.45,-0.47 0.45,-0.94 0,-0.47 0,-0.94 -0.45,-1.41 -0.45,-0.93 -3.41,-1.4 -7.27,-1.4 -6.54,0 -14.4,1.4 -17.51,5.15 -20.34,26.08 -38.59,42.48 -53.43,50.75 21.82,-43.1 36.51,-89.32 36.51,-125.39 0,-23.74 -6.54,-42.95 -21.67,-53.57 2.08,-1.71 6.09,-6.4 6.98,-7.81 0.29,-0.78 0.74,-1.71 0.74,-2.65 0,-4.53 -8.16,-6.87 -17.36,-9.68 -7.42,-2.19 -15.14,-3.13 -23.01,-3.13zm24.79 55.75c4.75,0 6.97,4.69 6.97,12.81 0,25.14 -20.48,83.39 -46.6,132.74 -6.08,-6.87 -8.6,-19.21 -8.6,-33.89 0,-42.48 21.67,-104.32 46.45,-111.66l1.78 0zm-69.6 35.77c-7.87,21.39 -11.73,44.81 -11.73,66.36 0,30.61 8.32,57.63 27.9,67.62 -20.03,32.95 -41.85,57.63 -59.66,57.63 -4.29,0 -8.15,-1.25 -12.16,-4.53 -5.65,-4.53 -7.87,-13.74 -7.87,-26.08 0,-38.42 24.78,-107.91 63.52,-161zm231.2 -93.39c-1.19,0 -2.07,0.47 -2.96,0.47 -23.45,8.74 -79.54,44.82 -85.63,94.79l0 5c0,5.46 0.44,10.93 1.63,16.86 -11.72,14.21 -23,28.89 -33.38,44.82 -1.79,2.34 -2.24,4.69 -2.24,7.34 0,3.75 1.79,7.34 4.76,9.68 2.22,1.72 4.45,2.19 6.52,2.19 4.01,0 7.43,-1.72 9.65,-5 7.42,-10.93 15.14,-22.02 23.01,-32.01 8.3,21.55 17.36,43.88 17.36,62.62l0 1.4c-0.9,40.76 -33.84,61.84 -67.82,61.84 -19.14,0 -39.03,-6.87 -53.43,-20.14 -0.88,-0.94 -1.33,-0.94 -2.22,-0.94 -2.07,0 -4.31,1.88 -4.31,3.59 0,0.47 0.45,0.94 0.45,1.41 15.58,45.76 56.99,68.24 96.9,68.24 41.71,0 82.22,-25.14 88.3,-74.17 0.45,-5 0.89,-9.53 0.89,-14.68 0,-40.29 -19.59,-79.49 -19.59,-112.91 0,-16.55 4.75,-31.54 18.25,-44.82 17.36,-16.55 45.71,-32.95 45.71,-32.95 0.3,-1.4 0.3,-3.28 0.3,-4.68 0,-20.15 -29.98,-37.95 -42.15,-37.95zm335.23 272.19c-6.38,0 -12.47,-2.19 -18.25,-7.34 46.6,-70.9 124.81,-175.99 165.32,-215.03 2.51,-2.19 4.3,-3.13 5.63,-3.13 1.34,0 2.08,1.41 2.08,3.59 0,29.36 -93.34,221.91 -154.78,221.91zm-159.97 197.23c16.62,0 31.76,-4.99 40.51,-16.08 33.84,-42.95 60.85,-102.44 88.6,-167.88 13.5,15.62 31.31,29.36 55.64,33.89 3.57,0.94 7.43,1.41 11.43,1.41 81.62,0 180.01,-163.82 180.01,-252.05 0,-10.62 -1.34,-20.14 -4.46,-27.95 -5.63,-15.15 -40.36,-40.29 -53.86,-40.29 -16.48,0 -71.68,64.96 -123.47,138.2 11.73,-22.95 23.89,-46.22 37.39,-68.24 4.75,-7.65 9.06,-14.52 13.95,-21.39 1.19,-1.88 1.64,-4.22 1.64,-5.94 0,-16.55 -31.31,-40.76 -49.57,-40.76 -4.74,0 -8.6,1.41 -10.83,5 -86.96,133.52 -191.73,436.47 -249.6,436.47 13.95,15.93 39.61,25.61 62.62,25.61zm666.9 -147.26c5.19,0 9.64,-3.75 12.16,-12.8 20.48,-69.65 73.46,-155.54 127.03,-221.91 -10.09,27.33 -19.14,58.56 -19.14,83.7 0,26.08 9.5,47.63 37.84,50.76 26.86,0 82.96,-42.95 107.74,-64.97 1.78,-1.87 2.67,-3.12 2.67,-4.06 0,-3.74 -6.08,-5.15 -13.06,-5.15 -7.42,0 -15.58,1.87 -18.7,4.22 -13.06,11.4 -31.31,25.14 -43.48,25.14 -8.31,0 -12.61,-7.34 -12.61,-13.74 0,-31.55 71.82,-101.04 71.82,-139.14 -1.78,-12.34 -5.34,-19.68 -24.79,-35.61l0.31 -0.47c-9.06,-5.93 -17.81,-10.46 -23.45,-10.46 -13.8,0 -87.41,91.51 -132.97,157.25 13.51,-30.13 31.76,-66.21 31.76,-99.16 0,-27.95 -13.06,-53.09 -54.01,-70.58 -16.92,-7.66 -37.41,-10.47 -58.18,-10.47 -47.48,0 -99.57,15.15 -131.77,31.08 -13.51,6.4 -23.45,16.55 -23.45,36.7 0,8.12 1.78,17.8 5.19,29.67 -7.42,-5.47 -15.57,-9.53 -23.89,-9.53 -36.06,0 -100.46,121.65 -100.46,201.3 0,47.47 24.78,77.3 80.43,77.3 66.03,0 161.76,-140.08 161.76,-229.72 0,-39.35 -16.93,-69.49 -57.44,-75.89 34.43,-23.43 64.85,-33.89 87.85,-33.89 27.46,0 44.37,15.15 44.37,43.88 0,16.55 -5.63,37.17 -17.81,61.84 -29.08,59.03 -54.3,126.65 -57.87,182.55 0.9,13.75 25.23,52.16 42.15,52.16zm-201.68 -35.29c-7.41,0 -11.72,-5.47 -11.72,-19.21 0,-4.06 0.45,-9.68 1.33,-15.61 8.61,-48.88 62.18,-139.93 72.58,-156.79 1.33,-1.87 1.77,-4.22 1.77,-6.87 0,-6.09 -2.67,-13.28 -6.97,-20.61 12.61,-7.81 26.11,-12.34 37.84,-12.34 19.15,0 33.84,11.87 33.84,37.95 0,61.68 -93.5,193.01 -128.67,193.48zm847.8 33.89c32.65,0 118.27,-121.34 141.28,-157.88l0.88 -1.88c0,-4.99 -11.27,-12.33 -17.36,-12.33l-2.22 0.47c-22.12,29.82 -87.86,124.92 -105.66,124.92 -2.52,0 -4.3,-2.81 -4.3,-7.8 0,-3.13 0.44,-6.87 1.33,-11.4 9.94,-49.35 130.45,-338.56 204.79,-362.77 2.08,-0.47 3.42,-2.34 3.85,-4.68 0,-2.19 -1.33,-4.06 -3.1,-5.94 -18.71,-13.74 -37.7,-20.14 -55.22,-20.14 -22.99,0 -43.47,11.09 -59.05,29.83 -41.7,52.15 -73.46,119.77 -104.77,179.27 -10.1,-36.54 -42.59,-69.02 -56.54,-69.02 -70.05,0 -170.07,180.68 -170.07,264.38 0,14.68 3.12,26.55 10.1,33.89 6.52,5.93 41.69,20.14 55.64,20.14 13.06,0 78.21,-81.05 107.44,-128.05 -4.45,13.74 -11.87,41.54 -11.87,65.43 0,13.27 2.23,25.14 8.31,33.26 9.21,11.56 38.73,22.96 51.79,29.36 1.34,0.47 2.97,0.94 4.75,0.94zm-142.61 -83.24c-1.78,0 -2.67,-1.4 -2.67,-4.68 0,-2.19 0.45,-5.47 1.78,-9.53 20.04,-70.9 52.24,-124.46 85.18,-163.34 3.57,-4.06 7.42,-5.94 10.54,-5.94 13.8,0 24.78,27.96 28.19,41.23 -4.75,6.71 -104.32,142.26 -123.02,142.26zm388.36 -237.05c-50.01,0 -147.95,140.39 -147.95,237.52 0,26.55 7.42,49.35 24.78,65.75 12.17,11.55 32.2,17.95 50.01,17.95 5.34,0 10.09,-0.46 14.4,-1.4 57.87,-12.81 142.16,-116.19 178.22,-165.22 0.45,-0.94 0.89,-1.72 0.89,-2.19 0,-0.93 -0.44,-1.4 -0.44,-1.87 -0.9,-1.87 -4.75,-2.81 -9.5,-2.81 -7.43,0 -17.37,2.34 -20.93,6.4 -25.22,28.42 -118.27,132.74 -158.18,132.74 -8.76,0 -14.85,-5 -17.07,-16.87 -0.45,-3.28 -0.74,-6.4 -0.74,-10.15 0,-19.67 8.6,-44.35 22.1,-70.43 12.18,10.93 26.57,19.68 36.96,22.02 1.33,0.47 2.96,0.47 4.3,0.47 40.96,0 109.22,-99.32 109.22,-141.95 0,-2.19 -0.45,-4.53 -0.89,-6.87 -3.11,-12.34 -27.45,-32.95 -41.4,-43.41 -10.83,-9.53 -34.28,-19.68 -43.78,-19.68zm36.95 45.75c-12.16,49.04 -59.21,128.53 -94.82,131.81 29.08,-52.16 73.46,-107.13 94.82,-131.81zm165.17 -46.22c-1.19,0 -2.07,0.47 -2.97,0.47 -23.44,8.74 -79.54,44.82 -85.63,94.79l0 5c0,5.46 0.45,10.93 1.64,16.86 -11.72,14.21 -23,28.89 -33.39,44.82 -1.78,2.34 -2.23,4.69 -2.23,7.34 0,3.75 1.79,7.34 4.75,9.68 2.23,1.72 4.46,2.19 6.53,2.19 4.01,0 7.42,-1.72 9.65,-5 7.42,-10.93 15.13,-22.02 23,-32.01 8.31,21.55 17.36,43.88 17.36,62.62l0 1.4c-0.89,40.76 -33.84,61.84 -67.82,61.84 -19.14,0 -39.03,-6.87 -53.42,-20.14 -0.89,-0.94 -1.33,-0.94 -2.23,-0.94 -2.07,0 -4.3,1.88 -4.3,3.59 0,0.47 0.45,0.94 0.45,1.41 15.58,45.76 56.98,68.24 96.9,68.24 41.7,0 82.21,-25.14 88.3,-74.17 0.44,-5 0.89,-9.53 0.89,-14.68 0,-40.29 -19.6,-79.49 -19.6,-112.91 0,-16.55 4.76,-31.54 18.26,-44.82 17.36,-16.55 45.71,-32.95 45.71,-32.95 0.29,-1.4 0.29,-3.28 0.29,-4.68 0,-20.15 -29.97,-37.95 -42.14,-37.95zm191.73 0.47c-50.01,0 -148.25,140.08 -148.25,237.05 0,26.55 7.42,49.82 25.23,66.22 12.16,11.55 31.76,17.95 49.56,17.95 5.2,0 9.95,-0.46 14.25,-1.4 58.32,-12.81 140.53,-116.19 176.59,-165.22 0.45,-0.94 0.9,-1.72 0.9,-2.19 0,-0.93 -0.45,-1.4 -0.45,-1.87 -0.89,-1.87 -4.46,-2.81 -9.21,-2.81 -7.71,0 -17.8,2.34 -21.22,6.4 -25.22,28.42 -117.38,132.74 -156.56,132.74 -8.75,0 -14.83,-5 -16.91,-16.87 -0.45,-3.28 -0.9,-6.4 -0.9,-10.15 0,-56.68 74.35,-156.47 113.83,-204.1 7.87,-9.06 12.61,-13.12 15.73,-13.12 1.78,0 2.67,1.72 2.67,4.06 0,10.93 -13.51,39.82 -33.09,57.16 -1.34,1.4 -2.23,2.81 -2.23,4.53 0,1.4 0.89,2.81 1.78,4.21 9.5,10 21.22,18.27 33.1,18.27 2.07,0 4.74,-0.47 6.82,-0.93 16.18,-5 31.76,-32.02 31.76,-55.75 0,-10.15 -2.97,-19.68 -9.95,-26.55 -20.03,-19.68 -46.89,-47.63 -73.45,-47.63zm166.5 5.93c-4.75,0 -8.31,1.41 -10.83,5 -24.34,38.1 -98.24,173.5 -98.24,245.8 0,13.74 2.53,25.14 8.61,32.95 9.2,11.87 27.45,22.8 40.06,29.2 0.9,0.47 1.64,0.47 2.53,0.47 16.92,0 63.95,-63.56 109.22,-131.33 -8.31,25.14 -13.51,49.03 -13.51,68.24 0,14.21 2.53,25.14 8.61,33.42 9.2,11.87 27.46,22.8 40.07,29.2 1.34,0.47 2.96,0.94 4.3,0.94 32.65,0 117.83,-120.87 140.83,-158.35 0.45,-0.47 0.45,-0.94 0.45,-1.72 0,-5.15 -10.83,-12.02 -16.93,-12.02 -1.33,0 -2.22,0 -2.67,0.47 -21.66,29.82 -86.51,123.05 -104.32,123.05 -2.52,0 -4.3,-2.18 -4.3,-8.12 0,-2.81 0.44,-6.4 1.34,-11.09 9.49,-48.41 41.25,-129.92 89.03,-199.41 1.34,-1.88 1.79,-3.6 1.79,-5.94 0,-16.55 -30.87,-40.76 -49.12,-40.76 -4.76,0 -8.61,1.41 -10.84,5 -1.34,1.87 -2.67,4.69 -4.3,7.34 -24.04,32.48 -152.26,245.33 -171.4,245.33 -1.63,0 -2.52,-1.41 -2.52,-4.68 0,-1.72 0.44,-4.06 0.89,-6.88 9.49,-48.41 41.25,-129.92 89.03,-199.41 1.34,-1.88 1.79,-3.6 1.79,-5.94 0,-16.08 -31.31,-40.76 -49.57,-40.76zm220.97 317.01c4.75,0 8.61,-2.65 12.16,-9.52 3.43,-6.41 3.43,-9.69 5.65,-16.09 11.72,10.62 26.41,18.74 44.81,22.49 3.86,0.94 7.72,1.4 11.73,1.4 80.43,0 169.02,-152.41 169.02,-240.17 0,-12.34 -1.63,-23.43 -5.64,-32.95 -3.86,-9.68 -37.84,-47.16 -54.32,-47.16 -14.83,0 -60.83,55.75 -105.2,123.05 29.52,-64.02 87.41,-211.28 150.91,-240.17 2.53,-1.41 3.41,-3.75 3.41,-5.47 0,-2.34 -0.88,-4.22 -2.67,-5.47 -14.24,-8.27 -29.97,-12.02 -45.11,-12.02 -17.8,0 -34.87,5.15 -48.22,13.27 -82.66,52.63 -176.59,306.55 -180.9,384.32 1.33,14.68 25.22,64.49 44.37,64.49zm25.53 -35.13l-5.2 -0.47c26.12,-83.71 98.24,-179.75 155.23,-237.06 2.67,-2.18 4.44,-3.59 5.63,-3.59 1.34,0 1.79,1.88 1.79,4.06l-0.45 4.22c-6.08,41.54 -96.46,232.84 -157,232.84zm456.91 -311.08c-14.25,0 -87.41,91.51 -133.41,157.26 12.61,-28.27 27.3,-56.22 45.26,-81.36 1.19,-1.88 1.64,-3.6 1.64,-5.94 0,-16.08 -30.88,-40.76 -49.12,-40.76 -4.76,0 -8.61,1.41 -10.84,5 -43.93,67.77 -95.27,176.62 -100.46,258.6 0.88,13.75 24.77,52.16 41.7,52.16 4.89,0 9.64,-3.75 12.31,-12.8 20.78,-69.18 73.91,-156.01 127.33,-222.38 -9.95,27.49 -19.15,58.1 -19.15,83.71 0,25.14 8.75,44.81 33.54,50.75 1.63,0.47 2.97,0.47 4.75,0.47 27.3,0 82.95,-43.42 107.73,-65.44 1.79,-1.87 2.67,-3.12 2.67,-4.06 0,-3.27 -6.08,-4.68 -13.05,-4.68 -7.43,0 -15.58,1.41 -18.7,4.22 -13.06,11.4 -31.31,24.67 -43.03,24.67 -2.23,0 -3.86,0 -5.2,-0.94 -5.64,-2.65 -7.86,-7.34 -7.86,-12.8 0,-32.02 72.12,-101.51 72.12,-139.92 0,-1.88 -0.3,-4.22 -0.75,-5.94 -2.22,-7.34 -12.61,-19.36 -24.33,-28.89l0.29 -0.47c-9.04,-6.4 -17.81,-10.46 -23.44,-10.46zm190.39 -102.13c-2.23,0 -3.86,0.94 -5.19,1.88 -19.6,18.73 -43.49,59.02 -43.49,88.23 0,17.96 8.61,31.7 31.32,34.82 13.05,-30.14 33.84,-49.81 54.75,-81.36 1.34,-1.87 1.79,-3.75 1.79,-5.93 0,-14.68 -26.13,-37.17 -39.18,-37.64zm-79.99 131.33c-4.3,0 -8.3,1.41 -10.38,5 -24.34,38.1 -98.24,173.5 -98.24,245.8 0,13.74 2.52,24.67 8.61,32.95 9.19,11.87 27,22.8 40.06,29.2 1.19,0.47 2.96,0.94 4.3,0.94 32.66,0 117.83,-120.87 140.84,-158.35 0.44,-0.47 0.44,-0.94 0.44,-1.72 0,-5.15 -10.83,-12.02 -16.92,-12.02 -1.33,0 -2.23,0 -2.67,0.47 -21.67,29.82 -86.52,123.05 -104.32,123.05 -2.52,0 -4.31,-2.18 -4.31,-7.65 0,-3.28 0.45,-6.87 1.34,-11.56 9.49,-48.41 41.25,-129.92 89.03,-199.41 1.34,-1.88 1.79,-4.06 1.79,-5.94 0,-16.55 -31.31,-40.76 -49.57,-40.76zm276.02 -29.2c-14.24,0 -87.41,91.51 -133.41,157.26 12.61,-28.27 27.3,-56.22 45.26,-81.36 1.19,-1.88 1.64,-3.6 1.64,-5.94 0,-16.08 -30.88,-40.76 -49.12,-40.76 -4.75,0 -8.61,1.41 -10.84,5 -43.93,67.77 -95.27,176.62 -100.46,258.6 0.88,13.75 24.77,52.16 41.7,52.16 4.89,0 9.64,-3.75 12.31,-12.8 20.78,-69.18 73.91,-156.01 127.33,-222.38 -9.95,27.49 -19.15,58.1 -19.15,83.71 0,25.14 8.76,44.81 33.54,50.75 1.63,0.47 2.97,0.47 4.75,0.47 27.3,0 82.95,-43.42 107.73,-65.44 1.79,-1.87 2.67,-3.12 2.67,-4.06 0,-3.27 -6.08,-4.68 -13.05,-4.68 -7.42,0 -15.58,1.41 -18.69,4.22 -13.07,11.4 -31.32,24.67 -43.04,24.67 -2.23,0 -3.86,0 -5.2,-0.94 -5.64,-2.65 -7.86,-7.34 -7.86,-12.8 0,-32.02 72.12,-101.51 72.12,-139.92 0,-1.88 -0.3,-4.22 -0.74,-5.94 -2.23,-7.34 -12.61,-19.36 -24.34,-28.89l0.29 -0.47c-9.04,-6.4 -17.8,-10.46 -23.44,-10.46zm55.65 289.53c-6.98,0 -13.07,2.34 -15.29,7.33 -6.53,15.15 -9.49,23.27 -16.02,39.83 -0.45,1.87 -0.9,3.12 -0.9,4.52 0,12.81 20.04,21.55 34.73,21.55 6.97,0 13.05,-1.87 14.84,-6.4 6.08,-15.61 9.94,-24.67 15.58,-37.95 0.89,-2.34 1.34,-4.21 1.34,-5.93 0,-13.74 -19.59,-22.95 -34.28,-22.95z"/>
  </g>
  <g id="_2004952538080">
   <g>
    <path class="fil0" d="M248.73 3350.75c4.76,0 10.1,-0.78 14.85,-3.59 1.33,-0.94 2.07,-2.34 2.07,-3.75 0,-1.25 -0.74,-2.66 -2.52,-3.12 -4.01,-0.94 -5.2,-5 -5.2,-10 0,-12.49 8.17,-32.95 10.39,-39.04 36.51,-100.57 152.56,-252.98 152.56,-338.4l0 -2.34c-0.45,-10.93 -13.06,-25.15 -28.64,-39.36 62.62,-12.8 119.6,-23.73 160.86,-23.73 24.34,0 43.03,3.59 54.75,12.8 0.9,0.78 1.34,0.78 2.23,0.78 2.08,0 3.86,-1.25 4.3,-3.59l0.45 -8.74c0,-34.2 -12.61,-71.84 -56.99,-71.84l-4.29 0c-97.8,4.69 -234.32,63.25 -326.48,63.25 -33.54,0 -60.85,-7.81 -78.8,-28.89 -0.74,-0.94 -1.63,-1.41 -2.53,-1.41 -2.22,0 -4,1.41 -4,3.28l0 0.94c13.51,66.68 41.84,85.89 86.52,85.89 24.49,0 53.56,-5.94 87.4,-12.81l36.95 -7.65c-9.94,104.79 -149.43,307.8 -154.33,373.7l0 2.81c0,24.67 24.78,54.81 50.45,54.81zm305.26 -349.49c-50.01,0 -147.95,140.39 -147.95,237.52 0,26.55 7.42,49.35 24.78,65.75 12.17,11.55 32.2,17.95 50.01,17.95 5.34,0 10.09,-0.46 14.4,-1.4 57.87,-12.81 142.16,-116.19 178.22,-165.22 0.45,-0.94 0.9,-1.72 0.9,-2.19 0,-0.93 -0.45,-1.4 -0.45,-1.87 -0.89,-1.87 -4.75,-2.81 -9.5,-2.81 -7.43,0 -17.37,2.34 -20.93,6.4 -25.22,28.42 -118.27,132.74 -158.18,132.74 -8.76,0 -14.85,-5 -17.07,-16.87 -0.45,-3.28 -0.74,-6.4 -0.74,-10.15 0,-19.67 8.6,-44.35 22.1,-70.43 12.18,10.93 26.57,19.68 36.96,22.02 1.33,0.47 2.96,0.47 4.3,0.47 40.96,0 109.22,-99.32 109.22,-141.95 0,-2.19 -0.45,-4.53 -0.88,-6.87 -3.12,-12.34 -27.46,-32.95 -41.41,-43.41 -10.83,-9.53 -34.28,-19.68 -43.78,-19.68zm36.95 45.75c-12.16,49.04 -59.21,128.53 -94.82,131.81 29.08,-52.16 73.46,-107.13 94.82,-131.81zm427.83 -171.15c-2.22,0 -3.85,0.94 -5.18,1.88 -19.6,18.73 -43.49,59.02 -43.49,88.23 0,17.96 8.61,31.7 31.31,34.82 13.06,-30.14 33.84,-49.81 54.76,-81.36 1.34,-1.87 1.78,-3.75 1.78,-5.93 0,-14.68 -26.12,-37.17 -39.18,-37.64zm-79.98 131.33c-4.31,0 -8.31,1.41 -10.39,5 -24.33,38.1 -98.24,173.5 -98.24,245.8 0,13.74 2.53,24.67 8.61,32.95 9.2,11.87 27.01,22.8 40.07,29.2 1.18,0.47 2.96,0.94 4.3,0.94 32.65,0 117.83,-120.87 140.83,-158.35 0.45,-0.47 0.45,-0.94 0.45,-1.72 0,-5.15 -10.83,-12.02 -16.93,-12.02 -1.33,0 -2.22,0 -2.67,0.47 -21.66,29.82 -86.51,123.05 -104.32,123.05 -2.52,0 -4.3,-2.18 -4.3,-7.65 0,-3.28 0.44,-6.87 1.34,-11.56 9.49,-48.41 41.25,-129.92 89.03,-199.41 1.34,-1.88 1.79,-4.06 1.79,-5.94 0,-16.55 -31.32,-40.76 -49.57,-40.76zm256.13 -5.93c-11.42,0 -50.45,44.82 -90.08,96.98 8.76,-17.81 18.7,-36.55 29.98,-55.75 0.89,-1.88 1.78,-3.75 1.78,-5.47 0,-14.68 -27.9,-31.7 -47.33,-31.7 -6.54,0 -12.18,2.34 -15.29,6.87 -45.27,67.77 -99.13,176.62 -106.1,258.6 0.43,13.75 22.25,51.69 39.61,51.69 5.2,0 9.94,-3.74 13.51,-12.33 2.53,-5.94 5.64,-13.28 9.5,-21.55 32.2,-65.43 95.27,-181.62 153.89,-237.99 2.22,-1.72 3.55,-2.66 4.74,-2.66 0.89,0 1.34,0.94 1.34,2.34 0,5.94 -6.53,20.93 -7.42,23.27 -12.92,32.48 -69.45,132.74 -69.45,189.89 0,10.94 2.07,20.62 6.98,27.49 7.71,11.87 24.77,22.8 37.24,29.2 1.34,0.47 2.67,0.94 4.46,0.94 32.19,0 125.98,-120.87 152.1,-158.35 0.44,-0.47 0.89,-1.4 0.89,-1.72 0,-5.15 -10.39,-12.02 -16.03,-12.02 -1.33,0 -2.22,0 -2.67,0.47 -23.89,29.82 -95.56,121.8 -113.52,121.8 -2.08,0 -3.86,-2.34 -3.86,-6.4 0,-3.28 0.89,-7.34 2.67,-13.27 15.59,-54.5 68.71,-124.46 68.71,-184.43 0,-8.75 -1.33,-17.8 -4,-26.08 -4.31,-13.74 -36.51,-39.82 -51.65,-39.82zm328.11 -53.1c-0.74,0 -2.08,0.47 -2.96,1.41 -1.34,1.41 -1.79,3.28 -1.79,4.53 0.89,4.21 1.34,8.74 1.34,13.74 0,91.51 -154.78,302.02 -184.32,302.02 -2.22,0 -4,-1.41 -4.29,-4.22 -0.45,-0.78 -0.45,-2.19 -0.45,-4.06 0,-2.81 0.45,-6.87 1.19,-11.4 9.64,-48.1 40.06,-126.8 87.84,-196.29 1.34,-1.88 1.79,-3.6 1.79,-5.94 0,-16.55 -30.87,-40.76 -49.12,-40.76 -4.75,0 -8.75,1.41 -10.83,5 -24.34,38.1 -98.24,173.5 -98.24,245.8 0,13.74 2.52,24.67 8.61,32.95 10.83,14.52 33.98,29.67 53.42,29.67 6.53,0 12.16,-1.41 17.5,-5 55.22,-38.41 203.91,-214.09 226.02,-286.4 2.22,-6.4 3.12,-12.33 3.12,-18.74 0,-27.48 -19.15,-53.09 -47.5,-62.31l-1.33 0zm193.95 -72.3c-2.22,0 -3.86,0.94 -5.19,1.88 -19.59,18.73 -43.48,59.02 -43.48,88.23 0,17.96 8.61,31.7 31.31,34.82 13.06,-30.14 33.84,-49.81 54.76,-81.36 1.34,-1.87 1.78,-3.75 1.78,-5.93 0,-14.68 -26.12,-37.17 -39.18,-37.64zm-79.98 131.33c-4.31,0 -8.31,1.41 -10.39,5 -24.34,38.1 -98.24,173.5 -98.24,245.8 0,13.74 2.53,24.67 8.61,32.95 9.2,11.87 27.01,22.8 40.06,29.2 1.19,0.47 2.97,0.94 4.31,0.94 32.65,0 117.82,-120.87 140.83,-158.35 0.45,-0.47 0.45,-0.94 0.45,-1.72 0,-5.15 -10.84,-12.02 -16.93,-12.02 -1.33,0 -2.22,0 -2.67,0.47 -21.66,29.82 -86.51,123.05 -104.32,123.05 -2.52,0 -4.3,-2.18 -4.3,-7.65 0,-3.28 0.44,-6.87 1.34,-11.56 9.49,-48.41 41.25,-129.92 89.03,-199.41 1.34,-1.88 1.78,-4.06 1.78,-5.94 0,-16.55 -31.31,-40.76 -49.56,-40.76zm92.15 313.42c33.54,0 120.8,-121.18 144.39,-157.88l0.45 -1.72c0,-5.15 -11.43,-12.49 -17.52,-12.49l-2.51 0.47c-21.82,29.83 -88.75,124.93 -107.01,124.93 -2.51,0 -4.3,-2.66 -4.3,-8.28 0,-2.65 0.45,-6.4 1.34,-10.93 6.53,-32.01 69.01,-182.08 130.74,-279.53 41.85,0.47 72.27,1.41 85.32,1.87 3.42,0 46.01,-1.4 54.77,-49.03l0 -0.47c0,-1.25 -0.89,-2.19 -2.23,-2.19l-1.33 0.47c-8.17,7.34 -57.73,9.53 -108.63,9.53 17.36,-22.8 34.72,-38.42 49.12,-43.41 1.78,-0.47 3.41,-2.35 3.86,-4.53 0,-2.34 -1.19,-4.22 -2.98,-6.09 -18.69,-13.59 -37.84,-19.99 -55.2,-19.99 -23,0 -43.47,10.93 -59.21,29.67 -7.72,9.99 -18.25,25.14 -29.97,43.41l-20.03 -0.47c-3.86,0 -46.45,0.94 -55.22,49.04l0 0.47c0,1.4 0.9,2.18 2.24,2.18l1.33 -0.31c4.75,-4.22 22.56,-6.87 46,-8.28 -51.64,89.17 -111.74,215.98 -111.74,281.41 0,13.58 2.23,24.67 8.31,32.01 8.75,11.4 32.64,22.8 45.71,29.2 1.33,0.47 2.97,0.94 4.3,0.94zm253.46 -319.35c-69.16,0 -168.28,180.68 -168.28,264.38 0,15.15 3.56,27.02 10.54,34.36 5.63,6.4 41.25,20.61 54.75,20.61 12.61,0 77.32,-81.36 106.55,-128.05 -4.9,13.27 -12.17,40.6 -12.17,64.96 0,13.27 2.52,25.14 8.61,33.42 9.2,11.87 27.01,22.8 40.07,29.2 1.19,0.47 2.96,0.94 4.3,0.94 32.21,0 116.05,-120.87 138.75,-158.35 0.3,-0.47 0.3,-1.4 0.3,-1.72 0,-5.15 -10.84,-12.02 -16.47,-12.02 -1.34,0 -2.08,0 -2.53,0.47 -22.25,30.29 -86.51,128.67 -103.13,128.67 -2.52,0 -3.86,-2.34 -3.86,-7.34 0,-2.81 0.45,-6.87 1.34,-11.55 9.49,-48.41 41.25,-135.86 89.03,-205.35 1.34,-1.88 1.79,-3.6 1.79,-5.94 0,-16.55 -30.87,-40.76 -49.12,-40.76 -4.75,0 -8.76,1.41 -10.84,5 -10.53,16.09 -21.81,36.23 -33.53,58.09 -9.5,-36.07 -42.15,-69.02 -56.1,-69.02zm8.76 52.63c13.5,0 24.33,27.95 27.74,41.69 -4.75,6.87 -103.42,142.26 -121.68,142.26 -2.22,0 -3.12,-1.4 -3.12,-4.21 0,-2.66 0.45,-5.94 1.78,-10 20.04,-70.89 51.35,-125.39 84.74,-163.81 3.56,-4.06 6.97,-5.93 10.54,-5.93zm348.58 -52.63c-11.73,0 -52.09,46.69 -92.6,100.26 8.75,-17.03 18.25,-34.83 29.53,-52.16 1.34,-1.88 1.78,-3.75 1.78,-5.94 0,-16.08 -29.53,-37.16 -48.23,-37.16 -5.19,0 -9.94,1.87 -12.61,5.93 -45.71,67.77 -99.57,176.62 -106.55,258.6 0.44,13.75 22.7,51.69 39.62,51.69 5.2,0 9.94,-3.74 13.5,-12.33 3.41,-7.34 7.27,-16.56 12.62,-27.02 31.61,-64.96 93.79,-175.68 152.55,-232.52 2.22,-1.72 3.41,-2.66 4.31,-2.66 0.89,0 1.33,0.94 1.33,2.34 0,5.94 -6.09,20.93 -6.98,23.27 -29.97,74.96 -63.95,118.06 -70.79,197.23 0.45,13.75 22.56,52.16 39.93,52.16 5.19,0 10.09,-3.75 13.95,-12.8 2.96,-7.81 7.42,-17.02 12.62,-27.96l2.96 -8.27c32.21,-65.43 83.1,-166.94 141.72,-223.31 2.23,-1.72 3.56,-2.66 4.45,-2.66 0.89,0 1.33,0.94 1.33,2.34 0,5.94 -6.23,20.93 -7.41,23.27 -12.62,32.48 -69.16,133.21 -69.16,190.36 0,10.93 1.79,20.15 6.53,27.02 7.87,11.87 25.23,22.8 37.4,29.2 1.33,0.47 2.97,0.94 4.31,0.94 32.64,0 126.13,-120.87 152.54,-158.35 0.45,-0.47 0.45,-1.4 0.45,-1.72 0,-5.15 -9.94,-12.02 -16.03,-12.02 -0.88,0 -1.78,0 -2.67,0.47 -23.89,29.82 -95.57,121.8 -113.37,121.8 -2.23,0 -4.01,-2.34 -4.01,-6.4 0,-3.28 0.89,-7.34 2.67,-13.27 15.59,-54.5 69.15,-124.93 69.15,-184.9 0,-8.74 -1.33,-17.33 -4.01,-25.61 -4.29,-13.74 -36.94,-39.82 -51.64,-39.82 -11.28,0 -49.12,43.41 -88.3,94.79 2.68,-12.02 3.86,-22.96 3.86,-32.95 0,-7.81 -0.74,-15.15 -2.96,-22.02 -4.31,-13.74 -36.95,-39.82 -51.79,-39.82zm396.07 1.4c-89.63,0.47 -184.75,142.74 -184.75,237.37 0,46.69 23.44,81.99 82.5,81.99 34,0 73.61,-39.36 104.92,-90.11 27.75,-5.93 61.3,-31.7 93.35,-79.17 0.45,-0.47 0.45,-0.47 0.45,-0.94 0,-0.47 0,-0.94 -0.45,-1.41 -0.45,-0.93 -3.41,-1.4 -7.27,-1.4 -6.54,0 -14.4,1.4 -17.51,5.15 -20.34,26.08 -38.58,42.48 -53.43,50.75 21.82,-43.1 36.51,-89.32 36.51,-125.39 0,-23.74 -6.54,-42.95 -21.66,-53.57 2.07,-1.71 6.08,-6.4 6.97,-7.81 0.29,-0.78 0.74,-1.71 0.74,-2.65 0,-4.53 -8.16,-6.87 -17.36,-9.68 -7.42,-2.19 -15.14,-3.13 -23.01,-3.13zm24.79 55.75c4.75,0 6.97,4.69 6.97,12.81 0,25.14 -20.48,83.39 -46.6,132.74 -6.08,-6.87 -8.6,-19.21 -8.6,-33.89 0,-42.48 21.67,-104.32 46.45,-111.66l1.78 0zm-69.6 35.77c-7.87,21.39 -11.73,44.81 -11.73,66.36 0,30.61 8.32,57.63 27.9,67.62 -20.03,32.95 -41.85,57.63 -59.66,57.63 -4.29,0 -8.15,-1.25 -12.16,-4.53 -5.64,-4.53 -7.87,-13.74 -7.87,-26.08 0,-38.42 24.79,-107.91 63.52,-161zm231.2 -93.39c-1.19,0 -2.07,0.47 -2.96,0.47 -23.45,8.74 -79.54,44.82 -85.63,94.79l0 5c0,5.46 0.44,10.93 1.63,16.86 -11.72,14.21 -23,28.89 -33.38,44.82 -1.79,2.34 -2.24,4.69 -2.24,7.34 0,3.75 1.79,7.34 4.76,9.68 2.22,1.72 4.45,2.19 6.52,2.19 4.01,0 7.43,-1.72 9.65,-5 7.42,-10.93 15.14,-22.02 23.01,-32.01 8.3,21.55 17.36,43.88 17.36,62.62l0 1.4c-0.9,40.76 -33.84,61.84 -67.82,61.84 -19.14,0 -39.03,-6.87 -53.43,-20.14 -0.88,-0.94 -1.33,-0.94 -2.22,-0.94 -2.07,0 -4.31,1.88 -4.31,3.59 0,0.47 0.45,0.94 0.45,1.41 15.58,45.76 56.99,68.24 96.9,68.24 41.71,0 82.22,-25.14 88.3,-74.17 0.45,-5 0.89,-9.53 0.89,-14.68 0,-40.29 -19.59,-79.49 -19.59,-112.91 0,-16.55 4.75,-31.54 18.25,-44.82 17.36,-16.55 45.71,-32.95 45.71,-32.95 0.3,-1.4 0.3,-3.28 0.3,-4.68 0,-20.15 -29.98,-37.95 -42.15,-37.95zm423.98 0.47c-69.16,0 -168.29,180.68 -168.29,264.38 0,15.15 3.57,27.02 10.54,34.36 5.64,6.4 41.25,20.61 54.76,20.61 12.61,0 77.31,-81.36 106.54,-128.05 -4.89,13.27 -12.16,40.6 -12.16,64.96 0,13.27 2.52,25.14 8.61,33.42 9.2,11.87 27,22.8 40.06,29.2 1.19,0.47 2.97,0.94 4.31,0.94 32.2,0 116.04,-120.87 138.75,-158.35 0.29,-0.47 0.29,-1.4 0.29,-1.72 0,-5.15 -10.83,-12.02 -16.47,-12.02 -1.34,0 -2.08,0 -2.52,0.47 -22.26,30.29 -86.52,128.67 -103.14,128.67 -2.52,0 -3.86,-2.34 -3.86,-7.34 0,-2.81 0.45,-6.87 1.34,-11.55 9.5,-48.41 41.25,-135.86 89.03,-205.35 1.34,-1.88 1.79,-3.6 1.79,-5.94 0,-16.55 -30.86,-40.76 -49.12,-40.76 -4.75,0 -8.76,1.41 -10.83,5 -10.54,16.09 -21.82,36.23 -33.54,58.09 -9.5,-36.07 -42.14,-69.02 -56.09,-69.02zm8.75 52.63c13.5,0 24.34,27.95 27.75,41.69 -4.75,6.87 -103.43,142.26 -121.69,142.26 -2.22,0 -3.11,-1.4 -3.11,-4.21 0,-2.66 0.44,-5.94 1.77,-10 20.05,-70.89 51.36,-125.39 84.74,-163.81 3.56,-4.06 6.98,-5.93 10.54,-5.93zm601.6 -105.73c-0.74,0 -2.08,0.47 -2.96,1.41 -1.34,1.41 -1.79,3.28 -1.79,4.53 0.89,4.21 1.34,8.74 1.34,13.74 0,91.51 -154.78,302.02 -184.32,302.02 -2.22,0 -4,-1.41 -4.29,-4.22 -0.45,-0.78 -0.45,-2.19 -0.45,-4.06 0,-2.81 0.45,-6.87 1.19,-11.4 9.65,-48.1 40.06,-126.8 87.84,-196.29 1.34,-1.88 1.79,-3.6 1.79,-5.94 0,-16.55 -30.86,-40.76 -49.12,-40.76 -4.75,0 -8.75,1.41 -10.83,5 -24.34,38.1 -98.24,173.5 -98.24,245.8 0,13.74 2.53,24.67 8.61,32.95 10.83,14.52 33.98,29.67 53.42,29.67 6.53,0 12.17,-1.41 17.51,-5 55.21,-38.41 203.9,-214.09 226.01,-286.4 2.22,-6.4 3.12,-12.33 3.12,-18.74 0,-27.48 -19.15,-53.09 -47.5,-62.31l-1.33 0zm193.95 -72.3c-2.22,0 -3.85,0.94 -5.18,1.88 -19.6,18.73 -43.49,59.02 -43.49,88.23 0,17.96 8.61,31.7 31.31,34.82 13.06,-30.14 33.84,-49.81 54.76,-81.36 1.34,-1.87 1.78,-3.75 1.78,-5.93 0,-14.68 -26.12,-37.17 -39.18,-37.64zm-79.98 131.33c-4.31,0 -8.31,1.41 -10.39,5 -24.33,38.1 -98.24,173.5 -98.24,245.8 0,13.74 2.53,24.67 8.61,32.95 9.2,11.87 27.01,22.8 40.07,29.2 1.18,0.47 2.96,0.94 4.3,0.94 32.65,0 117.83,-120.87 140.83,-158.35 0.45,-0.47 0.45,-0.94 0.45,-1.72 0,-5.15 -10.83,-12.02 -16.93,-12.02 -1.33,0 -2.22,0 -2.67,0.47 -21.66,29.82 -86.51,123.05 -104.32,123.05 -2.52,0 -4.3,-2.18 -4.3,-7.65 0,-3.28 0.44,-6.87 1.34,-11.56 9.49,-48.41 41.25,-129.92 89.03,-199.41 1.34,-1.88 1.79,-4.06 1.79,-5.94 0,-16.55 -31.32,-40.76 -49.57,-40.76zm196.48 -5.93c-69.16,0 -168.29,180.68 -168.29,264.38 0,15.15 3.57,27.02 10.54,34.36 5.64,6.4 41.25,20.61 54.76,20.61 12.61,0 77.31,-81.36 106.54,-128.05 -4.89,13.27 -12.16,40.6 -12.16,64.96 0,13.27 2.52,25.14 8.61,33.42 9.2,11.87 27.01,22.8 40.06,29.2 1.19,0.47 2.97,0.94 4.31,0.94 32.2,0 116.05,-120.87 138.75,-158.35 0.29,-0.47 0.29,-1.4 0.29,-1.72 0,-5.15 -10.83,-12.02 -16.47,-12.02 -1.34,0 -2.08,0 -2.52,0.47 -22.26,30.29 -86.52,128.67 -103.14,128.67 -2.52,0 -3.86,-2.34 -3.86,-7.34 0,-2.81 0.45,-6.87 1.34,-11.55 9.5,-48.41 41.26,-135.86 89.04,-205.35 1.34,-1.88 1.78,-3.6 1.78,-5.94 0,-16.55 -30.86,-40.76 -49.12,-40.76 -4.75,0 -8.76,1.41 -10.83,5 -10.54,16.09 -21.82,36.23 -33.54,58.09 -9.5,-36.07 -42.14,-69.02 -56.09,-69.02zm8.75 52.63c13.5,0 24.34,27.95 27.75,41.69 -4.75,6.87 -103.43,142.26 -121.68,142.26 -2.23,0 -3.12,-1.4 -3.12,-4.21 0,-2.66 0.45,-5.94 1.78,-10 20.04,-70.89 51.35,-125.39 84.73,-163.81 3.57,-4.06 6.98,-5.93 10.54,-5.93zm287.3 -53.57c12.61,-29.67 33.53,-48.88 54.75,-80.42 0.9,-1.87 1.78,-3.75 1.78,-5.93 0,-15.15 -26.56,-37.64 -39.62,-37.64 -2.08,0 -3.85,0.47 -5.19,1.87 -19.59,18.27 -43.48,58.56 -43.48,87.77 0,17.96 8.31,31.7 31.76,34.35zm-352.59 528.45c6.08,0 12.16,-0.46 18.69,-1.4 74.8,-12.34 128.22,-79.96 172.59,-163.82 53.57,-98.69 89.63,-222.68 150.48,-309.66 1.33,-1.88 1.77,-3.6 1.77,-5.94 0,-16.55 -31.31,-40.76 -50.01,-40.76 -4.89,0 -8.31,1.41 -10.53,5 -61.74,101.19 -102.99,229.71 -161.6,331.22 -36.22,61.84 -81.78,110.41 -145.29,110.41 -40.81,0 -52.24,-21.09 -58.62,-38.89 -0.44,-1.4 -2.67,-2.34 -4.89,-2.34 -2.97,0 -6.09,1.4 -6.53,4.06l0 7.34c0,67.77 42.58,104.78 93.94,104.78zm526.51 -207.22c56.09,0 207.31,-271.72 225.57,-314.82 9.64,5.93 13.95,9.68 13.95,22.95 -3.86,50.28 -83.55,157.72 -83.55,225.97 0,13.27 3.12,25.61 10.53,35.29 9.05,11.87 27.31,22.8 39.92,29.2 1.34,0.47 3.12,0.94 4.46,0.94 32.5,0 117.67,-120.87 140.38,-157.88 0.44,-0.47 0.44,-1.41 0.44,-1.87 0,-5 -10.84,-12.34 -17.06,-12.34 -0.75,0 -1.63,0 -2.08,0.47 -21.82,29.82 -86.51,123.05 -104.32,123.05 -2.67,0 -4.46,-2.18 -4.46,-8.12 0,-22.95 23.6,-88.85 49.12,-140.08 13.5,-27.01 23.15,-51.68 23.15,-72.77 0,-28.73 -17.36,-51.69 -66.48,-65.43 0.74,-5.46 4.3,-26.08 4.3,-47 0,-27.02 -5.63,-55.44 -28.34,-55.91 -2.08,0 -5.19,0.47 -7.72,0.94 -31.31,7.34 -43.48,24.2 -43.48,42.63 0,24.21 20.78,51.69 46.45,66.21 -8.31,21.08 -158.64,267.2 -186.09,267.2 -2.52,0 -3.86,-2.66 -3.86,-7.81 0,-32.8 39.92,-124.78 90.37,-198.02 1.34,-1.87 1.79,-3.74 1.79,-5.93 0,-16.08 -31.31,-40.76 -49.57,-40.76 -4.3,0 -8.31,1.41 -10.38,5 -10.54,16.08 -21.82,36.23 -33.1,58.09 -9.94,-36.07 -42.58,-69.02 -56.1,-69.02 -69.15,0 -167.82,180.21 -167.82,263.91 0,15.15 3.1,27.02 10.08,34.36 6.09,5.93 41.26,20.14 54.76,20.14 12.61,0 77.32,-80.89 106.55,-127.58 -4.9,13.74 -12.32,41.07 -12.32,65.43 0,12.8 2.23,25.14 8.32,32.95 9.2,11.87 27.45,22.8 40.06,29.2 2.08,0.94 4.31,1.41 6.53,1.41zm-130.88 -83.24c-2.24,0 -3.12,-1.87 -3.12,-4.68 0,-2.19 0.45,-5.94 1.78,-10 19.58,-70.89 51.34,-124.93 84.29,-163.34 3.56,-4.06 6.97,-5.94 10.54,-5.94 13.35,0 24.33,27.96 27.74,41.23 -4.75,7.18 -102.99,142.73 -121.23,142.73zm801.63 -237.05c-50,0 -148.24,140.08 -148.24,237.05 0,26.55 7.42,49.82 25.23,66.22 12.16,11.55 31.76,17.95 49.56,17.95 5.2,0 9.95,-0.46 14.25,-1.4 58.32,-12.81 140.53,-116.19 176.59,-165.22 0.45,-0.94 0.89,-1.72 0.89,-2.19 0,-0.93 -0.44,-1.4 -0.44,-1.87 -0.9,-1.87 -4.46,-2.81 -9.21,-2.81 -7.72,0 -17.8,2.34 -21.22,6.4 -25.22,28.42 -117.38,132.74 -156.56,132.74 -8.75,0 -14.83,-5 -16.91,-16.87 -0.45,-3.28 -0.9,-6.4 -0.9,-10.15 0,-56.68 74.35,-156.47 113.83,-204.1 7.87,-9.06 12.61,-13.12 15.73,-13.12 1.78,0 2.67,1.72 2.67,4.06 0,10.93 -13.51,39.82 -33.09,57.16 -1.34,1.4 -2.23,2.81 -2.23,4.53 0,1.4 0.89,2.81 1.78,4.21 9.5,10 21.22,18.27 33.1,18.27 2.07,0 4.74,-0.47 6.82,-0.93 16.18,-5 31.76,-32.02 31.76,-55.75 0,-10.15 -2.97,-19.68 -9.95,-26.55 -20.03,-19.68 -46.89,-47.63 -73.46,-47.63zm342.07 321.22c5.34,0 10.09,-3.74 13.5,-12.33l9.64 -22.02c31.76,-64.96 95.13,-180.68 153.45,-237.06 2.22,-1.71 3.41,-2.65 4.75,-2.65 0.88,0 1.33,0.94 1.33,2.19 0,6.09 -6.53,20.61 -7.41,22.95 -12.62,32.48 -69.17,133.21 -69.17,190.36 0,10.93 1.79,20.15 6.54,27.02 7.86,11.87 25.22,22.8 37.4,29.2 1.33,0.47 3.11,0.94 4.44,0.94 32.5,0 125.55,-120.87 151.67,-157.88 0.44,-0.47 0.89,-1.41 0.89,-2.19 0,-5.15 -10.39,-12.02 -16.17,-12.02 -1.19,0 -1.64,0 -2.53,0.47 -23.89,29.82 -95.28,121.8 -113.07,121.8 -2.24,0 -3.86,-2.34 -3.86,-6.4 0,-3.28 0.88,-7.34 2.52,-13.27 15.72,-54.5 68.7,-124.93 68.7,-183.96 0,-8.75 -1.33,-17.34 -3.86,-25.61 -4.3,-13.74 -36.94,-40.29 -51.79,-40.29 -11.28,0 -48.67,43.41 -87.85,94.32 4.46,-17.02 6.54,-32.95 6.54,-47.16 -1.64,-69.96 -48.69,-93.39 -108.63,-93.39 -47.34,0 -99.58,15.15 -132.22,31.08 -13.36,6.4 -23.45,16.55 -23.45,36.7 0,8.12 1.78,17.8 5.19,29.67 -6.97,-5.47 -15.58,-9.53 -23.45,-9.53 -36.5,0 -100.91,121.65 -100.91,201.3 0,47.47 25.23,77.3 80.88,77.3 65.74,0 161.31,-140.08 161.31,-229.72 0,-39.35 -16.92,-69.49 -57.28,-75.89 21.22,-14.68 62.48,-33.89 92.9,-33.89 21.8,0 37.84,9.53 37.84,37.48 0,54.03 -72.12,188.95 -77.32,250.79 0.45,13.75 22.11,51.69 39.48,51.69zm-196.04 -34.82c-6.97,0 -11.72,-5.47 -11.72,-18.74 0,-4.53 0.44,-9.68 1.78,-16.08 8.16,-48.88 62.18,-139.93 72.57,-156.79 1.33,-1.87 1.77,-4.22 1.77,-6.87 0,-6.09 -3.11,-13.28 -7.42,-20.61 12.62,-7.81 26.12,-12.34 37.85,-12.34 19.14,0 33.83,11.87 33.83,37.48 0,62.15 -93.49,193.48 -128.66,193.95z"/>
    <path class="fil0" d="M6447 3001.26c-11.43,0 -50.45,44.82 -90.08,96.98 8.76,-17.81 18.7,-36.55 29.98,-55.75 0.88,-1.88 1.78,-3.75 1.78,-5.47 0,-14.68 -27.9,-31.7 -47.34,-31.7 -6.53,0 -12.17,2.34 -15.29,6.87 -45.26,67.77 -99.12,176.62 -106.09,258.6 0.43,13.75 22.25,51.69 39.61,51.69 5.2,0 9.94,-3.74 13.51,-12.33 2.52,-5.94 5.64,-13.28 9.5,-21.55 32.19,-65.43 95.26,-181.62 153.89,-237.99 2.22,-1.72 3.55,-2.66 4.74,-2.66 0.89,0 1.34,0.94 1.34,2.34 0,5.94 -6.53,20.93 -7.42,23.27 -12.92,32.48 -69.45,132.74 -69.45,189.89 0,10.94 2.07,20.62 6.98,27.49 7.71,11.87 24.77,22.8 37.24,29.2 1.34,0.47 2.67,0.94 4.45,0.94 32.2,0 125.99,-120.87 152.11,-158.35 0.44,-0.47 0.89,-1.4 0.89,-1.72 0,-5.15 -10.39,-12.02 -16.03,-12.02 -1.33,0 -2.23,0 -2.67,0.47 -23.89,29.82 -95.56,121.8 -113.52,121.8 -2.08,0 -3.86,-2.34 -3.86,-6.4 0,-3.28 0.89,-7.34 2.67,-13.27 15.58,-54.5 68.7,-124.46 68.7,-184.43 0,-8.75 -1.33,-17.8 -4,-26.08 -4.3,-13.74 -36.51,-39.82 -51.64,-39.82zm257.32 1.4c-89.63,0.47 -184.75,142.74 -184.75,237.37 0,46.69 23.44,81.99 82.5,81.99 33.99,0 73.61,-39.36 104.92,-90.11 27.75,-5.93 61.3,-31.7 93.35,-79.17 0.45,-0.47 0.45,-0.47 0.45,-0.94 0,-0.47 0,-0.94 -0.45,-1.41 -0.45,-0.93 -3.41,-1.4 -7.27,-1.4 -6.54,0 -14.4,1.4 -17.51,5.15 -20.34,26.08 -38.59,42.48 -53.43,50.75 21.82,-43.1 36.51,-89.32 36.51,-125.39 0,-23.74 -6.54,-42.95 -21.67,-53.57 2.08,-1.71 6.09,-6.4 6.98,-7.81 0.29,-0.78 0.74,-1.71 0.74,-2.65 0,-4.53 -8.16,-6.87 -17.36,-9.68 -7.42,-2.19 -15.14,-3.13 -23.01,-3.13zm24.79 55.75c4.75,0 6.97,4.69 6.97,12.81 0,25.14 -20.48,83.39 -46.6,132.74 -6.08,-6.87 -8.6,-19.21 -8.6,-33.89 0,-42.48 21.67,-104.32 46.45,-111.66l1.78 0zm-69.6 35.77c-7.87,21.39 -11.73,44.81 -11.73,66.36 0,30.61 8.32,57.63 27.9,67.62 -20.03,32.95 -41.85,57.63 -59.66,57.63 -4.29,0 -8.15,-1.25 -12.16,-4.53 -5.65,-4.53 -7.87,-13.74 -7.87,-26.08 0,-38.42 24.78,-107.91 63.52,-161zm231.2 -93.39c-1.19,0 -2.07,0.47 -2.96,0.47 -23.45,8.74 -79.54,44.82 -85.63,94.79l0 5c0,5.46 0.44,10.93 1.63,16.86 -11.72,14.21 -23,28.89 -33.38,44.82 -1.79,2.34 -2.24,4.69 -2.24,7.34 0,3.75 1.79,7.34 4.75,9.68 2.23,1.72 4.46,2.19 6.53,2.19 4.01,0 7.42,-1.72 9.65,-5 7.42,-10.93 15.14,-22.02 23,-32.01 8.31,21.55 17.37,43.88 17.37,62.62l0 1.4c-0.9,40.76 -33.84,61.84 -67.82,61.84 -19.14,0 -39.03,-6.87 -53.43,-20.14 -0.88,-0.94 -1.33,-0.94 -2.22,-0.94 -2.07,0 -4.31,1.88 -4.31,3.59 0,0.47 0.45,0.94 0.45,1.41 15.58,45.76 56.99,68.24 96.9,68.24 41.71,0 82.22,-25.14 88.3,-74.17 0.45,-5 0.89,-9.53 0.89,-14.68 0,-40.29 -19.59,-79.49 -19.59,-112.91 0,-16.55 4.75,-31.54 18.25,-44.82 17.36,-16.55 45.71,-32.95 45.71,-32.95 0.29,-1.4 0.29,-3.28 0.29,-4.68 0,-20.15 -29.97,-37.95 -42.14,-37.95zm223.93 1.87c-89.63,0.47 -184.75,142.74 -184.75,237.37 0,46.69 23.44,81.99 82.5,81.99 33.99,0 73.61,-39.36 104.92,-90.11 27.75,-5.93 61.3,-31.7 93.35,-79.17 0.45,-0.47 0.45,-0.47 0.45,-0.94 0,-0.47 0,-0.94 -0.45,-1.41 -0.45,-0.93 -3.41,-1.4 -7.27,-1.4 -6.54,0 -14.4,1.4 -17.51,5.15 -20.34,26.08 -38.59,42.48 -53.43,50.75 21.82,-43.1 36.51,-89.32 36.51,-125.39 0,-23.74 -6.54,-42.95 -21.67,-53.57 2.08,-1.71 6.09,-6.4 6.98,-7.81 0.29,-0.78 0.74,-1.71 0.74,-2.65 0,-4.53 -8.16,-6.87 -17.36,-9.68 -7.42,-2.19 -15.14,-3.13 -23.01,-3.13zm24.79 55.75c4.75,0 6.97,4.69 6.97,12.81 0,25.14 -20.48,83.39 -46.6,132.74 -6.08,-6.87 -8.6,-19.21 -8.6,-33.89 0,-42.48 21.67,-104.32 46.45,-111.66l1.78 0zm-69.6 35.77c-7.87,21.39 -11.73,44.81 -11.73,66.36 0,30.61 8.32,57.63 27.9,67.62 -20.03,32.95 -41.85,57.63 -59.66,57.63 -4.29,0 -8.15,-1.25 -12.16,-4.53 -5.64,-4.53 -7.87,-13.74 -7.87,-26.08 0,-38.42 24.78,-107.91 63.52,-161zm146.46 226.43c33.55,0 120.8,-121.18 144.4,-157.88l0.45 -1.72c0,-5.15 -11.44,-12.49 -17.52,-12.49l-2.52 0.47c-21.81,29.83 -88.74,124.93 -107,124.93 -2.52,0 -4.3,-2.66 -4.3,-8.28 0,-2.65 0.44,-6.4 1.34,-10.93 6.53,-32.01 69.01,-182.08 130.74,-279.53 41.85,0.47 72.27,1.41 85.32,1.87 3.41,0 46.01,-1.4 54.77,-49.03l0 -0.47c0,-1.25 -0.9,-2.19 -2.24,-2.19l-1.33 0.47c-8.16,7.34 -57.73,9.53 -108.62,9.53 17.36,-22.8 34.72,-38.42 49.12,-43.41 1.77,-0.47 3.41,-2.35 3.86,-4.53 0,-2.34 -1.19,-4.22 -2.98,-6.09 -18.69,-13.59 -37.84,-19.99 -55.2,-19.99 -23,0 -43.48,10.93 -59.21,29.67 -7.72,9.99 -18.25,25.14 -29.97,43.41l-20.04 -0.47c-3.85,0 -46.45,0.94 -55.21,49.04l0 0.47c0,1.4 0.9,2.18 2.24,2.18l1.33 -0.31c4.75,-4.22 22.56,-6.87 46,-8.28 -51.64,89.17 -111.74,215.98 -111.74,281.41 0,13.58 2.23,24.67 8.31,32.01 8.75,11.4 32.64,22.8 45.71,29.2 1.33,0.47 2.96,0.94 4.29,0.94zm333.01 -342.62c-14.24,0 -87.41,91.51 -133.41,157.26 12.61,-28.27 27.3,-56.22 45.26,-81.36 1.19,-1.88 1.64,-3.6 1.64,-5.94 0,-16.08 -30.88,-40.76 -49.12,-40.76 -4.75,0 -8.61,1.41 -10.84,5 -43.93,67.77 -95.27,176.62 -100.46,258.6 0.88,13.75 24.77,52.16 41.7,52.16 4.89,0 9.64,-3.75 12.31,-12.8 20.78,-69.18 73.91,-156.01 127.33,-222.38 -9.95,27.49 -19.15,58.1 -19.15,83.71 0,25.14 8.76,44.81 33.54,50.75 1.63,0.47 2.97,0.47 4.75,0.47 27.3,0 82.95,-43.42 107.73,-65.44 1.79,-1.87 2.67,-3.12 2.67,-4.06 0,-3.27 -6.08,-4.68 -13.05,-4.68 -7.42,0 -15.58,1.41 -18.69,4.22 -13.07,11.4 -31.32,24.67 -43.04,24.67 -2.23,0 -3.86,0 -5.2,-0.94 -5.64,-2.65 -7.86,-7.34 -7.86,-12.8 0,-32.02 72.12,-101.51 72.12,-139.92 0,-1.88 -0.3,-4.22 -0.74,-5.94 -2.23,-7.34 -12.61,-19.36 -24.34,-28.89l0.29 -0.47c-9.04,-6.4 -17.8,-10.46 -23.44,-10.46zm164.72 23.27c-69.16,0 -168.28,180.68 -168.28,264.38 0,15.15 3.56,27.02 10.54,34.36 5.63,6.4 41.25,20.61 54.75,20.61 12.61,0 77.32,-81.36 106.55,-128.05 -4.9,13.27 -12.17,40.6 -12.17,64.96 0,13.27 2.52,25.14 8.61,33.42 9.2,11.87 27.01,22.8 40.07,29.2 1.18,0.47 2.96,0.94 4.3,0.94 32.21,0 116.05,-120.87 138.75,-158.35 0.3,-0.47 0.3,-1.4 0.3,-1.72 0,-5.15 -10.84,-12.02 -16.47,-12.02 -1.34,0 -2.08,0 -2.53,0.47 -22.26,30.29 -86.51,128.67 -103.13,128.67 -2.52,0 -3.86,-2.34 -3.86,-7.34 0,-2.81 0.44,-6.87 1.34,-11.55 9.49,-48.41 41.25,-135.86 89.03,-205.35 1.34,-1.88 1.79,-3.6 1.79,-5.94 0,-16.55 -30.87,-40.76 -49.12,-40.76 -4.76,0 -8.77,1.41 -10.84,5 -10.54,16.09 -21.82,36.23 -33.53,58.09 -9.51,-36.07 -42.15,-69.02 -56.1,-69.02zm8.75 52.63c13.51,0 24.34,27.95 27.75,41.69 -4.75,6.87 -103.43,142.26 -121.68,142.26 -2.22,0 -3.12,-1.4 -3.12,-4.21 0,-2.66 0.45,-5.94 1.78,-10 20.04,-70.89 51.35,-125.39 84.74,-163.81 3.56,-4.06 6.97,-5.93 10.53,-5.93zm267.71 -53.1c-1.19,0 -2.07,0.47 -2.97,0.47 -23.44,8.74 -79.54,44.82 -85.63,94.79l0 5c0,5.46 0.45,10.93 1.64,16.86 -11.72,14.21 -23,28.89 -33.39,44.82 -1.78,2.34 -2.23,4.69 -2.23,7.34 0,3.75 1.79,7.34 4.75,9.68 2.23,1.72 4.46,2.19 6.53,2.19 4.01,0 7.42,-1.72 9.65,-5 7.42,-10.93 15.13,-22.02 23,-32.01 8.31,21.55 17.36,43.88 17.36,62.62l0 1.4c-0.89,40.76 -33.84,61.84 -67.82,61.84 -19.14,0 -39.03,-6.87 -53.42,-20.14 -0.89,-0.94 -1.33,-0.94 -2.23,-0.94 -2.07,0 -4.3,1.88 -4.3,3.59 0,0.47 0.45,0.94 0.45,1.41 15.58,45.76 56.98,68.24 96.9,68.24 41.7,0 82.21,-25.14 88.3,-74.17 0.44,-5 0.89,-9.53 0.89,-14.68 0,-40.29 -19.6,-79.49 -19.6,-112.91 0,-16.55 4.76,-31.54 18.26,-44.82 17.36,-16.55 45.71,-32.95 45.71,-32.95 0.29,-1.4 0.29,-3.28 0.29,-4.68 0,-20.15 -29.97,-37.95 -42.14,-37.95z"/>
   </g>
  </g>
 </g>
</svg>
