<?xml version="1.0" encoding="UTF-8"?>
<!DOCTYPE svg PUBLIC "-//W3C//DTD SVG 1.1//EN" "http://www.w3.org/Graphics/SVG/1.1/DTD/svg11.dtd">
<!-- Creator: CorelDRAW -->
<svg xmlns="http://www.w3.org/2000/svg" xml:space="preserve" width="66.218mm" height="25.157mm" version="1.1" style="shape-rendering:geometricPrecision; text-rendering:geometricPrecision; image-rendering:optimizeQuality; fill-rule:evenodd; clip-rule:evenodd"
viewBox="0 0 6621.8 2515.7"
 xmlns:xlink="http://www.w3.org/1999/xlink"
 xmlns:xodm="http://www.corel.com/coreldraw/odm/2003">
 <defs>
  <style type="text/css">
   <![CDATA[
    .fil1 {fill:#6C8990;fill-rule:nonzero}
    .fil0 {fill:#B49956;fill-rule:nonzero}
   ]]>
  </style>
 </defs>
 <g id="Capa_x0020_1">
  <metadata id="CorelCorpID_0Corel-Layer"/>
  <g id="_2004507217120">
   <path class="fil0" d="M684.27 11.52c-3.16,8.93 -12.23,19.73 -27.42,32.6 -15.2,12.66 -25.85,21.38 -32.16,25.74 -4.14,2.08 -10.26,6.44 -18.15,13.08 -7.89,6.85 -12.43,11.83 -13.61,14.95 -7.3,21.17 -11.05,47.33 -11.05,78.47 0,16.61 0.79,33.43 2.37,50.45 1.58,17.02 2.36,33.84 2.36,50.45 0,16.82 0.4,34.05 1.39,51.69 0.98,17.86 2.17,34.47 3.16,50.04 0,9.75 2.75,24.08 8.08,43.18 1.18,6.43 3.56,12.66 7.3,18.89 3.75,6.02 7.1,11.83 10.07,17.44 1.96,6.64 3.55,13.08 4.73,19.93 1.19,6.64 3.15,13.29 6.31,19.72 1.19,3.74 5.13,9.34 11.84,17.02 6.71,7.69 10.06,12.46 10.06,14.54 0,14.74 -8.87,22 -26.44,22 -8.48,0 -17.16,-3.94 -26.03,-11.62 -8.89,-7.68 -15,-14.95 -18.55,-21.8 -4.93,-6.64 -11.24,-13.5 -18.74,-20.76 -7.5,-7.27 -13.81,-14.12 -18.74,-20.76 -6.71,-6.85 -13.82,-13.08 -21.71,-18.48 -7.89,-5.4 -14.4,-11.42 -19.33,-17.85 -7.5,-7.06 -14.2,-13.71 -20.71,-20.14 -6.32,-6.44 -12.43,-13.29 -18.75,-20.14 -4.14,-3.11 -10.45,-10.17 -18.94,-20.55 -8.47,-10.59 -14.01,-18.48 -16.17,-23.88 -3.16,-4.36 -8.09,-12.66 -14.8,-24.91 -6.71,-12.04 -11.64,-20.34 -14.79,-24.91 -5.33,-5.61 -11.45,-12.67 -18.55,-20.97 -6.9,-8.3 -12.82,-15.36 -17.75,-20.97 -2.37,0 -6.71,-2.7 -12.83,-8.3 -6.11,-5.4 -9.27,-7.48 -9.27,-6.23 0,0 -0.6,5.81 -1.78,17.23 -0.98,11.63 -1.57,18.06 -1.57,19.1 0,6.64 0.59,12.87 1.57,18.89 1.18,6.23 2.17,12.67 2.96,19.52 0,5.19 0,12.45 0,21.38 0,8.93 0,14.95 0,18.06 0,14.74 -0.19,28.86 -0.59,42.77 -0.4,13.7 0.99,26.16 4.14,36.95 2.96,23.67 13.02,40.9 29.99,51.7 4.34,3.32 12.62,8.72 25.05,16.4 12.63,7.89 18.94,14.53 18.94,20.14 0,3.32 -5.32,4.77 -15.58,4.77 -9.67,0 -18.54,-1.04 -26.44,-3.32 -7.89,-2.08 -16.37,-3.32 -25.65,-3.32 -8.47,0 -19.13,1.24 -31.75,3.73 -10.46,0 -21.12,1.04 -31.77,2.91 -4.34,1.25 -12.62,3.53 -25.25,6.85 -12.43,3.12 -21.51,4.36 -26.83,3.53 -10.46,-2.28 -10.85,-6.85 -1.19,-13.29 3.16,-3.32 8.88,-6.64 17.17,-9.96 8.28,-3.53 14,-6.85 17.56,-10.17 3.15,-3.12 6.12,-9.76 9.27,-19.73 2.96,-9.96 5.12,-18.89 6.31,-26.99 1.19,-18.68 3.95,-36.74 8.09,-53.97 4.34,-17.23 6.32,-35.71 6.32,-55.64 0,-10.8 -0.8,-22.21 -2.57,-33.63 -1.77,-11.63 -2.56,-23.46 -2.56,-35.71 0,-10.17 -0.2,-20.76 -0.6,-31.97 -0.39,-11 -0.59,-22.63 -0.59,-34.88 0,-6.44 -0.59,-13.08 -1.78,-19.72 -1.18,-6.65 -1.77,-13.29 -1.77,-19.72 0,-7.06 0,-14.33 0,-22.01 0,-7.68 -0.39,-14.74 -1.58,-21.18 -1.97,-13.49 -6.11,-23.46 -12.23,-29.89 -4.15,-2.49 -10.07,-4.36 -17.55,-6.02 -7.5,-1.66 -11.26,-5.81 -11.26,-12.25 0,-6.85 6.32,-10.59 18.94,-11.21 12.83,-0.62 22.3,-0.83 28.42,-0.83 23.08,0 41.03,4.98 53.66,15.15 8.48,6.44 14.4,12.25 17.36,17.23 3.16,5.19 7.89,12.05 14.6,20.97 2.95,7.68 7.1,14.74 12.23,20.76 5.32,6.02 10.06,12.87 14.2,20.76 3.16,7.69 6.71,15.37 11.05,23.05 4.14,7.68 8.48,14.95 12.63,21.8 8.48,15.57 16.96,30.1 25.44,43.8 8.49,13.91 18.94,26.78 31.17,39.03 9.68,11.21 19.93,24.08 30.38,38.62 10.66,14.32 21.12,26.36 31.57,36.12 0,-8.93 -2.76,-23.25 -8.09,-43.18 -1.97,-12.04 -2.96,-28.86 -2.96,-49.83 0,-16.61 -0.79,-33.84 -2.17,-51.48 -1.57,-17.65 -4.14,-32.39 -7.49,-44.64 -3.16,-7.68 -5.53,-14.32 -7.1,-19.72 -1.39,-5.61 -3.16,-12.25 -5.13,-20.35 -3.56,-6.64 -7.1,-12.04 -10.66,-16.4 -3.74,-4.57 -7.1,-9.96 -10.26,-16.61 -8.29,-10.79 -17.16,-18.47 -26.43,-23.04 -5.53,-1.25 -12.83,-2.91 -22.29,-5.19 -9.48,-2.28 -14.21,-6.23 -14.21,-11.83 0,-9.76 9.47,-12.05 28.41,-7.27 18.75,4.77 31.56,7.27 38.07,7.27l15.59 0c6.12,0 20.91,-3.53 44,-10.59 23.08,-7.06 38.86,-12.25 47.34,-15.57 22.29,-7.68 40.84,-19.52 55.44,-35.3 3.15,-3.11 7.89,-6.02 14.21,-8.09 6.31,-2.29 10.45,0.41 12.42,8.09zm39.26 33.43c0,-4.36 2.17,-6.64 6.31,-6.64 1.18,0 6.51,2.69 15.98,8.3 9.47,5.4 19.92,7.06 31.36,5.19 3.56,0 7.31,-0.42 11.26,-1.04 4.14,-0.62 8.87,-0.83 14.2,-0.83l55.43 1.87c3.16,0 4.73,3.11 4.73,9.55 0,3.32 -1.57,6.02 -4.93,8.3 -3.34,2.29 -4.93,7.89 -4.93,16.82 -1.97,31.97 -7.69,60.21 -17.35,84.5 -2.97,6.85 -6.12,15.77 -9.28,26.78 -2.96,10.79 -4.54,20.34 -4.54,28.44 0,9.76 -0.79,20.34 -2.37,31.35 -1.57,11.21 -2.36,21.59 -2.36,31.35 0,19.93 1.19,39.86 3.35,59.99 1.98,19.93 7.7,38.82 16.97,56.26 3.16,8.1 6.5,15.57 10.06,22.84 3.75,7.06 7.7,13.7 11.84,20.35 4.34,6.85 10.06,11.83 17.36,15.15 20.12,11 43.8,10.38 71.21,-1.87 6.51,-2.07 15,-12.66 25.45,-32.18 10.27,-19.51 16.98,-33.63 20.13,-42.56 1.18,-6.43 2.77,-14.53 4.93,-23.66 2.17,-9.34 3.16,-18.48 3.16,-27.41l0 -69.96c0,-11 -0.99,-26.36 -2.96,-46.3 0,-6.85 -0.99,-13.7 -3.15,-20.34 -1.98,-6.64 -3.17,-13.91 -3.17,-21.59 -1.18,-3.32 -2.95,-9.55 -5.72,-18.89 -2.75,-9.35 -4.93,-15.16 -6.9,-17.65 -2.36,-0.83 -4.74,-1.87 -7.3,-2.91 -2.56,-1.24 -4.93,-2.9 -7.3,-4.98 -4.94,-2.49 -11.63,-3.53 -20.12,-3.53 -3.16,-3.32 -4.54,-6.23 -4.54,-8.72 0,-5.19 5.72,-7.89 17.17,-7.89 15.77,0 27.81,3.33 35.9,9.76 1.18,1.25 3.55,2.49 7.3,3.32 3.55,1.04 6.91,1.66 10.06,1.66 3.36,1.25 6.51,2.29 8.88,3.53 2.56,1.25 5.52,1.87 9.07,1.87 9.28,5.4 21.51,8.51 36.7,9.76 15.19,1.24 22.89,8.3 22.89,21.38 0,3.53 -3.56,10.59 -10.27,21.18 -6.71,10.59 -10.65,17.44 -11.83,20.76 -5.33,14.12 -8.1,33.01 -8.1,56.47 0,13.08 -1.17,26.78 -3.74,41.1 -2.57,14.33 -4.93,28.24 -7.1,41.73 -3.16,9.97 -4.74,18.89 -4.74,26.78 0,25.54 3.75,48.79 11.05,69.76 6.51,26.36 22.3,36.33 47.34,29.89 1.19,0 4.94,-0.83 11.26,-2.7 6.31,-1.86 9.46,-1.03 9.46,2.7 0.79,3.32 -0.99,7.27 -5.72,12.25 -4.53,4.78 -6.9,7.27 -6.9,7.27 -4.14,2.28 -13.22,3.53 -27.22,3.53 -9.28,0 -18.35,2.28 -27.43,6.85 -9.07,4.36 -18.15,6.64 -27.42,6.64 -3.16,0 -8.09,-4.57 -15,-13.49 -6.9,-8.93 -12.03,-13.29 -14.99,-13.29 -2.37,0 -5.13,3.74 -8.09,11.42 -1.97,3.32 -6.11,6.43 -12.42,9.13 -6.52,2.91 -11.25,4.99 -14.21,6.23 -14.6,6.44 -29.99,10.38 -45.77,11.42 -7.3,1.24 -14.6,2.49 -22.1,3.32 -7.5,1.04 -14.39,1.66 -20.51,1.66 -5.53,0 -14.8,-3.11 -27.82,-9.13 -13.02,-6.02 -22.29,-10.18 -27.81,-12.25 -21.91,-4.36 -38.67,-13.91 -50.31,-28.44 -8.29,-6.65 -14.21,-13.71 -17.16,-21.39 -3.17,-7.68 -6.91,-17.23 -11.06,-28.65 -4.34,-6.43 -8.87,-15.15 -13.61,-26.36 -4.74,-11.21 -9.27,-19.93 -13.61,-26.37 -6.12,-10.17 -4.93,-25.33 3.55,-45.05 8.48,-19.93 14.2,-35.91 17.36,-48.16 0,-4.36 0.98,-9.34 3.16,-14.95 2.17,-5.4 3.74,-11 4.93,-16.61 0.79,-10.17 2.76,-20.34 5.92,-30.72 3.36,-10.38 6.51,-20.56 9.67,-30.73 1.96,-7.68 4.14,-18.48 6.9,-32.18 2.76,-13.91 3.95,-25.74 3.95,-35.91 0,-22.43 -5.72,-37.37 -17.16,-45.05 -18.15,-6.44 -27.23,-15.78 -27.23,-28.03zm699.36 86.36c-15.78,4.57 -31.76,6.23 -48.13,4.99 -16.38,-1.25 -31.96,-1.87 -46.57,-1.87 -4.33,0 -7.88,-0.42 -11.04,-1.46 -3.15,-1.03 -6.12,-1.66 -9.27,-1.66 -3.36,0 -7.7,1.46 -13.02,4.36 -5.13,2.91 -8.29,4.15 -9.48,4.15 -3.15,2.08 -6.11,9.76 -9.26,23.26 -7.31,20.96 -11.05,38.61 -11.05,52.94 0,24.29 6.51,36.33 19.14,36.33 1.96,0 9.66,-3.74 23.47,-11.42 13.61,-7.68 24.66,-11.63 33.14,-11.63 21.31,0 39.07,6.02 53.86,18.27 4.15,3.12 10.26,8.51 18.15,15.78 7.89,7.27 11.84,14.12 11.84,20.76 0,10.17 -1.58,18.68 -4.94,25.74 -3.35,7.06 -5.92,14.12 -7.88,20.97 -5.33,17.44 -12.63,26.16 -21.91,26.16 -9.66,0 -13.41,-2.49 -11.44,-7.89 3.36,-4.36 7.7,-6.64 13.02,-6.64 5.13,0 7.7,-5.19 7.7,-15.16 0,-17.85 -11.64,-26.78 -34.73,-26.78 -6.51,0 -13.8,1.25 -21.89,3.53 -10.85,0 -26.64,1.04 -47.35,3.11 -5.52,0 -10.06,0.21 -13.61,0.83 -3.75,0.63 -7.11,1.04 -10.06,1.04 -3.16,4.36 -6.71,10.18 -10.46,17.23 -3.94,7.06 -5.72,13.5 -5.72,19.31 0,7.68 0.99,16.19 3.16,25.74 1.96,9.55 3.15,16.61 3.15,20.97 -0.79,8.51 -1.19,22.42 -1.19,41.32 0,5.81 3.36,9.13 10.07,10.17 6.71,1.04 11.64,1.45 14.79,1.45 11.64,0 23.48,-1.45 35.52,-4.15 12.23,-2.91 22.49,-4.36 30.97,-4.36 9.67,-0.83 19.92,0.83 30.97,5.19 10.86,4.15 21.11,6.44 30.78,6.44 17.75,0 35.52,-9.35 53.27,-28.03 4.14,-4.57 5.52,-16.19 3.94,-35.09 -1.38,-18.68 1.98,-28.23 10.45,-28.23 4.35,0 7.5,5.4 9.48,15.78 2.16,10.59 3.35,17.44 3.35,20.76 0,19.93 -2.56,34.88 -7.3,45.05 -4.73,10.17 -11.44,19.93 -19.92,29.69 -8.09,7.68 -15.59,17.64 -22.5,29.89 -7.09,12.25 -16.76,18.27 -29.59,18.27 -9.27,0 -18.35,-0.83 -27.42,-2.49 -9.08,-1.66 -18.14,-2.49 -27.42,-2.49 -10.85,0 -20.91,0 -30.38,0 -9.47,0 -18.75,0 -28.01,0 -5.33,0 -10.47,0 -15.4,0 -4.73,0 -9.66,0 -14.59,0 -25.45,0 -49.72,-3.12 -73,-9.55 -2.96,-1.25 -8.48,-3.12 -16.37,-5.19 -7.9,-2.29 -13.42,-3.95 -16.57,-5.19 -4.14,0 -8.69,0.21 -13.42,0.83 -4.93,0.62 -9.47,0.83 -13.62,0.83 -6.11,0 -9.26,-2.08 -9.26,-6.65 0,-8.92 7.3,-13.49 21.89,-13.9 14.6,-0.42 23.67,-4.16 27.23,-11.01 6.12,-17.44 9.27,-40.07 9.27,-68.09 0,-8.93 -1.57,-18.27 -4.73,-28.03 -4.14,-15.36 -6.32,-26.57 -6.32,-33.42 0,-6.44 1.58,-14.12 4.74,-23.05 2.96,-8.92 5.12,-17.85 6.31,-26.78 0,-7.68 0.79,-16.81 2.17,-27.4 1.58,-10.59 2.37,-20.14 2.37,-28.65 0,-27.82 -0.98,-47.96 -2.76,-60.21 -2.37,-13.28 -3.95,-24.91 -4.74,-34.67 -1.18,-10.17 -8.09,-16.81 -20.71,-19.93 -6.32,-2.07 -12.83,-2.9 -19.73,-2.49 -6.91,0.42 -9.86,-2.7 -8.68,-9.13 0,-1.25 3.35,-3.53 10.06,-6.65 6.9,-3.32 12.23,-4.98 16.57,-4.98 6.51,0 12.03,1.45 16.77,4.36 4.54,2.7 11.25,4.15 19.53,4.15 3.16,0 6.31,0 9.67,0 3.15,0 6.31,0 9.46,0 10.47,0 21.91,-1.45 34.73,-4.15 12.63,-2.91 23.68,-5.81 32.94,-9.13 15.79,-2.5 27.03,-4.78 33.55,-6.65 7.3,-2.49 18.94,-4.77 34.71,-6.85 10.26,0 22.3,-1.04 36.11,-3.32 13.61,-2.08 23.08,-6.44 28.61,-13.08 2.95,-5.6 8.48,-13.7 16.37,-24.29 7.89,-10.59 16.17,-15.78 24.66,-15.78 4.93,0 7.5,1.66 7.5,4.78 0,1.24 -1.38,6.43 -3.75,15.36 -2.56,8.93 -3.75,13.7 -3.75,14.53 -7.3,15.78 -11.64,25.33 -12.82,28.65 -2.18,4.36 -4.14,9.76 -5.72,15.78 -1.59,6.02 -2.97,10.8 -4.14,13.91 -3.76,12.25 -8.29,20.55 -13.82,24.91zm378.59 -93c-1.19,6.43 -2.57,13.7 -4.14,21.59 -1.58,7.89 -2.18,15.15 -2.18,21.59 0,3.32 0.99,7.06 3.17,11.62 1.96,4.36 3.15,8.31 3.15,11.42 0,4.57 0,8.93 0,13.5 0,4.36 0,8.3 0,11.62 0,9.97 -2.96,18.06 -8.69,24.29 -5.92,6.02 -10.25,12.25 -13.4,18.89 -8.49,13.29 -13.42,20.35 -15,20.97 -1.58,0.62 -8.09,4.15 -19.54,10.59 -3.54,-1.25 -8.87,-2.7 -16.17,-4.36 -7.5,-1.45 -11.05,-5.19 -11.05,-10.8 0,-6.64 4.14,-12.04 12.63,-16.4 3.15,-1.24 6.31,-3.11 9.66,-5.19 3.17,-2.28 6.32,-4.36 9.48,-6.43 3.15,-2.08 7.09,-8.31 11.84,-18.89 4.73,-10.59 5.52,-19.31 1.96,-26.16 -0.79,0 -3.74,-3.53 -9.07,-10.59 -5.52,-7.06 -9.67,-10.59 -12.82,-10.59 -11.64,0 -19.93,-1.87 -25.06,-5.19 -5.32,-3.53 -9.47,-5.19 -12.43,-5.19 -7.3,0 -12.03,0.83 -14.21,2.7 -2.16,1.87 -9.06,3.11 -20.51,3.95 -8.48,4.35 -12.82,6.64 -12.82,6.64l-4.55 38.41 0 11.41c0,7.06 4.35,16.2 13.22,27.82 8.89,11.42 14.8,19.52 17.96,23.88 6.51,9.75 12.23,18.06 16.77,24.7 4.74,6.65 12.23,13.5 22.49,20.35 3.55,3.32 7.5,6.02 12.23,8.3 4.54,2.29 9.07,4.98 13.22,8.1 5.52,5.81 12.83,12.45 22.29,20.14 9.48,7.68 15.79,14.74 18.74,21.38 1.19,3.11 3.16,7.27 5.92,12.46 2.57,4.98 4.34,11.41 5.13,19.1 0,6.43 0.79,12.04 2.37,16.4 1.38,4.36 1.78,11.83 0.99,22 0,10.8 -4.35,26.58 -13.42,47.13 -9.08,20.34 -16.17,34.05 -21.11,40.9 -12.82,15.36 -23.68,26.15 -32.75,32.38 -9.08,6.02 -21.5,13.5 -37.28,22.42 -7.3,6.44 -16.97,12.05 -28.8,16.41 -12.04,4.56 -21.31,8.3 -27.83,11.62 -9.26,3.12 -16.76,6.02 -22.48,8.1 -5.72,2.28 -13.42,3.32 -23.08,3.32 -8.49,0 -18.55,-7.68 -30.2,-23.04 -8.47,-10.18 -19.12,-23.67 -32.34,-40.7 -13.02,-17.02 -19.54,-33.21 -19.54,-48.78l0 -13.29c0,-4.57 2.38,-13.49 7.11,-26.78 4.93,-13.29 8.87,-21.59 11.83,-24.91 11.64,-14.12 29,-21.39 52.08,-21.39 15.79,0 23.67,8.72 23.67,26.16 0,2.49 -1.57,6.44 -4.93,11.84 -3.15,5.6 -6.31,8.3 -9.46,8.3 -4.93,0 -8.09,-2.49 -9.28,-7.68 -1.17,-4.98 -3.94,-7.48 -8.08,-7.48l-1.78 0c-2.96,0 -4.53,1.04 -4.53,3.33 0,2.28 -1.58,3.32 -4.75,3.32 -11.44,0 -17.36,6.64 -17.36,20.14l0 23.04c0,4.57 8.29,14.53 24.67,30.1 16.38,15.57 35.5,20.56 57.41,14.95 12.82,-3.32 22.29,-7.68 28.6,-13.08 6.51,-5.6 15.79,-13.29 28.22,-23.46 3.35,-5.6 6.31,-10.38 8.87,-14.32 2.57,-3.74 5.33,-8.93 8.29,-15.57 6.71,-13.29 11.24,-23.26 13.62,-30.11 2.55,-6.64 3.74,-17.02 3.74,-31.14 -3.74,-10.17 -13.81,-22.21 -30.18,-35.91 -16.38,-13.91 -29.79,-27.41 -40.26,-40.9 -1.17,-3.11 -6.3,-8.1 -15.38,-14.74 -9.08,-6.85 -15,-11.21 -18.15,-13.08 -7.3,-4.57 -18.35,-14.53 -32.95,-29.9 -3.15,-2.49 -6.31,-8.92 -9.46,-19.51 -3.36,-10.38 -5.92,-18.48 -7.9,-23.67 -2.95,-5.6 -7.3,-12.04 -12.62,-19.51 -5.53,-7.27 -8.09,-14.12 -8.09,-20.55l0 -4.99c0,-2.28 0.2,-4.36 0.78,-6.02 0.6,-1.66 0.79,-4.15 0.79,-7.26 3.17,-5.61 6.12,-11.63 8.69,-17.65 2.76,-6.02 7.3,-12.46 13.42,-18.89 9.66,-13.29 19.52,-22.63 29.98,-28.03 26.24,-16.61 56.23,-24.91 90.16,-24.91 7.3,0 17.36,0.62 29.79,1.66 12.62,0.83 22.1,0.83 28.61,-0.42 3.15,-0.83 11.05,-3.73 23.67,-8.72 12.83,-5.19 19.52,-7.68 20.32,-7.68 7.3,0 10.85,3.32 10.85,9.76 0,3.53 -0.79,8.72 -2.76,15.16zm277.38 335.69c0,5.4 0,13.5 0,24.71 0,11.21 0.59,18.89 1.77,23.46 0.79,3.11 1.18,10.79 1.18,23.04 0,6.44 0.99,14.12 3.36,23.05 0,7.05 2.36,12.24 7.29,16.19 4.74,3.94 8.69,8.93 11.85,15.57 1.96,8.93 4.93,13.91 9.27,15.15 6.11,3.33 13.41,4.78 21.89,4.78 5.33,0 13.02,-2.49 23.09,-7.47 10.06,-5.19 17.75,-7.69 23.08,-7.69 8.09,0 12.23,3.53 12.23,10.38 0,3.33 -2.96,7.27 -8.68,12.25 -5.72,4.78 -9.67,8.51 -11.64,10.8 -6.51,6.64 -21.3,9.76 -44.39,9.76 -11.64,0 -23.28,-1.25 -35.32,-3.95 -11.83,-2.7 -24.26,-3.94 -36.89,-3.94 -3.15,0 -5.32,0.2 -6.51,0.62 -0.98,0.42 -2.56,0.62 -4.53,0.62 -14.99,0 -26.24,-0.83 -33.54,-2.49 -7.3,-1.66 -23.09,-1.87 -47.35,-0.62 -13.61,0 -20.91,-1.25 -22.09,-3.53 2.37,-9.76 7.3,-14.95 14.6,-15.57 7.29,-0.62 15.58,-2.49 24.85,-5.81 6.51,-1.25 10.46,-6.85 12.04,-16.61 1.57,-9.97 3.35,-18.89 5.33,-26.58 2.16,-6.43 3.94,-15.57 4.73,-27.4 0.99,-11.63 2.17,-20.76 3.35,-27.4 0,-9.97 0.2,-20.14 0.79,-30.11 0.59,-9.75 1.78,-19.72 3.75,-29.48 0,-9.96 -0.19,-19.72 -0.59,-29.06 -0.39,-9.34 0.4,-19.1 2.36,-29.27 1.19,-8.93 1.39,-18.69 0.79,-29.28 -0.59,-10.38 -0.79,-20.55 -0.79,-30.31 0,-4.36 -0.39,-9.13 -0.99,-14.32 -0.58,-4.98 -0.78,-10.38 -0.78,-15.99 0,-15.57 -0.39,-25.53 -1.18,-29.89 -1.19,-6.44 -1.78,-16.19 -1.78,-28.86 0,-12.87 0,-23.67 0,-32.59 -5.33,-3.32 -10.85,-4.57 -16.77,-3.95 -5.72,0.63 -11.04,0.83 -16.18,0.83 -10.65,0 -18.55,1.04 -23.67,3.12 -13.81,5.6 -25.06,14.53 -33.54,26.78 -4.93,6.43 -9.47,13.08 -13.22,19.72 -3.94,6.64 -7.3,12.87 -10.45,18.69 -7.3,10.79 -11.44,17.02 -12.63,18.06 -1.97,2.07 -4.34,5.39 -6.9,9.75 -2.77,4.57 -5.13,6.86 -7.11,6.86 -7.3,0 -11.44,-4.57 -12.62,-13.5 6.11,-12.87 11.44,-23.46 15.59,-31.55 5.32,-8.52 9.66,-21.18 12.81,-37.79 0,-6.85 0.6,-14.12 2.18,-21.8 1.58,-7.68 2.37,-15.57 2.37,-23.25 0,-6.85 -0.2,-15.36 -0.59,-25.74 -0.4,-10.38 2.55,-15.57 8.67,-15.57 3.16,0.83 7.3,3.11 12.43,7.06 5.13,3.73 11.06,6.43 17.56,7.47 11.64,4.57 30.57,6.85 56.62,6.85 5.52,0 10.07,-0.62 13.61,-1.66 3.75,-1.04 7.7,-1.45 11.84,-1.45 13.61,0 23.08,-0.63 28.4,-1.87 12.63,-3.12 20.53,-4.78 23.69,-4.78 8.47,0 16.96,-1.24 25.44,-3.73 8.49,0 17.37,0.41 26.83,1.03 9.47,0.63 18.35,-0.83 26.84,-3.94 13.6,-2.49 22.88,-5.4 28.01,-8.72 5.32,-3.11 10.65,-4.77 15.97,-4.77 6.12,0 9.87,4.77 11.06,13.91 1.17,9.34 2.16,17.85 3.35,25.74 0.79,12.45 3.36,28.65 7.5,48.58 1.18,4.36 2.75,12.04 4.73,23.04 1.19,5.81 1.78,14.12 1.78,24.91 -1.19,6.65 -2.37,15.78 -3.36,28.03 -0.79,12.25 -3.55,18.27 -7.69,18.27 -6.11,0 -9.47,-5.19 -10.07,-15.78 -0.59,-10.59 -0.98,-19.1 -0.98,-25.53 0,-7.68 -1.97,-14.54 -6.32,-20.14 -4.14,-8.93 -7.29,-14.33 -9.26,-16.4 -6.52,-6.44 -15.78,-14.95 -28.02,-25.54 -12.04,-10.58 -23.87,-15.77 -35.51,-15.77 -8.09,0 -14.2,1.03 -18.55,2.9 -3.35,2.49 -5.72,10.38 -6.71,23.46 -0.78,13.29 -1.37,21.38 -1.37,24.71 -1.19,6.85 -1.98,13.08 -2.57,18.47 -0.59,5.61 -0.79,11.01 -0.79,16.82 0,17.44 -0.39,29.48 -1.18,36.54 -1.18,12.04 -1.58,24.7 -0.98,37.99 0.58,13.08 0.98,25.33 0.98,36.75 0,12.87 -0.4,25.74 -0.98,38.61 -0.6,12.66 -0.79,24.91 -0.79,36.12z"/>
   <path class="fil0" d="M2446.99 88.13l-28.42 3.12c-3.34,10.17 -5.91,16.6 -7.49,19.51 -1.58,2.7 -3.75,6.85 -6.9,12.04 -2.37,3.32 -4.94,9.14 -8.09,17.44 -3.16,8.3 -3.95,14.32 -2.97,17.85l6.51 44.43c0,5.61 0,10.8 0,15.16 0,4.56 0,8.92 0,13.49 0,6.44 -0.59,11.21 -1.76,13.91 -1.19,2.91 -1.19,6.85 0,12.25 6.11,4.36 11.83,4.98 17.36,1.87 5.32,-3.32 11.04,-5.61 17.35,-6.85 11.45,0 20.53,-5.82 26.84,-17.23 6.3,-11.63 11.04,-22.84 14.2,-33.84 0.98,-6.86 2.37,-14.74 3.95,-23.67 1.57,-8.93 3.94,-17.23 6.89,-24.91 0,-3.33 3.56,-10.38 10.47,-21.39 6.9,-10.79 10.45,-17.02 10.45,-18.27 0,-2.28 -3.15,-6.22 -9.66,-11.83 -6.32,-5.4 -10.66,-8.72 -12.83,-9.96 -11.64,-3.33 -23.67,-4.36 -35.9,-3.12zm-123.11 129.55c0,-12.04 -1.18,-24.5 -3.16,-37.37 -2.16,-12.67 -3.15,-25.75 -3.15,-39.24 -1.19,-17.44 -4.93,-30.52 -11.44,-39.44 -6.31,-8.93 -18.94,-13.5 -37.68,-13.5 -6.32,-3.11 -9.28,-7.06 -9.28,-11.42 0,-4.56 5.72,-6.85 17.36,-6.85 9.08,-1.04 19.14,-3.11 29.6,-6.02 10.65,-2.91 21.1,-4.57 31.56,-5.4 15.78,-1.24 31.56,-2.28 47.35,-3.32 15.78,-1.04 31.76,-2.9 47.54,-5.19 7.31,0 14.61,0.21 21.9,0.83 7.3,0.62 15.79,1.04 25.45,1.04 11.44,-1.25 26.83,-0.62 45.58,1.66 15.77,6.64 27.41,11.42 34.71,14.74 6.52,3.11 12.43,6.02 17.36,8.51 8.49,1.87 13.22,6.44 14.41,13.29 0,6.44 -1.38,11.63 -3.95,15.57 -2.76,3.74 -4.54,7.89 -5.33,12.46 -6.51,24.29 -10.25,43.18 -11.44,56.46 0,9.76 -0.99,19.1 -2.95,28.03 -2.97,10.17 -13.62,22.84 -31.57,38.41 -17.75,15.36 -31.57,24.91 -41.23,28.44 2.36,9.76 4.54,19.1 6.71,28.03 1.96,8.92 4.73,17.85 7.69,26.78 6.11,21.17 16.77,40.9 31.76,59.58 6.31,10.17 11.44,19.52 15.59,28.03 1.97,6.85 6.5,18.27 13.41,34.25 6.9,16.2 12.43,25.12 16.77,27.2 6.12,4.36 10.06,7.26 11.45,8.51 1.57,1.25 5.72,4.98 12.23,11.42 4.93,7.89 15.38,11.62 31.17,11.62 5.32,0 9.86,-2.49 13.6,-7.26 3.76,-4.78 8.09,-7.89 13.62,-9.14 4.93,0 8.68,4.57 10.85,13.5 0,1.87 -5.13,6.43 -15.58,13.28 -2.18,2.08 -4.93,4.99 -8.1,8.72 -2.95,3.95 -5.12,5.82 -6.31,5.82 -6.12,3.32 -14,5.6 -23.67,6.64 -8.48,0 -16.37,1.25 -23.68,3.53 -7.3,2.08 -14.6,2.7 -21.89,1.45 -2.37,0 -7.7,-1.66 -15.99,-4.98 -8.27,-3.11 -13.61,-5.4 -15.97,-6.64 -9.08,-3.12 -17.56,-10.38 -25.45,-21.18 -2.96,-4.57 -5.53,-9.55 -7.7,-14.95 -2.16,-5.39 -4.73,-11 -7.88,-16.81 -4.94,-10.8 -10.07,-22.01 -15.59,-33.43 -12.63,-19.72 -21.11,-42.97 -25.45,-69.34 -1.77,-10.17 -3.55,-20.76 -5.13,-31.97 -1.58,-11 -2.96,-22 -3.94,-33.01 0,-11 -3.76,-15.98 -11.05,-15.15 -5.34,0 -14.6,1.04 -27.82,3.32 -13.02,2.08 -20.72,5.19 -23.08,8.72 1.18,19.93 1.18,38.2 0,54.81 -1.98,28.85 -2.37,50.24 -1.19,64.35 0.79,24.5 15.98,34.26 45.78,29.9 8.47,0 14.19,4.98 17.36,15.15 0,4.57 -3.76,6.65 -11.05,6.65 -6.51,1.24 -12.23,1.66 -16.78,1.04 -4.73,-0.63 -10.25,-1.04 -16.76,-1.04 -23.08,0 -39.85,0.62 -50.31,1.87 -8.48,2.07 -16.97,4.98 -25.45,8.92 -8.48,3.74 -16.37,6.85 -23.68,9.35 -29.19,7.68 -53.26,12.04 -72.2,12.87 -16.96,2.28 -25.45,-2.49 -25.45,-14.74 0,-3.12 2.57,-5.19 7.7,-5.82 5.32,-0.62 9.07,-1.45 11.44,-2.7 4.93,0 12.82,-2.07 23.67,-6.64 2.96,-0.83 8.29,-4.15 15.59,-9.76 7.3,-5.6 12.03,-10.79 14.4,-15.15 3.16,-6.44 5.72,-12.87 7.89,-18.89 1.98,-6.02 4.73,-12.25 7.7,-18.9 1.96,-4.35 3.94,-11.41 6.11,-20.96 2.17,-9.55 3.75,-17.44 4.93,-23.88 0,-7.06 0.99,-14.74 3.15,-23.46 2.18,-8.72 3.76,-16.61 4.94,-23.46 0,-6.43 0.2,-14.94 0.6,-25.53 0.39,-10.59 0.58,-19.1 0.58,-25.54 -0.78,-13.49 -1.18,-32.18 -1.18,-56.67zm421.99 -26.78c0,8.92 0,16.6 0,22.62 0,6.02 0,12.25 0,18.9 -1.97,6.85 -2.37,14.11 -1.38,21.79 0.79,7.69 1.38,14.74 1.38,21.39 0,11.21 -0.39,26.16 -0.79,44.43 -0.59,18.06 0.2,32.17 2.56,41.93 0.79,6.85 1.38,13.7 1.98,20.35 0.59,6.64 1.97,13.28 4.33,19.72 0.79,10.17 6.51,18.48 17.37,24.91 4.93,3.32 13.21,9.34 24.85,18.27 2.37,2.08 6.31,5.19 12.04,9.76 5.92,4.36 10.26,6.64 13.41,6.64 4.15,0 11.06,-6.02 20.72,-18.27 1.98,-3.11 7.1,-8.09 15.58,-14.53 4.35,-4.57 9.08,-10.59 14.21,-18.27 5.13,-7.68 10.45,-13.29 15.97,-17.02 7.31,-6.44 11.65,-12.46 13.22,-17.86 1.58,-5.6 4.35,-13.28 8.69,-23.46 3.15,-10.17 4.93,-19.1 5.52,-26.78 0.59,-7.68 0.79,-18.68 0.79,-32.8 0,-3.32 0.4,-8.3 0.99,-14.95 0.4,-6.64 0.79,-12.24 0.79,-16.81 0,-4.36 -0.39,-9.14 -0.79,-14.12 -0.59,-5.19 -0.99,-11 -0.99,-17.44 0,-14.53 -1.38,-24.08 -3.94,-28.23 -2.77,-4.36 -6.71,-10.8 -11.65,-19.72 -5.32,-7.06 -10.45,-13.08 -15.38,-18.69 -4.73,-5.4 -8.69,-12.04 -11.84,-19.72 -9.08,-17.86 -25.84,-26.78 -50.31,-26.78 -13.81,0 -23.67,3.32 -29.39,9.96 -5.72,6.85 -11.64,12.87 -17.95,18.69 -6.51,5.19 -13.22,12.04 -19.93,20.34 -6.71,8.31 -10.06,16.82 -10.06,25.75zm79.11 334.03c-2.17,0 -7.89,-3.11 -16.77,-9.13 -8.88,-6.02 -14.4,-10.18 -16.77,-12.25 -7.3,-5.61 -18.74,-11.21 -34.52,-17.03 -13.62,-5.19 -25.65,-10.79 -36.3,-16.4 -10.46,-5.6 -20.13,-13.91 -28.61,-24.91 -9.07,-12.25 -15.98,-22.83 -20.12,-32.18 -4.34,-9.34 -6.31,-25.74 -6.31,-49.41 0,-16.61 -0.4,-34.04 -0.99,-52.11 -0.59,-18.27 0.79,-35.7 3.74,-52.31 1.19,-7.89 1.78,-15.78 1.78,-24.08 0,-8.31 1.58,-16.41 4.73,-24.09 2.97,-6.43 5.92,-12.45 8.49,-18.27 2.76,-5.6 5.72,-11.62 8.68,-18.27 6.7,-10.17 13.61,-20.55 20.91,-31.55 7.3,-11 15.59,-20.35 24.86,-28.03 4.14,-3.53 8.68,-7.89 13.61,-12.66 4.74,-4.98 9.67,-8.93 14.6,-12.25 5.53,-4.36 10.66,-8.1 15.39,-11 4.73,-2.7 10.26,-6.44 16.57,-10.8 11.44,-7.68 22.1,-14.95 31.76,-21.38 4.14,-3.53 9.47,-8.1 15.58,-13.7 6.12,-5.4 12.43,-8.1 19.14,-8.1 6.12,0 13.02,4.98 20.92,14.74 7.89,9.96 14.01,16.61 18.35,19.93 6.11,6.85 12.03,13.29 17.95,19.31 5.72,6.22 11.83,12.45 18.34,18.89 9.27,10.17 21.7,22.83 37.09,37.78 15.39,14.95 23.08,31.77 23.08,50.45l0 58.34c0,9.75 -0.98,18.47 -3.15,26.16 -2.17,7.68 -3.16,15.36 -3.16,23.25 -3.15,14.53 -7.3,29.48 -12.82,44.84 -6.51,19.93 -11.64,33.63 -15.58,41.52 -5.33,9.97 -8.89,16.82 -10.46,19.93 -1.38,3.32 -5.53,8.31 -12.03,15.16 -4.94,4.56 -10.27,9.13 -15.59,14.11 -5.33,4.78 -10.26,9.14 -14.41,12.67 -6.31,4.15 -11.44,8.72 -15.78,13.7 -4.14,5.19 -8.29,9.96 -12.62,14.32 -4.93,5.61 -9.27,11.01 -13.02,15.78 -3.55,4.98 -7.5,10.17 -11.84,15.99 -4.14,4.36 -9.86,9.34 -16.77,14.74 -6.9,5.6 -12.82,8.3 -17.95,8.3zm480.97 -486.62c-1.19,6.43 -2.56,13.7 -4.14,21.59 -1.58,7.89 -2.18,15.15 -2.18,21.59 0,3.32 0.99,7.06 3.17,11.62 1.96,4.36 3.15,8.31 3.15,11.42 0,4.57 0,8.93 0,13.5 0,4.36 0,8.3 0,11.62 0,9.97 -2.96,18.06 -8.68,24.29 -5.92,6.02 -10.26,12.25 -13.41,18.89 -8.49,13.29 -13.42,20.35 -15,20.97 -1.57,0.62 -8.08,4.15 -19.53,10.59 -3.55,-1.25 -8.88,-2.7 -16.18,-4.36 -7.5,-1.45 -11.05,-5.19 -11.05,-10.8 0,-6.64 4.14,-12.04 12.63,-16.4 3.15,-1.24 6.31,-3.11 9.66,-5.19 3.17,-2.28 6.32,-4.36 9.48,-6.43 3.15,-2.08 7.1,-8.31 11.84,-18.89 4.73,-10.59 5.52,-19.31 1.96,-26.16 -0.78,0 -3.74,-3.53 -9.07,-10.59 -5.52,-7.06 -9.66,-10.59 -12.82,-10.59 -11.64,0 -19.93,-1.87 -25.06,-5.19 -5.32,-3.53 -9.46,-5.19 -12.43,-5.19 -7.3,0 -12.03,0.83 -14.2,2.7 -2.17,1.87 -9.07,3.11 -20.52,3.95 -8.48,4.35 -12.82,6.64 -12.82,6.64l-4.54 38.41 0 11.41c0,7.06 4.34,16.2 13.22,27.82 8.88,11.42 14.79,19.52 17.96,23.88 6.51,9.75 12.23,18.06 16.76,24.7 4.74,6.65 12.23,13.5 22.49,20.35 3.56,3.32 7.5,6.02 12.23,8.3 4.54,2.29 9.08,4.98 13.22,8.1 5.52,5.81 12.83,12.45 22.29,20.14 9.48,7.68 15.79,14.74 18.74,21.38 1.19,3.11 3.16,7.27 5.92,12.46 2.57,4.98 4.35,11.41 5.14,19.1 0,6.43 0.78,12.04 2.36,16.4 1.38,4.36 1.78,11.83 0.99,22 0,10.8 -4.34,26.58 -13.42,47.13 -9.07,20.34 -16.17,34.05 -21.1,40.9 -12.83,15.36 -23.68,26.15 -32.76,32.38 -9.08,6.02 -21.5,13.5 -37.28,22.42 -7.3,6.44 -16.97,12.05 -28.8,16.41 -12.04,4.56 -21.31,8.3 -27.83,11.62 -9.26,3.12 -16.76,6.02 -22.48,8.1 -5.72,2.28 -13.42,3.32 -23.08,3.32 -8.49,0 -18.55,-7.68 -30.19,-23.04 -8.48,-10.18 -19.13,-23.67 -32.35,-40.7 -13.02,-17.02 -19.54,-33.21 -19.54,-48.78l0 -13.29c0,-4.57 2.38,-13.49 7.11,-26.78 4.93,-13.29 8.88,-21.59 11.83,-24.91 11.64,-14.12 29,-21.39 52.09,-21.39 15.78,0 23.67,8.72 23.67,26.16 0,2.49 -1.58,6.44 -4.93,11.84 -3.16,5.6 -6.31,8.3 -9.47,8.3 -4.93,0 -8.09,-2.49 -9.27,-7.68 -1.18,-4.98 -3.95,-7.48 -8.09,-7.48l-1.78 0c-2.95,0 -4.53,1.04 -4.53,3.33 0,2.28 -1.58,3.32 -4.74,3.32 -11.44,0 -17.36,6.64 -17.36,20.14l0 23.04c0,4.57 8.28,14.53 24.66,30.1 16.38,15.57 35.51,20.56 57.41,14.95 12.82,-3.32 22.29,-7.68 28.6,-13.08 6.51,-5.6 15.79,-13.29 28.22,-23.46 3.35,-5.6 6.31,-10.38 8.87,-14.32 2.57,-3.74 5.33,-8.93 8.29,-15.57 6.71,-13.29 11.24,-23.26 13.62,-30.11 2.55,-6.64 3.74,-17.02 3.74,-31.14 -3.74,-10.17 -13.81,-22.21 -30.18,-35.91 -16.38,-13.91 -29.79,-27.41 -40.25,-40.9 -1.18,-3.11 -6.31,-8.1 -15.39,-14.74 -9.07,-6.85 -14.99,-11.21 -18.15,-13.08 -7.3,-4.57 -18.35,-14.53 -32.94,-29.9 -3.16,-2.49 -6.31,-8.92 -9.47,-19.51 -3.35,-10.38 -5.92,-18.48 -7.9,-23.67 -2.95,-5.6 -7.29,-12.04 -12.62,-19.51 -5.53,-7.27 -8.09,-14.12 -8.09,-20.55l0 -4.99c0,-2.28 0.2,-4.36 0.79,-6.02 0.6,-1.66 0.79,-4.15 0.79,-7.26 3.16,-5.61 6.12,-11.63 8.68,-17.65 2.77,-6.02 7.3,-12.46 13.42,-18.89 9.66,-13.29 19.53,-22.63 29.98,-28.03 26.24,-16.61 56.23,-24.91 90.16,-24.91 7.3,0 17.36,0.62 29.79,1.66 12.62,0.83 22.1,0.83 28.61,-0.42 3.15,-0.83 11.05,-3.73 23.67,-8.72 12.83,-5.19 19.53,-7.68 20.33,-7.68 7.29,0 10.84,3.32 10.84,9.76 0,3.53 -0.79,8.72 -2.76,15.16zm464 59.58c0,10.17 -0.58,19.1 -1.76,26.78 -1.19,7.68 -1.78,15.36 -1.78,23.04 -1.78,17.86 -2.77,33.64 -2.77,46.92 0,9.76 0,18.48 0,26.16 0,7.68 -0.58,15.57 -1.77,23.67 -1.18,9.75 -2.96,16.81 -5.52,21.38 -2.57,4.36 -4.35,10.59 -5.52,18.27 5.52,5.61 14.59,7.89 27.81,6.64 13.02,-1.24 22.68,-2.9 28.8,-4.98 5.52,-2.28 12.43,-5.81 20.92,-10.17 10.45,-8.51 18.94,-21.18 25.45,-37.79 1.77,-6.85 4.93,-13.28 9.26,-19.51 4.15,-6.02 7.9,-12.25 10.85,-18.89 2.37,-3.12 4.35,-6.65 5.92,-10.59 1.38,-3.74 3.16,-7.47 5.14,-11.21 6.51,-6.44 9.86,-12.87 9.86,-19.52l0 -3.53c0,-1.24 -1.78,-5.19 -4.93,-11.62 -3.36,-6.44 -4.93,-11.63 -4.93,-15.16 -3.16,-6.64 -8.29,-13.7 -15.59,-21.38 -5.53,-3.11 -13.22,-7.68 -23.08,-13.29 -10.06,-5.81 -19.34,-8.51 -27.82,-8.51l-12.04 0c-18.15,0 -30.38,4.36 -36.5,13.29zm-132.96 -39.45c0,-5.81 2.77,-8.51 8.09,-8.51 2.36,0 6.31,1.66 12.23,4.78 5.72,3.32 10.06,4.98 13.22,4.98 3.15,1.04 7.89,2.28 14.2,3.53 6.31,1.24 11.06,1.87 14.21,1.87 9.46,0 19.13,-1.66 28.6,-5.19 9.28,-3.53 18.74,-5.61 28.02,-6.44 9.66,0 19.33,-1.24 29.39,-4.15 10.06,-2.91 20.92,-4.36 32.36,-4.36 22.09,0 41.62,2.7 58.98,8.3 17.36,5.4 33.94,11.63 49.72,18.48 6.51,3.32 14.21,7.27 23.08,12.25 8.88,4.77 15.39,10.17 19.73,15.78 6.12,8.92 10.85,16.19 14.21,21.59 3.15,5.4 4.73,15.57 4.73,30.1l0 3.11c0,1.25 -4.14,3.95 -12.63,8.52 -5.32,1.86 -9.67,5.19 -12.62,9.75 -3.16,5.61 -5.53,11.42 -7.11,17.65 -1.38,6.02 -3.94,10.59 -7.5,13.91 -2.95,4.36 -6.31,8.51 -10.05,12.46 -3.75,3.73 -7.11,7.47 -10.06,10.58 -5.52,4.57 -8.88,9.55 -10.46,14.95 -1.58,5.4 -3.75,10.38 -6.91,14.95 -3.15,6.85 -5.72,11.21 -8.08,13.29 -3.16,2.49 -5.53,4.56 -6.91,6.02 -1.58,1.66 -3.55,3.11 -5.92,4.36 -4.14,4.56 -8.29,8.3 -12.43,11.62 -3.94,3.12 -8.09,6.44 -12.42,9.76 -4.14,3.11 -8.69,6.23 -13.42,9.13 -4.93,2.7 -8.87,5.19 -11.84,7.27 -10.45,8.93 -21.5,13.29 -32.95,13.29 -6.7,0 -12.81,-1.87 -18.54,-5.82 -5.92,-3.73 -11.25,-5.81 -16.18,-5.81 -3.54,0 -8.09,0.42 -14.01,1.04 -5.72,0.62 -8.67,1.45 -8.67,2.7 0,2.07 0,5.81 0,11.21 0,5.6 0,9.55 0,11.83 0,4.57 0.39,12.04 0.99,22.63 0.59,10.59 0.79,17.44 0.79,20.55 0,4.57 0.78,11.84 2.36,21.59 1.58,9.97 2.96,15.99 3.95,18.07 0,1.24 1.37,8.09 4.14,20.96 2.76,12.67 4.14,19.1 4.14,19.1 0,3.33 -0.59,6.65 -1.78,10.18 -1.17,3.32 -1.17,6.64 0,9.96 0,4.36 2.77,8.51 8.69,12.46 5.72,3.74 10.05,6.85 13.22,8.72 3.15,3.32 7.1,6.43 11.83,9.13 4.93,2.91 9.86,5.61 15.39,7.89 6.11,3.32 18.14,5.4 36.11,6.44 17.95,1.03 31.95,1.45 42.41,1.45 2.36,0 3.55,1.25 3.55,3.74 0,3.32 -5.33,5.6 -15.98,7.26 -10.66,1.66 -17.37,2.49 -20.52,2.49l-31.76 0c-6.12,0 -17.76,-2.28 -34.72,-6.64 -5.33,0 -10.26,-1.45 -15,-4.36 -4.53,-2.7 -9.07,-4.57 -13.22,-5.4 -6.31,-1.24 -15.18,-4.15 -27.02,-8.51 -11.64,-4.57 -24.27,-6.64 -37.68,-6.64 -10.46,1.04 -20.72,2.07 -30.78,2.7 -10.06,0.62 -20.32,0.83 -31.17,0.83 -0.79,0 -1.78,-1.87 -2.96,-5.4 3.16,-2.08 7.3,-3.74 12.43,-4.98 5.33,-1.04 9.67,-3.32 13.02,-6.65 3.16,-4.36 6.9,-13.07 11.05,-26.15 3.15,-14.54 6.71,-36.33 11.05,-64.98 1.18,-7.69 1.78,-15.78 2.17,-24.09 0.39,-8.3 1.77,-17.02 4.14,-25.95 3.15,-9.55 4.54,-14.53 4.54,-14.53 1.18,-4.36 1.77,-9.76 1.77,-15.78 0,-6.02 0.4,-12.66 1.19,-19.51 1.18,-6.44 1.77,-18.69 1.77,-36.54 0,-6.44 -0.59,-13.7 -1.57,-22.01 -0.79,-8.51 -1.39,-16.4 -1.39,-24.08 0,-6.85 0,-13.08 0,-18.68 0,-5.4 0,-11.42 0,-17.86l0 -66.85 1.19 -36.53c-3.16,-0.84 -5.72,-1.87 -7.89,-3.12 -1.98,-1.24 -4.14,-2.7 -5.92,-4.77 -8.49,-4.57 -14.41,-6.65 -17.36,-6.65 -8.49,0 -14.8,-1.24 -19.14,-3.73 -5.32,-2.08 -8.09,-6.86 -8.09,-14.54zm685.95 114.39l-17.35 77.86c-2.97,12.45 -2.97,31.34 0,56.67 3.15,25.54 5.32,43.18 6.51,53.36 2.95,21.79 7.3,37.78 12.62,47.95 4.34,8.93 8.88,15.16 13.81,18.27 3.16,2.08 7.49,3.74 12.82,4.98 5.33,1.04 8.09,3.95 8.09,8.52 -2.37,10.79 -11.44,14.74 -27.22,11.41l-7.5 -1.66c-16.96,-1.24 -30.58,-9.55 -41.04,-25.12 -6.5,-5.19 -10.85,-12.04 -13.01,-20.34 -2.17,-8.31 -5.34,-14.74 -9.48,-19.1 -18.94,29.48 -37.09,59.79 -54.44,90.93 -17.36,30.93 -48.14,43.18 -92.33,36.75l-4.74 -1.87c-13.41,-1.04 -27.23,-6.02 -41.62,-14.74 -14.21,-8.72 -24.46,-17.03 -30.58,-24.71 -16.97,-15.78 -23.87,-42.97 -20.72,-81.59 2.18,-22.21 4.93,-38.4 8.09,-48.37 2.96,-9.76 10.85,-21.59 23.68,-34.88 14.59,-16.6 36.1,-29.89 64.7,-39.44 14.6,-4.57 26.44,-9.34 35.32,-14.33 8.68,-5.19 20.12,-10.79 33.93,-17.43 10.45,-5.61 20.72,-12.25 30.78,-19.93 9.86,-7.89 17.55,-19.31 23.08,-34.67 8.48,-21.18 11.04,-34.88 7.49,-41.53 -6.11,-6.85 -16.56,-15.15 -31.17,-24.91 -11.64,-5.6 -24.06,-12.04 -37.28,-19.51 -13.42,-7.27 -27.22,-11.84 -42.02,-13.91l-2.77 -1.87c-20.12,-1.87 -37.08,6.43 -50.89,24.91 -13.42,21.18 -16.38,33.43 -8.49,36.54 7.89,3.32 11.44,9.97 10.26,20.14 -1.18,5.6 -6.51,10.79 -15.58,15.15 -7.5,-4.36 -14.21,-8.92 -20.53,-13.28 -6.51,-4.57 -8.67,-13.5 -6.7,-26.78 1.18,-12.25 7.49,-24.92 19.13,-38.41 11.45,-13.29 21.51,-22.63 29.99,-28.03 12.63,-6.85 23.09,-14.12 30.97,-21.8 7.9,-7.68 22.7,-9.96 44.79,-6.64l6.31 0c14.61,3.53 30.98,10.59 48.73,20.97 17.95,10.38 33.35,18.89 45.97,25.74 6.32,4.57 15.39,8.1 27.62,10.8 12.03,2.49 19.73,6.02 22.68,10.58 8.49,15.78 11.26,34.05 8.09,54.81l0 8.51zm-82.07 139.72c1.98,-20.14 -3.15,-31.35 -15.58,-33.42l-5.13 0c-17.75,-2.29 -30.58,9.76 -38.47,36.54 -7.89,26.78 -14.99,39.44 -21.1,38.4l-1.78 0c-5.33,0 -8.49,-3.73 -9.48,-11 -0.98,-7.27 -2.95,-11.42 -6.11,-12.25l-3.35 0c-28.61,-3.53 -44.39,8.51 -47.55,36.54 0,2.08 0.4,4.15 0.99,6.44 0.59,2.28 0.78,3.94 0.78,5.19 6.12,10.79 10.07,17.43 11.85,19.72 1.77,2.28 7.29,7.26 16.57,14.95 7.3,6.43 12.43,11.41 15.58,15.15 3.36,2.08 5.92,4.78 7.5,8.1 1.58,3.53 3.74,5.6 6.9,6.43 14.6,-21.8 29.2,-41.1 44,-57.71 6.51,-6.85 14.79,-16.4 24.86,-28.65 9.86,-12.04 15.97,-23.67 17.95,-34.67l1.57 -9.76z"/>
   <path class="fil0" d="M4510.95 91.25c-0.79,16.6 -0.79,33.21 0.2,49.82 0.99,16.61 1.58,33.22 1.58,49.83 0,11 0.2,22.42 0.79,34.04 0.59,11.84 0.79,22.63 0.79,32.39 0,23.46 -0.59,45.88 -1.58,67.47 -1.19,21.38 -1.19,45.05 0,70.59 0,6.43 0.59,13.7 2.17,21.59 1.57,7.89 2.96,15.15 4.14,21.59 12.63,2.49 22.69,3.53 29.99,3.53 15.79,0 28.4,0.21 37.88,0.62 9.46,0.42 21.1,-8.1 34.92,-25.54 4.34,-6.85 9.47,-13.7 15.59,-20.34 6.31,-6.64 11.44,-13.91 15.58,-21.59 9.67,-16.61 16.57,-34.26 20.91,-52.94 3.15,-8.93 6.51,-18.69 10.06,-29.07 3.75,-10.58 5.52,-20.76 5.52,-30.51 0,-10.18 -1.38,-22.42 -4.14,-36.75 -2.56,-14.32 -4.93,-25.53 -6.9,-33.22 -2.97,-6.43 -8.29,-14.11 -15.58,-23.04 -7.3,-8.93 -13.02,-16.82 -17.37,-23.67 -9.66,-13.08 -23.87,-26.57 -42.61,-40.48 -18.94,-14.12 -36.3,-20.97 -52.08,-20.97 -20.13,0 -33.35,2.08 -39.86,6.65zm41.04 -52.94c19.92,2.07 42.81,8.72 68.06,20.13 13.61,6.44 23.68,11.84 30.19,16.4 20.71,15.37 36.5,29.48 47.15,42.36 10.45,12.66 22.68,30.51 36.69,53.77 4.93,10.17 8.68,21.59 11.44,34.25 2.77,12.87 6.12,24.71 10.46,35.71 3.16,8.93 7.89,19.93 14.8,33.01 6.71,13.28 10.06,23.87 10.06,31.97 0,8.51 -7.31,22.63 -21.9,41.93 -14.8,19.52 -25.05,34.26 -31.37,44.43 -5.32,6.44 -10.65,13.29 -15.78,20.35 -5.33,7.26 -9.87,14.11 -14.2,20.97 -9.68,13.49 -18.94,22.62 -27.83,27.4 -8.87,4.98 -19.52,10.8 -32.34,17.65 -8.49,3.32 -17.37,5.39 -26.84,6.43 -9.46,1.04 -17.16,4.98 -23.47,11.84 -3.36,3.32 -6.12,6.43 -8.29,9.75 -2.17,3.32 -4.74,6.44 -7.89,9.76 -8.48,8.1 -16.97,11 -25.84,8.72 -8.89,-2.08 -17.56,-5.19 -26.05,-8.72 -10.45,-2.08 -19.92,-3.94 -28.4,-5.61 -8.49,-1.45 -18.94,-2.28 -31.77,-2.28 -13.41,0 -27.62,0 -42.41,0 -14.8,0 -28.02,3.74 -39.66,11.42 -3.15,3.32 -6.91,8.3 -11.64,14.95 -4.53,6.64 -8.67,10.17 -12.03,10.17 -1.98,0 -2.96,-2.28 -2.96,-6.85 0,-1.25 1.38,-4.15 4.14,-9.14 2.57,-4.77 3.95,-8.51 3.95,-10.79 4.34,-6.64 8.28,-11 12.23,-13.5 5.32,-3.11 11.44,-5.39 18.54,-6.43 6.91,-0.83 14.01,-3.32 21.31,-6.85 3.15,-0.83 8.48,-3.74 16.37,-8.93 7.9,-4.98 12.43,-9.13 13.62,-12.46 3.15,-8.92 5.13,-18.68 6.11,-29.06 0.99,-10.59 1.39,-20.76 1.39,-30.52 0,-16.61 -0.2,-33.01 -0.6,-49.2 -0.39,-16.19 -0.59,-32.59 -0.59,-48.79 0,-20.14 -3.75,-40.9 -11.44,-61.86 -4.35,-11.01 -6.31,-21.39 -6.31,-31.15l3.35 -36.53c0,-6.85 -0.79,-13.71 -2.17,-20.35 -1.58,-6.64 -2.37,-13.91 -2.37,-21.59 -1.18,-3.11 -4.93,-11.21 -11.24,-23.87 -6.51,-12.88 -11.05,-19.73 -14.21,-20.56 -3.15,0 -8.09,-0.62 -14.99,-1.66 -6.9,-1.24 -11.45,-2.49 -13.41,-3.73 -12.63,-4.57 -24.27,-15.99 -34.53,-34.67 -4.34,-7.69 -7.89,-15.99 -11.05,-24.92 0,-2.07 -0.4,-7.89 -0.79,-17.44 -0.59,-9.55 0.59,-14.11 3.75,-14.11 2.96,0 6.71,4.56 10.85,14.11 4.34,9.55 6.91,15.99 8.09,19.31 1.97,3.11 3.55,6.23 4.74,9.14 1.18,2.69 2.16,5.81 3.35,9.13 6.31,13.29 15.59,18.68 28.41,16.4 9.27,-2.08 18.35,-3.11 27.42,-3.11 9.08,0 18.74,-2.29 29.19,-6.65 18.94,-6.85 36.7,-12.25 53.67,-16.19 16.97,-3.74 35.31,-5.19 55.04,-3.94zm462.43 49.82l-28.41 3.12c-3.35,10.17 -5.91,16.6 -7.49,19.51 -1.59,2.7 -3.75,6.85 -6.91,12.04 -2.37,3.32 -4.93,9.14 -8.09,17.44 -3.15,8.3 -3.94,14.32 -2.96,17.85l6.51 44.43c0,5.61 0,10.8 0,15.16 0,4.56 0,8.92 0,13.49 0,6.44 -0.59,11.21 -1.77,13.91 -1.19,2.91 -1.19,6.85 0,12.25 6.11,4.36 11.83,4.98 17.36,1.87 5.32,-3.32 11.04,-5.61 17.35,-6.85 11.46,0 20.53,-5.82 26.84,-17.23 6.31,-11.63 11.04,-22.84 14.21,-33.84 0.98,-6.86 2.36,-14.74 3.94,-23.67 1.58,-8.93 3.94,-17.23 6.9,-24.91 0,-3.33 3.55,-10.38 10.46,-21.39 6.9,-10.79 10.46,-17.02 10.46,-18.27 0,-2.28 -3.16,-6.22 -9.67,-11.83 -6.32,-5.4 -10.65,-8.72 -12.83,-9.96 -11.64,-3.33 -23.67,-4.36 -35.9,-3.12zm-123.11 129.55c0,-12.04 -1.18,-24.5 -3.15,-37.37 -2.17,-12.67 -3.16,-25.75 -3.16,-39.24 -1.19,-17.44 -4.93,-30.52 -11.44,-39.44 -6.31,-8.93 -18.94,-13.5 -37.68,-13.5 -6.32,-3.11 -9.27,-7.06 -9.27,-11.42 0,-4.56 5.72,-6.85 17.36,-6.85 9.07,-1.04 19.14,-3.11 29.59,-6.02 10.65,-2.91 21.11,-4.57 31.57,-5.4 15.77,-1.24 31.56,-2.28 47.34,-3.32 15.79,-1.04 31.77,-2.9 47.54,-5.19 7.31,0 14.61,0.21 21.91,0.83 7.3,0.62 15.78,1.04 25.45,1.04 11.44,-1.25 26.82,-0.62 45.57,1.66 15.78,6.64 27.42,11.42 34.72,14.74 6.51,3.11 12.43,6.02 17.36,8.51 8.48,1.87 13.22,6.44 14.4,13.29 0,6.44 -1.37,11.63 -3.94,15.57 -2.77,3.74 -4.54,7.89 -5.33,12.46 -6.51,24.29 -10.25,43.18 -11.44,56.46 0,9.76 -0.99,19.1 -2.96,28.03 -2.96,10.17 -13.62,22.84 -31.57,38.41 -17.75,15.36 -31.56,24.91 -41.23,28.44 2.37,9.76 4.54,19.1 6.71,28.03 1.97,8.92 4.73,17.85 7.7,26.78 6.11,21.17 16.76,40.9 31.76,59.58 6.31,10.17 11.44,19.52 15.58,28.03 1.98,6.85 6.51,18.27 13.42,34.25 6.9,16.2 12.43,25.12 16.76,27.2 6.12,4.36 10.06,7.26 11.45,8.51 1.58,1.25 5.72,4.98 12.23,11.42 4.93,7.89 15.39,11.62 31.17,11.62 5.32,0 9.87,-2.49 13.61,-7.26 3.75,-4.78 8.09,-7.89 13.62,-9.14 4.93,0 8.67,4.57 10.85,13.5 0,1.87 -5.13,6.43 -15.59,13.28 -2.17,2.08 -4.93,4.99 -8.09,8.72 -2.96,3.95 -5.12,5.82 -6.31,5.82 -6.12,3.32 -14.01,5.6 -23.67,6.64 -8.49,0 -16.38,1.25 -23.68,3.53 -7.3,2.08 -14.6,2.7 -21.9,1.45 -2.36,0 -7.7,-1.66 -15.98,-4.98 -8.28,-3.11 -13.61,-5.4 -15.98,-6.64 -9.07,-3.12 -17.56,-10.38 -25.44,-21.18 -2.97,-4.57 -5.54,-9.55 -7.7,-14.95 -2.17,-5.39 -4.73,-11 -7.89,-16.81 -4.93,-10.8 -10.06,-22.01 -15.58,-33.43 -12.63,-19.72 -21.12,-42.97 -25.45,-69.34 -1.78,-10.17 -3.56,-20.76 -5.13,-31.97 -1.58,-11 -2.97,-22 -3.95,-33.01 0,-11 -3.75,-15.98 -11.05,-15.15 -5.33,0 -14.6,1.04 -27.81,3.32 -13.02,2.08 -20.72,5.19 -23.09,8.72 1.18,19.93 1.18,38.2 0,54.81 -1.97,28.85 -2.36,50.24 -1.18,64.35 0.78,24.5 15.98,34.26 45.77,29.9 8.48,0 14.2,4.98 17.36,15.15 0,4.57 -3.75,6.65 -11.05,6.65 -6.51,1.24 -12.23,1.66 -16.77,1.04 -4.73,-0.63 -10.26,-1.04 -16.76,-1.04 -23.09,0 -39.86,0.62 -50.31,1.87 -8.49,2.07 -16.97,4.98 -25.45,8.92 -8.49,3.74 -16.37,6.85 -23.68,9.35 -29.19,7.68 -53.26,12.04 -72.2,12.87 -16.97,2.28 -25.45,-2.49 -25.45,-14.74 0,-3.12 2.56,-5.19 7.69,-5.82 5.33,-0.62 9.08,-1.45 11.45,-2.7 4.93,0 12.82,-2.07 23.67,-6.64 2.95,-0.83 8.28,-4.15 15.58,-9.76 7.3,-5.6 12.03,-10.79 14.41,-15.15 3.15,-6.44 5.72,-12.87 7.89,-18.89 1.97,-6.02 4.73,-12.25 7.69,-18.9 1.97,-4.35 3.95,-11.41 6.11,-20.96 2.18,-9.55 3.76,-17.44 4.94,-23.88 0,-7.06 0.98,-14.74 3.15,-23.46 2.18,-8.72 3.75,-16.61 4.93,-23.46 0,-6.43 0.2,-14.94 0.6,-25.53 0.39,-10.59 0.59,-19.1 0.59,-25.54 -0.79,-13.49 -1.19,-32.18 -1.19,-56.67zm410.35 195.98c0,-9.76 0,-20.14 0,-31.35 0,-11.21 1.19,-21.8 3.56,-31.97 1.17,-6.44 1.37,-16.4 0.78,-29.9 -0.58,-13.29 -0.78,-24.29 -0.78,-32.8 0,-10.17 -0.79,-20.35 -2.37,-30.93 -1.58,-10.59 -2.37,-20.76 -2.37,-30.52 0,-3.53 -0.2,-8.51 -0.79,-14.53 -0.59,-6.02 -0.78,-11.42 -0.78,-15.78 -1.19,-4.57 -1.58,-9.76 -0.99,-15.78 0.59,-6.23 0.99,-11.83 0.99,-17.02 -2.38,-10.18 -3.17,-20.76 -2.57,-31.77 0.39,-10.79 0.79,-21.38 0.79,-31.55 -1.19,-7.68 -2.77,-12.25 -4.93,-13.29 -2.18,-1.25 -5.13,-4.15 -8.88,-8.51 -7.7,-5.4 -17.76,-8.1 -30.19,-8.1 -4.14,0 -9.46,0.62 -15.78,1.66 -6.51,1.04 -9.67,-1.87 -9.67,-8.3 0,-3.12 3.76,-5.4 11.05,-6.64 7.3,-1.25 13.02,-2.29 17.37,-3.12 10.45,-1.24 26.82,-1.66 49.12,-1.66 10.45,0 22.49,2.08 36.1,6.64 13.61,4.36 27.42,6.65 41.43,6.65l43.8 -1.87c3.15,0 8.28,0.62 15.58,1.66 7.3,0.83 11.04,2.7 11.04,4.98 0,3.32 -4.93,4.98 -14.79,4.98 -9.87,0 -16.38,0 -19.93,0 -4.14,1.25 -8.87,2.91 -14.2,5.19 -5.13,2.29 -9.27,3.33 -12.43,3.33 -10.26,5.19 -15.58,16.4 -15.58,33.63 0,17.23 0,30.31 0,39.24 0,11 0.79,22.21 2.37,33.84 1.57,11.62 2.36,23.66 2.36,36.12 0,12.25 0,24.5 0,36.54 0,12.25 0,24.29 0,36.54 0,12.87 0.79,24.7 2.17,35.29 1.58,10.59 2.96,21.38 4.14,32.8 0,6.44 0.4,12.25 1.39,17.44 0.98,4.98 1.58,10.17 1.58,15.36 0,10.17 0,19.72 0,28.65 0,8.93 0,17.65 0,26.16 0,23.46 6.31,40.69 18.94,51.69 8.47,6.44 17.55,10.8 26.82,13.08 9.48,2.29 17.36,6.85 23.48,13.7 3.55,6.44 -9.27,7.27 -38.47,2.49 -29,-4.98 -45.77,-8.09 -49.91,-9.13 -3.16,0 -10.85,-2.28 -23.48,-6.85 -12.42,-4.36 -25.05,-7.27 -37.88,-8.51 -16.96,0 -36.89,2.28 -59.97,6.85 -9.28,3.11 -14.01,3.74 -14.01,1.66 0.79,-4.36 5.53,-7.89 14.01,-10.17 9.47,-0.83 15.98,-2.49 18.94,-4.99 16.97,-11 26.43,-20.76 28.41,-29.68 3.15,-17.86 4.53,-38.41 4.53,-61.45zm657.75 -402.14c-3.17,8.93 -12.23,19.73 -27.43,32.6 -15.19,12.66 -25.85,21.38 -32.16,25.74 -4.14,2.08 -10.26,6.44 -18.15,13.08 -7.88,6.85 -12.43,11.83 -13.6,14.95 -7.31,21.17 -11.06,47.33 -11.06,78.47 0,16.61 0.79,33.43 2.37,50.45 1.58,17.02 2.37,33.84 2.37,50.45 0,16.82 0.4,34.05 1.38,51.69 0.98,17.86 2.17,34.47 3.16,50.04 0,9.75 2.75,24.08 8.09,43.18 1.17,6.43 3.55,12.66 7.29,18.89 3.75,6.02 7.1,11.83 10.07,17.44 1.96,6.64 3.55,13.08 4.73,19.93 1.19,6.64 3.15,13.29 6.31,19.72 1.19,3.74 5.13,9.34 11.84,17.02 6.71,7.69 10.06,12.46 10.06,14.54 0,14.74 -8.87,22 -26.43,22 -8.49,0 -17.17,-3.94 -26.04,-11.62 -8.89,-7.68 -15,-14.95 -18.55,-21.8 -4.93,-6.64 -11.24,-13.5 -18.74,-20.76 -7.5,-7.27 -13.81,-14.12 -18.74,-20.76 -6.71,-6.85 -13.82,-13.08 -21.7,-18.48 -7.9,-5.4 -14.41,-11.42 -19.34,-17.85 -7.5,-7.06 -14.2,-13.71 -20.71,-20.14 -6.32,-6.44 -12.43,-13.29 -18.75,-20.14 -4.14,-3.11 -10.45,-10.17 -18.94,-20.55 -8.47,-10.59 -14,-18.48 -16.17,-23.88 -3.16,-4.36 -8.09,-12.66 -14.8,-24.91 -6.71,-12.04 -11.64,-20.34 -14.79,-24.91 -5.33,-5.61 -11.44,-12.67 -18.55,-20.97 -6.9,-8.3 -12.82,-15.36 -17.75,-20.97 -2.37,0 -6.71,-2.7 -12.83,-8.3 -6.11,-5.4 -9.27,-7.48 -9.27,-6.23 0,0 -0.6,5.81 -1.77,17.23 -0.99,11.63 -1.58,18.06 -1.58,19.1 0,6.64 0.59,12.87 1.58,18.89 1.17,6.23 2.16,12.67 2.95,19.52 0,5.19 0,12.45 0,21.38 0,8.93 0,14.95 0,18.06 0,14.74 -0.19,28.86 -0.59,42.77 -0.4,13.7 0.99,26.16 4.15,36.95 2.95,23.67 13.01,40.9 29.99,51.7 4.33,3.32 12.62,8.72 25.05,16.4 12.63,7.89 18.94,14.53 18.94,20.14 0,3.32 -5.33,4.77 -15.59,4.77 -9.66,0 -18.54,-1.04 -26.44,-3.32 -7.88,-2.08 -16.37,-3.32 -25.64,-3.32 -8.48,0 -19.13,1.24 -31.76,3.73 -10.46,0 -21.12,1.04 -31.77,2.91 -4.33,1.25 -12.62,3.53 -25.25,6.85 -12.43,3.12 -21.5,4.36 -26.83,3.53 -10.46,-2.28 -10.85,-6.85 -1.18,-13.29 3.15,-3.32 8.87,-6.64 17.16,-9.96 8.28,-3.53 14.01,-6.85 17.56,-10.17 3.15,-3.12 6.12,-9.76 9.27,-19.73 2.96,-9.96 5.13,-18.89 6.31,-26.99 1.19,-18.68 3.95,-36.74 8.09,-53.97 4.34,-17.23 6.32,-35.71 6.32,-55.64 0,-10.8 -0.8,-22.21 -2.57,-33.63 -1.77,-11.63 -2.56,-23.46 -2.56,-35.71 0,-10.17 -0.2,-20.76 -0.6,-31.97 -0.39,-11 -0.59,-22.63 -0.59,-34.88 0,-6.44 -0.59,-13.08 -1.78,-19.72 -1.17,-6.65 -1.77,-13.29 -1.77,-19.72 0,-7.06 0,-14.33 0,-22.01 0,-7.68 -0.39,-14.74 -1.58,-21.18 -1.97,-13.49 -6.11,-23.46 -12.23,-29.89 -4.14,-2.49 -10.06,-4.36 -17.55,-6.02 -7.5,-1.66 -11.25,-5.81 -11.25,-12.25 0,-6.85 6.32,-10.59 18.94,-11.21 12.82,-0.62 22.29,-0.83 28.41,-0.83 23.08,0 41.03,4.98 53.66,15.15 8.48,6.44 14.4,12.25 17.36,17.23 3.16,5.19 7.89,12.05 14.6,20.97 2.95,7.68 7.1,14.74 12.23,20.76 5.32,6.02 10.06,12.87 14.21,20.76 3.15,7.69 6.7,15.37 11.04,23.05 4.14,7.68 8.48,14.95 12.63,21.8 8.48,15.57 16.96,30.1 25.45,43.8 8.48,13.91 18.93,26.78 31.16,39.03 9.68,11.21 19.93,24.08 30.39,38.62 10.65,14.32 21.11,26.36 31.56,36.12 0,-8.93 -2.76,-23.25 -8.08,-43.18 -1.98,-12.04 -2.97,-28.86 -2.97,-49.83 0,-16.61 -0.79,-33.84 -2.16,-51.48 -1.58,-17.65 -4.15,-32.39 -7.5,-44.64 -3.16,-7.68 -5.52,-14.32 -7.1,-19.72 -1.39,-5.61 -3.16,-12.25 -5.13,-20.35 -3.56,-6.64 -7.1,-12.04 -10.66,-16.4 -3.74,-4.57 -7.09,-9.96 -10.26,-16.61 -8.28,-10.79 -17.16,-18.47 -26.43,-23.04 -5.53,-1.25 -12.82,-2.91 -22.29,-5.19 -9.47,-2.28 -14.21,-6.23 -14.21,-11.83 0,-9.76 9.47,-12.05 28.41,-7.27 18.75,4.77 31.57,7.27 38.08,7.27l15.58 0c6.12,0 20.92,-3.53 44,-10.59 23.08,-7.06 38.86,-12.25 47.34,-15.57 22.29,-7.68 40.84,-19.52 55.44,-35.3 3.16,-3.11 7.89,-6.02 14.21,-8.09 6.31,-2.29 10.45,0.41 12.43,8.09zm96.46 179.38c0,8.92 0,16.6 0,22.62 0,6.02 0,12.25 0,18.9 -1.97,6.85 -2.37,14.11 -1.38,21.79 0.79,7.69 1.38,14.74 1.38,21.39 0,11.21 -0.39,26.16 -0.79,44.43 -0.59,18.06 0.2,32.17 2.57,41.93 0.79,6.85 1.37,13.7 1.97,20.35 0.59,6.64 1.97,13.28 4.34,19.72 0.79,10.17 6.51,18.48 17.36,24.91 4.93,3.32 13.22,9.34 24.86,18.27 2.36,2.08 6.31,5.19 12.03,9.76 5.92,4.36 10.26,6.64 13.42,6.64 4.14,0 11.05,-6.02 20.71,-18.27 1.98,-3.11 7.1,-8.09 15.59,-14.53 4.34,-4.57 9.07,-10.59 14.2,-18.27 5.13,-7.68 10.46,-13.29 15.98,-17.02 7.3,-6.44 11.64,-12.46 13.22,-17.86 1.57,-5.6 4.34,-13.28 8.68,-23.46 3.16,-10.17 4.93,-19.1 5.52,-26.78 0.59,-7.68 0.79,-18.68 0.79,-32.8 0,-3.32 0.4,-8.3 0.99,-14.95 0.4,-6.64 0.79,-12.24 0.79,-16.81 0,-4.36 -0.39,-9.14 -0.79,-14.12 -0.59,-5.19 -0.99,-11 -0.99,-17.44 0,-14.53 -1.38,-24.08 -3.94,-28.23 -2.77,-4.36 -6.71,-10.8 -11.64,-19.72 -5.33,-7.06 -10.46,-13.08 -15.39,-18.69 -4.73,-5.4 -8.68,-12.04 -11.84,-19.72 -9.07,-17.86 -25.84,-26.78 -50.31,-26.78 -13.8,0 -23.67,3.32 -29.39,9.96 -5.72,6.85 -11.64,12.87 -17.95,18.69 -6.51,5.19 -13.22,12.04 -19.93,20.34 -6.71,8.31 -10.06,16.82 -10.06,25.75zm79.11 334.03c-2.17,0 -7.89,-3.11 -16.77,-9.13 -8.88,-6.02 -14.4,-10.18 -16.77,-12.25 -7.29,-5.61 -18.73,-11.21 -34.52,-17.03 -13.62,-5.19 -25.65,-10.79 -36.3,-16.4 -10.46,-5.6 -20.13,-13.91 -28.61,-24.91 -9.07,-12.25 -15.98,-22.83 -20.12,-32.18 -4.34,-9.34 -6.31,-25.74 -6.31,-49.41 0,-16.61 -0.4,-34.04 -0.99,-52.11 -0.59,-18.27 0.79,-35.7 3.75,-52.31 1.18,-7.89 1.77,-15.78 1.77,-24.08 0,-8.31 1.58,-16.41 4.74,-24.09 2.96,-6.43 5.92,-12.45 8.48,-18.27 2.77,-5.6 5.72,-11.62 8.68,-18.27 6.71,-10.17 13.62,-20.55 20.91,-31.55 7.3,-11 15.59,-20.35 24.86,-28.03 4.15,-3.53 8.68,-7.89 13.61,-12.66 4.74,-4.98 9.67,-8.93 14.61,-12.25 5.52,-4.36 10.65,-8.1 15.38,-11 4.73,-2.7 10.26,-6.44 16.57,-10.8 11.45,-7.68 22.1,-14.95 31.76,-21.38 4.15,-3.53 9.48,-8.1 15.59,-13.7 6.12,-5.4 12.43,-8.1 19.14,-8.1 6.12,0 13.01,4.98 20.91,14.74 7.89,9.96 14.01,16.61 18.35,19.93 6.11,6.85 12.03,13.29 17.95,19.31 5.72,6.22 11.83,12.45 18.34,18.89 9.28,10.17 21.71,22.83 37.09,37.78 15.4,14.95 23.08,31.77 23.08,50.45l0 58.34c0,9.75 -0.97,18.47 -3.15,26.16 -2.17,7.68 -3.16,15.36 -3.16,23.25 -3.15,14.53 -7.29,29.48 -12.81,44.84 -6.51,19.93 -11.65,33.63 -15.59,41.52 -5.33,9.97 -8.88,16.82 -10.46,19.93 -1.38,3.32 -5.52,8.31 -12.03,15.16 -4.93,4.56 -10.27,9.13 -15.59,14.11 -5.33,4.78 -10.26,9.14 -14.4,12.67 -6.31,4.15 -11.44,8.72 -15.79,13.7 -4.14,5.19 -8.28,9.96 -12.62,14.32 -4.93,5.61 -9.27,11.01 -13.02,15.78 -3.55,4.98 -7.49,10.17 -11.84,15.99 -4.14,4.36 -9.86,9.34 -16.77,14.74 -6.9,5.6 -12.82,8.3 -17.95,8.3zm480.97 -486.62c-1.18,6.43 -2.56,13.7 -4.14,21.59 -1.58,7.89 -2.17,15.15 -2.17,21.59 0,3.32 0.98,7.06 3.16,11.62 1.97,4.36 3.15,8.31 3.15,11.42 0,4.57 0,8.93 0,13.5 0,4.36 0,8.3 0,11.62 0,9.97 -2.96,18.06 -8.68,24.29 -5.92,6.02 -10.25,12.25 -13.41,18.89 -8.49,13.29 -13.42,20.35 -14.99,20.97 -1.58,0.62 -8.09,4.15 -19.54,10.59 -3.55,-1.25 -8.88,-2.7 -16.18,-4.36 -7.49,-1.45 -11.05,-5.19 -11.05,-10.8 0,-6.64 4.15,-12.04 12.63,-16.4 3.16,-1.24 6.31,-3.11 9.67,-5.19 3.16,-2.28 6.31,-4.36 9.47,-6.43 3.15,-2.08 7.1,-8.31 11.84,-18.89 4.73,-10.59 5.52,-19.31 1.97,-26.16 -0.79,0 -3.75,-3.53 -9.08,-10.59 -5.52,-7.06 -9.66,-10.59 -12.82,-10.59 -11.64,0 -19.92,-1.87 -25.06,-5.19 -5.32,-3.53 -9.46,-5.19 -12.43,-5.19 -7.29,0 -12.03,0.83 -14.2,2.7 -2.17,1.87 -9.07,3.11 -20.52,3.95 -8.48,4.35 -12.82,6.64 -12.82,6.64l-4.54 38.41 0 11.41c0,7.06 4.34,16.2 13.22,27.82 8.88,11.42 14.79,19.52 17.96,23.88 6.51,9.75 12.23,18.06 16.76,24.7 4.74,6.65 12.23,13.5 22.49,20.35 3.56,3.32 7.5,6.02 12.23,8.3 4.55,2.29 9.08,4.98 13.22,8.1 5.52,5.81 12.83,12.45 22.3,20.14 9.47,7.68 15.78,14.74 18.74,21.38 1.18,3.11 3.15,7.27 5.92,12.46 2.56,4.98 4.34,11.41 5.13,19.1 0,6.43 0.79,12.04 2.36,16.4 1.38,4.36 1.78,11.83 0.99,22 0,10.8 -4.34,26.58 -13.42,47.13 -9.07,20.34 -16.17,34.05 -21.1,40.9 -12.83,15.36 -23.68,26.15 -32.76,32.38 -9.07,6.02 -21.49,13.5 -37.28,22.42 -7.3,6.44 -16.97,12.05 -28.8,16.41 -12.04,4.56 -21.31,8.3 -27.82,11.62 -9.27,3.12 -16.77,6.02 -22.49,8.1 -5.72,2.28 -13.42,3.32 -23.08,3.32 -8.49,0 -18.55,-7.68 -30.19,-23.04 -8.48,-10.18 -19.13,-23.67 -32.35,-40.7 -13.02,-17.02 -19.54,-33.21 -19.54,-48.78l0 -13.29c0,-4.57 2.38,-13.49 7.11,-26.78 4.93,-13.29 8.88,-21.59 11.83,-24.91 11.64,-14.12 29.01,-21.39 52.09,-21.39 15.78,0 23.67,8.72 23.67,26.16 0,2.49 -1.58,6.44 -4.93,11.84 -3.16,5.6 -6.31,8.3 -9.47,8.3 -4.93,0 -8.08,-2.49 -9.27,-7.68 -1.18,-4.98 -3.95,-7.48 -8.09,-7.48l-1.78 0c-2.95,0 -4.53,1.04 -4.53,3.33 0,2.28 -1.58,3.32 -4.74,3.32 -11.44,0 -17.36,6.64 -17.36,20.14l0 23.04c0,4.57 8.28,14.53 24.67,30.1 16.37,15.57 35.5,20.56 57.4,14.95 12.82,-3.32 22.3,-7.68 28.61,-13.08 6.51,-5.6 15.78,-13.29 28.21,-23.46 3.36,-5.6 6.31,-10.38 8.88,-14.32 2.56,-3.74 5.33,-8.93 8.28,-15.57 6.71,-13.29 11.24,-23.26 13.62,-30.11 2.56,-6.64 3.74,-17.02 3.74,-31.14 -3.74,-10.17 -13.8,-22.21 -30.18,-35.91 -16.38,-13.91 -29.79,-27.41 -40.25,-40.9 -1.18,-3.11 -6.31,-8.1 -15.39,-14.74 -9.07,-6.85 -14.99,-11.21 -18.15,-13.08 -7.29,-4.57 -18.35,-14.53 -32.94,-29.9 -3.16,-2.49 -6.31,-8.92 -9.47,-19.51 -3.35,-10.38 -5.92,-18.48 -7.89,-23.67 -2.96,-5.6 -7.3,-12.04 -12.62,-19.51 -5.53,-7.27 -8.1,-14.12 -8.1,-20.55l0 -4.99c0,-2.28 0.2,-4.36 0.79,-6.02 0.6,-1.66 0.79,-4.15 0.79,-7.26 3.16,-5.61 6.12,-11.63 8.68,-17.65 2.77,-6.02 7.3,-12.46 13.42,-18.89 9.67,-13.29 19.53,-22.63 29.98,-28.03 26.24,-16.61 56.23,-24.91 90.17,-24.91 7.29,0 17.36,0.62 29.79,1.66 12.62,0.83 22.09,0.83 28.6,-0.42 3.15,-0.83 11.05,-3.73 23.67,-8.72 12.83,-5.19 19.53,-7.68 20.33,-7.68 7.3,0 10.84,3.32 10.84,9.76 0,3.53 -0.79,8.72 -2.76,15.16z"/>
  </g>
  <g id="_2004507218272">
   <path class="fil1" d="M332.63 1555.27c56.75,0 137.93,-71.76 214.2,-275.64 38.38,-102.72 72.24,-217.02 72.24,-293.47 0,-30.98 -5.54,-56.27 -18.75,-71.75l0.38 -1.18c-2.65,-2.35 -5.16,-5.1 -7.81,-6.86 -22.78,-19.02 -49.33,-27.06 -77.02,-27.06 -103.2,0 -221.63,114.3 -221.63,218.79 0,10.97 1.13,21.95 4.16,32.74 8.8,33.32 52.35,54.1 75.51,65.47l1.13 0c1.51,0 2.52,-0.58 2.52,-2.15 0,-0.59 -0.26,-1.77 -1.01,-2.94 -7.43,-11.57 -10.7,-25.88 -10.7,-41.96 0,-87.82 100.31,-222.9 200.87,-222.9l2.26 0c0.76,4.71 0.76,9.81 0.76,15.69 0,64.3 -36.5,183.69 -82.18,299.75 -14.48,-4.12 -28.07,-6.28 -41.79,-6.28 -57.52,0 -108.36,34.31 -142.22,83.71 -30.96,45.48 -44.67,92.53 -44.67,132.72 0,59.21 29.44,103.32 73.75,103.32zm-21.02 -32.74c-9.19,0 -13.97,-7.45 -13.97,-22.35 0,-27.45 17.61,-78.03 59.27,-142.33 33.61,-51.75 79.67,-93.71 126.49,-106.25 -77.4,195.25 -144.1,270.93 -171.79,270.93zm344.09 -406.01c-4.03,0 -7.05,1.77 -9.19,6.28 -20.64,47.83 -83.32,217.8 -83.32,308.57 0,17.25 2.14,31.56 7.3,41.36 7.8,14.9 23.29,28.62 33.98,36.66 0.76,0.59 1.39,0.59 2.14,0.59 14.35,0 54.25,-79.79 92.63,-164.87 -7.05,31.56 -11.45,61.56 -11.45,85.67 0,17.84 2.14,31.56 7.3,41.95 7.8,14.9 23.28,28.62 33.98,36.66 1.13,0.59 2.51,1.18 3.65,1.18 27.69,0 99.93,-151.74 119.44,-198.79 0.37,-0.59 0.37,-1.17 0.37,-2.15 0,-6.47 -9.18,-15.1 -14.34,-15.1 -1.14,0 -1.89,0 -2.27,0.59 -18.37,37.44 -73.37,154.48 -88.48,154.48 -2.14,0 -3.64,-2.75 -3.64,-10.19 0,-3.53 0.37,-8.04 1.13,-13.92 8.05,-60.78 34.98,-163.11 75.51,-250.35 1.13,-2.35 1.51,-4.51 1.51,-7.45 0,-20.78 -26.18,-51.17 -41.66,-51.17 -4.02,0 -7.3,1.77 -9.18,6.28 -1.14,2.35 -2.27,5.88 -3.66,9.21 -20.39,40.78 -129.13,307.98 -145.35,307.98 -1.39,0 -2.15,-1.76 -2.15,-5.88 0,-2.15 0.38,-5.1 0.76,-8.62 8.06,-60.78 34.99,-163.11 75.51,-250.35 1.13,-2.35 1.51,-4.51 1.51,-7.45 0,-20.19 -26.56,-51.17 -42.03,-51.17zm289.46 -7.45c-58.65,0 -142.72,226.83 -142.72,331.9 0,19.02 3.02,33.92 8.94,43.13 4.78,8.04 34.98,25.88 46.44,25.88 10.69,0 65.57,-102.14 90.36,-160.75 -4.15,16.66 -10.32,50.97 -10.32,81.55 0,16.66 2.14,31.56 7.3,41.95 7.81,14.9 22.9,28.62 33.98,36.66 1.01,0.59 2.52,1.18 3.65,1.18 27.31,0 98.42,-151.74 117.68,-198.79 0.25,-0.59 0.25,-1.76 0.25,-2.15 0,-6.47 -9.19,-15.1 -13.97,-15.1 -1.14,0 -1.77,0 -2.14,0.59 -18.88,38.03 -73.38,161.54 -87.47,161.54 -2.14,0 -3.27,-2.94 -3.27,-9.22 0,-3.53 0.37,-8.62 1.13,-14.5 8.05,-60.78 34.98,-170.56 75.51,-257.8 1.13,-2.35 1.51,-4.51 1.51,-7.45 0,-20.78 -26.18,-51.17 -41.66,-51.17 -4.02,0 -7.42,1.77 -9.18,6.28 -8.94,20.19 -18.51,45.48 -28.44,72.93 -8.06,-45.29 -35.75,-86.66 -47.58,-86.66zm7.43 66.07c11.45,0 20.64,35.09 23.53,52.34 -4.03,8.63 -87.72,178.6 -103.2,178.6 -1.89,0 -2.64,-1.77 -2.64,-5.3 0,-3.33 0.37,-7.44 1.51,-12.54 16.98,-89 43.54,-157.42 71.86,-205.65 3.02,-5.1 5.91,-7.45 8.94,-7.45zm294.24 -66.07c-9.69,0 -42.79,56.27 -76.39,121.75 7.42,-22.35 15.85,-45.88 25.42,-69.99 0.76,-2.35 1.51,-4.71 1.51,-6.86 0,-18.43 -23.66,-39.8 -40.15,-39.8 -5.54,0 -10.32,2.94 -12.96,8.63 -38.39,85.08 -84.07,221.72 -89.98,324.64 0.37,17.25 18.87,64.89 33.6,64.89 4.4,0 8.43,-4.7 11.45,-15.48 2.14,-7.45 4.78,-16.67 8.06,-27.06 27.31,-82.14 80.79,-227.99 130.51,-298.77 1.88,-2.15 3.02,-3.33 4.02,-3.33 0.76,0 1.14,1.18 1.14,2.94 0,7.45 -5.54,26.27 -6.29,29.21 -10.96,40.78 -58.91,166.64 -58.91,238.39 0,13.72 1.76,25.88 5.92,34.5 6.54,14.9 21.01,28.62 31.59,36.66 1.13,0.59 2.26,1.18 3.77,1.18 27.31,0 106.85,-151.74 129,-198.79 0.38,-0.59 0.76,-1.76 0.76,-2.15 0,-6.47 -8.81,-15.1 -13.59,-15.1 -1.14,0 -1.89,0 -2.27,0.59 -20.26,37.44 -81.05,152.91 -96.27,152.91 -1.77,0 -3.28,-2.94 -3.28,-8.04 0,-4.11 0.76,-9.21 2.27,-16.66 13.21,-68.42 58.27,-156.25 58.27,-231.53 0,-10.97 -1.14,-22.34 -3.4,-32.73 -3.65,-17.26 -30.96,-50 -43.8,-50zm589.88 497.36c4.03,0 9.94,-3.92 9.94,-8.04l-0.38 -1.76c-4.02,-9.02 -5.78,-21.76 -5.78,-37.84 0,-158.01 179.09,-613.41 239.63,-651.83 1.75,-1.18 3.27,-4.71 3.27,-6.87 0,-1.76 -0.76,-3.52 -2.14,-4.7 -12.59,-6.86 -25.17,-10.39 -37.63,-10.39 -108.49,0 -221.25,235.05 -273.23,340.13 25.42,-63.12 41.65,-109.19 41.65,-151.15 0,-17.25 -2.64,-33.72 -8.8,-50.38 -3.41,-9.21 -16.24,-25.88 -27.69,-37.44l0 -0.59 -0.76 -0.59c-7.68,-7.45 -15.48,-12.55 -19.88,-12.55 -11.08,0 -47.95,63.13 -79.67,125.67 12.21,-40.78 19.51,-76.26 19.51,-103.32l0 -3.53c-1.13,-37.24 -58.27,-105.07 -91.75,-105.07 -50.97,0 -95.15,59.2 -108.74,144.87 -1.13,6.86 -1.51,13.72 -1.51,21.17 0,35.68 11.07,76.46 30.2,99.4 0.76,0.58 1.52,1.17 2.27,1.17 1.77,0 4.03,-2.35 4.03,-6.27l-0.76 -4.12c-2.26,-6.86 -2.89,-14.9 -2.89,-22.93 0,-60.97 53.74,-148.8 105.71,-170.56 2.27,-1.18 4.16,-1.18 5.54,-1.18 5.54,0 8.18,5.1 8.18,14.9 0,74.11 -149.39,405.42 -153.41,497.95l0 2.35c0,29.21 21.4,66.07 43.17,66.07 4.4,0 8.8,-1.18 12.84,-4.71 1.12,-0.59 1.5,-2.16 1.5,-3.33 0,-1.77 -0.75,-4.12 -2.26,-4.71 -3.28,-1.17 -4.41,-5.68 -4.41,-11.96 0,-14.89 7.05,-38.62 8.94,-46.06 27.94,-112.53 137.81,-337 193.18,-412.87 2.15,-2.35 3.66,-3.53 4.41,-3.53 0.76,0 1.13,0 1.51,1.18 0.75,1.76 1.01,3.53 1.01,6.27 0,48.82 -108.74,278.58 -108.74,401.5 0,36.85 9.56,63.71 34.73,74.1l1.77 0.59c4.02,0 11.07,-4.51 11.07,-8.63l-0.38 -1.17c-0.75,-1.57 -1.13,-4.51 -1.13,-7.45 0,-59.6 136.05,-312.89 156.44,-349.15 24.67,-43.13 50.09,-84.5 74,-120.57 -52.36,131.54 -124.97,344.64 -124.97,469.72 0,50.57 11.45,86.25 40.65,97.62l1.76 0.59zm235.23 -497.36c-58.65,0 -142.72,226.83 -142.72,331.9 0,19.02 3.02,33.92 8.93,43.13 4.79,8.04 34.99,25.88 46.45,25.88 10.69,0 65.57,-102.14 90.36,-160.75 -4.15,16.66 -10.32,50.97 -10.32,81.55 0,16.66 2.13,31.56 7.3,41.95 7.8,14.9 22.9,28.62 33.98,36.66 1,0.59 2.51,1.18 3.65,1.18 27.31,0 98.41,-151.74 117.67,-198.79 0.25,-0.59 0.25,-1.76 0.25,-2.15 0,-6.47 -9.18,-15.1 -13.96,-15.1 -1.14,0 -1.77,0 -2.14,0.59 -18.88,38.03 -73.38,161.54 -87.47,161.54 -2.15,0 -3.28,-2.94 -3.28,-9.22 0,-3.53 0.38,-8.62 1.13,-14.5 8.06,-60.78 34.99,-170.56 75.52,-257.8 1.13,-2.35 1.51,-4.51 1.51,-7.45 0,-20.78 -26.18,-51.17 -41.66,-51.17 -4.03,0 -7.42,1.77 -9.19,6.28 -8.93,20.19 -18.5,45.48 -28.44,72.93 -8.05,-45.29 -35.74,-86.66 -47.57,-86.66zm7.42 66.07c11.46,0 20.64,35.09 23.54,52.34 -4.03,8.63 -87.72,178.6 -103.21,178.6 -1.88,0 -2.63,-1.77 -2.63,-5.3 0,-3.33 0.37,-7.44 1.5,-12.54 16.99,-89 43.55,-157.42 71.87,-205.65 3.02,-5.1 5.91,-7.45 8.93,-7.45zm294.25 -66.07c-9.69,0 -42.79,56.27 -76.4,121.75 7.43,-22.35 15.86,-45.88 25.43,-69.99 0.75,-2.35 1.51,-4.71 1.51,-6.86 0,-18.43 -23.66,-39.8 -40.15,-39.8 -5.54,0 -10.32,2.94 -12.96,8.63 -38.39,85.08 -84.07,221.72 -89.99,324.64 0.38,17.25 18.88,64.89 33.61,64.89 4.4,0 8.42,-4.7 11.45,-15.48 2.14,-7.45 4.78,-16.67 8.05,-27.06 27.31,-82.14 80.8,-227.99 130.51,-298.77 1.89,-2.15 3.03,-3.33 4.03,-3.33 0.76,0 1.13,1.18 1.13,2.94 0,7.45 -5.54,26.27 -6.29,29.21 -10.95,40.78 -58.9,166.64 -58.9,238.39 0,13.72 1.76,25.88 5.91,34.5 6.55,14.9 21.02,28.62 31.6,36.66 1.13,0.59 2.26,1.18 3.77,1.18 27.31,0 106.85,-151.74 129,-198.79 0.38,-0.59 0.76,-1.76 0.76,-2.15 0,-6.47 -8.81,-15.1 -13.59,-15.1 -1.14,0 -1.89,0 -2.27,0.59 -20.26,37.44 -81.05,152.91 -96.28,152.91 -1.76,0 -3.27,-2.94 -3.27,-8.04 0,-4.11 0.76,-9.21 2.27,-16.66 13.21,-68.42 58.27,-156.25 58.27,-231.53 0,-10.97 -1.14,-22.34 -3.4,-32.73 -3.65,-17.26 -30.96,-50 -43.8,-50zm150.4 7.45c-4.03,0 -7.05,1.77 -9.19,6.28 -20.64,47.83 -83.32,217.8 -83.32,308.57 0,17.25 2.14,31.56 7.3,41.36 7.8,14.9 23.29,28.62 33.98,36.66 0.76,0.59 1.39,0.59 2.14,0.59 14.35,0 54.25,-79.79 92.63,-164.87 -7.05,31.56 -11.45,61.56 -11.45,85.67 0,17.84 2.14,31.56 7.3,41.95 7.8,14.9 23.28,28.62 33.98,36.66 1.13,0.59 2.51,1.18 3.65,1.18 27.69,0 99.92,-151.74 119.43,-198.79 0.38,-0.59 0.38,-1.17 0.38,-2.15 0,-6.47 -9.18,-15.1 -14.34,-15.1 -1.14,0 -1.89,0 -2.27,0.59 -18.37,37.44 -73.37,154.48 -88.48,154.48 -2.14,0 -3.65,-2.75 -3.65,-10.19 0,-3.53 0.38,-8.04 1.13,-13.92 8.06,-60.78 34.99,-163.11 75.52,-250.35 1.13,-2.35 1.51,-4.51 1.51,-7.45 0,-20.78 -26.18,-51.17 -41.66,-51.17 -4.02,0 -7.3,1.77 -9.19,6.28 -1.13,2.35 -2.26,5.88 -3.65,9.21 -20.39,40.78 -129.13,307.98 -145.36,307.98 -1.38,0 -2.14,-1.76 -2.14,-5.88 0,-2.15 0.38,-5.1 0.76,-8.62 8.05,-60.78 34.99,-163.11 75.51,-250.35 1.13,-2.35 1.51,-4.51 1.51,-7.45 0,-20.19 -26.56,-51.17 -42.03,-51.17zm282.16 -7.45c-42.41,0 -125.48,176.25 -125.48,298.18 0,33.33 6.3,61.95 21.02,82.54 10.32,14.5 27.31,22.54 42.41,22.54 4.53,0 8.56,-0.59 12.21,-1.76 49.08,-16.08 120.57,-145.86 151.15,-207.41 0.38,-1.18 0.76,-2.16 0.76,-2.75 0,-1.17 -0.38,-1.76 -0.38,-2.35 -0.75,-2.35 -4.03,-3.53 -8.05,-3.53 -6.3,0 -14.73,2.94 -17.75,8.04 -21.39,35.68 -100.31,166.63 -134.16,166.63 -7.42,0 -12.59,-6.27 -14.47,-21.17 -0.38,-4.12 -0.63,-8.04 -0.63,-12.74 0,-24.7 7.3,-55.68 18.75,-88.42 10.32,13.73 22.53,24.7 31.33,27.65 1.14,0.58 2.52,0.58 3.66,0.58 34.73,0 92.63,-124.68 92.63,-178.2 0,-2.74 -0.38,-5.68 -0.76,-8.62 -2.64,-15.49 -23.28,-41.37 -35.12,-54.5 -9.18,-11.96 -29.06,-24.71 -37.12,-24.71zm31.34 57.45c-10.32,61.55 -50.22,161.34 -80.43,165.45 24.67,-65.47 62.31,-134.48 80.43,-165.45zm65.69 343.46c27.57,0 102.07,-152.13 121.58,-198.2l0.38 -2.15c0,-6.47 -9.19,-15.69 -14.35,-15.69l-1.88 0.59c-18.76,37.44 -75.52,156.83 -91,156.83 -2.26,0 -3.77,-3.33 -3.77,-10.39 0,-3.33 0.38,-8.03 1.13,-13.72 7.8,-58.03 115.78,-426.78 176.32,-455.4 1.76,-0.59 2.9,-2.94 2.9,-5.69l0 -1.18c0,-2.35 -0.76,-4.7 -2.27,-6.47 -15.86,-17.05 -31.71,-25.09 -46.82,-25.09 -19.13,0 -36.87,13.72 -49.71,37.25 -38.39,69.99 -142.72,343.46 -142.72,461.29 0,16.66 2.26,30.38 7.43,40.18 7.3,14.32 27.56,28.63 38.63,36.66 1.14,0.59 2.65,1.18 4.15,1.18zm383.74 39.6c42.79,0 114.27,-30.39 210.93,-215.84 0.76,-1.77 1.14,-2.94 1.14,-4.71 0,-5.68 -5.92,-11.37 -11.46,-11.37 -3.02,0 -5.54,0.98 -7.8,5.1 -51.98,87.83 -115.03,156.25 -182.49,159.58l-1.89 0c-29.07,0 -41.66,-30.39 -41.66,-77.44 0,-132.72 99.18,-395.81 195.08,-461.87 10.7,-7.45 18.5,-10.78 23.66,-10.78 6.17,0 9.18,5.09 9.18,13.13 0,43.13 -81.55,185.46 -123.58,215.45 -1.39,1.18 -2.52,3.33 -2.52,5.1 0,2.35 1.13,4.7 2.52,5.68 14.1,10.39 27.69,15.1 40.65,15.1 78.15,0 134.16,-163.7 134.16,-210.94 0,-3.92 -0.75,-6.86 -1.51,-9.02 -6.92,-17.25 -34.61,-43.72 -47.57,-55.87 -15.74,-14.9 -32.73,-23.53 -50.85,-23.53 -18.75,0 -38.64,9.22 -60.03,30.98 -94.77,94.88 -190.29,339.54 -190.29,481.87 0,6.47 0,12.15 0.38,17.84 4.02,59.79 57.89,130.95 103.95,131.54zm261.02 -433.06c-4.02,0 -7.04,1.77 -9.18,6.28 -20.64,47.83 -83.32,217.8 -83.32,308.57 0,17.25 2.14,31.56 7.3,41.36 7.8,14.9 23.29,28.62 33.98,36.66 0.76,0.59 1.39,0.59 2.14,0.59 14.35,0 54.25,-79.79 92.63,-164.87 -7.05,31.56 -11.45,61.56 -11.45,85.67 0,17.84 2.13,31.56 7.3,41.95 7.8,14.9 23.28,28.62 33.98,36.66 1.13,0.59 2.51,1.18 3.65,1.18 27.69,0 99.92,-151.74 119.43,-198.79 0.38,-0.59 0.38,-1.17 0.38,-2.15 0,-6.47 -9.19,-15.1 -14.35,-15.1 -1.13,0 -1.88,0 -2.26,0.59 -18.38,37.44 -73.37,154.48 -88.48,154.48 -2.14,0 -3.65,-2.75 -3.65,-10.19 0,-3.53 0.38,-8.04 1.13,-13.92 8.06,-60.78 34.99,-163.11 75.52,-250.35 1.13,-2.35 1.51,-4.51 1.51,-7.45 0,-20.78 -26.18,-51.17 -41.66,-51.17 -4.03,0 -7.3,1.77 -9.19,6.28 -1.13,2.35 -2.26,5.88 -3.65,9.21 -20.39,40.78 -129.13,307.98 -145.36,307.98 -1.38,0 -2.14,-1.76 -2.14,-5.88 0,-2.15 0.38,-5.1 0.76,-8.62 8.05,-60.78 34.98,-163.11 75.51,-250.35 1.13,-2.35 1.51,-4.51 1.51,-7.45 0,-20.19 -26.56,-51.17 -42.04,-51.17zm356.93 -36.66c-12.09,0 -74.13,114.89 -113.15,197.42 10.7,-35.48 23.16,-70.58 38.39,-102.14 1.01,-2.35 1.38,-4.51 1.38,-7.45 0,-20.19 -26.18,-51.17 -41.65,-51.17 -4.04,0 -7.3,1.77 -9.19,6.28 -37.26,85.08 -80.8,221.72 -85.2,324.64 0.75,17.25 21.01,65.48 35.36,65.48 4.15,0 8.18,-4.7 10.45,-16.07 17.61,-86.85 62.67,-195.85 107.98,-279.17 -8.44,34.51 -16.24,72.93 -16.24,105.08 0,31.56 7.43,56.26 28.45,63.71 1.38,0.59 2.52,0.59 4.02,0.59 23.16,0 70.36,-54.5 91.38,-82.14 1.51,-2.35 2.26,-3.92 2.26,-5.1 0,-4.11 -5.16,-5.88 -11.08,-5.88 -6.29,0 -13.21,1.77 -15.85,5.3 -11.08,14.31 -26.56,30.97 -36.5,30.97 -1.89,0 -3.28,0 -4.41,-1.18 -4.78,-3.33 -6.67,-9.21 -6.67,-16.07 0,-40.19 61.17,-127.43 61.17,-175.66 0,-2.35 -0.25,-5.29 -0.63,-7.44 -1.89,-9.22 -10.7,-24.31 -20.64,-36.27l0.25 -0.59c-7.67,-8.04 -15.1,-13.14 -19.88,-13.14zm132.39 29.21c-42.41,0 -125.47,176.25 -125.47,298.18 0,33.33 6.29,61.95 21.01,82.54 10.32,14.5 27.31,22.54 42.41,22.54 4.54,0 8.56,-0.59 12.21,-1.76 49.08,-16.08 120.57,-145.86 151.15,-207.41 0.38,-1.18 0.76,-2.16 0.76,-2.75 0,-1.17 -0.38,-1.76 -0.38,-2.35 -0.75,-2.35 -4.02,-3.53 -8.05,-3.53 -6.3,0 -14.73,2.94 -17.75,8.04 -21.39,35.68 -100.3,166.63 -134.16,166.63 -7.42,0 -12.58,-6.27 -14.47,-21.17 -0.38,-4.12 -0.63,-8.04 -0.63,-12.74 0,-24.7 7.3,-55.68 18.75,-88.42 10.32,13.73 22.53,24.7 31.34,27.65 1.13,0.58 2.51,0.58 3.65,0.58 34.74,0 92.63,-124.68 92.63,-178.2 0,-2.74 -0.38,-5.68 -0.76,-8.62 -2.64,-15.49 -23.28,-41.37 -35.11,-54.5 -9.19,-11.96 -29.07,-24.71 -37.13,-24.71zm31.34 57.45c-10.32,61.55 -50.22,161.34 -80.42,165.45 24.67,-65.47 62.3,-134.48 80.42,-165.45zm207.29 -57.45c-9.69,0 -42.79,56.27 -76.4,121.75 7.43,-22.35 15.86,-45.88 25.42,-69.99 0.76,-2.35 1.52,-4.71 1.52,-6.86 0,-18.43 -23.67,-39.8 -40.15,-39.8 -5.54,0 -10.33,2.94 -12.96,8.63 -38.39,85.08 -84.08,221.72 -89.99,324.64 0.37,17.25 18.87,64.89 33.6,64.89 4.4,0 8.43,-4.7 11.45,-15.48 2.14,-7.45 4.79,-16.67 8.06,-27.06 27.31,-82.14 80.79,-227.99 130.51,-298.77 1.89,-2.15 3.02,-3.33 4.02,-3.33 0.76,0 1.14,1.18 1.14,2.94 0,7.45 -5.54,26.27 -6.29,29.21 -10.95,40.78 -58.9,166.64 -58.9,238.39 0,13.72 1.76,25.88 5.91,34.5 6.55,14.9 21.02,28.62 31.59,36.66 1.13,0.59 2.27,1.18 3.78,1.18 27.31,0 106.85,-151.74 129,-198.79 0.37,-0.59 0.75,-1.76 0.75,-2.15 0,-6.47 -8.8,-15.1 -13.59,-15.1 -1.13,0 -1.88,0 -2.26,0.59 -20.26,37.44 -81.05,152.91 -96.28,152.91 -1.77,0 -3.28,-2.94 -3.28,-8.04 0,-4.11 0.76,-9.21 2.27,-16.66 13.21,-68.42 58.27,-156.25 58.27,-231.53 0,-10.97 -1.13,-22.34 -3.4,-32.73 -3.65,-17.26 -30.96,-50 -43.79,-50zm44.93 -90.17c-11.83,0 -25.8,5.09 -39.77,12.15 -13.34,6.86 -27.31,11.37 -39.52,11.37 -11.84,0 -22.15,-4.51 -29.83,-16.07 0,-0.59 -0.38,-0.59 -1.14,-0.59 -2.26,0 -5.53,11.56 -5.53,24.7 0,14.31 3.65,31.56 15.86,38.03 4.02,2.16 9.18,3.33 14.35,3.33 14.72,0 33.22,-7.45 50.97,-16.07 12.45,-5.69 25.79,-10.39 37.5,-10.39 10.7,0 20.01,4.11 26.56,14.5 0.37,1.18 1.13,1.57 1.5,1.57 1.14,0 1.89,-1.57 1.89,-6.86l0 -2.74c0,-40.19 -13.71,-52.93 -32.84,-52.93zm173.29 91.94c-76.01,0.59 -156.68,179.18 -156.68,297.98 0,58.62 19.88,102.92 69.97,102.92 28.83,0 62.43,-49.4 88.98,-113.11 23.53,-7.45 51.98,-39.8 79.16,-99.39 0.38,-0.59 0.38,-0.59 0.38,-1.18 0,-0.59 0,-1.18 -0.38,-1.77 -0.37,-1.17 -2.89,-1.76 -6.16,-1.76 -5.54,0 -12.21,1.76 -14.86,6.47 -17.23,32.74 -32.72,53.32 -45.3,63.71 18.5,-54.1 30.96,-112.13 30.96,-157.42 0,-29.8 -5.54,-53.91 -18.38,-67.24 1.77,-2.16 5.16,-8.04 5.92,-9.8 0.25,-0.98 0.63,-2.16 0.63,-3.34 0,-5.68 -6.92,-8.62 -14.73,-12.15 -6.29,-2.74 -12.83,-3.92 -19.51,-3.92zm21.02 69.99c4.03,0 5.92,5.88 5.92,16.07 0,31.56 -17.37,104.69 -39.52,166.64 -5.16,-8.63 -7.3,-24.12 -7.3,-42.54 0,-53.33 18.37,-130.96 39.39,-140.17l1.51 0zm-59.02 44.89c-6.67,26.86 -9.95,56.26 -9.95,83.32 0,38.42 7.05,72.34 23.67,84.88 -17,41.37 -35.49,72.34 -50.6,72.34 -3.65,0 -6.92,-1.57 -10.32,-5.68 -4.78,-5.69 -6.67,-17.25 -6.67,-32.74 0,-48.23 21.02,-135.47 53.87,-202.12zm221.63 322.68c49.34,-10.19 112.38,-29.79 173.68,-37.83 8.43,-1.18 30.58,-3.53 56.38,-3.53 39.77,0 88.1,5.88 104.71,29.41 0.76,1.17 1.39,1.17 2.14,1.17 1.52,0 3.02,-1.76 3.4,-4.12l0.37 -8.03c0,-37.25 -11.07,-99.98 -35.1,-105.08 -5.92,-1.18 -12.47,-1.77 -19.89,-1.77 -44.18,0 -115.03,17.84 -179.6,34.51 49.47,-37.84 103.71,-94.3 153.42,-156.25l40.9 1.18c2.65,0 39.52,-1.18 40.65,-53.91 0,-1.77 -1.13,-2.94 -1.88,-2.94 -0.38,0 -0.75,0 -1.13,0.59 -4.04,5.09 -21.02,7.44 -43.17,9.21 74.88,-102.92 131.27,-212.51 131.27,-279.75 0,-20.19 -5.17,-36.86 -16.49,-47.64 -25.55,-24.7 -59.03,-35.68 -94.77,-35.68 -101.82,0 -221.26,87.83 -221.26,189.57l0.76 11.96c2.89,35.09 43.42,62.15 64.81,76.46l1.51 0.59c1.52,0 2.27,-1.18 2.27,-2.95 0,-0.58 0,-1.56 -0.37,-2.15 -3.79,-8.63 -5.54,-18.43 -5.54,-28.82 0,-78.61 109.49,-185.46 210.55,-185.46 6.92,0 14.35,0.59 21.27,1.77 -10.32,53.32 -90.61,184.28 -179.47,303.28l-63.43 -1.18c-4.03,0 -39.52,1.57 -40.53,53.32 0,2.35 1.01,3.53 2.15,3.53l1.13 -0.59c4.78,-6.86 33.22,-9.8 66.32,-10.39 -75.89,96.46 -152.28,176.24 -190.54,184.87l-3.02 0c-8.81,0 -15.48,-2.16 -20.26,-9.61l-1.14 -0.58 -1.13 0.58c-0.38,0 -0.63,0.59 -0.63,0.98l0 0.59c2.14,26.47 17.62,74.69 38.64,74.69l3.02 0zm512.86 -439.33c-58.65,0 -142.72,226.83 -142.72,331.9 0,19.02 3.02,33.92 8.94,43.13 4.78,8.04 34.98,25.88 46.44,25.88 10.69,0 65.57,-102.14 90.36,-160.75 -4.15,16.66 -10.32,50.97 -10.32,81.55 0,16.66 2.14,31.56 7.3,41.95 7.8,14.9 22.9,28.62 33.98,36.66 1.01,0.59 2.51,1.18 3.65,1.18 27.31,0 98.42,-151.74 117.68,-198.79 0.25,-0.59 0.25,-1.76 0.25,-2.15 0,-6.47 -9.19,-15.1 -13.97,-15.1 -1.14,0 -1.77,0 -2.14,0.59 -18.88,38.03 -73.38,161.54 -87.47,161.54 -2.15,0 -3.28,-2.94 -3.28,-9.22 0,-3.53 0.38,-8.62 1.13,-14.5 8.06,-60.78 34.99,-170.56 75.52,-257.8 1.13,-2.35 1.51,-4.51 1.51,-7.45 0,-20.78 -26.18,-51.17 -41.66,-51.17 -4.02,0 -7.42,1.77 -9.19,6.28 -8.93,20.19 -18.5,45.48 -28.44,72.93 -8.05,-45.29 -35.74,-86.66 -47.57,-86.66zm7.43 66.07c11.45,0 20.63,35.09 23.53,52.34 -4.03,8.63 -87.72,178.6 -103.2,178.6 -1.89,0 -2.64,-1.77 -2.64,-5.3 0,-3.33 0.37,-7.44 1.51,-12.54 16.98,-89 43.54,-157.42 71.86,-205.65 3.02,-5.1 5.91,-7.45 8.94,-7.45z"/>
   <path class="fil1" d="M5493.68 1109.07c-9.95,0 -44.18,58.62 -78.54,125.86 7.42,-21.36 15.48,-43.71 25.05,-65.47 1.13,-2.36 1.51,-4.71 1.51,-7.45 0,-20.2 -25.05,-46.66 -40.9,-46.66 -4.41,0 -8.44,2.35 -10.71,7.45 -38.76,85.08 -84.44,221.72 -90.36,324.64 0.38,17.25 19.26,64.89 33.61,64.89 4.4,0 8.43,-4.7 11.45,-15.48 2.89,-9.22 6.17,-20.79 10.69,-33.92 26.81,-81.55 79.55,-220.55 129.38,-291.91 1.89,-2.15 2.9,-3.33 3.66,-3.33 0.75,0 1.13,1.18 1.13,2.94 0,7.45 -5.16,26.27 -5.92,29.21 -25.42,94.1 -54.24,148.21 -60.03,247.6 0.38,17.25 19.13,65.48 33.85,65.48 4.41,0 8.56,-4.7 11.83,-16.07 2.52,-9.81 6.3,-21.37 10.7,-35.1l2.52 -10.39c27.31,-82.14 70.48,-209.56 120.19,-280.34 1.89,-2.15 3.02,-3.33 3.78,-3.33 0.75,0 1.13,1.18 1.13,2.94 0,7.45 -5.28,26.27 -6.29,29.21 -10.7,40.78 -58.65,167.23 -58.65,238.98 0,13.72 1.51,25.29 5.54,33.91 6.67,14.9 21.39,28.62 31.71,36.66 1.14,0.59 2.52,1.18 3.65,1.18 27.69,0 106.98,-151.74 129.38,-198.79 0.38,-0.59 0.38,-1.76 0.38,-2.15 0,-6.47 -8.44,-15.1 -13.6,-15.1 -0.75,0 -1.51,0 -2.26,0.59 -20.26,37.44 -81.05,152.91 -96.15,152.91 -1.89,0 -3.4,-2.94 -3.4,-8.04 0,-4.11 0.75,-9.21 2.26,-16.66 13.22,-68.42 58.65,-156.83 58.65,-232.11 0,-10.98 -1.13,-21.76 -3.39,-32.15 -3.66,-17.26 -31.34,-50 -43.81,-50 -9.56,0 -41.65,54.5 -74.88,119 2.27,-15.09 3.28,-28.82 3.28,-41.36 0,-9.8 -0.63,-19.02 -2.52,-27.64 -3.65,-17.26 -31.34,-50 -43.92,-50zm422.87 403.85c4.4,0 8.18,-4.7 10.32,-16.07 17.37,-87.44 62.3,-195.26 107.73,-278.58 -8.55,34.31 -16.23,73.52 -16.23,105.08 0,32.74 8.05,59.79 32.09,63.71 22.78,0 70.35,-53.91 91.37,-81.55 1.51,-2.35 2.26,-3.92 2.26,-5.1 0,-4.7 -5.15,-6.47 -11.07,-6.47 -6.29,0 -13.21,2.35 -15.86,5.3 -11.07,14.31 -26.55,31.56 -36.87,31.56 -7.05,0 -10.7,-9.22 -10.7,-17.25 0,-39.6 60.91,-126.84 60.91,-174.68 -1.51,-15.48 -4.53,-24.7 -21.02,-44.69l0.25 -0.59c-7.67,-7.45 -15.1,-13.14 -19.88,-13.14 -11.7,0 -74.13,114.88 -112.76,197.42 11.45,-37.84 26.93,-83.12 26.93,-124.49 0,-35.09 -11.08,-66.65 -45.81,-88.61 -14.35,-9.61 -31.72,-13.14 -49.34,-13.14 -40.27,0 -84.44,19.02 -111.75,39.02 -11.46,8.03 -19.89,20.78 -19.89,46.07 0,10.19 1.51,22.35 4.4,37.24 -6.29,-6.86 -13.21,-11.95 -20.26,-11.95 -30.58,0 -85.2,152.71 -85.2,252.69 0,59.6 21.01,97.04 68.21,97.04 56,0 137.18,-175.84 137.18,-288.37 0,-49.41 -14.35,-87.24 -48.71,-95.28 29.2,-29.41 55,-42.54 74.51,-42.54 23.29,0 37.64,19.02 37.64,55.09 0,20.78 -4.79,46.66 -15.11,77.63 -24.67,74.1 -46.06,158.99 -49.09,229.17 0.76,17.25 21.4,65.48 35.75,65.48zm-171.04 -44.3c-6.29,0 -9.94,-6.87 -9.94,-24.12 0,-5.09 0.38,-12.15 1.14,-19.6 7.29,-61.36 52.73,-175.66 61.54,-196.83 1.13,-2.35 1.5,-5.29 1.5,-8.62 0,-7.65 -2.26,-16.67 -5.91,-25.88 10.7,-9.8 22.15,-15.49 32.09,-15.49 16.24,0 28.7,14.9 28.7,47.64 0,77.44 -79.29,242.31 -109.12,242.9zm486.3 -359.55c-58.64,0 -142.72,226.83 -142.72,331.9 0,19.02 3.03,33.92 8.94,43.13 4.78,8.04 34.99,25.88 46.44,25.88 10.7,0 65.57,-102.14 90.37,-160.75 -4.16,16.66 -10.33,50.97 -10.33,81.55 0,16.66 2.14,31.56 7.3,41.95 7.81,14.9 22.91,28.62 33.98,36.66 1.01,0.59 2.52,1.18 3.66,1.18 27.31,0 98.41,-151.74 117.67,-198.79 0.25,-0.59 0.25,-1.76 0.25,-2.15 0,-6.47 -9.19,-15.1 -13.97,-15.1 -1.13,0 -1.76,0 -2.14,0.59 -18.88,38.03 -73.37,161.54 -87.47,161.54 -2.14,0 -3.27,-2.94 -3.27,-9.22 0,-3.53 0.38,-8.62 1.13,-14.5 8.06,-60.78 34.99,-170.56 75.52,-257.8 1.13,-2.35 1.5,-4.51 1.5,-7.45 0,-20.78 -26.18,-51.17 -41.65,-51.17 -4.03,0 -7.42,1.77 -9.19,6.28 -8.94,20.19 -18.5,45.48 -28.44,72.93 -8.06,-45.29 -35.75,-86.66 -47.58,-86.66zm7.43 66.07c11.45,0 20.64,35.09 23.54,52.34 -4.04,8.63 -87.72,178.6 -103.21,178.6 -1.89,0 -2.64,-1.77 -2.64,-5.3 0,-3.33 0.37,-7.44 1.51,-12.54 16.99,-89 43.55,-157.42 71.86,-205.65 3.02,-5.1 5.92,-7.45 8.94,-7.45z"/>
  </g>
  <g id="_2004507217792">
   <path class="fil1" d="M106.39 2292.28c53.11,0 112.9,-34.9 167.01,-90.77 88.23,-99.79 160.09,-252.11 160.09,-381.3 0,-61.36 -16.61,-117.63 -55.75,-160.17 -17.62,-19.6 -42.67,-28.23 -70.73,-28.23 -115.03,0 -287.58,139.58 -288.72,252.7l0 1.18c0,32.73 40.15,56.26 60.42,67.83l1.51 0.58c1.51,0 3.02,-1.76 3.02,-4.11l-0.38 -1.18c-1.89,-5.68 -3.02,-11.37 -3.02,-17.64 0,-85.67 155.68,-251.13 266.56,-251.13l13.72 1.17c21.39,2.94 32.09,31.57 32.09,74.7 0,84.49 -40.9,222.31 -123.97,327.39 -32.09,37.24 -71.1,68.41 -116.41,89 -0.38,-1.77 -0.75,-3.92 -0.75,-6.27 0,-13.73 5.91,-34.51 7.29,-40.78 24.04,-97.63 93.64,-281.52 121.7,-329.74 1.13,-1.77 1.51,-3.92 1.51,-6.28 0,-15.48 -26.17,-38.42 -42.03,-38.42 -4.41,0 -8.18,1.57 -10.32,5.68 -22.53,40.78 -128.75,287.79 -130.14,373.27 0,19.6 11.34,41.95 26.18,53.52 -8.17,2.15 -16.61,5.09 -25.55,7.45 -8.43,1.76 -16.86,2.74 -25.04,2.74 -28.32,0 -52.73,-13.13 -63.81,-48.23 -1,-3.33 -4.03,-5.09 -6.92,-5.09 -3.4,0 -7.05,2.94 -7.05,8.62l0 1.18c3.02,41.95 33.23,117.62 56,128.01 15.49,9.22 32.1,13.34 49.85,14.32l3.64 0zm450.19 -596.17c-1.89,0 -3.27,1.18 -4.4,2.36 -16.62,23.52 -36.88,74.1 -36.88,110.76 0,22.54 7.3,39.8 26.56,43.72 11.07,-37.84 28.69,-62.54 46.44,-102.14 1.13,-2.35 1.5,-4.71 1.5,-7.45 0,-18.43 -22.14,-46.66 -33.22,-47.25zm-67.84 164.87c-3.64,0 -7.04,1.77 -8.8,6.28 -20.64,47.83 -83.32,217.8 -83.32,308.57 0,17.25 2.14,30.97 7.3,41.36 7.8,14.9 22.91,28.62 33.98,36.66 1.01,0.59 2.52,1.18 3.65,1.18 27.68,0 99.93,-151.74 119.44,-198.79 0.37,-0.59 0.37,-1.17 0.37,-2.15 0,-6.47 -9.18,-15.1 -14.34,-15.1 -1.14,0 -1.89,0 -2.27,0.59 -18.37,37.44 -73.37,154.48 -88.48,154.48 -2.14,0 -3.64,-2.75 -3.64,-9.61 0,-4.11 0.37,-8.62 1.13,-14.5 8.05,-60.78 34.98,-163.11 75.51,-250.35 1.13,-2.35 1.51,-5.1 1.51,-7.45 0,-20.78 -26.56,-51.17 -42.04,-51.17zm166.64 -7.45c-58.65,0 -142.72,226.83 -142.72,331.9 0,19.02 3.02,33.92 8.93,43.13 4.79,8.04 34.99,25.88 46.45,25.88 10.69,0 65.57,-102.14 90.36,-160.75 -4.15,16.66 -10.32,50.97 -10.32,81.55 0,16.66 2.13,31.56 7.3,41.95 7.8,14.9 22.9,28.62 33.98,36.66 1,0.59 2.51,1.18 3.65,1.18 27.31,0 98.41,-151.74 117.67,-198.79 0.25,-0.59 0.25,-1.76 0.25,-2.15 0,-6.47 -9.18,-15.1 -13.96,-15.1 -1.14,0 -1.77,0 -2.14,0.59 -18.88,38.03 -73.38,161.54 -87.47,161.54 -2.15,0 -3.28,-2.94 -3.28,-9.22 0,-3.53 0.38,-8.62 1.13,-14.5 8.06,-60.78 34.99,-170.56 75.52,-257.8 1.13,-2.35 1.51,-4.51 1.51,-7.45 0,-20.78 -26.18,-51.17 -41.66,-51.17 -4.03,0 -7.42,1.77 -9.19,6.28 -8.93,20.19 -18.5,45.48 -28.44,72.93 -8.05,-45.29 -35.74,-86.66 -47.57,-86.66zm7.42 66.07c11.46,0 20.64,35.09 23.54,52.34 -4.03,8.63 -87.72,178.6 -103.21,178.6 -1.88,0 -2.63,-1.77 -2.63,-5.3 0,-3.33 0.37,-7.44 1.5,-12.54 16.99,-89 43.55,-157.42 71.87,-205.65 3.02,-5.1 5.91,-7.45 8.93,-7.45zm294.25 -66.07c-9.69,0 -42.79,56.27 -76.4,121.75 7.43,-22.35 15.86,-45.88 25.43,-69.99 0.75,-2.35 1.51,-4.71 1.51,-6.86 0,-18.43 -23.66,-39.8 -40.15,-39.8 -5.54,0 -10.32,2.94 -12.96,8.63 -38.39,85.08 -84.07,221.72 -89.99,324.64 0.38,17.25 18.88,64.89 33.6,64.89 4.41,0 8.43,-4.7 11.46,-15.48 2.14,-7.45 4.78,-16.67 8.05,-27.06 27.31,-82.14 80.8,-227.99 130.51,-298.77 1.89,-2.15 3.03,-3.33 4.03,-3.33 0.76,0 1.13,1.18 1.13,2.94 0,7.45 -5.54,26.27 -6.29,29.21 -10.95,40.78 -58.9,166.64 -58.9,238.39 0,13.72 1.76,25.88 5.91,34.5 6.55,14.9 21.02,28.62 31.6,36.66 1.13,0.59 2.26,1.18 3.77,1.18 27.31,0 106.85,-151.74 129,-198.79 0.38,-0.59 0.76,-1.76 0.76,-2.15 0,-6.47 -8.81,-15.1 -13.59,-15.1 -1.14,0 -1.89,0 -2.27,0.59 -20.26,37.44 -81.05,152.91 -96.28,152.91 -1.76,0 -3.27,-2.94 -3.27,-8.04 0,-4.11 0.76,-9.21 2.27,-16.66 13.21,-68.42 58.27,-156.25 58.27,-231.53 0,-10.97 -1.14,-22.34 -3.4,-32.73 -3.65,-17.26 -30.96,-50 -43.8,-50zm196.08 0c-58.65,0 -142.72,226.83 -142.72,331.9 0,19.02 3.02,33.92 8.94,43.13 4.78,8.04 34.98,25.88 46.44,25.88 10.69,0 65.57,-102.14 90.36,-160.75 -4.15,16.66 -10.32,50.97 -10.32,81.55 0,16.66 2.14,31.56 7.3,41.95 7.81,14.9 22.91,28.62 33.98,36.66 1.01,0.59 2.52,1.18 3.65,1.18 27.31,0 98.42,-151.74 117.68,-198.79 0.25,-0.59 0.25,-1.76 0.25,-2.15 0,-6.47 -9.19,-15.1 -13.97,-15.1 -1.14,0 -1.77,0 -2.14,0.59 -18.88,38.03 -73.38,161.54 -87.47,161.54 -2.14,0 -3.27,-2.94 -3.27,-9.22 0,-3.53 0.37,-8.62 1.13,-14.5 8.05,-60.78 34.98,-170.56 75.51,-257.8 1.13,-2.35 1.51,-4.51 1.51,-7.45 0,-20.78 -26.18,-51.17 -41.66,-51.17 -4.02,0 -7.42,1.77 -9.18,6.28 -8.94,20.19 -18.51,45.48 -28.44,72.93 -8.06,-45.29 -35.75,-86.66 -47.58,-86.66zm7.43 66.07c11.45,0 20.64,35.09 23.53,52.34 -4.03,8.63 -87.72,178.6 -103.2,178.6 -1.89,0 -2.64,-1.77 -2.64,-5.3 0,-3.33 0.37,-7.44 1.51,-12.54 16.98,-89 43.54,-157.42 71.86,-205.65 3.02,-5.1 5.91,-7.45 8.94,-7.45zm330.74 374.44c84.45,0 203.51,-76.85 220.5,-150.95 1.38,-6.47 1.76,-14.51 1.76,-23.13 0,-28.63 -5.91,-67.05 -12.84,-87.83 -8.18,-21.76 -27.68,-51.17 -56.38,-71.16 61.92,-41.96 123.84,-101.16 135.67,-163.11 1.77,-9.21 2.52,-20.78 2.52,-32.74 0,-32.74 -5.54,-70.18 -11.08,-82.73 -15.1,-36.27 -44.93,-51.17 -80.29,-51.17 -62.43,0 -141.21,47.25 -178.84,105.67 -12.59,19.6 -19.63,47.83 -19.63,74.69 0,14.31 1.88,27.64 5.91,39.6 0.38,1.18 1.13,1.77 1.89,1.77 1.13,0 2.51,-1.18 2.89,-3.34 9.69,-36.26 52.35,-79.39 101.44,-110.37 -34.61,72.34 -126.48,289.56 -129.38,369.93l0 1.77c0,27.44 21.4,60.77 42.79,60.77 4.78,0 9.19,-1.18 13.6,-4.51 1.13,-0.59 1.88,-2.35 1.88,-3.53 0,-1.76 -1.13,-3.33 -2.64,-3.92 -3.27,-1.17 -4.4,-5.88 -4.4,-11.56 0,-14.32 6.67,-36.27 8.05,-43.13 6.67,-24.7 15.48,-54.5 26.18,-86.65 51.35,4.5 127.61,17.25 127.61,49.99 0,2.74 -0.75,6.27 -2.13,9.8 -31.09,74.1 -134.29,111.35 -197.35,111.35l-6.67 0c-38.25,-1.18 -76.64,-20.78 -89.86,-69.01 -1.13,-2.74 -3.77,-4.51 -5.91,-4.51 -3.02,0 -5.54,2.36 -5.54,6.28l0 1.17c1.76,44.9 28.32,134.49 50.85,151.15 15.1,13.14 36.11,19.41 59.4,19.41zm106.85 -379.54c25.42,-66.06 50.97,-125.85 65.32,-150.56 1.13,-2.35 1.89,-4.51 1.89,-6.86 0,-12.15 -13.72,-28.23 -27.31,-35.68 26.55,-12.54 52.73,-20.58 74.5,-20.58 11.33,0 21.65,2.15 30.21,6.86 11.45,6.27 16.23,17.25 16.23,29.21 0,10.39 -3.77,21.96 -9.31,32.74 -34.23,64.3 -103.2,114.88 -151.53,144.87zm207.28 341.7c4.41,0 8.56,-0.58 12.59,-1.76 86.96,-28.23 178.84,-264.85 215.71,-394.04 8.44,7.45 12.09,11.56 12.09,29.4 -2.52,62.54 -70.74,197.02 -70.74,282.5 0,17.25 2.52,32.74 8.82,44.89 7.42,14.9 22.9,28.62 33.6,36.66 1.13,0.59 2.51,1.18 4.02,1.18 27.69,0 99.55,-151.74 118.69,-198.2 0.37,-0.59 0.37,-1.76 0.37,-2.35 0,-6.28 -9.18,-15.49 -14.34,-15.49 -0.76,0 -1.51,0 -1.89,0.59 -18.37,37.44 -73.37,154.48 -88.1,154.48 -2.52,0 -3.65,-2.75 -3.65,-9.61 0,-28.81 19.13,-112.13 41.28,-176.43 11.83,-33.92 19.88,-64.89 19.88,-91.95 0,-35.48 -14.72,-64.3 -56.37,-81.55 0.75,-6.86 3.64,-32.74 3.64,-59.01 0,-33.91 -4.78,-69.59 -23.91,-70.18 -2.27,0 -4.41,0.59 -7.05,1.17 -26.55,9.22 -36.88,30.39 -36.88,53.52 0,30.39 17.76,64.89 39.9,83.12 -40.65,149.98 -161.47,362.49 -203.88,362.49 -10.07,0 -14.85,-12.55 -14.85,-33.33 0,-23.53 7.05,-52.34 17.74,-82.73 13.34,18.43 24.29,28.23 36.5,29.99 34.36,0 91.87,-124.09 91.87,-177.61l-0.75 -8.63c-4.4,-26.85 -53.11,-79.2 -71.99,-79.2 -42.29,0 -124.97,175.66 -124.97,297.01 0,33.32 6.29,62.53 21.01,82.73 9.95,14.89 26.56,22.34 41.66,22.34zm11.46 -179.18c24.66,-66.06 63.43,-135.07 82.18,-166.04 -10.32,62.53 -51.98,166.04 -82.18,166.04zm411.92 -223.49c-42.41,0 -125.48,176.25 -125.48,298.18 0,33.33 6.29,61.95 21.02,82.54 10.32,14.5 27.31,22.54 42.41,22.54 4.53,0 8.56,-0.59 12.21,-1.76 49.08,-16.08 120.57,-145.86 151.15,-207.41 0.37,-1.18 0.75,-2.16 0.75,-2.75 0,-1.17 -0.38,-1.76 -0.38,-2.35 -0.75,-2.35 -4.02,-3.53 -8.05,-3.53 -6.29,0 -14.72,2.94 -17.75,8.04 -21.39,35.68 -100.3,166.63 -134.16,166.63 -7.42,0 -12.58,-6.27 -14.47,-21.17 -0.38,-4.12 -0.63,-8.04 -0.63,-12.74 0,-24.7 7.3,-55.68 18.76,-88.42 10.31,13.73 22.52,24.7 31.33,27.65 1.14,0.58 2.52,0.58 3.65,0.58 34.74,0 92.63,-124.68 92.63,-178.2 0,-2.74 -0.37,-5.68 -0.75,-8.62 -2.65,-15.49 -23.29,-41.37 -35.12,-54.5 -9.19,-11.96 -29.07,-24.71 -37.12,-24.71zm31.34 57.45c-10.33,61.55 -50.23,161.34 -80.43,165.45 24.67,-65.47 62.3,-134.48 80.43,-165.45zm207.28 -57.45c-9.69,0 -42.79,56.27 -76.4,121.75 7.43,-22.35 15.86,-45.88 25.43,-69.99 0.75,-2.35 1.51,-4.71 1.51,-6.86 0,-18.43 -23.66,-39.8 -40.15,-39.8 -5.54,0 -10.32,2.94 -12.96,8.63 -38.39,85.08 -84.07,221.72 -89.99,324.64 0.38,17.25 18.88,64.89 33.6,64.89 4.41,0 8.43,-4.7 11.46,-15.48 2.14,-7.45 4.78,-16.67 8.05,-27.06 27.31,-82.14 80.8,-227.99 130.51,-298.77 1.89,-2.15 3.03,-3.33 4.03,-3.33 0.76,0 1.13,1.18 1.13,2.94 0,7.45 -5.54,26.27 -6.29,29.21 -10.95,40.78 -58.9,166.64 -58.9,238.39 0,13.72 1.76,25.88 5.91,34.5 6.55,14.9 21.02,28.62 31.6,36.66 1.13,0.59 2.26,1.18 3.77,1.18 27.31,0 106.85,-151.74 129,-198.79 0.38,-0.59 0.76,-1.76 0.76,-2.15 0,-6.47 -8.81,-15.1 -13.59,-15.1 -1.14,0 -1.89,0 -2.27,0.59 -20.26,37.44 -81.05,152.91 -96.28,152.91 -1.76,0 -3.27,-2.94 -3.27,-8.04 0,-4.11 0.76,-9.21 2.27,-16.66 13.21,-68.42 58.27,-156.25 58.27,-231.53 0,-10.97 -1.14,-22.34 -3.4,-32.73 -3.65,-17.26 -30.96,-50 -43.8,-50zm217.86 -157.42c-1.89,0 -3.28,1.18 -4.41,2.36 -16.61,23.52 -36.87,74.1 -36.87,110.76 0,22.54 7.3,39.8 26.55,43.72 11.07,-37.84 28.69,-62.54 46.44,-102.14 1.13,-2.35 1.51,-4.71 1.51,-7.45 0,-18.43 -22.15,-46.66 -33.22,-47.25zm-67.84 164.87c-3.65,0 -7.05,1.77 -8.81,6.28 -20.64,47.83 -83.32,217.8 -83.32,308.57 0,17.25 2.14,30.97 7.3,41.36 7.8,14.9 22.91,28.62 33.98,36.66 1.01,0.59 2.52,1.18 3.65,1.18 27.69,0 99.93,-151.74 119.44,-198.79 0.38,-0.59 0.38,-1.17 0.38,-2.15 0,-6.47 -9.19,-15.1 -14.35,-15.1 -1.14,0 -1.89,0 -2.27,0.59 -18.37,37.44 -73.37,154.48 -88.47,154.48 -2.14,0 -3.65,-2.75 -3.65,-9.61 0,-4.11 0.37,-8.62 1.13,-14.5 8.06,-60.78 34.99,-163.11 75.52,-250.35 1.13,-2.35 1.5,-5.1 1.5,-7.45 0,-20.78 -26.55,-51.17 -42.03,-51.17zm157.82 -7.45c-42.41,0 -125.73,175.85 -125.73,297.6 0,33.32 6.3,62.53 21.4,83.12 10.32,14.5 26.93,22.54 42.03,22.54 4.41,0 8.43,-0.59 12.09,-1.76 49.45,-16.08 119.18,-145.86 149.76,-207.41 0.38,-1.18 0.75,-2.16 0.75,-2.75 0,-1.17 -0.37,-1.76 -0.37,-2.35 -0.76,-2.35 -3.78,-3.53 -7.8,-3.53 -6.55,0 -15.1,2.94 -18,8.04 -21.4,35.68 -99.55,166.63 -132.78,166.63 -7.42,0 -12.58,-6.27 -14.35,-21.17 -0.37,-4.12 -0.75,-8.04 -0.75,-12.74 0,-71.16 63.06,-196.44 96.53,-256.23 6.67,-11.37 10.7,-16.47 13.34,-16.47 1.51,0 2.27,2.16 2.27,5.1 0,13.72 -11.46,49.99 -28.07,71.75 -1.13,1.77 -1.89,3.53 -1.89,5.69 0,1.76 0.76,3.53 1.52,5.29 8.05,12.55 17.99,22.94 28.06,22.94 1.76,0 4.03,-0.59 5.79,-1.18 13.72,-6.27 26.93,-40.19 26.93,-69.99 0,-12.74 -2.52,-24.7 -8.43,-33.32 -16.99,-24.7 -39.77,-59.8 -62.3,-59.8zm179.6 0c-42.41,0 -125.48,176.25 -125.48,298.18 0,33.33 6.29,61.95 21.02,82.54 10.32,14.5 27.31,22.54 42.41,22.54 4.53,0 8.56,-0.59 12.21,-1.76 49.08,-16.08 120.57,-145.86 151.15,-207.41 0.37,-1.18 0.75,-2.16 0.75,-2.75 0,-1.17 -0.38,-1.76 -0.38,-2.35 -0.75,-2.35 -4.02,-3.53 -8.05,-3.53 -6.29,0 -14.72,2.94 -17.75,8.04 -21.39,35.68 -100.3,166.63 -134.16,166.63 -7.42,0 -12.58,-6.27 -14.47,-21.17 -0.38,-4.12 -0.63,-8.04 -0.63,-12.74 0,-24.7 7.3,-55.68 18.76,-88.42 10.31,13.73 22.52,24.7 31.33,27.65 1.14,0.58 2.52,0.58 3.65,0.58 34.74,0 92.63,-124.68 92.63,-178.2 0,-2.74 -0.37,-5.68 -0.75,-8.62 -2.65,-15.49 -23.29,-41.37 -35.12,-54.5 -9.19,-11.96 -29.07,-24.71 -37.12,-24.71zm31.34 57.45c-10.33,61.55 -50.23,161.34 -80.43,165.45 24.67,-65.47 62.3,-134.48 80.43,-165.45zm468.3 444.62c3.65,0 9.95,-4.12 9.95,-7.45l-0.38 -1.77c-3.66,-8.62 -5.16,-20.78 -5.16,-35.68 0,-101.55 77.77,-331.89 149.76,-495.59 15.11,-33.91 33.48,-74.1 33.48,-117.23 0,-10.39 -1.13,-20 -3.27,-30.39 -2.27,-10.39 -30.96,-48.81 -46.82,-48.81l-4.15 1.17c-43.8,7.45 -156.31,177.42 -245.17,339.94 32.1,-87.83 60.16,-172.91 60.16,-224.47l0 -2.94c-0.38,-37.83 -57.14,-106.25 -91.12,-106.25 -50.46,0 -95.14,59.79 -109.87,146.44 -1.13,7.45 -1.89,14.9 -1.89,22.94 0,35.68 11.08,75.86 29.96,99.98 0.37,0.59 1.13,0.59 1.76,0.59 1.89,0 4.15,-2.36 4.15,-6.28 0,-1.17 0,-2.94 -0.37,-4.11 -1.89,-6.87 -3.03,-14.32 -3.03,-22.35 0,-62.15 55,-151.74 107.36,-173.5 2.14,-1.18 4.03,-1.18 5.53,-1.18 5.54,0 8.06,5.3 8.06,14.31 0,74.7 -152.28,411.3 -157.44,505.01l0 2.74c0,30 21.01,66.66 42.41,66.66 4.41,0 8.81,-1.18 12.96,-4.51 1.01,-0.59 1.76,-2.35 1.76,-4.12 0,-1.76 -0.75,-3.33 -2.14,-3.92 -2.26,-1.18 -3.77,-3.53 -4.15,-6.86l0 -1.77c0,-67.83 280.66,-552.64 319.05,-552.64l0.37 0c0.38,0 0.38,0.59 0.38,1.18 0,22.54 -146.5,352.68 -157.45,535.39 -0.37,5.1 -0.37,10.78 -0.37,16.07 0,49.99 14.35,86.65 43.79,98.81l1.89 0.59zm235.6 -502.07c-58.64,0 -142.72,226.83 -142.72,331.9 0,19.02 3.03,33.92 8.94,43.13 4.78,8.04 34.99,25.88 46.44,25.88 10.7,0 65.57,-102.14 90.37,-160.75 -4.16,16.66 -10.33,50.97 -10.33,81.55 0,16.66 2.14,31.56 7.3,41.95 7.81,14.9 22.91,28.62 33.98,36.66 1.01,0.59 2.52,1.18 3.66,1.18 27.3,0 98.41,-151.74 117.67,-198.79 0.25,-0.59 0.25,-1.76 0.25,-2.15 0,-6.47 -9.19,-15.1 -13.97,-15.1 -1.14,0 -1.76,0 -2.14,0.59 -18.88,38.03 -73.38,161.54 -87.47,161.54 -2.14,0 -3.27,-2.94 -3.27,-9.22 0,-3.53 0.38,-8.62 1.13,-14.5 8.06,-60.78 34.99,-170.56 75.52,-257.8 1.13,-2.35 1.5,-4.51 1.5,-7.45 0,-20.78 -26.18,-51.17 -41.65,-51.17 -4.03,0 -7.43,1.77 -9.19,6.28 -8.94,20.19 -18.5,45.48 -28.44,72.93 -8.06,-45.29 -35.75,-86.66 -47.58,-86.66zm7.43 66.07c11.45,0 20.64,35.09 23.53,52.34 -4.03,8.63 -87.72,178.6 -103.2,178.6 -1.89,0 -2.64,-1.77 -2.64,-5.3 0,-3.33 0.37,-7.44 1.51,-12.54 16.99,-89 43.55,-157.42 71.86,-205.65 3.02,-5.1 5.92,-7.45 8.94,-7.45zm114.27 -242.89l-0.75 0c-20.27,0 -57.51,108.99 -57.51,135.46 0,17.84 8.18,25.29 14.72,25.29 2.64,0 5.16,-1.18 6.67,-3.92 11.45,-18.43 51.6,-96.06 70.48,-109.78 0.63,-0.59 1.38,-1.77 1.38,-3.53 0,-11.37 -23.53,-41.76 -34.99,-43.52zm129.38 175.65c10.7,-37.25 28.45,-61.36 46.44,-100.96 0.76,-2.36 1.51,-4.71 1.51,-7.45 0,-19.02 -22.53,-47.25 -33.6,-47.25 -1.76,0 -3.28,0.59 -4.41,2.35 -16.61,22.94 -36.87,73.52 -36.87,110.18 0,22.54 7.05,39.8 26.93,43.13zm-299.03 663.4c5.16,0 10.32,-0.58 15.86,-1.76 63.43,-15.49 108.74,-100.37 146.36,-205.65 45.44,-123.9 76.02,-279.55 127.62,-388.75 1.13,-2.35 1.51,-4.51 1.51,-7.45 0,-20.78 -26.55,-51.17 -42.41,-51.17 -4.15,0 -7.05,1.77 -8.93,6.28 -52.36,127.03 -87.34,288.38 -137.06,415.8 -30.71,77.63 -69.35,138.6 -123.21,138.6 -34.61,0 -44.3,-26.46 -49.71,-48.81 -0.38,-1.77 -2.27,-2.94 -4.16,-2.94 -2.51,0 -5.16,1.76 -5.54,5.1l0 9.21c0,85.08 36.13,131.54 79.67,131.54zm338.04 -259.56c4.41,0 8.56,-0.58 12.59,-1.76 86.97,-28.23 178.84,-264.85 215.71,-394.04 8.44,7.45 12.09,11.56 12.09,29.4 -2.52,62.54 -70.74,197.02 -70.74,282.5 0,17.25 2.53,32.74 8.82,44.89 7.42,14.9 22.9,28.62 33.6,36.66 1.14,0.59 2.52,1.18 4.02,1.18 27.69,0 99.56,-151.74 118.69,-198.2 0.38,-0.59 0.38,-1.76 0.38,-2.35 0,-6.28 -9.19,-15.49 -14.35,-15.49 -0.76,0 -1.51,0 -1.89,0.59 -18.37,37.44 -73.37,154.48 -88.1,154.48 -2.52,0 -3.65,-2.75 -3.65,-9.61 0,-28.81 19.13,-112.13 41.28,-176.43 11.84,-33.92 19.89,-64.89 19.89,-91.95 0,-35.48 -14.72,-64.3 -56.38,-81.55 0.75,-6.86 3.64,-32.74 3.64,-59.01 0,-33.91 -4.78,-69.59 -23.91,-70.18 -2.27,0 -4.4,0.59 -7.05,1.17 -26.55,9.22 -36.87,30.39 -36.87,53.52 0,30.39 17.75,64.89 39.89,83.12 -40.65,149.98 -161.47,362.49 -203.88,362.49 -10.07,0 -14.85,-12.55 -14.85,-33.33 0,-23.53 7.05,-52.34 17.74,-82.73 13.34,18.43 24.3,28.23 36.5,29.99 34.36,0 91.87,-124.09 91.87,-177.61l-0.75 -8.63c-4.4,-26.85 -53.11,-79.2 -71.99,-79.2 -42.29,0 -124.97,175.66 -124.97,297.01 0,33.32 6.29,62.53 21.02,82.73 9.94,14.89 26.55,22.34 41.65,22.34zm11.46 -179.18c24.66,-66.06 63.43,-135.07 82.18,-166.04 -10.32,62.53 -51.98,166.04 -82.18,166.04zm419.22 -223.49c-58.65,0 -142.72,226.83 -142.72,331.9 0,19.02 3.02,33.92 8.93,43.13 4.79,8.04 34.99,25.88 46.44,25.88 10.7,0 65.58,-102.14 90.37,-160.75 -4.15,16.66 -10.32,50.97 -10.32,81.55 0,16.66 2.13,31.56 7.3,41.95 7.8,14.9 22.9,28.62 33.98,36.66 1,0.59 2.51,1.18 3.65,1.18 27.31,0 98.41,-151.74 117.67,-198.79 0.25,-0.59 0.25,-1.76 0.25,-2.15 0,-6.47 -9.18,-15.1 -13.97,-15.1 -1.13,0 -1.76,0 -2.13,0.59 -18.88,38.03 -73.38,161.54 -87.47,161.54 -2.15,0 -3.28,-2.94 -3.28,-9.22 0,-3.53 0.38,-8.62 1.13,-14.5 8.06,-60.78 34.99,-170.56 75.52,-257.8 1.13,-2.35 1.51,-4.51 1.51,-7.45 0,-20.78 -26.18,-51.17 -41.66,-51.17 -4.03,0 -7.42,1.77 -9.19,6.28 -8.93,20.19 -18.5,45.48 -28.44,72.93 -8.05,-45.29 -35.74,-86.66 -47.57,-86.66zm7.42 66.07c11.46,0 20.64,35.09 23.54,52.34 -4.03,8.63 -87.72,178.6 -103.21,178.6 -1.88,0 -2.63,-1.77 -2.63,-5.3 0,-3.33 0.37,-7.44 1.5,-12.54 16.99,-89 43.55,-157.42 71.87,-205.65 3.01,-5.1 5.91,-7.45 8.93,-7.45zm637.45 431.29c4.03,0 9.95,-3.92 9.95,-8.04l-0.38 -1.76c-4.03,-9.02 -5.79,-21.76 -5.79,-37.84 0,-158.01 179.09,-613.41 239.63,-651.83 1.76,-1.18 3.27,-4.71 3.27,-6.87 0,-1.76 -0.76,-3.52 -2.14,-4.7 -12.58,-6.86 -25.17,-10.39 -37.63,-10.39 -108.49,0 -221.25,235.05 -273.23,340.13 25.42,-63.12 41.66,-109.19 41.66,-151.15 0,-17.25 -2.65,-33.72 -8.81,-50.38 -3.4,-9.21 -16.24,-25.88 -27.69,-37.44l0 -0.59 -0.76 -0.59c-7.68,-7.45 -15.48,-12.55 -19.88,-12.55 -11.07,0 -47.95,63.13 -79.67,125.67 12.21,-40.78 19.51,-76.26 19.51,-103.32l0 -3.53c-1.13,-37.24 -58.27,-105.07 -91.75,-105.07 -50.97,0 -95.14,59.2 -108.73,144.87 -1.14,6.86 -1.52,13.72 -1.52,21.17 0,35.68 11.08,76.46 30.21,99.4 0.75,0.58 1.51,1.17 2.26,1.17 1.77,0 4.03,-2.35 4.03,-6.27l-0.75 -4.12c-2.27,-6.86 -2.9,-14.9 -2.9,-22.93 0,-60.97 53.74,-148.8 105.72,-170.56 2.26,-1.18 4.15,-1.18 5.54,-1.18 5.54,0 8.18,5.1 8.18,14.9 0,74.11 -149.39,405.42 -153.42,497.95l0 2.35c0,29.21 21.4,66.07 43.17,66.07 4.4,0 8.81,-1.18 12.84,-4.71 1.13,-0.59 1.51,-2.16 1.51,-3.33 0,-1.77 -0.76,-4.12 -2.27,-4.71 -3.27,-1.17 -4.4,-5.68 -4.4,-11.96 0,-14.89 7.05,-38.62 8.93,-46.06 27.94,-112.53 137.81,-337 193.19,-412.87 2.14,-2.35 3.65,-3.53 4.4,-3.53 0.76,0 1.14,0 1.52,1.18 0.75,1.76 1,3.53 1,6.27 0,48.82 -108.74,278.58 -108.74,401.5 0,36.85 9.56,63.71 34.74,74.1l1.76 0.59c4.03,0 11.08,-4.51 11.08,-8.63l-0.38 -1.17c-0.76,-1.57 -1.13,-4.51 -1.13,-7.45 0,-59.6 136.05,-312.89 156.44,-349.15 24.66,-43.13 50.08,-84.5 74,-120.57 -52.36,131.54 -124.98,344.64 -124.98,469.72 0,50.57 11.46,86.25 40.65,97.62l1.76 0.59z"/>
   <path class="fil1" d="M5330.5 2255.62c47.57,0 175.82,-341.12 191.3,-395.22 8.18,7.45 11.83,12.15 11.83,28.81 -3.28,63.13 -70.86,198.01 -70.86,283.68 0,16.66 2.65,32.15 8.94,44.3 7.68,14.9 23.16,28.62 33.85,36.66 1.14,0.59 2.65,1.18 3.78,1.18 27.56,0 99.8,-151.74 119.06,-198.2 0.38,-0.59 0.38,-1.76 0.38,-2.35 0,-6.28 -9.19,-15.49 -14.48,-15.49 -0.63,0 -1.38,0 -1.76,0.59 -18.5,37.44 -73.37,154.48 -88.48,154.48 -2.26,0 -3.77,-2.75 -3.77,-10.19 0,-28.82 20.01,-111.55 41.66,-175.85 11.45,-33.92 19.63,-64.89 19.63,-91.36 0,-36.07 -14.73,-64.89 -56.38,-82.14 0.63,-6.86 3.65,-32.74 3.65,-59.01 0,-33.91 -4.79,-69.59 -24.04,-70.18 -1.77,0 -4.41,0.59 -6.55,1.17 -26.55,9.22 -36.87,30.39 -36.87,53.52 0,30.39 17.62,64.89 39.39,83.12 -7.05,26.47 -134.54,335.43 -157.82,335.43 -2.14,0 -3.27,-3.33 -3.27,-9.8 0,-41.17 33.85,-156.64 76.64,-248.58 1.13,-2.35 1.51,-4.71 1.51,-7.45 0,-20.19 -26.55,-51.17 -42.04,-51.17 -3.64,0 -7.04,1.77 -8.8,6.28 -8.94,20.19 -18.51,45.48 -28.07,72.92 -8.43,-45.28 -36.12,-86.65 -47.57,-86.65 -58.65,0 -142.34,226.24 -142.34,331.31 0,19.02 2.64,33.92 8.56,43.13 5.16,7.45 34.98,25.29 46.44,25.29 10.69,0 65.56,-101.55 90.36,-160.16 -4.15,17.25 -10.45,51.55 -10.45,82.14 0,16.07 1.89,31.56 7.05,41.36 7.81,14.9 23.28,28.62 33.98,36.66 1.76,1.18 3.65,1.77 5.54,1.77zm-111.01 -104.49c-1.88,0 -2.64,-2.36 -2.64,-5.89 0,-2.74 0.38,-7.44 1.51,-12.54 16.61,-89 43.55,-156.84 71.49,-205.06 3.02,-5.1 5.91,-7.45 8.94,-7.45 11.32,0 20.64,35.09 23.53,51.75 -4.03,9.02 -87.35,179.19 -102.83,179.19zm415.83 103.31c28.44,0 102.45,-152.13 122.46,-198.2l0.37 -2.15c0,-6.47 -9.68,-15.69 -14.84,-15.69l-2.14 0.59c-18.5,37.44 -75.27,156.83 -90.75,156.83 -2.13,0 -3.65,-3.33 -3.65,-10.39 0,-3.33 0.38,-8.03 1.14,-13.72 5.53,-40.19 58.52,-228.58 110.87,-350.91 35.49,0.58 61.29,1.76 72.37,2.35 2.89,0 39.02,-1.77 46.44,-61.56l0 -0.59c0,-1.57 -0.75,-2.74 -1.89,-2.74l-1.13 0.59c-6.92,9.21 -48.96,11.96 -92.12,11.96 14.72,-28.63 29.44,-48.23 41.66,-54.5 1.5,-0.59 2.89,-2.94 3.26,-5.69 0,-2.94 -1,-5.29 -2.51,-7.65 -15.86,-17.05 -32.1,-25.09 -46.82,-25.09 -19.51,0 -36.87,13.72 -50.22,37.25 -6.54,12.55 -15.48,31.56 -25.42,54.5l-16.99 -0.59c-3.27,0 -39.39,1.18 -46.82,61.56l0 0.59c0,1.76 0.76,2.74 1.89,2.74l1.14 -0.39c4.02,-5.29 19.12,-8.63 39.01,-10.39 -43.8,111.94 -94.77,271.12 -94.77,353.27 0,17.05 1.89,30.97 7.05,40.18 7.42,14.32 27.69,28.63 38.76,36.66 1.13,0.59 2.52,1.18 3.65,1.18zm168.9 -393.46c-3.65,0 -7.05,1.77 -8.81,6.28 -20.64,47.83 -83.32,217.8 -83.32,308.57 0,17.25 2.14,30.97 7.3,41.36 7.8,14.9 22.91,28.62 33.98,36.66 1.01,0.59 2.52,1.18 3.65,1.18 27.69,0 99.93,-151.74 119.44,-198.79 0.38,-0.59 0.38,-1.17 0.38,-2.15 0,-6.47 -9.19,-15.1 -14.35,-15.1 -1.14,0 -1.89,0 -2.27,0.59 -18.37,37.44 -73.37,154.48 -88.47,154.48 -2.14,0 -3.65,-2.75 -3.65,-9.61 0,-4.11 0.37,-8.62 1.13,-14.5 8.06,-60.78 34.99,-163.11 75.51,-250.35 1.13,-2.35 1.51,-5.1 1.51,-7.45 0,-20.78 -26.56,-51.17 -42.03,-51.17zm82.56 -164.87l-0.76 0c-20.26,0 -57.51,109.2 -57.51,135.66 0,17.84 8.18,25.29 14.72,25.29 2.64,0 5.29,-1.17 6.67,-4.11 11.45,-18.43 51.6,-95.87 70.48,-109.59 0.75,-0.59 1.51,-1.76 1.51,-3.53 0,-11.57 -23.66,-41.95 -35.11,-43.72zm134.66 157.42c-9.68,0 -42.78,56.27 -76.39,121.75 7.43,-22.35 15.85,-45.88 25.42,-69.99 0.76,-2.35 1.52,-4.71 1.52,-6.86 0,-18.43 -23.67,-39.8 -40.15,-39.8 -5.54,0 -10.33,2.94 -12.97,8.63 -38.39,85.08 -84.07,221.72 -89.98,324.64 0.37,17.25 18.87,64.89 33.6,64.89 4.4,0 8.43,-4.7 11.45,-15.48 2.14,-7.45 4.78,-16.67 8.06,-27.06 27.31,-82.14 80.79,-227.99 130.51,-298.77 1.88,-2.15 3.02,-3.33 4.02,-3.33 0.76,0 1.14,1.18 1.14,2.94 0,7.45 -5.54,26.27 -6.29,29.21 -10.96,40.78 -58.9,166.64 -58.9,238.39 0,13.72 1.75,25.88 5.91,34.5 6.55,14.9 21.02,28.62 31.59,36.66 1.13,0.59 2.27,1.18 3.77,1.18 27.31,0 106.86,-151.74 129,-198.79 0.38,-0.59 0.76,-1.76 0.76,-2.15 0,-6.47 -8.81,-15.1 -13.59,-15.1 -1.14,0 -1.89,0 -2.27,0.59 -20.26,37.44 -81.05,152.91 -96.27,152.91 -1.77,0 -3.28,-2.94 -3.28,-8.04 0,-4.11 0.76,-9.21 2.27,-16.66 13.21,-68.42 58.27,-156.25 58.27,-231.53 0,-10.97 -1.13,-22.34 -3.4,-32.73 -3.65,-17.26 -30.96,-50 -43.8,-50zm188.78 0c-42.41,0 -125.47,176.25 -125.47,298.18 0,33.33 6.29,61.95 21.02,82.54 10.31,14.5 27.31,22.54 42.41,22.54 4.53,0 8.55,-0.59 12.21,-1.76 49.08,-16.08 120.57,-145.86 151.14,-207.41 0.38,-1.18 0.76,-2.16 0.76,-2.75 0,-1.17 -0.38,-1.76 -0.38,-2.35 -0.75,-2.35 -4.02,-3.53 -8.05,-3.53 -6.29,0 -14.72,2.94 -17.75,8.04 -21.39,35.68 -100.3,166.63 -134.16,166.63 -7.42,0 -12.58,-6.27 -14.47,-21.17 -0.38,-4.12 -0.63,-8.04 -0.63,-12.74 0,-24.7 7.3,-55.68 18.75,-88.42 10.32,13.73 22.53,24.7 31.34,27.65 1.14,0.58 2.52,0.58 3.65,0.58 34.74,0 92.63,-124.68 92.63,-178.2 0,-2.74 -0.38,-5.68 -0.75,-8.62 -2.65,-15.49 -23.29,-41.37 -35.12,-54.5 -9.19,-11.96 -29.07,-24.71 -37.13,-24.71zm31.35 57.45c-10.33,61.55 -50.23,161.34 -80.43,165.45 24.67,-65.47 62.3,-134.48 80.43,-165.45zm104.33 -83.32c-1.14,0 -2.52,1.76 -3.27,4.7 -3.4,15.49 -6.67,34.9 -6.67,53.91 0,11.57 1.5,22.94 4.78,33.33 8.81,27.64 34.36,32.74 60.16,32.74 16.23,0 33.1,-2.35 46.06,-2.35 3.27,0 6.29,0 9.19,0.59 -61.92,93.7 -191.3,226.23 -195.45,266.02 -0.38,4.51 -0.63,8.63 -0.63,11.96 0,27.06 12.83,31.57 30.95,33.33l5.79 0c35.87,0 90.37,-19.02 126.11,-25.29 8.18,-1.18 19.64,-4.51 30.71,-4.51 13.21,0 25.42,4.51 29.83,22.35 0.75,2.94 2.13,4.12 4.03,4.12 1.89,0 4.02,-1.77 4.77,-5.3 2.65,-10.97 4.42,-22.93 4.42,-35.68 0,-36.66 -15.11,-74.49 -64.83,-74.49 -26.55,0 -70.47,17.64 -110.62,30.97 73.38,-90.18 186.14,-215.45 192.81,-279.75 0,-1.76 0.38,-2.94 0.38,-3.92 0,-13.33 -6.29,-22.54 -13.59,-27.05 -8.94,-5.69 -21.78,-7.45 -35.87,-7.45 -23.54,0 -51.23,5.09 -71.11,5.09 -3.27,0 -7.8,0.59 -12.58,0.59 -12.84,0 -27.95,-3.33 -31.97,-28.62 -0.38,-3.53 -1.89,-5.29 -3.4,-5.29z"/>
  </g>
 </g>
</svg>
