<?xml version="1.0" encoding="UTF-8"?>
<!DOCTYPE svg PUBLIC "-//W3C//DTD SVG 1.1//EN" "http://www.w3.org/Graphics/SVG/1.1/DTD/svg11.dtd">
<!-- Creator: CorelDRAW -->
<svg xmlns="http://www.w3.org/2000/svg" xml:space="preserve" width="60.021mm" height="19.927mm" version="1.1" style="shape-rendering:geometricPrecision; text-rendering:geometricPrecision; image-rendering:optimizeQuality; fill-rule:evenodd; clip-rule:evenodd"
viewBox="0 0 6002.1 1992.7"
 xmlns:xlink="http://www.w3.org/1999/xlink"
 xmlns:xodm="http://www.corel.com/coreldraw/odm/2003">
 <defs>
  <style type="text/css">
   <![CDATA[
    .fil0 {fill:#B49956;fill-rule:nonzero}
   ]]>
  </style>
 </defs>
 <g id="Capa_x0020_1">
  <metadata id="CorelCorpID_0Corel-Layer"/>
  <path class="fil0" d="M187.86 814.02c77.5,0 206.99,-37.18 382.07,-264.13 1.37,-2.16 2.06,-3.6 2.06,-5.76 0,-6.96 -10.71,-13.91 -20.75,-13.91 -5.47,0 -10.02,1.2 -14.13,6.23 -94.15,107.48 -208.37,191.21 -330.56,195.28l-3.42 0c-52.67,0 -75.46,-37.18 -75.46,-94.76 0,-162.41 179.65,-484.36 353.36,-565.21 19.37,-9.11 33.51,-13.19 42.85,-13.19 11.18,0 16.65,6.24 16.65,16.07 0,52.78 -147.73,226.95 -223.87,263.66 -2.51,1.43 -4.56,4.07 -4.56,6.23 0,2.88 2.05,5.76 4.56,6.96 25.53,12.71 50.15,18.47 73.63,18.47 141.58,0 243.03,-200.32 243.03,-258.13 0,-4.8 -1.37,-8.4 -2.74,-11.04 -12.54,-21.11 -62.7,-53.5 -86.18,-68.37 -28.49,-18.23 -59.27,-28.79 -92.1,-28.79 -33.96,0 -69.99,11.28 -108.74,37.91 -171.66,116.11 -344.7,415.51 -344.7,589.68 0,7.91 0,14.87 0.69,21.83 7.3,73.17 104.86,160.25 188.31,160.97zm742.51 -45.58c8.2,0 15.49,-5.76 20.74,-18.95l14.82 -33.83c48.78,-99.8 146.13,-277.57 235.72,-364.17 3.42,-2.64 5.25,-4.08 7.3,-4.08 1.37,0 2.04,1.44 2.04,3.36 0,9.36 -10.02,31.67 -11.39,35.27 -19.38,49.9 -106.23,204.63 -106.23,292.44 0,16.79 2.72,30.94 10.02,41.5 12.09,18.23 38.75,35.02 57.46,44.86 2.05,0.72 4.78,1.44 6.83,1.44 49.93,0 192.87,-185.68 232.99,-242.54 0.68,-0.72 1.37,-2.16 1.37,-3.36 0,-7.92 -15.96,-18.47 -24.85,-18.47 -1.83,0 -2.51,0 -3.88,0.72 -36.7,45.82 -146.35,187.12 -173.71,187.12 -3.42,0 -5.93,-3.6 -5.93,-9.83 0,-5.04 1.37,-11.28 3.88,-20.4 24.16,-83.72 105.54,-191.92 105.54,-282.6 0,-13.44 -2.04,-26.63 -5.92,-39.34 -6.61,-21.12 -56.77,-61.9 -79.56,-61.9 -17.33,0 -74.78,66.69 -134.96,144.9 6.84,-26.15 10.03,-50.62 10.03,-72.45 -2.51,-107.47 -74.77,-143.46 -166.88,-143.46 -72.72,0 -152.97,23.27 -203.12,47.74 -20.52,9.84 -36.02,25.43 -36.02,56.38 0,12.47 2.73,27.35 7.98,45.58 -10.72,-8.4 -23.94,-14.64 -36.03,-14.64 -56.07,0 -155.01,186.89 -155.01,309.24 0,72.93 38.75,118.75 124.24,118.75 100.99,0 247.81,-215.19 247.81,-352.9 0,-60.45 -25.99,-106.75 -88,-116.59 32.6,-22.55 95.98,-52.06 142.72,-52.06 33.5,0 58.12,14.64 58.12,57.58 0,83.01 -110.79,290.28 -118.77,385.28 0.68,21.11 33.97,79.41 60.65,79.41zm-301.16 -53.5c-10.72,0 -18.01,-8.4 -18.01,-28.79 0,-6.95 0.68,-14.87 2.73,-24.71 12.55,-75.09 95.52,-214.95 111.48,-240.86 2.05,-2.88 2.74,-6.48 2.74,-10.55 0,-9.36 -4.78,-20.4 -11.4,-31.67 19.38,-12 40.12,-18.95 58.13,-18.95 29.41,0 51.98,18.23 51.98,57.57 0,95.48 -143.62,297.24 -197.65,297.96zm1115.48 50.62c49.93,0 184.88,-186.16 220.22,-242.54l0.68 -2.64c0,-7.92 -16.64,-19.19 -25.99,-19.19l-3.42 0.72c-33.96,45.82 -136.78,191.92 -164.82,191.92 -4.1,0 -6.84,-4.08 -6.84,-12.72 0,-4.07 0.68,-9.83 2.05,-16.79 14.13,-71.01 209.74,-522.26 319.39,-557.29 3.19,-0.72 5.25,-3.6 5.25,-6.96l0 -1.44c0,-2.88 -1.37,-5.75 -4.11,-7.91 -28.72,-20.87 -57.45,-30.71 -84.8,-30.71 -34.66,0 -66.8,16.79 -90.05,45.58 -69.53,85.65 -258.52,420.31 -258.52,564.49 0,20.39 4.09,37.18 13.44,49.18 13.23,17.51 49.93,35.02 69.99,44.86 2.05,0.72 4.79,1.44 7.53,1.44zm388.46 -490.6c-106.24,0 -258.52,277.57 -258.52,406.15 0,23.28 5.47,41.51 16.18,52.78 8.67,9.84 63.38,31.67 84.12,31.67 19.39,0 118.78,-124.99 163.69,-196.72 -7.52,20.39 -18.7,62.38 -18.7,99.8 0,20.39 3.88,38.62 13.23,51.34 14.13,18.23 41.49,35.02 61.55,44.86 1.83,0.72 4.56,1.44 6.62,1.44 49.47,0 178.27,-185.68 213.15,-243.26 0.45,-0.72 0.45,-2.16 0.45,-2.64 0,-7.92 -16.64,-18.47 -25.3,-18.47 -2.05,0 -3.19,0 -3.87,0.72 -34.2,46.54 -132.92,197.68 -158.44,197.68 -3.88,0 -5.93,-3.6 -5.93,-11.28 0,-4.32 0.68,-10.55 2.05,-17.75 14.59,-74.37 63.37,-208.72 136.78,-315.47 2.06,-2.88 2.74,-5.52 2.74,-9.12 0,-25.43 -47.42,-62.61 -75.46,-62.61 -7.3,0 -13.45,2.16 -16.64,7.67 -16.19,24.71 -33.52,55.66 -51.53,89.25 -14.58,-55.42 -64.74,-106.04 -86.17,-106.04zm13.45 80.85c20.74,0 37.38,42.94 42.63,64.05 -7.29,10.56 -158.9,218.55 -186.94,218.55 -3.42,0 -4.79,-2.16 -4.79,-6.48 0,-4.07 0.68,-9.11 2.74,-15.35 30.78,-108.91 78.88,-192.64 130.18,-251.66 5.47,-6.23 10.71,-9.11 16.18,-9.11zm590.46 415.27c7.28,0 13.21,-4.08 18.69,-14.64 5.24,-9.83 5.24,-14.87 8.65,-24.71 18.02,16.32 40.59,28.79 68.85,34.55 5.93,1.44 11.86,2.16 18.02,2.16 123.55,0 259.65,-234.15 259.65,-368.97 0,-18.95 -2.5,-35.99 -8.65,-50.62 -5.93,-14.87 -58.14,-72.45 -83.45,-72.45 -22.79,0 -93.47,85.65 -161.63,189.04 45.37,-98.36 134.28,-324.58 231.85,-368.97 3.88,-2.15 5.24,-5.75 5.24,-8.39 0,-3.6 -1.36,-6.48 -4.1,-8.4 -21.89,-12.71 -46.05,-18.47 -69.31,-18.47 -27.34,0 -53.56,7.92 -74.08,20.39 -126.98,80.85 -271.29,470.93 -277.9,590.4 2.04,22.55 38.75,99.08 68.17,99.08zm39.2 -53.98l-7.98 -0.72c40.13,-128.59 150.92,-276.13 238.46,-364.17 4.11,-3.36 6.85,-5.52 8.67,-5.52 2.05,0 2.73,2.88 2.73,6.24l-0.68 6.48c-9.35,63.81 -148.18,357.69 -241.2,357.69zm566.51 -442.14c-76.82,0 -227.29,215.67 -227.29,364.89 0,40.78 11.41,75.81 38.07,101 18.7,17.75 49.47,27.59 76.83,27.59 8.21,0 15.5,-0.72 22.12,-2.16 88.9,-19.67 218.4,-178.49 273.79,-253.82 0.68,-1.44 1.37,-2.64 1.37,-3.35 0,-1.44 -0.69,-2.16 -0.69,-2.88 -1.36,-2.88 -7.28,-4.32 -14.58,-4.32 -11.41,0 -26.68,3.6 -32.15,9.83 -38.75,43.67 -181.69,203.92 -243.02,203.92 -13.45,0 -22.79,-7.68 -26.21,-25.91 -0.69,-5.04 -1.14,-9.83 -1.14,-15.59 0,-30.23 13.21,-68.13 33.96,-108.2 18.7,16.79 40.81,30.23 56.77,33.83 2.05,0.72 4.56,0.72 6.61,0.72 62.92,0 167.79,-152.58 167.79,-218.07 0,-3.36 -0.68,-6.96 -1.36,-10.56 -4.79,-18.95 -42.19,-50.62 -63.62,-66.69 -16.64,-14.64 -52.65,-30.23 -67.25,-30.23zm56.77 70.29c-18.69,75.33 -90.96,197.44 -145.68,202.48 44.69,-80.13 112.85,-164.57 145.68,-202.48zm375.48 -70.29c-17.56,0 -77.52,68.85 -138.38,148.98 13.44,-27.35 28.71,-56.14 46.05,-85.64 1.37,-2.88 2.73,-5.76 2.73,-8.4 0,-22.55 -42.86,-48.7 -72.72,-48.7 -10.04,0 -18.7,3.6 -23.48,10.55 -69.53,104.12 -152.29,271.33 -163,397.28 0.68,21.11 34.19,79.41 60.86,79.41 7.98,0 15.27,-5.76 20.75,-18.95 3.87,-9.12 8.66,-20.4 14.59,-33.11 49.46,-100.52 146.36,-279.01 236.4,-365.61 3.42,-2.64 5.48,-4.08 7.3,-4.08 1.37,0 2.05,1.44 2.05,3.6 0,9.12 -10.03,32.15 -11.4,35.75 -19.83,49.9 -106.69,203.91 -106.69,291.72 0,16.79 3.2,31.66 10.72,42.22 11.85,18.23 38.07,35.02 57.22,44.86 2.05,0.72 4.1,1.44 6.84,1.44 49.47,0 193.55,-185.68 233.67,-243.26 0.69,-0.72 1.37,-2.16 1.37,-2.64 0,-7.92 -15.96,-18.47 -24.62,-18.47 -2.05,0 -3.42,0 -4.1,0.72 -36.7,45.82 -146.82,187.12 -174.41,187.12 -3.18,0 -5.92,-3.6 -5.92,-9.83 0,-5.04 1.37,-11.28 4.11,-20.4 23.93,-83.72 105.54,-191.2 105.54,-283.32 0,-13.43 -2.05,-27.35 -6.15,-40.06 -6.61,-21.12 -56.08,-61.18 -79.33,-61.18zm442.72 492.04c50.16,0 181.7,-186.4 217.04,-242.54l1.35 -2.88c0,-7.68 -17.32,-18.95 -26.66,-18.95l-3.42 0.72c-33.97,45.82 -134.96,191.92 -162.32,191.92 -3.88,0 -6.61,-4.32 -6.61,-12 0,-4.79 0.68,-10.55 2.05,-17.51 15.27,-75.81 200.39,-520.11 314.6,-557.29 3.19,-0.72 5.25,-3.6 5.93,-7.2 0,-3.36 -2.05,-6.24 -4.79,-9.11 -28.72,-21.12 -57.9,-30.95 -84.8,-30.95 -35.33,0 -66.8,17.03 -90.74,45.82 -64.05,80.13 -112.84,184 -160.94,275.41 -15.5,-56.14 -65.43,-106.04 -86.86,-106.04 -107.61,0 -261.26,277.57 -261.26,406.15 0,22.55 4.79,40.79 15.5,52.06 10.03,9.12 64.06,30.95 85.49,30.95 20.07,0 120.14,-124.51 165.05,-196.72 -6.83,21.11 -18.24,63.81 -18.24,100.52 0,20.39 3.43,38.62 12.78,51.1 14.13,17.75 59.49,35.26 79.55,45.1 2.06,0.72 4.57,1.44 7.3,1.44zm-219.08 -127.87c-2.74,0 -4.11,-2.16 -4.11,-7.2 0,-3.35 0.68,-8.39 2.74,-14.63 30.78,-108.91 80.25,-191.2 130.86,-250.94 5.46,-6.23 11.39,-9.11 16.18,-9.11 21.2,0 38.07,42.94 43.32,63.33 -7.3,10.32 -160.27,218.55 -188.99,218.55zm649.26 -556.81c-3.42,0 -5.93,1.44 -7.98,2.88 -30.08,28.79 -66.79,90.68 -66.79,135.54 0,27.59 13.22,48.7 48.1,53.5 20.06,-46.3 51.98,-76.53 84.12,-124.99 2.05,-2.88 2.73,-5.76 2.73,-9.11 0,-22.55 -40.12,-57.1 -60.18,-57.82zm-122.88 201.76c-6.6,0 -12.76,2.16 -15.95,7.67 -37.39,58.54 -150.93,266.53 -150.93,377.61 0,21.11 3.88,37.9 13.23,50.62 14.13,18.23 41.49,35.02 61.55,44.86 1.83,0.72 4.56,1.44 6.62,1.44 50.15,0 181.01,-185.68 216.35,-243.26 0.68,-0.72 0.68,-1.44 0.68,-2.64 0,-7.92 -16.65,-18.47 -25.99,-18.47 -2.05,0 -3.42,0 -4.11,0.72 -33.28,45.82 -132.9,189.04 -160.26,189.04 -3.88,0 -6.61,-3.36 -6.61,-11.75 0,-5.04 0.68,-10.56 2.05,-17.76 14.59,-74.37 63.37,-199.6 136.78,-306.35 2.05,-2.88 2.74,-6.24 2.74,-9.12 0,-25.43 -48.1,-62.61 -76.15,-62.61zm285.89 -9.12c-76.83,0 -227.75,215.19 -227.75,364.17 0,40.79 11.4,76.53 38.75,101.72 18.71,17.75 48.79,27.59 76.15,27.59 7.98,0 15.28,-0.72 21.88,-2.16 89.6,-19.67 215.9,-178.49 271.3,-253.82 0.68,-1.44 1.36,-2.64 1.36,-3.35 0,-1.44 -0.68,-2.16 -0.68,-2.88 -1.36,-2.88 -6.84,-4.32 -14.14,-4.32 -11.85,0 -27.36,3.6 -32.59,9.83 -38.76,43.67 -180.34,203.92 -240.52,203.92 -13.45,0 -22.79,-7.68 -25.99,-25.91 -0.68,-5.04 -1.37,-9.83 -1.37,-15.59 0,-87.09 114.22,-240.38 174.87,-313.55 12.07,-13.92 19.37,-20.16 24.16,-20.16 2.73,0 4.1,2.64 4.1,6.24 0,16.79 -20.75,61.18 -50.83,87.81 -2.06,2.15 -3.42,4.31 -3.42,6.95 0,2.16 1.36,4.32 2.73,6.48 14.59,15.35 32.6,28.07 50.83,28.07 3.2,0 7.3,-0.72 10.49,-1.44 24.85,-7.68 48.79,-49.18 48.79,-85.65 0,-15.59 -4.56,-30.22 -15.28,-40.78 -30.77,-30.23 -72.03,-73.17 -112.84,-73.17zm377.98 -192.64c-3.42,0 -5.93,1.44 -7.98,2.88 -30.09,28.79 -66.8,90.68 -66.8,135.54 0,27.59 13.23,48.7 48.1,53.5 20.06,-46.3 51.98,-76.53 84.12,-124.99 2.05,-2.88 2.74,-5.76 2.74,-9.11 0,-22.55 -40.12,-57.1 -60.18,-57.82zm-122.88 201.76c-6.61,0 -12.76,2.16 -15.96,7.67 -37.38,58.54 -150.92,266.53 -150.92,377.61 0,21.11 3.88,37.9 13.23,50.62 14.13,18.23 41.49,35.02 61.55,44.86 1.82,0.72 4.56,1.44 6.61,1.44 50.16,0 181.01,-185.68 216.35,-243.26 0.68,-0.72 0.68,-1.44 0.68,-2.64 0,-7.92 -16.64,-18.47 -25.99,-18.47 -2.05,0 -3.42,0 -4.1,0.72 -33.29,45.82 -132.91,189.04 -160.27,189.04 -3.87,0 -6.61,-3.36 -6.61,-11.75 0,-5.04 0.68,-10.56 2.05,-17.76 14.59,-74.37 63.38,-199.6 136.79,-306.35 2.05,-2.88 2.73,-6.24 2.73,-9.12 0,-25.43 -48.1,-62.61 -76.14,-62.61zm341.96 -6.96c-137.69,0.72 -283.82,219.27 -283.82,364.65 0,71.73 36.02,125.95 126.75,125.95 52.2,0 113.08,-60.46 161.18,-138.42 42.63,-9.12 94.15,-48.7 143.4,-121.63 0.68,-0.72 0.68,-0.72 0.68,-1.44 0,-0.72 0,-1.44 -0.68,-2.16 -0.69,-1.44 -5.25,-2.16 -11.18,-2.16 -10.03,0 -22.11,2.16 -26.9,7.91 -31.23,40.07 -59.27,65.26 -82.07,77.97 33.51,-66.21 56.08,-137.22 56.08,-192.64 0,-36.46 -10.03,-65.97 -33.28,-82.28 3.19,-2.64 9.34,-9.84 10.71,-12 0.46,-1.2 1.14,-2.64 1.14,-4.08 0,-6.96 -12.53,-10.55 -26.67,-14.87 -11.4,-3.36 -23.26,-4.8 -35.34,-4.8zm38.07 85.65c7.3,0 10.72,7.19 10.72,19.67 0,38.62 -31.46,128.1 -71.58,203.91 -9.35,-10.55 -13.23,-29.5 -13.23,-52.06 0,-65.25 33.29,-160.25 71.36,-171.52l2.73 0zm-106.91 54.93c-12.09,32.87 -18.01,68.85 -18.01,101.96 0,47.02 12.76,88.52 42.86,103.88 -30.78,50.62 -64.29,88.52 -91.65,88.52 -6.61,0 -12.54,-1.92 -18.69,-6.96 -8.67,-6.95 -12.09,-21.11 -12.09,-40.06 0,-59.01 38.07,-165.77 97.58,-247.34zm226.37 -349.29l-1.37 0c-36.7,0 -104.17,133.38 -104.17,165.77 0,21.83 14.81,30.95 26.9,30.95 4.55,0 9.34,-1.44 11.85,-4.8 20.74,-22.55 93.69,-117.55 127.66,-134.35 1.37,-0.72 2.73,-2.16 2.73,-4.32 0,-13.91 -42.85,-51.1 -63.6,-53.25zm250.55 206.55c-17.56,0 -77.51,68.85 -138.38,148.98 13.45,-27.35 28.72,-56.14 46.05,-85.64 1.37,-2.88 2.74,-5.76 2.74,-8.4 0,-22.55 -42.87,-48.7 -72.72,-48.7 -10.04,0 -18.71,3.6 -23.49,10.55 -69.53,104.12 -152.29,271.33 -163,397.28 0.69,21.11 34.19,79.41 60.87,79.41 7.98,0 15.27,-5.76 20.74,-18.95 3.88,-9.12 8.67,-20.4 14.6,-33.11 49.46,-100.52 146.35,-279.01 236.4,-365.61 3.42,-2.64 5.47,-4.08 7.3,-4.08 1.37,0 2.05,1.44 2.05,3.6 0,9.12 -10.03,32.15 -11.4,35.75 -19.83,49.9 -106.69,203.91 -106.69,291.72 0,16.79 3.19,31.66 10.72,42.22 11.85,18.23 38.07,35.02 57.22,44.86 2.05,0.72 4.1,1.44 6.84,1.44 49.47,0 193.55,-185.68 233.67,-243.26 0.69,-0.72 1.37,-2.16 1.37,-2.64 0,-7.92 -15.97,-18.47 -24.62,-18.47 -2.05,0 -3.42,0 -4.11,0.72 -36.7,45.82 -146.82,187.12 -174.4,187.12 -3.19,0 -5.92,-3.6 -5.92,-9.83 0,-5.04 1.37,-11.28 4.1,-20.4 23.94,-83.72 105.55,-191.2 105.55,-283.32 0,-13.43 -2.05,-27.35 -6.16,-40.06 -6.6,-21.12 -56.07,-61.18 -79.33,-61.18z"/>
  <g id="_2004280385408">
   <path class="fil0" d="M1600.6 1678.01c50.16,0 181.7,-186.4 217.04,-242.54l1.36 -2.88c0,-7.68 -17.33,-18.95 -26.67,-18.95l-3.42 0.72c-33.97,45.82 -134.96,191.92 -162.32,191.92 -3.87,0 -6.61,-4.32 -6.61,-12 0,-4.79 0.68,-10.55 2.05,-17.51 15.27,-75.81 200.39,-520.11 314.6,-557.29 3.2,-0.72 5.25,-3.6 5.93,-7.2 0,-3.36 -2.05,-6.24 -4.79,-9.11 -28.72,-21.12 -57.9,-30.95 -84.8,-30.95 -35.33,0 -66.8,17.03 -90.73,45.82 -64.06,80.13 -112.85,184 -160.95,275.41 -15.5,-56.14 -65.43,-106.04 -86.86,-106.04 -107.61,0 -261.26,277.57 -261.26,406.15 0,22.55 4.79,40.79 15.5,52.06 10.04,9.12 64.06,30.95 85.49,30.95 20.07,0 120.14,-124.51 165.05,-196.72 -6.83,21.11 -18.23,63.81 -18.23,100.52 0,20.39 3.42,38.62 12.77,51.1 14.13,17.75 59.5,35.26 79.56,45.1 2.05,0.72 4.56,1.44 7.29,1.44zm-219.08 -127.87c-2.74,0 -4.11,-2.16 -4.11,-7.2 0,-3.35 0.69,-8.39 2.74,-14.63 30.78,-108.91 80.25,-191.2 130.86,-250.94 5.47,-6.23 11.4,-9.11 16.18,-9.11 21.21,0 38.07,42.94 43.32,63.33 -7.3,10.32 -160.27,218.55 -188.99,218.55zm596.6 -364.17c-76.82,0 -227.29,215.67 -227.29,364.89 0,40.78 11.41,75.81 38.07,101 18.7,17.75 49.47,27.59 76.83,27.59 8.21,0 15.5,-0.72 22.11,-2.16 88.91,-19.67 218.41,-178.49 273.8,-253.82 0.68,-1.44 1.37,-2.64 1.37,-3.35 0,-1.44 -0.69,-2.16 -0.69,-2.88 -1.37,-2.88 -7.29,-4.32 -14.58,-4.32 -11.41,0 -26.68,3.6 -32.15,9.83 -38.75,43.67 -181.69,203.92 -243.02,203.92 -13.45,0 -22.79,-7.68 -26.21,-25.91 -0.69,-5.04 -1.14,-9.83 -1.14,-15.59 0,-30.23 13.21,-68.13 33.96,-108.2 18.7,16.79 40.81,30.23 56.77,33.83 2.05,0.72 4.56,0.72 6.61,0.72 62.92,0 167.79,-152.58 167.79,-218.07 0,-3.36 -0.68,-6.96 -1.37,-10.56 -4.79,-18.95 -42.18,-50.62 -63.61,-66.69 -16.64,-14.64 -52.65,-30.23 -67.25,-30.23zm56.77 70.29c-18.69,75.33 -90.96,197.44 -145.68,202.48 44.69,-80.13 112.85,-164.57 145.68,-202.48zm446.15 466.61c96.2,0 204.49,-42.7 302.52,-111.07 159.81,-122.11 289.98,-308.52 289.98,-466.61 0,-75.09 -30.09,-143.94 -100.99,-196 -31.92,-23.99 -77.29,-34.55 -128.13,-34.55 -208.36,0 -520.91,170.81 -522.96,309.24l0 1.43c0,40.07 72.72,68.86 109.42,83.01l2.74 0.72c2.74,0 5.47,-2.16 5.47,-5.04l-0.68 -1.44c-3.42,-6.95 -5.48,-13.91 -5.48,-21.59 0,-104.83 282.01,-307.31 482.85,-307.31l24.85 1.44c38.76,3.6 58.14,38.62 58.14,91.4 0,103.4 -74.09,272.05 -224.56,400.64 -58.13,45.58 -128.8,83.72 -210.88,108.91 -0.67,-2.16 -1.36,-4.8 -1.36,-7.68 0,-16.79 10.71,-42.22 13.22,-49.9 43.54,-119.47 169.62,-344.49 220.45,-403.51 2.05,-2.16 2.73,-4.8 2.73,-7.68 0,-18.95 -47.42,-47.02 -76.13,-47.02 -7.99,0 -14.83,1.92 -18.7,6.96 -40.81,49.9 -233.21,352.18 -235.72,456.77 0,23.99 20.52,51.34 47.42,65.5 -14.83,2.63 -30.1,6.23 -46.28,9.11 -15.28,2.16 -30.55,3.36 -45.37,3.36 -51.29,0 -95.52,-16.07 -115.58,-59.02 -1.82,-4.07 -7.3,-6.23 -12.54,-6.23 -6.16,0 -12.77,3.6 -12.77,10.55l0 1.44c5.47,51.34 60.19,143.94 101.45,156.66 28.04,11.27 58.14,16.31 90.27,17.51l6.62 0zm815.46 -729.54c-3.42,0 -5.93,1.44 -7.98,2.88 -30.09,28.79 -66.8,90.68 -66.8,135.54 0,27.59 13.23,48.7 48.11,53.5 20.06,-46.3 51.98,-76.53 84.11,-124.99 2.06,-2.88 2.74,-5.76 2.74,-9.11 0,-22.55 -40.12,-57.1 -60.18,-57.82zm-122.88 201.76c-6.6,0 -12.76,2.16 -15.96,7.67 -37.38,58.54 -150.92,266.53 -150.92,377.61 0,21.11 3.88,37.9 13.23,50.62 14.13,18.23 41.49,35.02 61.55,44.86 1.82,0.72 4.56,1.44 6.61,1.44 50.16,0 181.01,-185.68 216.35,-243.26 0.69,-0.72 0.69,-1.44 0.69,-2.64 0,-7.92 -16.65,-18.47 -25.99,-18.47 -2.06,0 -3.42,0 -4.11,0.72 -33.29,45.82 -132.9,189.04 -160.26,189.04 -3.88,0 -6.62,-3.36 -6.62,-11.75 0,-5.04 0.69,-10.56 2.06,-17.76 14.58,-74.37 63.37,-199.6 136.78,-306.35 2.05,-2.88 2.74,-6.24 2.74,-9.12 0,-25.43 -48.11,-62.61 -76.15,-62.61zm341.97 -6.96c-137.7,0.72 -283.83,219.27 -283.83,364.65 0,71.73 36.02,125.95 126.76,125.95 52.19,0 113.07,-60.46 161.17,-138.42 42.63,-9.12 94.16,-48.7 143.4,-121.63 0.68,-0.72 0.68,-0.72 0.68,-1.44 0,-0.72 0,-1.44 -0.68,-2.16 -0.68,-1.44 -5.25,-2.16 -11.18,-2.16 -10.03,0 -22.11,2.16 -26.9,7.91 -31.22,40.07 -59.27,65.26 -82.06,77.97 33.5,-66.21 56.07,-137.22 56.07,-192.64 0,-36.46 -10.02,-65.97 -33.28,-82.28 3.2,-2.64 9.34,-9.84 10.71,-12 0.46,-1.2 1.14,-2.64 1.14,-4.08 0,-6.96 -12.53,-10.55 -26.67,-14.87 -11.4,-3.36 -23.25,-4.8 -35.33,-4.8zm38.07 85.65c7.29,0 10.71,7.19 10.71,19.67 0,38.62 -31.46,128.1 -71.58,203.91 -9.35,-10.55 -13.23,-29.5 -13.23,-52.06 0,-65.25 33.29,-160.25 71.36,-171.52l2.74 0zm-106.92 54.93c-12.09,32.87 -18.01,68.85 -18.01,101.96 0,47.02 12.76,88.52 42.86,103.88 -30.78,50.62 -64.29,88.52 -91.65,88.52 -6.61,0 -12.54,-1.92 -18.69,-6.96 -8.66,-6.95 -12.09,-21.11 -12.09,-40.06 0,-59.01 38.07,-165.77 97.58,-247.34zm355.19 -143.46c-1.83,0 -3.2,0.72 -4.57,0.72 -36.01,13.44 -122.19,68.85 -131.53,145.62l0 7.68c0,8.39 0.68,16.79 2.51,25.91 -18.02,21.83 -35.35,44.38 -51.3,68.85 -2.74,3.6 -3.42,7.2 -3.42,11.27 0,5.76 2.73,11.28 7.3,14.88 3.42,2.64 6.83,3.36 10.02,3.36 6.16,0 11.4,-2.64 14.83,-7.68 11.39,-16.79 23.25,-33.83 35.33,-49.18 12.77,33.11 26.67,67.41 26.67,96.2l0 2.16c-1.37,62.61 -51.98,95 -104.19,95 -29.4,0 -59.95,-10.55 -82.06,-30.95 -1.37,-1.44 -2.06,-1.44 -3.42,-1.44 -3.2,0 -6.62,2.88 -6.62,5.52 0,0.72 0.69,1.44 0.69,2.16 23.93,70.29 87.55,104.84 148.87,104.84 64.06,0 126.3,-38.63 135.64,-113.95 0.68,-7.68 1.37,-14.64 1.37,-22.56 0,-61.89 -30.1,-122.11 -30.1,-173.44 0,-25.43 7.3,-48.46 28.05,-68.86 26.67,-25.43 70.21,-50.62 70.21,-50.62 0.46,-2.15 0.46,-5.03 0.46,-7.19 0,-30.95 -46.05,-58.3 -64.74,-58.3zm341.51 811.11c120.14,0 217.71,-108.2 294.54,-253.82 81.39,-151.61 137.46,-342.1 230.93,-475.72 2.05,-2.88 2.74,-5.52 2.74,-9.12 0,-24.71 -48.79,-62.61 -77.51,-62.61 -6.61,0 -12.54,2.16 -15.96,7.67 -51.52,84.45 -243.7,384.57 -272.43,384.57 -2.05,0 -3.42,-1.44 -3.42,-6.24l1.37 -8.64c14.59,-74.37 64.06,-198.88 138.15,-305.63 2.06,-2.88 2.74,-5.52 2.74,-9.12 0,-24.71 -48.79,-62.61 -77.51,-62.61 -6.61,0 -12.54,2.16 -15.96,7.67 -38.07,58.54 -152.28,265.1 -152.28,376.17 0,21.11 4.09,38.62 13.44,51.34 13.91,17.51 41.95,35.02 61.33,44.86l4.1 0.72c25.99,0 94.84,-92.84 163.46,-193.36 -34.65,79.41 -69.99,158.33 -111.48,229.11 -54.72,95 -124.93,169.61 -222.95,169.61 -62.93,0 -79.57,-32.39 -90.29,-59.74 -0.67,-2.16 -3.87,-3.6 -7.29,-3.6 -4.1,0 -8.66,2.16 -9.35,6.24l0 11.27c0,104.12 64.74,160.98 143.63,160.98z"/>
  </g>
 </g>
</svg>
