<?xml version="1.0" encoding="UTF-8"?>
<!DOCTYPE svg PUBLIC "-//W3C//DTD SVG 1.1//EN" "http://www.w3.org/Graphics/SVG/1.1/DTD/svg11.dtd">
<!-- Creator: CorelDRAW -->
<svg xmlns="http://www.w3.org/2000/svg" xml:space="preserve" width="61.643mm" height="15.865mm" version="1.1" style="shape-rendering:geometricPrecision; text-rendering:geometricPrecision; image-rendering:optimizeQuality; fill-rule:evenodd; clip-rule:evenodd"
viewBox="0 0 6164.3 1586.5"
 xmlns:xlink="http://www.w3.org/1999/xlink"
 xmlns:xodm="http://www.corel.com/coreldraw/odm/2003">
 <defs>
  <style type="text/css">
   <![CDATA[
    .fil1 {fill:#6C8990;fill-rule:nonzero}
    .fil0 {fill:#B49956;fill-rule:nonzero}
   ]]>
  </style>
 </defs>
 <g id="Capa_x0020_1">
  <metadata id="CorelCorpID_0Corel-Layer"/>
  <g id="_2040048192976">
   <path class="fil0" d="M555.47 29.49c17.95,0 40.24,-3.74 66.48,-11.42 2.18,0 4.34,-0.62 6.32,-1.87 1.97,-1.24 4.53,-2.28 8.09,-3.11 0.79,0 5.92,-1.25 15.58,-3.53 3.16,0 7.7,-1.45 14.21,-4.36 6.31,-2.7 9.46,-0.21 9.46,7.89 0,14.32 -5.12,22.63 -15.58,24.91 -11.64,0 -17.95,0 -19.14,0 -1.18,0 -5.91,1.66 -14.4,4.98 -6.12,2.08 -11.05,4.16 -14.79,6.44 -3.56,2.08 -7.5,4.57 -11.84,6.85 -9.67,5.4 -16.18,12.66 -19.93,22.21 -3.54,9.55 -7.1,19.31 -10.05,28.86 -4.35,10.17 -7.9,20.76 -11.06,31.77 -2.95,10.79 -6.31,21.38 -9.86,31.55 -3.74,12.25 -7.3,22.42 -10.65,30.73 -3.16,8.3 -5.92,19.1 -7.7,32.59 -3.15,16.61 -6.31,27.61 -9.66,33.01 -3.16,5.61 -7.89,14.32 -14.01,26.57 -12.82,24.29 -21.89,42.56 -27.23,54.81 -9.27,17.86 -18.35,36.33 -27.42,55.64 -9.08,19.1 -18.34,36.75 -27.42,52.52 -6.71,9.76 -12.23,18.69 -16.77,26.99 -4.73,8.31 -9.66,16.4 -15.18,24.08 -6.12,7.69 -12.04,16.4 -17.77,25.95 -5.92,9.55 -10.85,17.44 -15.18,23.88 -6.52,10.17 -14.21,23.25 -23.08,39.24 -8.89,16.19 -18.15,27.4 -27.63,33.84 -4.34,3.73 -8.48,6.43 -12.43,8.51 -4.14,2.07 -7.88,4.77 -11.44,8.51 -6.12,5.19 -13.61,11.21 -22.49,17.85 -8.88,6.85 -17.55,11.84 -26.04,14.95 -4.14,1.25 -8.68,2.91 -13.42,5.19 -4.93,2.29 -8.87,4.36 -12.03,6.44 -5.33,2.49 -10.26,4.36 -14.99,6.02 -4.54,1.66 -9.08,4.15 -13.22,7.26 -8.49,3.33 -16.96,7.69 -25.45,13.5 -8.49,5.6 -17.36,10.17 -26.64,13.29 -5.32,1.24 -10.25,2.69 -14.98,4.35 -4.54,1.67 -10.27,3.33 -16.77,5.4 -4.15,1.25 -8.49,3.32 -12.63,6.02 -4.35,2.91 -9.47,4.36 -15.59,4.36 -8.48,-6.85 -23.28,-16.19 -44.39,-27.61 -20.91,-11.62 -31.36,-24.08 -31.36,-37.58 0,-3.11 0,-10.38 0,-21.59 0,-11 3.55,-16.6 10.85,-16.6 5.52,0 8.08,6.64 8.08,19.93 0.79,5.81 2.37,9.75 4.35,12.04 2.16,2.07 3.74,4.98 4.93,8.09 11.64,0 22.68,1.04 32.95,3.12 5.52,0 10.65,1.04 15.38,3.32 4.73,2.28 9.66,3.32 14.8,3.32 14.99,0 26.43,-2.7 34.52,-7.89 25.45,-13.28 47.74,-23.25 66.49,-29.89 9.67,-3.53 17.36,-6.65 23.27,-9.35 5.72,-2.69 13.22,-6.85 22.5,-12.45 16.96,-12.25 28.41,-22.63 34.72,-31.56 3.35,-6.64 6.9,-13.7 10.65,-21.38 3.56,-7.68 7.89,-14.95 13.02,-21.8 4.14,-6.64 8.09,-13.7 11.84,-21.38 3.55,-7.68 7.5,-14.95 11.83,-21.8 10.65,-16.61 18.75,-31.14 23.68,-43.18 1.18,-2.08 4.94,-10.38 11.25,-24.71 6.3,-14.32 9.47,-22.21 9.47,-23.46 0,-3.11 -2.77,-6.23 -8.69,-9.13 -5.72,-2.7 -8.48,-8.72 -8.48,-17.65 -2.37,-15.36 -4.54,-27.61 -6.51,-36.54 -2.96,-8.72 -5.72,-20.97 -7.69,-36.33 -2.18,-15.36 -4.74,-26.99 -7.9,-34.67 -3.35,-6.85 -7.49,-17.02 -12.03,-30.1 -4.73,-13.29 -8.08,-24.29 -10.46,-33.22 -1.97,-15.36 -4.13,-27.61 -6.31,-36.54 -0.79,-3.11 -2.17,-8.92 -4.34,-17.23 -2.17,-8.3 -3.16,-14.11 -3.16,-17.44 -5.52,-2.28 -12.43,-3.53 -20.9,-3.53 -12.63,2.29 -23.09,3.53 -31.18,3.53 -16.96,0 -25.45,-6.02 -25.45,-18.27 0,-8.92 5.13,-13.28 15.58,-13.28 2.38,0.83 6.12,2.07 11.26,3.94 5.32,1.87 8.87,2.7 10.85,2.7 9.46,0 18.34,-1.04 26.24,-3.32 7.88,-2.28 15.97,-5.19 24.46,-8.93 14.79,-3.11 32.94,-3.53 55.04,-1.04 9.47,3.12 17.95,5.19 25.44,5.82 7.3,0.41 16.38,-1.46 27.04,-5.82 3.15,-1.24 6.11,-2.69 9.26,-4.36 3.16,-1.66 6.71,-3.52 11.06,-6.02 1.17,0 4.53,-1.86 10.25,-5.81 5.92,-3.94 8.69,-5.81 8.69,-5.81 4.34,0 7.49,2.9 9.66,8.51 2.18,5.81 1.38,10.17 -2.17,13.49 -4.93,6.44 -11.05,11.84 -18.35,16.41 -7.29,3.11 -12.63,4.77 -15.98,4.77 -3.16,0 -6.9,0.62 -11.24,1.87 -6.11,2.07 -10.26,4.57 -12.43,7.26 -2.17,2.91 -4.73,4.99 -7.69,6.03 1.77,13.49 3.94,26.36 5.91,39.03 2.18,12.66 4.74,26.78 7.9,42.55 2.36,15.37 3.94,29.48 4.93,42.36 0.99,12.66 4.73,24.49 11.24,35.5 0,0 2.97,-3.95 8.69,-11.63 5.72,-7.68 9.07,-12.66 9.86,-15.15 3.36,-4.36 6.31,-8.31 8.88,-11.63 2.56,-3.11 5.32,-8.1 8.28,-14.53 4.35,-10.18 9.08,-19.93 14.6,-29.07 5.33,-9.34 10.45,-19.1 15.58,-29.27 2.37,-4.57 4.94,-9.55 8.09,-14.95 3.16,-5.4 5.13,-11 6.32,-16.61 1.18,-3.32 1.77,-6.43 1.77,-9.13 0,-2.91 0.4,-6.64 1.19,-11 0,-2.08 0.98,-4.16 3.15,-6.44 2.18,-2.28 3.75,-4.98 4.93,-8.1 1.19,-2.49 1.98,-4.77 2.18,-7.05 0.39,-2.29 1.77,-4.99 4.14,-8.31 1.18,-1.87 2.17,-4.15 3.16,-6.23 0.99,-2.28 2.56,-4.98 4.93,-8.3 7.3,-16.61 11.04,-33.22 11.04,-49.83 0,-6.85 -10.05,-10.38 -30.18,-10.38 -5.33,0 -11.44,-0.62 -18.15,-1.45 -6.71,-1.04 -10.06,-5.4 -10.06,-13.08 0,-7.06 11.44,-9.76 34.72,-8.51 23.08,1.24 39.26,1.66 48.53,1.66zm859.38 -15.16c-3.17,8.93 -12.23,19.73 -27.43,32.6 -15.19,12.66 -25.85,21.38 -32.16,25.74 -4.14,2.08 -10.26,6.44 -18.15,13.08 -7.88,6.85 -12.43,11.83 -13.61,14.95 -7.3,21.17 -11.05,47.33 -11.05,78.47 0,16.61 0.79,33.43 2.37,50.45 1.58,17.02 2.37,33.84 2.37,50.45 0,16.82 0.39,34.05 1.38,51.69 0.98,17.86 2.17,34.47 3.16,50.04 0,9.75 2.75,24.08 8.08,43.18 1.18,6.43 3.56,12.66 7.3,18.89 3.75,6.02 7.1,11.83 10.07,17.44 1.96,6.64 3.55,13.08 4.73,19.93 1.19,6.64 3.15,13.29 6.31,19.72 1.19,3.74 5.13,9.34 11.84,17.02 6.71,7.69 10.06,12.46 10.06,14.54 0,14.74 -8.87,22 -26.43,22 -8.49,0 -17.17,-3.94 -26.04,-11.62 -8.89,-7.68 -15,-14.95 -18.55,-21.8 -4.93,-6.64 -11.24,-13.5 -18.74,-20.76 -7.5,-7.27 -13.81,-14.12 -18.74,-20.76 -6.71,-6.85 -13.82,-13.08 -21.7,-18.48 -7.9,-5.4 -14.41,-11.42 -19.34,-17.85 -7.5,-7.06 -14.2,-13.71 -20.71,-20.14 -6.32,-6.44 -12.43,-13.29 -18.75,-20.14 -4.14,-3.11 -10.45,-10.17 -18.94,-20.55 -8.47,-10.59 -14,-18.48 -16.17,-23.88 -3.16,-4.36 -8.09,-12.66 -14.8,-24.91 -6.71,-12.04 -11.64,-20.34 -14.79,-24.91 -5.33,-5.61 -11.44,-12.67 -18.55,-20.97 -6.9,-8.3 -12.82,-15.36 -17.75,-20.97 -2.37,0 -6.71,-2.7 -12.83,-8.3 -6.11,-5.4 -9.27,-7.48 -9.27,-6.23 0,0 -0.6,5.81 -1.77,17.23 -0.99,11.63 -1.58,18.06 -1.58,19.1 0,6.64 0.59,12.87 1.58,18.89 1.17,6.23 2.16,12.67 2.95,19.52 0,5.19 0,12.45 0,21.38 0,8.93 0,14.95 0,18.06 0,14.74 -0.19,28.86 -0.59,42.77 -0.4,13.7 0.99,26.16 4.14,36.95 2.96,23.67 13.02,40.9 30,51.7 4.33,3.32 12.62,8.72 25.04,16.4 12.63,7.89 18.94,14.53 18.94,20.14 0,3.32 -5.32,4.77 -15.58,4.77 -9.67,0 -18.54,-1.04 -26.44,-3.32 -7.88,-2.08 -16.37,-3.32 -25.65,-3.32 -8.47,0 -19.12,1.24 -31.75,3.73 -10.46,0 -21.12,1.04 -31.77,2.91 -4.33,1.25 -12.62,3.53 -25.25,6.85 -12.43,3.12 -21.51,4.36 -26.83,3.53 -10.46,-2.28 -10.85,-6.85 -1.18,-13.29 3.15,-3.32 8.87,-6.64 17.16,-9.96 8.28,-3.53 14,-6.85 17.56,-10.17 3.15,-3.12 6.12,-9.76 9.27,-19.73 2.96,-9.96 5.13,-18.89 6.31,-26.99 1.19,-18.68 3.95,-36.74 8.09,-53.97 4.34,-17.23 6.32,-35.71 6.32,-55.64 0,-10.8 -0.8,-22.21 -2.57,-33.63 -1.77,-11.63 -2.56,-23.46 -2.56,-35.71 0,-10.17 -0.2,-20.76 -0.6,-31.97 -0.39,-11 -0.59,-22.63 -0.59,-34.88 0,-6.44 -0.59,-13.08 -1.78,-19.72 -1.18,-6.65 -1.77,-13.29 -1.77,-19.72 0,-7.06 0,-14.33 0,-22.01 0,-7.68 -0.39,-14.74 -1.58,-21.18 -1.97,-13.49 -6.11,-23.46 -12.23,-29.89 -4.14,-2.49 -10.07,-4.36 -17.55,-6.02 -7.5,-1.66 -11.25,-5.81 -11.25,-12.25 0,-6.85 6.31,-10.59 18.93,-11.21 12.83,-0.62 22.3,-0.83 28.42,-0.83 23.08,0 41.03,4.98 53.66,15.15 8.48,6.44 14.4,12.25 17.36,17.23 3.16,5.19 7.89,12.05 14.6,20.97 2.95,7.68 7.1,14.74 12.23,20.76 5.32,6.02 10.06,12.87 14.2,20.76 3.16,7.69 6.71,15.37 11.05,23.05 4.14,7.68 8.48,14.95 12.63,21.8 8.48,15.57 16.96,30.1 25.44,43.8 8.49,13.91 18.94,26.78 31.17,39.03 9.68,11.21 19.93,24.08 30.38,38.62 10.66,14.32 21.12,26.36 31.57,36.12 0,-8.93 -2.76,-23.25 -8.08,-43.18 -1.98,-12.04 -2.97,-28.86 -2.97,-49.83 0,-16.61 -0.79,-33.84 -2.17,-51.48 -1.57,-17.65 -4.14,-32.39 -7.49,-44.64 -3.16,-7.68 -5.52,-14.32 -7.1,-19.72 -1.39,-5.61 -3.16,-12.25 -5.13,-20.35 -3.56,-6.64 -7.1,-12.04 -10.66,-16.4 -3.74,-4.57 -7.1,-9.96 -10.26,-16.61 -8.29,-10.79 -17.16,-18.47 -26.43,-23.04 -5.53,-1.25 -12.83,-2.91 -22.29,-5.19 -9.47,-2.28 -14.21,-6.23 -14.21,-11.83 0,-9.76 9.47,-12.05 28.41,-7.27 18.75,4.77 31.57,7.27 38.07,7.27l15.59 0c6.12,0 20.91,-3.53 44,-10.59 23.08,-7.06 38.86,-12.25 47.34,-15.57 22.29,-7.68 40.84,-19.52 55.44,-35.3 3.15,-3.11 7.89,-6.02 14.21,-8.09 6.31,-2.29 10.45,0.41 12.43,8.09zm39.25 33.43c0,-4.36 2.17,-6.64 6.31,-6.64 1.18,0 6.51,2.69 15.99,8.3 9.46,5.4 19.91,7.06 31.35,5.19 3.56,0 7.31,-0.42 11.26,-1.04 4.14,-0.62 8.87,-0.83 14.2,-0.83l55.43 1.87c3.16,0 4.73,3.11 4.73,9.55 0,3.32 -1.57,6.02 -4.93,8.3 -3.34,2.29 -4.93,7.89 -4.93,16.82 -1.97,31.97 -7.69,60.21 -17.35,84.5 -2.97,6.85 -6.12,15.77 -9.28,26.78 -2.96,10.79 -4.54,20.34 -4.54,28.44 0,9.76 -0.79,20.34 -2.36,31.35 -1.58,11.21 -2.37,21.59 -2.37,31.35 0,19.93 1.19,39.86 3.35,59.99 1.98,19.93 7.7,38.82 16.97,56.26 3.16,8.1 6.51,15.57 10.06,22.84 3.75,7.06 7.7,13.7 11.84,20.35 4.34,6.85 10.06,11.83 17.36,15.15 20.12,11 43.8,10.38 71.22,-1.87 6.5,-2.07 14.99,-12.66 25.44,-32.18 10.27,-19.51 16.98,-33.63 20.13,-42.56 1.18,-6.43 2.77,-14.53 4.93,-23.66 2.17,-9.34 3.16,-18.48 3.16,-27.41l0 -69.96c0,-11 -0.99,-26.36 -2.96,-46.3 0,-6.85 -0.99,-13.7 -3.15,-20.34 -1.98,-6.64 -3.17,-13.91 -3.17,-21.59 -1.18,-3.32 -2.95,-9.55 -5.72,-18.89 -2.75,-9.35 -4.93,-15.16 -6.9,-17.65 -2.36,-0.83 -4.74,-1.87 -7.29,-2.91 -2.57,-1.24 -4.94,-2.9 -7.31,-4.98 -4.93,-2.49 -11.63,-3.53 -20.12,-3.53 -3.15,-3.32 -4.54,-6.23 -4.54,-8.72 0,-5.19 5.72,-7.89 17.17,-7.89 15.77,0 27.81,3.33 35.9,9.76 1.18,1.25 3.55,2.49 7.3,3.32 3.55,1.04 6.91,1.66 10.06,1.66 3.36,1.25 6.51,2.29 8.88,3.53 2.56,1.25 5.52,1.87 9.07,1.87 9.28,5.4 21.51,8.51 36.7,9.76 15.19,1.24 22.89,8.3 22.89,21.38 0,3.53 -3.56,10.59 -10.27,21.18 -6.71,10.59 -10.65,17.44 -11.83,20.76 -5.33,14.12 -8.09,33.01 -8.09,56.47 0,13.08 -1.18,26.78 -3.75,41.1 -2.56,14.33 -4.93,28.24 -7.1,41.73 -3.16,9.97 -4.74,18.89 -4.74,26.78 0,25.54 3.75,48.79 11.05,69.76 6.51,26.36 22.3,36.33 47.35,29.89 1.18,0 4.93,-0.83 11.25,-2.7 6.31,-1.86 9.46,-1.03 9.46,2.7 0.79,3.32 -0.99,7.27 -5.72,12.25 -4.53,4.78 -6.9,7.27 -6.9,7.27 -4.14,2.28 -13.22,3.53 -27.22,3.53 -9.28,0 -18.35,2.28 -27.43,6.85 -9.07,4.36 -18.15,6.64 -27.42,6.64 -3.16,0 -8.09,-4.57 -15,-13.49 -6.9,-8.93 -12.03,-13.29 -14.99,-13.29 -2.37,0 -5.13,3.74 -8.09,11.42 -1.97,3.32 -6.11,6.43 -12.42,9.13 -6.52,2.91 -11.25,4.99 -14.21,6.23 -14.6,6.44 -29.99,10.38 -45.77,11.42 -7.3,1.24 -14.6,2.49 -22.1,3.32 -7.49,1.04 -14.39,1.66 -20.51,1.66 -5.52,0 -14.8,-3.11 -27.82,-9.13 -13.02,-6.02 -22.29,-10.18 -27.81,-12.25 -21.91,-4.36 -38.67,-13.91 -50.31,-28.44 -8.29,-6.65 -14.21,-13.71 -17.16,-21.39 -3.17,-7.68 -6.91,-17.23 -11.05,-28.65 -4.35,-6.43 -8.88,-15.15 -13.62,-26.36 -4.73,-11.21 -9.27,-19.93 -13.61,-26.37 -6.12,-10.17 -4.93,-25.33 3.55,-45.05 8.48,-19.93 14.2,-35.91 17.37,-48.16 0,-4.36 0.97,-9.34 3.15,-14.95 2.17,-5.4 3.74,-11 4.93,-16.61 0.79,-10.17 2.76,-20.34 5.92,-30.72 3.36,-10.38 6.51,-20.56 9.67,-30.73 1.96,-7.68 4.14,-18.48 6.9,-32.18 2.76,-13.91 3.95,-25.74 3.95,-35.91 0,-22.43 -5.72,-37.37 -17.16,-45.05 -18.15,-6.44 -27.23,-15.78 -27.23,-28.03zm699.36 86.36c-15.78,4.57 -31.76,6.23 -48.13,4.99 -16.38,-1.25 -31.96,-1.87 -46.57,-1.87 -4.33,0 -7.88,-0.42 -11.04,-1.46 -3.15,-1.03 -6.12,-1.66 -9.27,-1.66 -3.36,0 -7.7,1.46 -13.02,4.36 -5.13,2.91 -8.29,4.15 -9.48,4.15 -3.15,2.08 -6.11,9.76 -9.26,23.26 -7.31,20.96 -11.05,38.61 -11.05,52.94 0,24.29 6.51,36.33 19.14,36.33 1.96,0 9.66,-3.74 23.47,-11.42 13.62,-7.68 24.66,-11.63 33.14,-11.63 21.31,0 39.07,6.02 53.87,18.27 4.14,3.12 10.25,8.51 18.15,15.78 7.88,7.27 11.83,14.12 11.83,20.76 0,10.17 -1.58,18.68 -4.94,25.74 -3.35,7.06 -5.92,14.12 -7.88,20.97 -5.33,17.44 -12.63,26.16 -21.91,26.16 -9.66,0 -13.41,-2.49 -11.44,-7.89 3.36,-4.36 7.7,-6.64 13.02,-6.64 5.13,0 7.7,-5.19 7.7,-15.16 0,-17.85 -11.64,-26.78 -34.73,-26.78 -6.5,0 -13.8,1.25 -21.89,3.53 -10.85,0 -26.64,1.04 -47.35,3.11 -5.52,0 -10.06,0.21 -13.61,0.83 -3.75,0.63 -7.11,1.04 -10.06,1.04 -3.16,4.36 -6.71,10.18 -10.46,17.23 -3.94,7.06 -5.72,13.5 -5.72,19.31 0,7.68 0.99,16.19 3.16,25.74 1.96,9.55 3.15,16.61 3.15,20.97 -0.79,8.51 -1.19,22.42 -1.19,41.32 0,5.81 3.36,9.13 10.07,10.17 6.71,1.04 11.64,1.45 14.79,1.45 11.64,0 23.49,-1.45 35.52,-4.15 12.23,-2.91 22.49,-4.36 30.98,-4.36 9.66,-0.83 19.91,0.83 30.96,5.19 10.86,4.15 21.11,6.44 30.78,6.44 17.76,0 35.52,-9.35 53.27,-28.03 4.14,-4.57 5.52,-16.19 3.94,-35.09 -1.38,-18.68 1.98,-28.23 10.45,-28.23 4.35,0 7.5,5.4 9.48,15.78 2.16,10.59 3.35,17.44 3.35,20.76 0,19.93 -2.56,34.88 -7.3,45.05 -4.73,10.17 -11.44,19.93 -19.92,29.69 -8.09,7.68 -15.59,17.64 -22.5,29.89 -7.09,12.25 -16.76,18.27 -29.59,18.27 -9.27,0 -18.35,-0.83 -27.42,-2.49 -9.08,-1.66 -18.14,-2.49 -27.42,-2.49 -10.85,0 -20.91,0 -30.38,0 -9.47,0 -18.75,0 -28.01,0 -5.33,0 -10.47,0 -15.4,0 -4.73,0 -9.66,0 -14.59,0 -25.45,0 -49.72,-3.12 -72.99,-9.55 -2.97,-1.25 -8.49,-3.12 -16.38,-5.19 -7.89,-2.29 -13.42,-3.95 -16.57,-5.19 -4.14,0 -8.69,0.21 -13.42,0.83 -4.93,0.62 -9.47,0.83 -13.62,0.83 -6.11,0 -9.26,-2.08 -9.26,-6.65 0,-8.92 7.3,-13.49 21.89,-13.9 14.6,-0.42 23.67,-4.16 27.23,-11.01 6.12,-17.44 9.27,-40.07 9.27,-68.09 0,-8.93 -1.57,-18.27 -4.73,-28.03 -4.14,-15.36 -6.32,-26.57 -6.32,-33.42 0,-6.44 1.58,-14.12 4.74,-23.05 2.96,-8.92 5.13,-17.85 6.31,-26.78 0,-7.68 0.79,-16.81 2.17,-27.4 1.58,-10.59 2.37,-20.14 2.37,-28.65 0,-27.82 -0.98,-47.96 -2.76,-60.21 -2.37,-13.28 -3.95,-24.91 -4.74,-34.67 -1.18,-10.17 -8.09,-16.81 -20.71,-19.93 -6.32,-2.07 -12.83,-2.9 -19.73,-2.49 -6.9,0.42 -9.86,-2.7 -8.68,-9.13 0,-1.25 3.35,-3.53 10.06,-6.65 6.9,-3.32 12.23,-4.98 16.57,-4.98 6.51,0 12.04,1.45 16.77,4.36 4.54,2.7 11.25,4.15 19.54,4.15 3.15,0 6.31,0 9.66,0 3.15,0 6.31,0 9.46,0 10.47,0 21.91,-1.45 34.73,-4.15 12.63,-2.91 23.68,-5.81 32.94,-9.13 15.79,-2.5 27.03,-4.78 33.55,-6.65 7.3,-2.49 18.94,-4.77 34.71,-6.85 10.27,0 22.3,-1.04 36.11,-3.32 13.61,-2.08 23.09,-6.44 28.61,-13.08 2.95,-5.6 8.48,-13.7 16.37,-24.29 7.89,-10.59 16.17,-15.78 24.66,-15.78 4.93,0 7.5,1.66 7.5,4.78 0,1.24 -1.38,6.43 -3.75,15.36 -2.56,8.93 -3.75,13.7 -3.75,14.53 -7.3,15.78 -11.64,25.33 -12.82,28.65 -2.18,4.36 -4.14,9.76 -5.72,15.78 -1.59,6.02 -2.97,10.8 -4.14,13.91 -3.76,12.25 -8.29,20.55 -13.82,24.91zm378.59 -93c-1.19,6.43 -2.57,13.7 -4.14,21.59 -1.58,7.89 -2.18,15.15 -2.18,21.59 0,3.32 0.99,7.06 3.17,11.62 1.96,4.36 3.15,8.31 3.15,11.42 0,4.57 0,8.93 0,13.5 0,4.36 0,8.3 0,11.62 0,9.97 -2.96,18.06 -8.68,24.29 -5.93,6.02 -10.26,12.25 -13.41,18.89 -8.49,13.29 -13.42,20.35 -15,20.97 -1.58,0.62 -8.09,4.15 -19.54,10.59 -3.54,-1.25 -8.87,-2.7 -16.17,-4.36 -7.5,-1.45 -11.05,-5.19 -11.05,-10.8 0,-6.64 4.14,-12.04 12.63,-16.4 3.15,-1.24 6.31,-3.11 9.66,-5.19 3.17,-2.28 6.32,-4.36 9.48,-6.43 3.15,-2.08 7.09,-8.31 11.84,-18.89 4.73,-10.59 5.52,-19.31 1.96,-26.16 -0.79,0 -3.74,-3.53 -9.07,-10.59 -5.52,-7.06 -9.67,-10.59 -12.82,-10.59 -11.64,0 -19.93,-1.87 -25.06,-5.19 -5.32,-3.53 -9.46,-5.19 -12.43,-5.19 -7.3,0 -12.03,0.83 -14.21,2.7 -2.16,1.87 -9.06,3.11 -20.51,3.95 -8.48,4.35 -12.82,6.64 -12.82,6.64l-4.54 38.41 0 11.41c0,7.06 4.34,16.2 13.21,27.82 8.89,11.42 14.8,19.52 17.96,23.88 6.51,9.75 12.23,18.06 16.77,24.7 4.74,6.65 12.23,13.5 22.49,20.35 3.55,3.32 7.5,6.02 12.23,8.3 4.54,2.29 9.08,4.98 13.22,8.1 5.52,5.81 12.83,12.45 22.29,20.14 9.48,7.68 15.79,14.74 18.74,21.38 1.19,3.11 3.16,7.27 5.92,12.46 2.57,4.98 4.34,11.41 5.13,19.1 0,6.43 0.79,12.04 2.37,16.4 1.38,4.36 1.78,11.83 0.99,22 0,10.8 -4.34,26.58 -13.42,47.13 -9.08,20.34 -16.17,34.05 -21.11,40.9 -12.82,15.36 -23.68,26.15 -32.75,32.38 -9.08,6.02 -21.5,13.5 -37.28,22.42 -7.3,6.44 -16.97,12.05 -28.8,16.41 -12.04,4.56 -21.31,8.3 -27.83,11.62 -9.26,3.12 -16.76,6.02 -22.48,8.1 -5.72,2.28 -13.42,3.32 -23.08,3.32 -8.49,0 -18.55,-7.68 -30.19,-23.04 -8.48,-10.18 -19.13,-23.67 -32.35,-40.7 -13.02,-17.02 -19.54,-33.21 -19.54,-48.78l0 -13.29c0,-4.57 2.38,-13.49 7.11,-26.78 4.93,-13.29 8.87,-21.59 11.83,-24.91 11.64,-14.12 29,-21.39 52.08,-21.39 15.79,0 23.68,8.72 23.68,26.16 0,2.49 -1.58,6.44 -4.94,11.84 -3.15,5.6 -6.31,8.3 -9.46,8.3 -4.93,0 -8.09,-2.49 -9.28,-7.68 -1.17,-4.98 -3.94,-7.48 -8.08,-7.48l-1.78 0c-2.96,0 -4.53,1.04 -4.53,3.33 0,2.28 -1.58,3.32 -4.74,3.32 -11.45,0 -17.37,6.64 -17.37,20.14l0 23.04c0,4.57 8.29,14.53 24.67,30.1 16.38,15.57 35.51,20.56 57.41,14.95 12.82,-3.32 22.29,-7.68 28.6,-13.08 6.51,-5.6 15.79,-13.29 28.22,-23.46 3.35,-5.6 6.31,-10.38 8.87,-14.32 2.57,-3.74 5.33,-8.93 8.29,-15.57 6.71,-13.29 11.24,-23.26 13.62,-30.11 2.55,-6.64 3.74,-17.02 3.74,-31.14 -3.74,-10.17 -13.81,-22.21 -30.18,-35.91 -16.38,-13.91 -29.79,-27.41 -40.25,-40.9 -1.18,-3.11 -6.31,-8.1 -15.39,-14.74 -9.07,-6.85 -14.99,-11.21 -18.15,-13.08 -7.3,-4.57 -18.35,-14.53 -32.95,-29.9 -3.15,-2.49 -6.31,-8.92 -9.46,-19.51 -3.36,-10.38 -5.92,-18.48 -7.9,-23.67 -2.95,-5.6 -7.3,-12.04 -12.62,-19.51 -5.53,-7.27 -8.09,-14.12 -8.09,-20.55l0 -4.99c0,-2.28 0.2,-4.36 0.79,-6.02 0.59,-1.66 0.78,-4.15 0.78,-7.26 3.17,-5.61 6.12,-11.63 8.69,-17.65 2.76,-6.02 7.3,-12.46 13.42,-18.89 9.66,-13.29 19.53,-22.63 29.98,-28.03 26.24,-16.61 56.23,-24.91 90.16,-24.91 7.3,0 17.36,0.62 29.79,1.66 12.62,0.83 22.1,0.83 28.61,-0.42 3.15,-0.83 11.05,-3.73 23.67,-8.72 12.83,-5.19 19.53,-7.68 20.32,-7.68 7.3,0 10.85,3.32 10.85,9.76 0,3.53 -0.79,8.72 -2.76,15.16z"/>
   <path class="fil0" d="M2809.43 376.81c0,5.4 0,13.5 0,24.71 0,11.21 0.59,18.89 1.77,23.46 0.79,3.11 1.18,10.79 1.18,23.04 0,6.44 0.99,14.12 3.36,23.05 0,7.05 2.36,12.24 7.3,16.19 4.73,3.94 8.68,8.93 11.84,15.57 1.96,8.93 4.93,13.91 9.27,15.15 6.11,3.33 13.41,4.78 21.9,4.78 5.32,0 13.01,-2.49 23.08,-7.47 10.06,-5.19 17.75,-7.69 23.08,-7.69 8.09,0 12.23,3.53 12.23,10.38 0,3.33 -2.96,7.27 -8.68,12.25 -5.72,4.78 -9.67,8.51 -11.64,10.8 -6.51,6.64 -21.3,9.76 -44.38,9.76 -11.65,0 -23.29,-1.25 -35.33,-3.95 -11.83,-2.7 -24.26,-3.94 -36.89,-3.94 -3.15,0 -5.32,0.2 -6.51,0.62 -0.98,0.42 -2.56,0.62 -4.53,0.62 -14.99,0 -26.24,-0.83 -33.54,-2.49 -7.3,-1.66 -23.09,-1.87 -47.35,-0.62 -13.61,0 -20.91,-1.25 -22.09,-3.53 2.37,-9.76 7.3,-14.95 14.6,-15.57 7.29,-0.62 15.58,-2.49 24.86,-5.81 6.5,-1.25 10.45,-6.85 12.03,-16.61 1.57,-9.97 3.35,-18.89 5.33,-26.58 2.16,-6.43 3.94,-15.57 4.73,-27.4 0.99,-11.63 2.17,-20.76 3.35,-27.4 0,-9.97 0.2,-20.14 0.79,-30.11 0.59,-9.75 1.78,-19.72 3.75,-29.48 0,-9.96 -0.19,-19.72 -0.59,-29.06 -0.39,-9.34 0.4,-19.1 2.36,-29.27 1.19,-8.93 1.39,-18.69 0.79,-29.28 -0.59,-10.38 -0.79,-20.55 -0.79,-30.31 0,-4.36 -0.39,-9.13 -0.98,-14.32 -0.59,-4.98 -0.79,-10.38 -0.79,-15.99 0,-15.57 -0.39,-25.53 -1.18,-29.89 -1.19,-6.44 -1.78,-16.19 -1.78,-28.86 0,-12.87 0,-23.67 0,-32.59 -5.33,-3.32 -10.85,-4.57 -16.77,-3.95 -5.72,0.63 -11.04,0.83 -16.18,0.83 -10.65,0 -18.54,1.04 -23.67,3.12 -13.81,5.6 -25.06,14.53 -33.54,26.78 -4.93,6.43 -9.47,13.08 -13.22,19.72 -3.94,6.64 -7.3,12.87 -10.45,18.69 -7.3,10.79 -11.44,17.02 -12.63,18.06 -1.97,2.07 -4.34,5.39 -6.9,9.75 -2.77,4.57 -5.13,6.86 -7.11,6.86 -7.3,0 -11.44,-4.57 -12.62,-13.5 6.11,-12.87 11.44,-23.46 15.59,-31.55 5.32,-8.52 9.66,-21.18 12.82,-37.79 0,-6.85 0.59,-14.12 2.17,-21.8 1.58,-7.68 2.37,-15.57 2.37,-23.25 0,-6.85 -0.2,-15.36 -0.59,-25.74 -0.4,-10.38 2.55,-15.57 8.67,-15.57 3.16,0.83 7.3,3.11 12.43,7.06 5.14,3.73 11.06,6.43 17.57,7.47 11.63,4.57 30.57,6.85 56.61,6.85 5.52,0 10.07,-0.62 13.61,-1.66 3.75,-1.04 7.7,-1.45 11.84,-1.45 13.61,0 23.08,-0.63 28.4,-1.87 12.63,-3.12 20.53,-4.78 23.69,-4.78 8.47,0 16.96,-1.24 25.44,-3.73 8.49,0 17.37,0.41 26.83,1.03 9.48,0.63 18.35,-0.83 26.84,-3.94 13.6,-2.49 22.88,-5.4 28.01,-8.72 5.32,-3.11 10.65,-4.77 15.98,-4.77 6.11,0 9.86,4.77 11.05,13.91 1.18,9.34 2.16,17.85 3.35,25.74 0.79,12.45 3.36,28.65 7.5,48.58 1.18,4.36 2.75,12.04 4.73,23.04 1.19,5.81 1.78,14.12 1.78,24.91 -1.19,6.65 -2.37,15.78 -3.36,28.03 -0.78,12.25 -3.55,18.27 -7.69,18.27 -6.11,0 -9.47,-5.19 -10.07,-15.78 -0.59,-10.59 -0.98,-19.1 -0.98,-25.53 0,-7.68 -1.97,-14.54 -6.31,-20.14 -4.15,-8.93 -7.3,-14.33 -9.27,-16.4 -6.52,-6.44 -15.78,-14.95 -28.01,-25.54 -12.04,-10.58 -23.88,-15.77 -35.52,-15.77 -8.09,0 -14.2,1.03 -18.55,2.9 -3.35,2.49 -5.72,10.38 -6.7,23.46 -0.79,13.29 -1.38,21.38 -1.38,24.71 -1.19,6.85 -1.98,13.08 -2.57,18.47 -0.59,5.61 -0.79,11.01 -0.79,16.82 0,17.44 -0.39,29.48 -1.18,36.54 -1.18,12.04 -1.58,24.7 -0.98,37.99 0.59,13.08 0.98,25.33 0.98,36.75 0,12.87 -0.39,25.74 -0.98,38.61 -0.6,12.66 -0.79,24.91 -0.79,36.12zm368.13 -285.87l-28.42 3.12c-3.34,10.17 -5.91,16.6 -7.49,19.51 -1.58,2.7 -3.75,6.85 -6.9,12.04 -2.37,3.32 -4.94,9.14 -8.09,17.44 -3.16,8.3 -3.94,14.32 -2.97,17.85l6.51 44.43c0,5.61 0,10.8 0,15.16 0,4.56 0,8.92 0,13.49 0,6.44 -0.59,11.21 -1.76,13.91 -1.19,2.91 -1.19,6.85 0,12.25 6.11,4.36 11.83,4.98 17.36,1.87 5.32,-3.32 11.04,-5.61 17.35,-6.85 11.45,0 20.53,-5.82 26.84,-17.23 6.31,-11.63 11.04,-22.84 14.2,-33.84 0.98,-6.86 2.37,-14.74 3.95,-23.67 1.57,-8.93 3.94,-17.23 6.9,-24.91 0,-3.33 3.55,-10.38 10.46,-21.39 6.9,-10.79 10.45,-17.02 10.45,-18.27 0,-2.28 -3.15,-6.22 -9.66,-11.83 -6.32,-5.4 -10.66,-8.72 -12.83,-9.96 -11.64,-3.33 -23.67,-4.36 -35.9,-3.12zm-123.11 129.55c0,-12.04 -1.18,-24.5 -3.16,-37.37 -2.16,-12.67 -3.15,-25.75 -3.15,-39.24 -1.19,-17.44 -4.93,-30.52 -11.44,-39.44 -6.31,-8.93 -18.94,-13.5 -37.68,-13.5 -6.32,-3.11 -9.28,-7.06 -9.28,-11.42 0,-4.56 5.72,-6.85 17.36,-6.85 9.08,-1.04 19.14,-3.11 29.6,-6.02 10.65,-2.91 21.1,-4.57 31.56,-5.4 15.78,-1.24 31.56,-2.28 47.35,-3.32 15.78,-1.04 31.77,-2.9 47.54,-5.19 7.31,0 14.61,0.21 21.9,0.83 7.3,0.62 15.79,1.04 25.45,1.04 11.44,-1.25 26.83,-0.62 45.58,1.66 15.77,6.64 27.41,11.42 34.71,14.74 6.52,3.11 12.43,6.02 17.36,8.51 8.49,1.87 13.22,6.44 14.41,13.29 0,6.44 -1.38,11.63 -3.94,15.57 -2.77,3.74 -4.55,7.89 -5.34,12.46 -6.5,24.29 -10.25,43.18 -11.44,56.46 0,9.76 -0.99,19.1 -2.95,28.03 -2.97,10.17 -13.62,22.84 -31.57,38.41 -17.75,15.36 -31.57,24.91 -41.23,28.44 2.36,9.76 4.54,19.1 6.71,28.03 1.96,8.92 4.73,17.85 7.69,26.78 6.11,21.17 16.77,40.9 31.76,59.58 6.31,10.17 11.44,19.52 15.59,28.03 1.97,6.85 6.51,18.27 13.41,34.25 6.9,16.2 12.43,25.12 16.77,27.2 6.12,4.36 10.06,7.26 11.45,8.51 1.58,1.25 5.72,4.98 12.23,11.42 4.93,7.89 15.38,11.62 31.17,11.62 5.32,0 9.86,-2.49 13.6,-7.26 3.76,-4.78 8.09,-7.89 13.62,-9.14 4.93,0 8.68,4.57 10.85,13.5 0,1.87 -5.13,6.43 -15.58,13.28 -2.18,2.08 -4.93,4.99 -8.1,8.72 -2.95,3.95 -5.12,5.82 -6.31,5.82 -6.12,3.32 -14,5.6 -23.67,6.64 -8.48,0 -16.37,1.25 -23.68,3.53 -7.3,2.08 -14.59,2.7 -21.89,1.45 -2.37,0 -7.7,-1.66 -15.99,-4.98 -8.27,-3.11 -13.6,-5.4 -15.97,-6.64 -9.08,-3.12 -17.56,-10.38 -25.45,-21.18 -2.96,-4.57 -5.53,-9.55 -7.7,-14.95 -2.16,-5.39 -4.73,-11 -7.88,-16.81 -4.94,-10.8 -10.07,-22.01 -15.59,-33.43 -12.63,-19.72 -21.11,-42.97 -25.45,-69.34 -1.77,-10.17 -3.55,-20.76 -5.13,-31.97 -1.58,-11 -2.96,-22 -3.94,-33.01 0,-11 -3.76,-15.98 -11.05,-15.15 -5.33,0 -14.6,1.04 -27.82,3.32 -13.02,2.08 -20.71,5.19 -23.08,8.72 1.18,19.93 1.18,38.2 0,54.81 -1.98,28.85 -2.37,50.24 -1.19,64.35 0.79,24.5 15.99,34.26 45.78,29.9 8.47,0 14.19,4.98 17.36,15.15 0,4.57 -3.76,6.65 -11.05,6.65 -6.51,1.24 -12.23,1.66 -16.78,1.04 -4.73,-0.63 -10.25,-1.04 -16.76,-1.04 -23.08,0 -39.85,0.62 -50.31,1.87 -8.48,2.07 -16.97,4.98 -25.45,8.92 -8.48,3.74 -16.37,6.85 -23.68,9.35 -29.19,7.68 -53.26,12.04 -72.2,12.87 -16.96,2.28 -25.45,-2.49 -25.45,-14.74 0,-3.12 2.57,-5.19 7.7,-5.82 5.32,-0.62 9.08,-1.45 11.44,-2.7 4.93,0 12.82,-2.07 23.67,-6.64 2.96,-0.83 8.29,-4.15 15.59,-9.76 7.3,-5.6 12.03,-10.79 14.4,-15.15 3.16,-6.44 5.72,-12.87 7.89,-18.89 1.98,-6.02 4.73,-12.25 7.7,-18.9 1.97,-4.35 3.94,-11.41 6.11,-20.96 2.17,-9.55 3.75,-17.44 4.93,-23.88 0,-7.06 0.99,-14.74 3.16,-23.46 2.17,-8.72 3.75,-16.61 4.93,-23.46 0,-6.43 0.2,-14.94 0.6,-25.53 0.39,-10.59 0.59,-19.1 0.59,-25.54 -0.79,-13.49 -1.19,-32.18 -1.19,-56.67zm649.06 -44.85l-17.36 77.86c-2.96,12.45 -2.96,31.34 0,56.67 3.16,25.54 5.33,43.18 6.51,53.36 2.96,21.79 7.3,37.78 12.62,47.95 4.35,8.93 8.89,15.16 13.82,18.27 3.16,2.08 7.49,3.74 12.82,4.98 5.32,1.04 8.09,3.95 8.09,8.52 -2.37,10.79 -11.44,14.74 -27.23,11.41l-7.5 -1.66c-16.96,-1.24 -30.58,-9.55 -41.03,-25.12 -6.51,-5.19 -10.85,-12.04 -13.02,-20.34 -2.16,-8.31 -5.33,-14.74 -9.47,-19.1 -18.94,29.48 -37.09,59.79 -54.44,90.93 -17.37,30.93 -48.14,43.18 -92.33,36.75l-4.74 -1.87c-13.41,-1.04 -27.23,-6.02 -41.63,-14.74 -14.2,-8.72 -24.46,-17.03 -30.58,-24.71 -16.96,-15.78 -23.87,-42.97 -20.71,-81.59 2.17,-22.21 4.93,-38.4 8.08,-48.37 2.97,-9.76 10.86,-21.59 23.68,-34.88 14.6,-16.6 36.11,-29.89 64.71,-39.44 14.6,-4.57 26.44,-9.34 35.31,-14.33 8.69,-5.19 20.13,-10.79 33.94,-17.43 10.45,-5.61 20.71,-12.25 30.78,-19.93 9.86,-7.89 17.55,-19.31 23.08,-34.67 8.47,-21.18 11.04,-34.88 7.49,-41.53 -6.11,-6.85 -16.57,-15.15 -31.17,-24.91 -11.64,-5.6 -24.06,-12.04 -37.28,-19.51 -13.42,-7.27 -27.23,-11.84 -42.02,-13.91l-2.77 -1.87c-20.13,-1.87 -37.09,6.43 -50.9,24.91 -13.41,21.18 -16.37,33.43 -8.48,36.54 7.89,3.32 11.44,9.97 10.26,20.14 -1.19,5.6 -6.52,10.79 -15.58,15.15 -7.5,-4.36 -14.21,-8.92 -20.53,-13.28 -6.51,-4.57 -8.68,-13.5 -6.7,-26.78 1.18,-12.25 7.49,-24.92 19.13,-38.41 11.44,-13.29 21.5,-22.63 29.99,-28.03 12.63,-6.85 23.08,-14.12 30.97,-21.8 7.9,-7.68 22.69,-9.96 44.79,-6.64l6.31 0c14.6,3.53 30.98,10.59 48.73,20.97 17.95,10.38 33.34,18.89 45.96,25.74 6.32,4.57 15.4,8.1 27.63,10.8 12.03,2.49 19.72,6.02 22.68,10.58 8.49,15.78 11.25,34.05 8.09,54.81l0 8.51zm-82.07 139.72c1.98,-20.14 -3.15,-31.35 -15.58,-33.42l-5.14 0c-17.75,-2.29 -30.58,9.76 -38.46,36.54 -7.89,26.78 -15,39.44 -21.11,38.4l-1.78 0c-5.33,0 -8.48,-3.73 -9.47,-11 -0.99,-7.27 -2.95,-11.42 -6.11,-12.25l-3.35 0c-28.62,-3.53 -44.39,8.51 -47.56,36.54 0,2.08 0.4,4.15 0.99,6.44 0.6,2.28 0.79,3.94 0.79,5.19 6.12,10.79 10.06,17.43 11.84,19.72 1.78,2.28 7.3,7.26 16.57,14.95 7.3,6.43 12.43,11.41 15.59,15.15 3.35,2.08 5.92,4.78 7.5,8.1 1.57,3.53 3.74,5.6 6.9,6.43 14.6,-21.8 29.2,-41.1 43.99,-57.71 6.51,-6.85 14.8,-16.4 24.86,-28.65 9.87,-12.04 15.98,-23.67 17.95,-34.67l1.58 -9.76zm836.87 -262.62l-0.98 18.27c0,5.61 0.79,15.78 2.17,30.73 1.58,14.74 3.36,23.87 5.33,27.61 1.18,7.68 1.18,15.98 0.19,24.7 -0.99,8.72 0.2,16.4 3.16,23.25 1.19,6.65 2.76,13.08 4.74,19.93 1.78,6.65 3.35,13.29 4.53,19.73 1.19,14.53 3.56,28.65 7.3,42.56 3.55,13.7 6.91,27.4 10.06,40.69 2.37,10.17 3.76,20.13 4.15,30.1 0.2,9.96 1.57,19.72 3.94,29.48 1.19,22.42 4.34,41.73 9.28,58.34 2.36,16.81 8.08,32.8 17.36,48.16 2.36,7.68 6.51,14.33 12.63,20.14 2.36,1.87 6.11,4.77 11.24,8.1 5.33,3.52 7.89,5.6 7.89,6.43 0,6.85 -3.95,11.21 -11.84,12.66 -7.89,1.67 -14,2.5 -18.15,2.5 -6.32,0 -13.21,-0.21 -21.11,-0.83 -7.89,-0.63 -14.01,-1.04 -18.34,-1.04 -7.3,0 -13.02,0.62 -17.36,1.87 -4.15,1.24 -9.48,3.53 -16.19,6.64 -12.23,4.57 -22.09,8.3 -29.39,11.63 -2.36,1.24 -8.48,2.9 -18.54,5.19 -10.06,2.28 -14.99,1.45 -14.99,-2.08 0,-0.83 2.36,-2.91 7.29,-6.44 4.74,-3.53 8.09,-5.6 10.07,-6.43 4.14,-3.53 9.66,-8.72 16.17,-15.16 1.98,-3.32 3.36,-7.06 4.34,-11.62 0.99,-4.36 2.57,-8.31 4.94,-11.42 7.29,-11.42 11.04,-18.69 11.04,-22.01l0 -6.64c0,-7.68 -1.18,-15.36 -3.35,-23.05 -1.97,-7.88 -3.75,-15.57 -4.74,-23.25 -0.79,-3.11 -1.78,-7.06 -2.95,-11.42 -1.19,-4.56 -1.78,-8.92 -1.78,-13.49 -1.19,-3.32 -2.57,-6.85 -3.94,-10.59 -1.58,-3.94 -2.37,-7.68 -2.37,-11.21 -0.79,-6.64 -4.74,-21.59 -11.64,-45.46 -6.91,-23.67 -11.84,-37.37 -15,-40.9 -1.18,3.53 -2.56,7.26 -3.94,11.21 -1.58,3.74 -2.37,6.85 -2.37,8.72 -10.46,24.5 -18.94,42.56 -25.45,54.81 -4.93,12.24 -10.85,24.29 -17.36,36.53 -4.14,8.93 -8.88,21.6 -13.81,38.2 -3.55,10.18 -6.51,20.97 -9.08,32.6 -2.37,11.62 -5.12,21.17 -8.29,28.85 -1.17,3.33 -3.15,6.44 -5.72,9.14 -2.75,2.91 -4.73,5.6 -5.91,7.89 -2.96,6.64 -10.26,17.23 -21.9,32.38 -11.64,14.95 -20.91,22.43 -28.4,22.43 -2.97,0 -4.55,-2.29 -4.55,-6.65 0,-10.17 3.36,-17.44 10.07,-22 6.71,-4.36 10.26,-13.08 10.26,-26.16l0 -6.64c0,-13.29 -4.74,-34.47 -14.21,-63.32 -9.47,-28.65 -16.37,-48.58 -20.51,-59.59 -1.98,-4.36 -3.76,-9.13 -5.33,-14.32 -1.38,-4.98 -2.76,-10.38 -3.95,-15.99 -5.33,-7.68 -9.66,-16.81 -12.82,-27.4 -2.96,-10.59 -6.12,-20.76 -9.07,-30.52 -2.38,-4.36 -4.74,-9.13 -7.31,-14.12 -2.56,-5.19 -3.74,-9.96 -3.74,-14.32 -2.37,0 -3.76,5.6 -4.35,16.61 -0.59,11.21 -0.99,17.44 -0.99,18.68 -1.76,6.44 -3.94,17.44 -6.31,32.8 -1.77,12.04 -3.94,23.26 -5.92,33.43 -2.16,10.17 -4.14,20.14 -6.11,29.89 -3.55,10.8 -4.14,22.01 -1.77,33.43 0,9.75 0.99,14.53 3.15,14.53 2.17,0 6.31,2.28 12.43,6.64 2.37,2.49 5.52,6.44 9.87,11.84 4.14,5.6 7.29,8.3 9.27,8.3 11.44,4.36 17.36,10.59 17.36,18.27 0,4.36 -3.75,6.64 -11.05,6.64 -3.16,0 -6.51,-0.83 -10.06,-2.49 -3.75,-1.66 -6.71,-2.9 -9.08,-4.15 -11.44,-2.08 -23.08,-3.11 -34.52,-3.11 -11.64,0 -22.69,-1.25 -32.95,-3.53 -6.71,0 -14.4,1.03 -23.28,3.32 -8.88,2.07 -14.8,3.94 -17.75,5.19 -6.71,1.87 -15.2,4.98 -25.45,8.72 -10.45,3.94 -16.17,4.15 -17.36,0.83 2.95,-6.44 9.86,-11.21 20.13,-14.53 5.52,-2.5 9.46,-4.16 12.23,-5.19 2.56,-1.04 6.5,-3.33 11.44,-6.86 9.66,-7.88 18.15,-23.87 25.45,-48.16 3.15,-9.76 5.32,-19.93 6.5,-30.31 0.99,-10.59 3.16,-21.38 6.31,-32.39 4.15,-18.89 7.3,-40.69 9.28,-64.98 3.35,-23.04 6.71,-44.63 9.66,-64.56 1.98,-9.97 4.35,-20.14 7.11,-30.1 2.57,-9.97 4.93,-20.56 6.9,-31.77 0,-5.4 -0.19,-10.79 -0.59,-16.19 -0.39,-5.4 0.4,-11.63 2.37,-18.48 0,-5.81 0.4,-11 1.58,-15.98 1.18,-4.78 2.17,-10.38 2.96,-17.03 0,-4.36 1.38,-15.15 3.94,-32.38 2.77,-17.23 7.3,-25.95 13.42,-25.95 3.16,0 8.48,11.62 16.37,35.08 7.89,23.25 13.02,38.2 15.39,44.64 1.98,6.43 4.14,13.08 6.91,19.72 2.75,6.64 5.52,13.49 8.67,20.34 5.34,11.01 12.43,23.05 20.92,36.33 8.48,13.08 14.2,25.33 17.16,36.75 0.79,8.93 2.37,16.61 4.34,23.04 2.17,6.44 4.94,13.29 8.48,20.14 8.09,21.8 15.4,42.35 21.91,61.45 0,3.12 0.38,4.78 0.98,4.78 0.59,0 1.18,1.04 1.97,3.11 7.3,-9.75 13.81,-23.25 19.53,-40.48 5.92,-17.23 10.46,-29.06 14.01,-35.5 2.96,-14.74 5.92,-28.65 8.28,-41.73 2.57,-13.29 8.1,-27.2 16.58,-41.73 6.5,-12.04 12.82,-24.7 18.93,-37.99 6.32,-13.08 12.63,-25.74 19.14,-37.99 3.16,-5.61 6.12,-11.63 9.28,-17.65 3.15,-6.02 6.71,-12.04 11.04,-17.64 1.19,-2.08 5.53,-7.27 13.42,-15.57 8.08,-8.31 13.02,-12.46 15.38,-12.46 1.98,0 3.96,1.66 5.72,4.98zm428.3 122.9l-17.35 77.86c-2.96,12.45 -2.96,31.34 0,56.67 3.16,25.54 5.32,43.18 6.51,53.36 2.96,21.79 7.3,37.78 12.62,47.95 4.34,8.93 8.89,15.16 13.82,18.27 3.15,2.08 7.49,3.74 12.82,4.98 5.32,1.04 8.08,3.95 8.08,8.52 -2.36,10.79 -11.44,14.74 -27.22,11.41l-7.5 -1.66c-16.96,-1.24 -30.58,-9.55 -41.03,-25.12 -6.51,-5.19 -10.85,-12.04 -13.02,-20.34 -2.17,-8.31 -5.33,-14.74 -9.48,-19.1 -18.93,29.48 -37.08,59.79 -54.44,90.93 -17.36,30.93 -48.14,43.18 -92.33,36.75l-4.74 -1.87c-13.41,-1.04 -27.22,-6.02 -41.62,-14.74 -14.21,-8.72 -24.46,-17.03 -30.58,-24.71 -16.96,-15.78 -23.87,-42.97 -20.72,-81.59 2.18,-22.21 4.94,-38.4 8.09,-48.37 2.97,-9.76 10.85,-21.59 23.68,-34.88 14.6,-16.6 36.1,-29.89 64.71,-39.44 14.59,-4.57 26.43,-9.34 35.31,-14.33 8.68,-5.19 20.13,-10.79 33.93,-17.43 10.46,-5.61 20.72,-12.25 30.78,-19.93 9.87,-7.89 17.55,-19.31 23.08,-34.67 8.48,-21.18 11.05,-34.88 7.49,-41.53 -6.11,-6.85 -16.56,-15.15 -31.17,-24.91 -11.64,-5.6 -24.06,-12.04 -37.28,-19.51 -13.41,-7.27 -27.22,-11.84 -42.02,-13.91l-2.76 -1.87c-20.13,-1.87 -37.09,6.43 -50.9,24.91 -13.42,21.18 -16.37,33.43 -8.49,36.54 7.89,3.32 11.45,9.97 10.27,20.14 -1.19,5.6 -6.52,10.79 -15.59,15.15 -7.49,-4.36 -14.2,-8.92 -20.52,-13.28 -6.51,-4.57 -8.68,-13.5 -6.7,-26.78 1.18,-12.25 7.49,-24.92 19.13,-38.41 11.44,-13.29 21.5,-22.63 29.99,-28.03 12.63,-6.85 23.08,-14.12 30.97,-21.8 7.89,-7.68 22.69,-9.96 44.78,-6.64l6.31 0c14.61,3.53 30.98,10.59 48.73,20.97 17.96,10.38 33.35,18.89 45.97,25.74 6.32,4.57 15.39,8.1 27.62,10.8 12.03,2.49 19.73,6.02 22.69,10.58 8.48,15.78 11.25,34.05 8.08,54.81l0 8.51zm-82.06 139.72c1.97,-20.14 -3.16,-31.35 -15.59,-33.42l-5.13 0c-17.75,-2.29 -30.58,9.76 -38.47,36.54 -7.88,26.78 -14.99,39.44 -21.1,38.4l-1.78 0c-5.33,0 -8.48,-3.73 -9.47,-11 -0.99,-7.27 -2.96,-11.42 -6.11,-12.25l-3.36 0c-28.61,-3.53 -44.38,8.51 -47.55,36.54 0,2.08 0.4,4.15 0.99,6.44 0.6,2.28 0.79,3.94 0.79,5.19 6.12,10.79 10.06,17.43 11.84,19.72 1.78,2.28 7.3,7.26 16.57,14.95 7.3,6.43 12.43,11.41 15.59,15.15 3.35,2.08 5.92,4.78 7.49,8.1 1.58,3.53 3.75,5.6 6.9,6.43 14.61,-21.8 29.2,-41.1 44,-57.71 6.51,-6.85 14.8,-16.4 24.86,-28.65 9.86,-12.04 15.97,-23.67 17.95,-34.67l1.58 -9.76z"/>
   <path class="fil0" d="M5074.63 94.06c-0.79,16.6 -0.79,33.21 0.2,49.82 0.98,16.61 1.57,33.22 1.57,49.83 0,11 0.2,22.42 0.79,34.04 0.59,11.84 0.79,22.63 0.79,32.39 0,23.46 -0.59,45.88 -1.58,67.47 -1.18,21.38 -1.18,45.05 0,70.59 0,6.43 0.59,13.7 2.17,21.59 1.58,7.89 2.97,15.15 4.14,21.59 12.63,2.49 22.7,3.53 29.99,3.53 15.79,0 28.41,0.21 37.88,0.62 9.47,0.42 21.11,-8.1 34.93,-25.54 4.33,-6.85 9.46,-13.7 15.58,-20.34 6.31,-6.64 11.44,-13.91 15.58,-21.59 9.67,-16.61 16.58,-34.26 20.91,-52.94 3.16,-8.93 6.51,-18.69 10.06,-29.07 3.76,-10.58 5.53,-20.76 5.53,-30.51 0,-10.18 -1.38,-22.42 -4.15,-36.75 -2.55,-14.32 -4.93,-25.53 -6.9,-33.22 -2.96,-6.43 -8.28,-14.11 -15.58,-23.04 -7.3,-8.93 -13.02,-16.82 -17.36,-23.67 -9.67,-13.08 -23.87,-26.57 -42.61,-40.48 -18.94,-14.12 -36.3,-20.97 -52.09,-20.97 -20.13,0 -33.34,2.08 -39.85,6.65zm41.03 -52.94c19.93,2.07 42.81,8.72 68.07,20.13 13.61,6.44 23.67,11.84 30.18,16.4 20.72,15.37 36.5,29.48 47.15,42.36 10.45,12.66 22.68,30.51 36.69,53.77 4.93,10.17 8.69,21.59 11.44,34.25 2.77,12.87 6.12,24.71 10.47,35.71 3.15,8.93 7.88,19.93 14.79,33.01 6.71,13.28 10.07,23.87 10.07,31.97 0,8.51 -7.31,22.63 -21.91,41.93 -14.79,19.52 -25.05,34.26 -31.37,44.43 -5.32,6.44 -10.65,13.29 -15.78,20.35 -5.32,7.26 -9.87,14.11 -14.2,20.97 -9.67,13.49 -18.94,22.62 -27.82,27.4 -8.88,4.98 -19.53,10.8 -32.35,17.65 -8.49,3.32 -17.36,5.39 -26.84,6.43 -9.46,1.04 -17.16,4.98 -23.47,11.84 -3.35,3.32 -6.12,6.43 -8.28,9.75 -2.18,3.32 -4.75,6.44 -7.9,9.76 -8.48,8.1 -16.96,11 -25.84,8.72 -8.88,-2.08 -17.56,-5.19 -26.05,-8.72 -10.45,-2.08 -19.91,-3.94 -28.4,-5.61 -8.49,-1.45 -18.94,-2.28 -31.77,-2.28 -13.41,0 -27.61,0 -42.41,0 -14.8,0 -28.01,3.74 -39.65,11.42 -3.16,3.32 -6.91,8.3 -11.65,14.95 -4.53,6.64 -8.67,10.17 -12.03,10.17 -1.97,0 -2.96,-2.28 -2.96,-6.85 0,-1.25 1.39,-4.15 4.14,-9.14 2.57,-4.77 3.96,-8.51 3.96,-10.79 4.33,-6.64 8.27,-11 12.23,-13.5 5.32,-3.11 11.44,-5.39 18.54,-6.43 6.9,-0.83 14,-3.32 21.3,-6.85 3.16,-0.83 8.49,-3.74 16.37,-8.93 7.9,-4.98 12.43,-9.13 13.62,-12.46 3.16,-8.92 5.13,-18.68 6.11,-29.06 0.99,-10.59 1.39,-20.76 1.39,-30.52 0,-16.61 -0.2,-33.01 -0.6,-49.2 -0.39,-16.19 -0.59,-32.59 -0.59,-48.79 0,-20.14 -3.74,-40.9 -11.44,-61.86 -4.34,-11.01 -6.31,-21.39 -6.31,-31.15l3.35 -36.53c0,-6.85 -0.78,-13.71 -2.17,-20.35 -1.58,-6.64 -2.37,-13.91 -2.37,-21.59 -1.18,-3.11 -4.93,-11.21 -11.24,-23.87 -6.51,-12.88 -11.05,-19.73 -14.21,-20.56 -3.15,0 -8.08,-0.62 -14.99,-1.66 -6.9,-1.24 -11.44,-2.49 -13.41,-3.73 -12.63,-4.57 -24.27,-15.99 -34.52,-34.67 -4.35,-7.69 -7.9,-15.99 -11.06,-24.92 0,-2.07 -0.39,-7.89 -0.78,-17.44 -0.59,-9.55 0.59,-14.11 3.74,-14.11 2.97,0 6.71,4.56 10.85,14.11 4.35,9.55 6.91,15.99 8.09,19.31 1.98,3.11 3.55,6.23 4.74,9.14 1.18,2.69 2.17,5.81 3.36,9.13 6.31,13.29 15.58,18.68 28.4,16.4 9.27,-2.08 18.35,-3.11 27.42,-3.11 9.08,0 18.74,-2.29 29.2,-6.65 18.94,-6.85 36.7,-12.25 53.66,-16.19 16.97,-3.74 35.31,-5.19 55.04,-3.94zm462.43 49.82l-28.41 3.12c-3.34,10.17 -5.91,16.6 -7.49,19.51 -1.58,2.7 -3.75,6.85 -6.91,12.04 -2.36,3.32 -4.93,9.14 -8.08,17.44 -3.16,8.3 -3.95,14.32 -2.97,17.85l6.51 44.43c0,5.61 0,10.8 0,15.16 0,4.56 0,8.92 0,13.49 0,6.44 -0.59,11.21 -1.77,13.91 -1.18,2.91 -1.18,6.85 0,12.25 6.11,4.36 11.83,4.98 17.37,1.87 5.32,-3.32 11.04,-5.61 17.35,-6.85 11.45,0 20.52,-5.82 26.83,-17.23 6.31,-11.63 11.05,-22.84 14.21,-33.84 0.98,-6.86 2.37,-14.74 3.94,-23.67 1.58,-8.93 3.95,-17.23 6.9,-24.91 0,-3.33 3.56,-10.38 10.47,-21.39 6.89,-10.79 10.45,-17.02 10.45,-18.27 0,-2.28 -3.16,-6.22 -9.67,-11.83 -6.32,-5.4 -10.65,-8.72 -12.82,-9.96 -11.65,-3.33 -23.68,-4.36 -35.91,-3.12zm-123.1 129.55c0,-12.04 -1.18,-24.5 -3.16,-37.37 -2.17,-12.67 -3.15,-25.75 -3.15,-39.24 -1.19,-17.44 -4.94,-30.52 -11.45,-39.44 -6.31,-8.93 -18.94,-13.5 -37.67,-13.5 -6.32,-3.11 -9.28,-7.06 -9.28,-11.42 0,-4.56 5.72,-6.85 17.36,-6.85 9.08,-1.04 19.14,-3.11 29.59,-6.02 10.66,-2.91 21.11,-4.57 31.57,-5.4 15.78,-1.24 31.56,-2.28 47.35,-3.32 15.78,-1.04 31.76,-2.9 47.54,-5.19 7.31,0 14.6,0.21 21.9,0.83 7.3,0.62 15.79,1.04 25.45,1.04 11.44,-1.25 26.83,-0.62 45.58,1.66 15.77,6.64 27.41,11.42 34.71,14.74 6.52,3.11 12.43,6.02 17.36,8.51 8.49,1.87 13.22,6.44 14.41,13.29 0,6.44 -1.38,11.63 -3.95,15.57 -2.76,3.74 -4.54,7.89 -5.33,12.46 -6.51,24.29 -10.25,43.18 -11.44,56.46 0,9.76 -0.99,19.1 -2.95,28.03 -2.97,10.17 -13.62,22.84 -31.57,38.41 -17.75,15.36 -31.57,24.91 -41.24,28.44 2.37,9.76 4.55,19.1 6.71,28.03 1.97,8.92 4.74,17.85 7.7,26.78 6.11,21.17 16.76,40.9 31.76,59.58 6.31,10.17 11.44,19.52 15.58,28.03 1.98,6.85 6.51,18.27 13.42,34.25 6.9,16.2 12.43,25.12 16.76,27.2 6.12,4.36 10.07,7.26 11.46,8.51 1.57,1.25 5.72,4.98 12.23,11.42 4.93,7.89 15.38,11.62 31.16,11.62 5.33,0 9.87,-2.49 13.61,-7.26 3.76,-4.78 8.09,-7.89 13.62,-9.14 4.93,0 8.68,4.57 10.85,13.5 0,1.87 -5.13,6.43 -15.58,13.28 -2.18,2.08 -4.93,4.99 -8.1,8.72 -2.95,3.95 -5.12,5.82 -6.31,5.82 -6.12,3.32 -14.01,5.6 -23.67,6.64 -8.49,0 -16.37,1.25 -23.68,3.53 -7.3,2.08 -14.6,2.7 -21.9,1.45 -2.36,0 -7.69,-1.66 -15.98,-4.98 -8.28,-3.11 -13.61,-5.4 -15.97,-6.64 -9.08,-3.12 -17.56,-10.38 -25.45,-21.18 -2.97,-4.57 -5.53,-9.55 -7.7,-14.95 -2.17,-5.39 -4.73,-11 -7.89,-16.81 -4.93,-10.8 -10.06,-22.01 -15.58,-33.43 -12.63,-19.72 -21.12,-42.97 -25.45,-69.34 -1.78,-10.17 -3.55,-20.76 -5.13,-31.97 -1.58,-11 -2.97,-22 -3.94,-33.01 0,-11 -3.76,-15.98 -11.06,-15.15 -5.33,0 -14.59,1.04 -27.81,3.32 -13.02,2.08 -20.72,5.19 -23.08,8.72 1.18,19.93 1.18,38.2 0,54.81 -1.98,28.85 -2.37,50.24 -1.19,64.35 0.79,24.5 15.98,34.26 45.77,29.9 8.48,0 14.2,4.98 17.37,15.15 0,4.57 -3.76,6.65 -11.06,6.65 -6.51,1.24 -12.23,1.66 -16.77,1.04 -4.73,-0.63 -10.25,-1.04 -16.76,-1.04 -23.08,0 -39.86,0.62 -50.31,1.87 -8.49,2.07 -16.97,4.98 -25.45,8.92 -8.48,3.74 -16.37,6.85 -23.68,9.35 -29.19,7.68 -53.26,12.04 -72.2,12.87 -16.96,2.28 -25.45,-2.49 -25.45,-14.74 0,-3.12 2.57,-5.19 7.7,-5.82 5.32,-0.62 9.07,-1.45 11.44,-2.7 4.93,0 12.82,-2.07 23.67,-6.64 2.96,-0.83 8.29,-4.15 15.59,-9.76 7.29,-5.6 12.03,-10.79 14.4,-15.15 3.16,-6.44 5.72,-12.87 7.89,-18.89 1.98,-6.02 4.73,-12.25 7.7,-18.9 1.96,-4.35 3.94,-11.41 6.11,-20.96 2.17,-9.55 3.75,-17.44 4.93,-23.88 0,-7.06 0.99,-14.74 3.15,-23.46 2.18,-8.72 3.76,-16.61 4.94,-23.46 0,-6.43 0.19,-14.94 0.59,-25.53 0.39,-10.59 0.59,-19.1 0.59,-25.54 -0.79,-13.49 -1.18,-32.18 -1.18,-56.67zm633.47 -86.37c-15.77,4.57 -31.76,6.23 -48.13,4.99 -16.37,-1.25 -31.96,-1.87 -46.57,-1.87 -4.33,0 -7.88,-0.42 -11.04,-1.46 -3.15,-1.03 -6.12,-1.66 -9.27,-1.66 -3.36,0 -7.7,1.46 -13.02,4.36 -5.13,2.91 -8.29,4.15 -9.48,4.15 -3.15,2.08 -6.11,9.76 -9.26,23.26 -7.31,20.96 -11.05,38.61 -11.05,52.94 0,24.29 6.51,36.33 19.14,36.33 1.96,0 9.66,-3.74 23.47,-11.42 13.62,-7.68 24.66,-11.63 33.14,-11.63 21.31,0 39.07,6.02 53.87,18.27 4.14,3.12 10.25,8.51 18.15,15.78 7.88,7.27 11.83,14.12 11.83,20.76 0,10.17 -1.58,18.68 -4.93,25.74 -3.36,7.06 -5.92,14.12 -7.89,20.97 -5.33,17.44 -12.63,26.16 -21.91,26.16 -9.66,0 -13.4,-2.49 -11.44,-7.89 3.36,-4.36 7.7,-6.64 13.02,-6.64 5.13,0 7.7,-5.19 7.7,-15.16 0,-17.85 -11.64,-26.78 -34.72,-26.78 -6.51,0 -13.81,1.25 -21.9,3.53 -10.85,0 -26.64,1.04 -47.35,3.11 -5.52,0 -10.06,0.21 -13.61,0.83 -3.75,0.63 -7.11,1.04 -10.06,1.04 -3.16,4.36 -6.71,10.18 -10.46,17.23 -3.94,7.06 -5.72,13.5 -5.72,19.31 0,7.68 0.99,16.19 3.16,25.74 1.97,9.55 3.15,16.61 3.15,20.97 -0.79,8.51 -1.18,22.42 -1.18,41.32 0,5.81 3.35,9.13 10.06,10.17 6.71,1.04 11.64,1.45 14.79,1.45 11.65,0 23.49,-1.45 35.52,-4.15 12.23,-2.91 22.49,-4.36 30.98,-4.36 9.66,-0.83 19.91,0.83 30.97,5.19 10.85,4.15 21.1,6.44 30.78,6.44 17.75,0 35.51,-9.35 53.26,-28.03 4.14,-4.57 5.52,-16.19 3.94,-35.09 -1.38,-18.68 1.98,-28.23 10.45,-28.23 4.35,0 7.5,5.4 9.48,15.78 2.17,10.59 3.35,17.44 3.35,20.76 0,19.93 -2.56,34.88 -7.29,45.05 -4.74,10.17 -11.45,19.93 -19.93,29.69 -8.09,7.68 -15.59,17.64 -22.49,29.89 -7.1,12.25 -16.77,18.27 -29.6,18.27 -9.27,0 -18.35,-0.83 -27.42,-2.49 -9.08,-1.66 -18.14,-2.49 -27.42,-2.49 -10.85,0 -20.91,0 -30.38,0 -9.47,0 -18.75,0 -28.01,0 -5.33,0 -10.46,0 -15.4,0 -4.73,0 -9.66,0 -14.59,0 -25.45,0 -49.72,-3.12 -72.99,-9.55 -2.97,-1.25 -8.49,-3.12 -16.38,-5.19 -7.89,-2.29 -13.41,-3.95 -16.57,-5.19 -4.14,0 -8.69,0.21 -13.42,0.83 -4.93,0.62 -9.47,0.83 -13.62,0.83 -6.11,0 -9.26,-2.08 -9.26,-6.65 0,-8.92 7.3,-13.49 21.89,-13.9 14.6,-0.42 23.68,-4.16 27.23,-11.01 6.12,-17.44 9.27,-40.07 9.27,-68.09 0,-8.93 -1.57,-18.27 -4.73,-28.03 -4.14,-15.36 -6.32,-26.57 -6.32,-33.42 0,-6.44 1.58,-14.12 4.74,-23.05 2.96,-8.92 5.13,-17.85 6.31,-26.78 0,-7.68 0.79,-16.81 2.17,-27.4 1.58,-10.59 2.37,-20.14 2.37,-28.65 0,-27.82 -0.98,-47.96 -2.76,-60.21 -2.36,-13.28 -3.95,-24.91 -4.74,-34.67 -1.18,-10.17 -8.09,-16.81 -20.71,-19.93 -6.32,-2.07 -12.83,-2.9 -19.73,-2.49 -6.9,0.42 -9.86,-2.7 -8.68,-9.13 0,-1.25 3.35,-3.53 10.06,-6.65 6.9,-3.32 12.23,-4.98 16.58,-4.98 6.51,0 12.03,1.45 16.76,4.36 4.54,2.7 11.25,4.15 19.54,4.15 3.15,0 6.31,0 9.66,0 3.16,0 6.31,0 9.47,0 10.46,0 21.9,-1.45 34.72,-4.15 12.63,-2.91 23.68,-5.81 32.94,-9.13 15.79,-2.5 27.03,-4.78 33.55,-6.65 7.3,-2.49 18.94,-4.77 34.71,-6.85 10.27,0 22.3,-1.04 36.11,-3.32 13.61,-2.08 23.09,-6.44 28.61,-13.08 2.95,-5.6 8.48,-13.7 16.37,-24.29 7.89,-10.59 16.17,-15.78 24.66,-15.78 4.93,0 7.5,1.66 7.5,4.78 0,1.24 -1.38,6.43 -3.75,15.36 -2.56,8.93 -3.75,13.7 -3.75,14.53 -7.3,15.78 -11.64,25.33 -12.82,28.65 -2.17,4.36 -4.14,9.76 -5.72,15.78 -1.59,6.02 -2.96,10.8 -4.14,13.91 -3.76,12.25 -8.29,20.55 -13.82,24.91z"/>
  </g>
  <g id="_2040048192832">
   <path class="fil1" d="M153.21 1589.42c100.88,0 243.1,-76.85 263.4,-150.95 1.65,-6.47 2.1,-14.51 2.1,-23.13 0,-28.63 -7.06,-67.05 -15.34,-87.83 -9.77,-21.76 -33.07,-51.17 -67.34,-71.16 73.96,-41.96 147.93,-101.16 162.06,-163.11 2.11,-9.21 3.01,-20.78 3.01,-32.74 0,-32.74 -6.61,-70.18 -13.23,-82.73 -18.04,-36.27 -53.68,-51.17 -95.92,-51.17 -74.57,0 -168.68,47.25 -213.63,105.67 -15.03,19.6 -23.45,47.83 -23.45,74.69 0,14.31 2.25,27.64 7.06,39.6 0.45,1.18 1.36,1.77 2.25,1.77 1.36,0 3.01,-1.18 3.46,-3.34 11.58,-36.26 62.54,-79.39 121.18,-110.37 -41.35,72.34 -151.09,289.56 -154.55,369.93l0 1.77c0,27.44 25.56,60.77 51.11,60.77 5.71,0 10.98,-1.18 16.24,-4.51 1.35,-0.59 2.26,-2.35 2.26,-3.53 0,-1.76 -1.36,-3.33 -3.16,-3.92 -3.91,-1.17 -5.26,-5.88 -5.26,-11.56 0,-14.32 7.96,-36.27 9.62,-43.13 7.97,-24.7 18.49,-54.5 31.27,-86.65 61.34,4.5 152.44,17.25 152.44,49.99 0,2.74 -0.9,6.27 -2.55,9.8 -37.14,74.1 -160.41,111.35 -235.74,111.35l-7.97 0c-45.69,-1.18 -91.55,-20.78 -107.33,-69.01 -1.36,-2.74 -4.51,-4.51 -7.08,-4.51 -3.6,0 -6.61,2.36 -6.61,6.28l0 1.17c2.11,44.9 33.83,134.49 60.74,151.15 18.04,13.14 43.15,19.41 70.96,19.41zm127.64 -379.54c30.37,-66.06 60.89,-125.85 78.03,-150.56 1.35,-2.35 2.25,-4.51 2.25,-6.86 0,-12.15 -16.39,-28.23 -32.62,-35.68 31.72,-12.54 62.99,-20.58 89,-20.58 13.53,0 25.86,2.15 36.08,6.86 13.68,6.27 19.39,17.25 19.39,29.21 0,10.39 -4.51,21.96 -11.13,32.74 -40.89,64.3 -123.27,114.88 -181,144.87zm247.61 341.7c5.26,0 10.22,-0.58 15.03,-1.76 103.89,-28.23 213.64,-264.85 257.68,-394.04 10.08,7.45 14.44,11.56 14.44,29.4 -3.01,62.54 -84.5,197.02 -84.5,282.5 0,17.25 3.02,32.74 10.53,44.89 8.87,14.9 27.36,28.62 40.14,36.66 1.36,0.59 3.01,1.18 4.81,1.18 33.07,0 118.92,-151.74 141.77,-198.2 0.45,-0.59 0.45,-1.76 0.45,-2.35 0,-6.28 -10.97,-15.49 -17.14,-15.49 -0.9,0 -1.8,0 -2.25,0.59 -21.95,37.44 -87.65,154.48 -105.24,154.48 -3.01,0 -4.35,-2.75 -4.35,-9.61 0,-28.81 22.84,-112.13 49.31,-176.43 14.13,-33.92 23.75,-64.89 23.75,-91.95 0,-35.48 -17.59,-64.3 -67.35,-81.55 0.9,-6.86 4.35,-32.74 4.35,-59.01 0,-33.91 -5.71,-69.59 -28.56,-70.18 -2.71,0 -5.26,0.59 -8.42,1.17 -31.72,9.22 -44.05,30.39 -44.05,53.52 0,30.39 21.2,64.89 47.66,83.12 -48.56,149.98 -192.89,362.49 -243.55,362.49 -12.03,0 -17.74,-12.55 -17.74,-33.33 0,-23.53 8.42,-52.34 21.2,-82.73 15.93,18.43 29.01,28.23 43.59,29.99 41.05,0 109.75,-124.09 109.75,-177.61l-0.9 -8.63c-5.26,-26.85 -63.44,-79.2 -85.99,-79.2 -50.52,0 -149.29,175.66 -149.29,297.01 0,33.32 7.51,62.53 25.11,82.73 11.87,14.89 31.72,22.34 49.76,22.34zm13.68 -179.18c29.46,-66.06 75.77,-135.07 98.17,-166.04 -12.33,62.53 -62.09,166.04 -98.17,166.04zm492.06 -223.49c-50.66,0 -149.89,176.25 -149.89,298.18 0,33.33 7.52,61.95 25.11,82.54 12.32,14.5 32.62,22.54 50.66,22.54 5.41,0 10.22,-0.59 14.59,-1.76 58.62,-16.08 144.02,-145.86 180.55,-207.41 0.45,-1.18 0.9,-2.16 0.9,-2.75 0,-1.17 -0.45,-1.76 -0.45,-2.35 -0.9,-2.35 -4.81,-3.53 -9.62,-3.53 -7.52,0 -17.59,2.94 -21.2,8.04 -25.55,35.68 -119.82,166.63 -160.26,166.63 -8.87,0 -15.03,-6.27 -17.29,-21.17 -0.45,-4.12 -0.75,-8.04 -0.75,-12.74 0,-24.7 8.72,-55.68 22.4,-88.42 12.33,13.73 26.91,24.7 37.43,27.65 1.36,0.58 3.01,0.58 4.37,0.58 41.49,0 110.65,-124.68 110.65,-178.2 0,-2.74 -0.45,-5.68 -0.91,-8.62 -3.15,-15.49 -27.81,-41.37 -41.94,-54.5 -10.98,-11.96 -34.73,-24.71 -44.35,-24.71zm37.44 57.45c-12.33,61.55 -60,161.34 -96.08,165.45 29.47,-65.47 74.43,-134.48 96.08,-165.45zm247.61 -57.45c-11.58,0 -51.12,56.27 -91.26,121.75 8.87,-22.35 18.94,-45.88 30.37,-69.99 0.9,-2.35 1.81,-4.71 1.81,-6.86 0,-18.43 -28.27,-39.8 -47.96,-39.8 -6.62,0 -12.34,2.94 -15.49,8.63 -45.86,85.08 -100.43,221.72 -107.49,324.64 0.44,17.25 22.55,64.89 40.14,64.89 5.26,0 10.07,-4.7 13.68,-15.48 2.55,-7.45 5.71,-16.67 9.62,-27.06 32.63,-82.14 96.51,-227.99 155.9,-298.77 2.26,-2.15 3.61,-3.33 4.81,-3.33 0.9,0 1.36,1.18 1.36,2.94 0,7.45 -6.62,26.27 -7.52,29.21 -13.08,40.78 -70.36,166.64 -70.36,238.39 0,13.72 2.1,25.88 7.06,34.5 7.83,14.9 25.11,28.62 37.74,36.66 1.35,0.59 2.71,1.18 4.51,1.18 32.62,0 127.64,-151.74 154.1,-198.79 0.45,-0.59 0.9,-1.76 0.9,-2.15 0,-6.47 -10.52,-15.1 -16.23,-15.1 -1.36,0 -2.26,0 -2.71,0.59 -24.2,37.44 -96.82,152.91 -115.01,152.91 -2.11,0 -3.91,-2.94 -3.91,-8.04 0,-4.11 0.91,-9.21 2.71,-16.66 15.78,-68.42 69.61,-156.25 69.61,-231.53 0,-10.97 -1.36,-22.34 -4.07,-32.73 -4.35,-17.26 -36.98,-50 -52.31,-50zm260.24 -157.42c-2.26,0 -3.92,1.18 -5.26,2.36 -19.85,23.52 -44.05,74.1 -44.05,110.76 0,22.54 8.72,39.8 31.71,43.72 13.23,-37.84 34.28,-62.54 55.48,-102.14 1.35,-2.35 1.8,-4.71 1.8,-7.45 0,-18.43 -26.46,-46.66 -39.68,-47.25zm-81.04 164.87c-4.36,0 -8.42,1.77 -10.52,6.28 -24.66,47.83 -99.53,217.8 -99.53,308.57 0,17.25 2.56,30.97 8.72,41.36 9.32,14.9 27.36,28.62 40.59,36.66 1.21,0.59 3.01,1.18 4.36,1.18 33.07,0 119.37,-151.74 142.68,-198.79 0.45,-0.59 0.45,-1.17 0.45,-2.15 0,-6.47 -10.97,-15.1 -17.14,-15.1 -1.36,0 -2.26,0 -2.71,0.59 -21.95,37.44 -87.64,154.48 -105.69,154.48 -2.55,0 -4.35,-2.75 -4.35,-9.61 0,-4.11 0.44,-8.62 1.35,-14.5 9.62,-60.78 41.79,-163.11 90.2,-250.35 1.35,-2.35 1.81,-5.1 1.81,-7.45 0,-20.78 -31.73,-51.17 -50.22,-51.17zm188.53 -7.45c-50.67,0 -150.19,175.85 -150.19,297.6 0,33.32 7.52,62.53 25.56,83.12 12.33,14.5 32.17,22.54 50.21,22.54 5.26,0 10.07,-0.59 14.43,-1.76 59.08,-16.08 142.37,-145.86 178.91,-207.41 0.45,-1.18 0.9,-2.16 0.9,-2.75 0,-1.17 -0.45,-1.76 -0.45,-2.35 -0.9,-2.35 -4.52,-3.53 -9.32,-3.53 -7.82,0 -18.04,2.94 -21.5,8.04 -25.56,35.68 -118.92,166.63 -158.61,166.63 -8.87,0 -15.03,-6.27 -17.14,-21.17 -0.45,-4.12 -0.9,-8.04 -0.9,-12.74 0,-71.16 75.32,-196.44 115.31,-256.23 7.97,-11.37 12.78,-16.47 15.93,-16.47 1.81,0 2.71,2.16 2.71,5.1 0,13.72 -13.68,49.99 -33.53,71.75 -1.35,1.77 -2.25,3.53 -2.25,5.69 0,1.76 0.9,3.53 1.81,5.29 9.61,12.55 21.49,22.94 33.52,22.94 2.11,0 4.81,-0.59 6.92,-1.18 16.38,-6.27 32.17,-40.19 32.17,-69.99 0,-12.74 -3.01,-24.7 -10.07,-33.32 -20.3,-24.7 -47.51,-59.8 -74.42,-59.8zm214.53 0c-50.66,0 -149.88,176.25 -149.88,298.18 0,33.33 7.51,61.95 25.1,82.54 12.33,14.5 32.63,22.54 50.66,22.54 5.42,0 10.23,-0.59 14.59,-1.76 58.63,-16.08 144.03,-145.86 180.55,-207.41 0.46,-1.18 0.91,-2.16 0.91,-2.75 0,-1.17 -0.45,-1.76 -0.45,-2.35 -0.9,-2.35 -4.81,-3.53 -9.62,-3.53 -7.52,0 -17.59,2.94 -21.2,8.04 -25.56,35.68 -119.82,166.63 -160.27,166.63 -8.86,0 -15.03,-6.27 -17.28,-21.17 -0.45,-4.12 -0.75,-8.04 -0.75,-12.74 0,-24.7 8.72,-55.68 22.4,-88.42 12.32,13.73 26.91,24.7 37.43,27.65 1.36,0.58 3,0.58 4.36,0.58 41.5,0 110.65,-124.68 110.65,-178.2 0,-2.74 -0.45,-5.68 -0.9,-8.62 -3.16,-15.49 -27.82,-41.37 -41.95,-54.5 -10.97,-11.96 -34.72,-24.71 -44.35,-24.71zm37.44 57.45c-12.33,61.55 -59.99,161.34 -96.07,165.45 29.47,-65.47 74.42,-134.48 96.07,-165.45zm389.38 383.06c51.12,0 136.51,-30.39 251.97,-215.84 0.9,-1.77 1.36,-2.94 1.36,-4.71 0,-5.68 -7.07,-11.37 -13.68,-11.37 -3.62,0 -6.62,0.98 -9.33,5.1 -62.09,87.83 -137.41,156.25 -217.99,159.58l-2.26 0c-34.72,0 -49.76,-30.39 -49.76,-77.44 0,-132.72 118.47,-395.81 233.03,-461.87 12.78,-7.45 22.09,-10.78 28.26,-10.78 7.37,0 10.97,5.09 10.97,13.13 0,43.13 -97.41,185.46 -147.63,215.45 -1.65,1.18 -3,3.33 -3,5.1 0,2.35 1.35,4.7 3,5.68 16.84,10.39 33.08,15.1 48.56,15.1 93.36,0 160.26,-163.7 160.26,-210.94 0,-3.92 -0.89,-6.86 -1.8,-9.02 -8.27,-17.25 -41.34,-43.72 -56.82,-55.87 -18.8,-14.9 -39.1,-23.53 -60.75,-23.53 -22.4,0 -46.15,9.22 -71.71,30.98 -113.21,94.88 -227.31,339.54 -227.31,481.87 0,6.47 0,12.15 0.45,17.84 4.81,59.79 69.16,130.95 124.18,131.54zm311.81 -433.06c-4.81,0 -8.42,1.77 -10.98,6.28 -24.65,47.83 -99.52,217.8 -99.52,308.57 0,17.25 2.55,31.56 8.72,41.36 9.32,14.9 27.81,28.62 40.59,36.66 0.9,0.59 1.66,0.59 2.55,0.59 17.14,0 64.8,-79.79 110.66,-164.87 -8.42,31.56 -13.69,61.56 -13.69,85.67 0,17.84 2.56,31.56 8.72,41.95 9.32,14.9 27.82,28.62 40.59,36.66 1.36,0.59 3.01,1.18 4.37,1.18 33.07,0 119.36,-151.74 142.67,-198.79 0.45,-0.59 0.45,-1.17 0.45,-2.15 0,-6.47 -10.97,-15.1 -17.14,-15.1 -1.36,0 -2.25,0 -2.71,0.59 -21.94,37.44 -87.64,154.48 -105.69,154.48 -2.55,0 -4.35,-2.75 -4.35,-10.19 0,-3.53 0.45,-8.04 1.35,-13.92 9.62,-60.78 41.79,-163.11 90.2,-250.35 1.35,-2.35 1.81,-4.51 1.81,-7.45 0,-20.78 -31.28,-51.17 -49.77,-51.17 -4.8,0 -8.72,1.77 -10.97,6.28 -1.36,2.35 -2.71,5.88 -4.36,9.21 -24.36,40.78 -154.25,307.98 -173.64,307.98 -1.66,0 -2.56,-1.76 -2.56,-5.88 0,-2.15 0.45,-5.1 0.9,-8.62 9.63,-60.78 41.8,-163.11 90.2,-250.35 1.36,-2.35 1.81,-4.51 1.81,-7.45 0,-20.19 -31.72,-51.17 -50.21,-51.17zm426.36 -36.66c-14.43,0 -88.55,114.89 -135.16,197.42 12.78,-35.48 27.67,-70.58 45.86,-102.14 1.2,-2.35 1.65,-4.51 1.65,-7.45 0,-20.19 -31.27,-51.17 -49.76,-51.17 -4.82,0 -8.72,1.77 -10.97,6.28 -44.51,85.08 -96.52,221.72 -101.78,324.64 0.89,17.25 25.1,65.48 42.24,65.48 4.96,0 9.77,-4.7 12.48,-16.07 21.04,-86.85 74.86,-195.85 128.99,-279.17 -10.08,34.51 -19.4,72.93 -19.4,105.08 0,31.56 8.88,56.26 33.98,63.71 1.65,0.59 3.01,0.59 4.81,0.59 27.66,0 84.05,-54.5 109.15,-82.14 1.8,-2.35 2.7,-3.92 2.7,-5.1 0,-4.11 -6.16,-5.88 -13.23,-5.88 -7.51,0 -15.78,1.77 -18.94,5.3 -13.23,14.31 -31.72,30.97 -43.6,30.97 -2.25,0 -3.91,0 -5.26,-1.18 -5.71,-3.33 -7.96,-9.21 -7.96,-16.07 0,-40.19 73.06,-127.43 73.06,-175.66 0,-2.35 -0.3,-5.29 -0.76,-7.44 -2.25,-9.22 -12.77,-24.31 -24.65,-36.27l0.3 -0.59c-9.17,-8.04 -18.04,-13.14 -23.75,-13.14zm158.15 29.21c-50.66,0 -149.88,176.25 -149.88,298.18 0,33.33 7.51,61.95 25.1,82.54 12.33,14.5 32.63,22.54 50.66,22.54 5.42,0 10.23,-0.59 14.59,-1.76 58.63,-16.08 144.03,-145.86 180.55,-207.41 0.46,-1.18 0.91,-2.16 0.91,-2.75 0,-1.17 -0.45,-1.76 -0.45,-2.35 -0.9,-2.35 -4.81,-3.53 -9.62,-3.53 -7.52,0 -17.59,2.94 -21.21,8.04 -25.55,35.68 -119.81,166.63 -160.26,166.63 -8.86,0 -15.03,-6.27 -17.28,-21.17 -0.46,-4.12 -0.75,-8.04 -0.75,-12.74 0,-24.7 8.71,-55.68 22.4,-88.42 12.32,13.73 26.91,24.7 37.43,27.65 1.35,0.58 3,0.58 4.36,0.58 41.5,0 110.65,-124.68 110.65,-178.2 0,-2.74 -0.45,-5.68 -0.9,-8.62 -3.16,-15.49 -27.82,-41.37 -41.95,-54.5 -10.97,-11.96 -34.72,-24.71 -44.35,-24.71zm37.44 57.45c-12.33,61.55 -59.99,161.34 -96.07,165.45 29.47,-65.47 74.42,-134.48 96.07,-165.45zm247.61 -57.45c-11.57,0 -51.11,56.27 -91.26,121.75 8.87,-22.35 18.94,-45.88 30.37,-69.99 0.9,-2.35 1.81,-4.71 1.81,-6.86 0,-18.43 -28.27,-39.8 -47.96,-39.8 -6.62,0 -12.33,2.94 -15.48,8.63 -45.86,85.08 -100.43,221.72 -107.5,324.64 0.45,17.25 22.55,64.89 40.14,64.89 5.26,0 10.07,-4.7 13.68,-15.48 2.56,-7.45 5.72,-16.67 9.63,-27.06 32.62,-82.14 96.51,-227.99 155.9,-298.77 2.25,-2.15 3.61,-3.33 4.8,-3.33 0.91,0 1.36,1.18 1.36,2.94 0,7.45 -6.62,26.27 -7.51,29.21 -13.09,40.78 -70.37,166.64 -70.37,238.39 0,13.72 2.11,25.88 7.07,34.5 7.82,14.9 25.1,28.62 37.74,36.66 1.35,0.59 2.7,1.18 4.5,1.18 32.63,0 127.64,-151.74 154.1,-198.79 0.45,-0.59 0.91,-1.76 0.91,-2.15 0,-6.47 -10.53,-15.1 -16.24,-15.1 -1.36,0 -2.25,0 -2.71,0.59 -24.2,37.44 -96.81,152.91 -115,152.91 -2.11,0 -3.92,-2.94 -3.92,-8.04 0,-4.11 0.91,-9.21 2.71,-16.66 15.78,-68.42 69.61,-156.25 69.61,-231.53 0,-10.97 -1.36,-22.34 -4.06,-32.73 -4.36,-17.26 -36.98,-50 -52.32,-50zm53.67 -90.17c-14.13,0 -30.82,5.09 -47.5,12.15 -15.94,6.86 -32.63,11.37 -47.21,11.37 -14.14,0 -26.46,-4.51 -35.63,-16.07 0,-0.59 -0.45,-0.59 -1.36,-0.59 -2.7,0 -6.61,11.56 -6.61,24.7 0,14.31 4.36,31.56 18.94,38.03 4.81,2.16 10.98,3.33 17.14,3.33 17.59,0 39.69,-7.45 60.89,-16.07 14.88,-5.69 30.81,-10.39 44.8,-10.39 12.78,0 23.91,4.11 31.72,14.5 0.45,1.18 1.36,1.57 1.8,1.57 1.36,0 2.26,-1.57 2.26,-6.86l0 -2.74c0,-40.19 -16.38,-52.93 -39.24,-52.93zm207.01 91.94c-90.79,0.59 -187.17,179.18 -187.17,297.98 0,58.62 23.76,102.92 83.59,102.92 34.44,0 74.57,-49.4 106.29,-113.11 28.12,-7.45 62.1,-39.8 94.57,-99.39 0.45,-0.59 0.45,-0.59 0.45,-1.18 0,-0.59 0,-1.18 -0.45,-1.77 -0.45,-1.17 -3.46,-1.76 -7.37,-1.76 -6.62,0 -14.58,1.76 -17.74,6.47 -20.59,32.74 -39.09,53.32 -54.12,63.71 22.1,-54.1 36.99,-112.13 36.99,-157.42 0,-29.8 -6.62,-53.91 -21.96,-67.24 2.11,-2.16 6.17,-8.04 7.07,-9.8 0.3,-0.98 0.75,-2.16 0.75,-3.34 0,-5.68 -8.26,-8.62 -17.59,-12.15 -7.52,-2.74 -15.33,-3.92 -23.31,-3.92zm25.11 69.99c4.82,0 7.07,5.88 7.07,16.07 0,31.56 -20.75,104.69 -47.21,166.64 -6.16,-8.63 -8.72,-24.12 -8.72,-42.54 0,-53.33 21.95,-130.96 47.06,-140.17l1.8 0zm-70.5 44.89c-7.97,26.86 -11.88,56.26 -11.88,83.32 0,38.42 8.42,72.34 28.26,84.88 -20.3,41.37 -42.39,72.34 -60.43,72.34 -4.37,0 -8.27,-1.57 -12.34,-5.68 -5.7,-5.69 -7.96,-17.25 -7.96,-32.74 0,-48.23 25.1,-135.47 64.35,-202.12zm264.74 322.68c58.94,-10.19 134.25,-29.79 207.48,-37.83 10.06,-1.18 36.53,-3.53 67.34,-3.53 47.51,0 105.24,5.88 125.09,29.41 0.9,1.17 1.65,1.17 2.55,1.17 1.81,0 3.61,-1.76 4.07,-4.12l0.44 -8.03c0,-37.25 -13.23,-99.98 -41.94,-105.08 -7.07,-1.18 -14.88,-1.77 -23.76,-1.77 -52.77,0 -137.41,17.84 -214.53,34.51 59.09,-37.84 123.88,-94.3 183.27,-156.25l48.85 1.18c3.16,0 47.21,-1.18 48.56,-53.91 0,-1.77 -1.35,-2.94 -2.25,-2.94 -0.45,0 -0.9,0 -1.35,0.59 -4.82,5.09 -25.11,7.44 -51.57,9.21 89.45,-102.92 156.81,-212.51 156.81,-279.75 0,-20.19 -6.17,-36.86 -19.7,-47.64 -30.52,-24.7 -70.51,-35.68 -113.2,-35.68 -121.63,0 -264.31,87.83 -264.31,189.57l0.91 11.96c3.46,35.09 51.87,62.15 77.42,76.46l1.8 0.59c1.81,0 2.71,-1.18 2.71,-2.95 0,-0.58 0,-1.56 -0.44,-2.15 -4.52,-8.63 -6.62,-18.43 -6.62,-28.82 0,-78.61 130.8,-185.46 251.52,-185.46 8.27,0 17.14,0.59 25.41,1.77 -12.34,53.32 -108.25,184.28 -214.39,303.28l-75.77 -1.18c-4.82,0 -47.21,1.57 -48.41,53.32 0,2.35 1.2,3.53 2.56,3.53l1.35 -0.59c5.71,-6.86 39.68,-9.8 79.22,-10.39 -90.65,96.46 -181.91,176.24 -227.61,184.87l-3.61 0c-10.52,0 -18.49,-2.16 -24.2,-9.61l-1.36 -0.58 -1.35 0.58c-0.45,0 -0.75,0.59 -0.75,0.98l0 0.59c2.56,26.47 21.05,74.69 46.15,74.69l3.61 0zm612.64 -439.33c-70.05,0 -170.49,226.83 -170.49,331.9 0,19.02 3.62,33.92 10.68,43.13 5.71,8.04 41.79,25.88 55.48,25.88 12.77,0 78.32,-102.14 107.94,-160.75 -4.96,16.66 -12.33,50.97 -12.33,81.55 0,16.66 2.55,31.56 8.72,41.95 9.32,14.9 27.36,28.62 40.59,36.66 1.2,0.59 3.01,1.18 4.36,1.18 32.63,0 117.57,-151.74 140.57,-198.79 0.3,-0.59 0.3,-1.76 0.3,-2.15 0,-6.47 -10.97,-15.1 -16.69,-15.1 -1.35,0 -2.1,0 -2.55,0.59 -22.55,38.03 -87.65,161.54 -104.49,161.54 -2.56,0 -3.91,-2.94 -3.91,-9.22 0,-3.53 0.45,-8.62 1.35,-14.5 9.63,-60.78 41.8,-170.56 90.21,-257.8 1.35,-2.35 1.8,-4.51 1.8,-7.45 0,-20.78 -31.27,-51.17 -49.76,-51.17 -4.81,0 -8.87,1.77 -10.97,6.28 -10.68,20.19 -22.11,45.48 -33.98,72.93 -9.62,-45.29 -42.7,-86.66 -56.83,-86.66zm8.87 66.07c13.68,0 24.66,35.09 28.12,52.34 -4.82,8.63 -104.79,178.6 -123.29,178.6 -2.25,0 -3.15,-1.77 -3.15,-5.3 0,-3.33 0.45,-7.44 1.8,-12.54 20.29,-89 52.02,-157.42 85.85,-205.65 3.6,-5.1 7.06,-7.45 10.67,-7.45zm353.15 -66.07c-11.88,0 -52.77,58.62 -93.81,125.86 8.86,-21.36 18.49,-43.71 29.91,-65.47 1.35,-2.36 1.8,-4.71 1.8,-7.45 0,-20.2 -29.91,-46.66 -48.85,-46.66 -5.26,0 -10.08,2.35 -12.79,7.45 -46.3,85.08 -100.87,221.72 -107.93,324.64 0.44,17.25 22.99,64.89 40.13,64.89 5.26,0 10.07,-4.7 13.68,-15.48 3.46,-9.22 7.37,-20.79 12.78,-33.92 32.03,-81.55 95.02,-220.55 154.55,-291.91 2.25,-2.15 3.46,-3.33 4.36,-3.33 0.91,0 1.35,1.18 1.35,2.94 0,7.45 -6.16,26.27 -7.06,29.21 -30.37,94.1 -64.79,148.21 -71.71,247.6 0.45,17.25 22.85,65.48 40.44,65.48 5.26,0 10.22,-4.7 14.13,-16.07 3.01,-9.81 7.52,-21.37 12.78,-35.1l3.01 -10.39c32.62,-82.14 84.19,-209.56 143.57,-280.34 2.26,-2.15 3.61,-3.33 4.51,-3.33 0.9,0 1.35,1.18 1.35,2.94 0,7.45 -6.31,26.27 -7.51,29.21 -12.79,40.78 -70.06,167.23 -70.06,238.98 0,13.72 1.81,25.29 6.61,33.91 7.97,14.9 25.56,28.62 37.89,36.66 1.36,0.59 3,1.18 4.36,1.18 33.08,0 127.79,-151.74 154.55,-198.79 0.45,-0.59 0.45,-1.76 0.45,-2.15 0,-6.47 -10.07,-15.1 -16.24,-15.1 -0.9,0 -1.8,0 -2.71,0.59 -24.2,37.44 -96.81,152.91 -114.85,152.91 -2.26,0 -4.06,-2.94 -4.06,-8.04 0,-4.11 0.9,-9.21 2.7,-16.66 15.79,-68.42 70.06,-156.83 70.06,-232.11 0,-10.98 -1.35,-21.76 -4.05,-32.15 -4.37,-17.26 -37.44,-50 -52.33,-50 -11.42,0 -49.76,54.5 -89.45,119 2.71,-15.09 3.91,-28.82 3.91,-41.36 0,-9.8 -0.75,-19.02 -3,-27.64 -4.36,-17.26 -37.44,-50 -52.47,-50zm505.14 403.85c5.26,0 9.77,-4.7 12.33,-16.07 20.75,-87.44 74.42,-195.26 128.69,-278.58 -10.22,34.31 -19.39,73.52 -19.39,105.08 0,32.74 9.61,59.79 38.33,63.71 27.21,0 84.05,-53.91 109.15,-81.55 1.81,-2.35 2.7,-3.92 2.7,-5.1 0,-4.7 -6.16,-6.47 -13.23,-6.47 -7.51,0 -15.78,2.35 -18.94,5.3 -13.23,14.31 -31.72,31.56 -44.05,31.56 -8.42,0 -12.77,-9.22 -12.77,-17.25 0,-39.6 72.76,-126.84 72.76,-174.68 -1.8,-15.48 -5.42,-24.7 -25.11,-44.69l0.3 -0.59c-9.16,-7.45 -18.04,-13.14 -23.75,-13.14 -13.98,0 -88.55,114.88 -134.7,197.42 13.68,-37.84 32.17,-83.12 32.17,-124.49 0,-35.09 -13.23,-66.65 -54.73,-88.61 -17.14,-9.61 -37.88,-13.14 -58.93,-13.14 -48.11,0 -100.88,19.02 -133.5,39.02 -13.68,8.03 -23.76,20.78 -23.76,46.07 0,10.19 1.81,22.35 5.26,37.24 -7.51,-6.86 -15.78,-11.95 -24.2,-11.95 -36.53,0 -101.78,152.71 -101.78,252.69 0,59.6 25.11,97.04 81.48,97.04 66.9,0 163.88,-175.84 163.88,-288.37 0,-49.41 -17.14,-87.24 -58.19,-95.28 34.88,-29.41 65.7,-42.54 89.01,-42.54 27.81,0 44.95,19.02 44.95,55.09 0,20.78 -5.71,46.66 -18.04,77.63 -29.47,74.1 -55.03,158.99 -58.64,229.17 0.91,17.25 25.56,65.48 42.7,65.48zm-204.31 -44.3c-7.52,0 -11.88,-6.87 -11.88,-24.12 0,-5.09 0.45,-12.15 1.36,-19.6 8.72,-61.36 62.99,-175.66 73.51,-196.83 1.35,-2.35 1.8,-5.29 1.8,-8.62 0,-7.65 -2.7,-16.67 -7.06,-25.88 12.78,-9.8 26.46,-15.49 38.34,-15.49 19.39,0 34.28,14.9 34.28,47.64 0,77.44 -94.72,242.31 -130.35,242.9z"/>
   <path class="fil1" d="M5846.13 1148.91c-70.06,0 -170.49,226.83 -170.49,331.9 0,19.02 3.62,33.92 10.68,43.13 5.71,8.04 41.79,25.88 55.48,25.88 12.77,0 78.32,-102.14 107.94,-160.75 -4.96,16.66 -12.33,50.97 -12.33,81.55 0,16.66 2.55,31.56 8.72,41.95 9.32,14.9 27.36,28.62 40.59,36.66 1.2,0.59 3.01,1.18 4.36,1.18 32.63,0 117.57,-151.74 140.57,-198.79 0.3,-0.59 0.3,-1.76 0.3,-2.15 0,-6.47 -10.97,-15.1 -16.69,-15.1 -1.35,0 -2.11,0 -2.55,0.59 -22.55,38.03 -87.65,161.54 -104.49,161.54 -2.56,0 -3.91,-2.94 -3.91,-9.22 0,-3.53 0.45,-8.62 1.35,-14.5 9.63,-60.78 41.8,-170.56 90.21,-257.8 1.35,-2.35 1.8,-4.51 1.8,-7.45 0,-20.78 -31.27,-51.17 -49.76,-51.17 -4.81,0 -8.87,1.77 -10.98,6.28 -10.67,20.19 -22.1,45.48 -33.97,72.93 -9.62,-45.29 -42.7,-86.66 -56.83,-86.66zm8.87 66.07c13.68,0 24.66,35.09 28.12,52.34 -4.82,8.63 -104.79,178.6 -123.29,178.6 -2.25,0 -3.15,-1.77 -3.15,-5.3 0,-3.33 0.45,-7.44 1.8,-12.54 20.29,-89 52.02,-157.42 85.85,-205.65 3.6,-5.1 7.06,-7.45 10.67,-7.45z"/>
  </g>
 </g>
</svg>
