<?xml version="1.0" encoding="UTF-8"?>
<!DOCTYPE svg PUBLIC "-//W3C//DTD SVG 1.1//EN" "http://www.w3.org/Graphics/SVG/1.1/DTD/svg11.dtd">
<!-- Creator: CorelDRAW -->
<svg xmlns="http://www.w3.org/2000/svg" xml:space="preserve" width="84.791mm" height="9.892mm" version="1.1" style="shape-rendering:geometricPrecision; text-rendering:geometricPrecision; image-rendering:optimizeQuality; fill-rule:evenodd; clip-rule:evenodd"
viewBox="0 0 8479.1 989.2"
 xmlns:xlink="http://www.w3.org/1999/xlink"
 xmlns:xodm="http://www.corel.com/coreldraw/odm/2003">
 <defs>
  <style type="text/css">
   <![CDATA[
    .fil0 {fill:#FFF212;fill-rule:nonzero}
   ]]>
  </style>
 </defs>
 <g id="Capa_x0020_1">
  <metadata id="CorelCorpID_0Corel-Layer"/>
  <g id="_2040480448336">
   <path class="fil0" d="M281.32 469.83l-15.91 71.39c-2.72,11.42 -2.72,28.74 0,51.96 2.89,23.42 4.88,39.6 5.96,48.93 2.72,19.99 6.69,34.64 11.58,43.97 3.98,8.19 8.14,13.9 12.67,16.75 2.89,1.91 6.87,3.43 11.75,4.57 4.89,0.95 7.42,3.62 7.42,7.81 -2.17,9.89 -10.49,13.51 -24.96,10.47l-6.88 -1.53c-15.56,-1.14 -28.03,-8.75 -37.62,-23.03 -5.97,-4.76 -9.95,-11.04 -11.94,-18.66 -1.99,-7.61 -4.88,-13.51 -8.68,-17.51 -17.38,27.03 -34.01,54.82 -49.93,83.38 -15.92,28.36 -44.14,39.59 -84.66,33.69l-4.34 -1.71c-12.3,-0.95 -24.97,-5.52 -38.17,-13.52 -13.03,-7.99 -22.43,-15.61 -28.04,-22.65 -15.56,-14.47 -21.89,-39.4 -19,-74.81 2,-20.37 4.53,-35.22 7.42,-44.36 2.71,-8.94 9.95,-19.79 21.71,-31.98 13.39,-15.22 33.11,-27.41 59.33,-36.16 13.39,-4.19 24.25,-8.57 32.38,-13.14 7.96,-4.76 18.46,-9.9 31.11,-15.99 9.59,-5.14 19,-11.23 28.23,-18.27 9.04,-7.24 16.09,-17.71 21.16,-31.79 7.78,-19.42 10.13,-31.98 6.88,-38.08 -5.61,-6.28 -15.2,-13.89 -28.59,-22.84 -10.67,-5.14 -22.06,-11.04 -34.19,-17.89 -12.29,-6.67 -24.96,-10.85 -38.52,-12.76l-2.54 -1.71c-18.45,-1.71 -34.01,5.9 -46.67,22.84 -12.3,19.42 -15.01,30.65 -7.78,33.51 7.24,3.04 10.49,9.13 9.41,18.46 -1.08,5.14 -5.97,9.9 -14.29,13.9 -6.87,-4 -13.02,-8.19 -18.82,-12.19 -5.97,-4.18 -7.95,-12.37 -6.15,-24.55 1.09,-11.23 6.88,-22.84 17.55,-35.22 10.5,-12.18 19.72,-20.75 27.5,-25.7 11.57,-6.28 21.16,-12.94 28.4,-19.98 7.23,-7.05 20.8,-9.14 41.06,-6.1l5.79 0c13.39,3.24 28.4,9.71 44.68,19.23 16.46,9.52 30.57,17.32 42.15,23.6 5.79,4.19 14.11,7.43 25.32,9.9 11.04,2.29 18.09,5.52 20.81,9.71 7.77,14.47 10.31,31.22 7.41,50.26l0 7.8zm-75.25 128.11c1.81,-18.46 -2.89,-28.74 -14.29,-30.64l-4.7 0c-16.28,-2.1 -28.04,8.94 -35.28,33.5 -7.23,24.56 -13.74,36.17 -19.36,35.22l-1.62 0c-4.89,0 -7.77,-3.43 -8.69,-10.09 -0.9,-6.67 -2.71,-10.47 -5.6,-11.23l-3.07 0c-26.24,-3.24 -40.7,7.8 -43.6,33.5 0,1.9 0.36,3.81 0.9,5.9 0.54,2.09 0.72,3.62 0.72,4.76 5.61,9.9 9.23,15.99 10.86,18.08 1.63,2.1 6.69,6.67 15.2,13.71 6.69,5.9 11.39,10.47 14.28,13.9 3.08,1.9 5.43,4.37 6.88,7.42 1.45,3.24 3.43,5.14 6.33,5.9 13.39,-19.99 26.77,-37.69 40.34,-52.92 5.97,-6.28 13.57,-15.04 22.8,-26.27 9.04,-11.04 14.64,-21.7 16.46,-31.79l1.44 -8.95zm151.59 -224.05c3.98,-1.9 8.5,-5.52 13.93,-10.66 5.25,-5.14 10.85,-7.8 16.82,-7.8l1.64 0c18.08,0 37.26,3.8 57.52,11.42 20.26,7.61 40.52,11.04 60.59,10.28l27.69 -1.72c3.07,0 4.7,0.76 4.7,2.29 0,1.52 -1.63,2.28 -4.7,2.28 -14.48,0 -22.08,4.57 -22.8,13.9 -1.08,5.9 -2.89,14.08 -5.25,24.36 -2.52,10.09 -4.16,17.71 -4.88,22.47 -2.17,9.32 -3.61,18.27 -4.52,26.84 -0.91,8.56 -1.27,17.51 -1.27,26.65 0,7.23 -0.72,16.56 -2.35,28.17 -1.63,11.8 -2.35,20.56 -2.35,26.65 -1.81,9.14 -2.53,19.23 -1.99,29.7 0.54,10.66 0.9,19.41 0.9,26.46l-13.2 128.3c-1.09,8.95 3.26,15.99 12.84,20.94 9.77,5.14 17.37,9.33 23.16,12.56 4.88,3.05 12.66,5.9 23.33,8.95 10.49,3.05 19.72,4.38 27.5,4.38l10.13 0c10.49,0 18.27,-1.33 23.15,-4.38 4.71,-3.05 7.24,-6.85 7.78,-11.42 0.55,-4.57 5.25,-6.47 14.12,-5.33 2.7,1.14 1.08,6.47 -5.43,16.18 -6.34,9.71 -9.41,14.47 -9.41,14.47 -4.7,4.18 -10.13,6.28 -16.47,6.66 -6.33,0.38 -12.47,1.14 -18.08,2.28 -11.58,1.91 -23.34,5.9 -34.91,12.38 -5.61,2.85 -17.74,4.38 -36,4.38 -3.98,-3.05 -14.29,-5.53 -31.12,-7.62 -16.82,-1.9 -28.94,-4.57 -36.72,-7.42 -5.07,-1.15 -11.39,-2.48 -19.18,-4 -7.77,-1.33 -13.02,-2.67 -15.91,-3.81 -9.41,-4.19 -20.99,-6.09 -34.38,-6.09 -2.16,0 -3.25,-0.76 -3.25,-2.28 0,-1.53 1.45,-2.86 4.35,-4 3.07,-0.95 6.33,-1.52 9.76,-1.52 3.26,0 6.88,-1.53 10.86,-4.57 0.72,-0.76 2.35,-2.48 4.7,-4.95 2.53,-2.67 5.25,-5.52 7.96,-8.38 6.7,-7.04 10.13,-19.41 10.13,-36.74 0,-3.04 0.54,-4.57 1.63,-4.57 0,0 0.36,-0.38 1.26,-1.33 0.91,-0.95 1.81,-2.09 2.89,-3.04 2.18,-4.19 2.9,-10.09 2.36,-17.71 -0.54,-7.61 0.18,-14.27 1.99,-20.37 0.9,-7.42 1.99,-15.03 3.07,-23.03 1.09,-8 2.53,-15.61 4.35,-22.65 2.71,-13.33 5.6,-27.03 8.67,-41.31 3.08,-14.09 4.53,-30.84 4.53,-50.07 0,-12.37 -0.36,-29.31 -0.91,-51.01 -0.36,-21.89 -2.16,-38.26 -4.88,-49.5 -2.17,-7.42 -3.44,-15.41 -3.8,-23.98 -0.36,-8.57 -1.08,-16.37 -2.17,-23.42 -1.98,-9.13 -5.06,-14.84 -8.86,-16.75 -7.42,-5.14 -13.2,-7.8 -17,-7.8l-4.89 0c-3.44,0 -8.14,1.14 -14.29,3.42 -12.3,4.76 -19.54,7.24 -21.71,7.24 -2.71,0 -4.16,0 -4.16,0 0,-3.05 0.9,-4.38 2.53,-4.38zm761.58 -106.6c0,16.37 -3.44,33.69 -10.13,51.97 -2.72,8.75 -5.98,16.37 -9.41,22.46 -3.62,6.09 -4.88,15.42 -3.8,27.6 1.09,24.18 1.99,49.5 2.89,75.96 0.91,26.26 3.26,53.3 7.24,80.71 0,6.47 -1.98,11.8 -5.78,16.18 -3.99,4.57 -5.97,7.8 -5.97,10.09 7.05,0 21.88,-4 44.49,-12.19 22.62,-8.18 37.27,-13.89 44.14,-16.75 17.19,-7.04 29.85,-13.89 37.63,-20.75 7.77,-6.66 16.82,-18.08 27.49,-34.45 7.79,-11.99 15.38,-23.8 22.98,-35.41 7.59,-11.8 14.47,-25.32 20.44,-40.55 2.89,-6.28 5.07,-13.89 6.33,-23.03 1.44,-9.14 3.62,-17.7 6.33,-25.51 1.09,-9.13 3.62,-17.13 7.42,-23.98 3.98,-6.67 5.97,-14.47 5.97,-23.42 0,-6.28 -4.34,-13.13 -13.03,-20.56 -8.68,-7.42 -15.01,-13.13 -18.81,-17.32 -7.78,-5.14 -13.75,-9.52 -18.09,-13.13 -4.16,-3.43 -10.67,-6.67 -19.54,-9.71 -9.59,-2.29 -19.35,-3.43 -29.12,-3.43 -8.5,1.14 -17.55,1.52 -27.31,0.95 -9.77,-0.57 -18.82,-0.95 -27.32,-0.95 -3.8,0 -7.06,0.76 -9.58,2.29 -2.36,1.52 -5.07,2.28 -7.97,2.28 -16.46,4 -25.68,14.28 -27.49,30.65zm-215.63 -166.19c0,5.14 6.69,13.71 20.08,25.32 13.38,11.8 22.61,18.66 27.49,20.37 11.76,8.19 22.26,12.95 31.84,13.9 7.78,1.14 20.26,3.61 37.63,7.04 17.36,3.62 29.85,6.28 37.62,8.19 18.46,6.28 36.19,11.99 53.55,16.94 17.37,4.95 37.08,5.52 59.34,1.33 17.36,-2.09 30.39,-4.19 39.25,-6.09 8.86,0 22.79,0.57 41.79,1.71 32.92,1.91 58.07,6.85 75.25,15.04 9.59,5.14 19.17,10.66 28.94,16.18 9.77,5.52 19.9,10.85 30.57,15.61 35.64,19.23 52.28,32.74 49.75,40.36 -2.54,7.61 -5.43,19.03 -9.05,34.45 -5.96,18.09 -10.67,33.32 -14.11,45.69 -3.26,12.18 -10.85,26.84 -22.42,43.97 -5.61,9.33 -11.77,16.75 -18.64,22.27 -6.69,5.71 -13.03,12.95 -18.99,21.9 -5.61,8.18 -10.86,16.94 -15.74,26.65 -4.71,9.7 -9.59,18.65 -14.47,26.84 -10.68,15.23 -25.87,27.98 -45.59,38.26 -19.72,10.09 -39.8,17.32 -59.88,21.32 -5.96,1.9 -11.75,3.24 -17,4.19 -5.24,0.95 -10.67,2.09 -16.46,3.04 -5.97,2.29 -11.4,4.38 -16.1,6.47 -4.71,2.1 -9.59,3.43 -14.66,4.19 -2.7,1.14 -5.6,1.72 -8.31,1.72 -2.9,0 -5.79,0.57 -8.51,1.71 -3.26,0.76 -5.96,1.33 -8.32,1.9 -2.17,0.57 -4.88,1.34 -7.59,2.48 -5.07,1.9 -10.31,3.61 -16.28,5.33 -5.8,1.71 -11.04,2.85 -15.56,3.61 0,14.47 0.91,29.13 2.71,43.79 1.63,14.66 2.54,28.17 2.54,40.35 0,3.81 0.36,11.04 0.9,21.9 0.54,10.66 1.26,17.51 2.35,20.55 0,5.91 0,13.33 0,22.09 0,8.75 0,15.99 0,21.89 0,18.27 0,30.84 0,37.5 0,6.66 2.72,18.46 8.5,35.6 1.99,17.51 9.41,28.36 21.71,32.36 6.7,3.04 22.61,5.71 47.76,8.18 24.96,2.29 37.98,6.09 39.07,11.42 0,4 -13.39,7.05 -40.53,9.14 -26.95,2.09 -43.4,3.62 -49.01,4.76 -24.96,5.9 -50.65,14.47 -76.89,25.7 -8.31,4 -18.08,10.66 -29.11,19.99 -13.39,8.94 -25.15,14.65 -35.28,17.32 -9.95,2.66 -22.25,6.85 -36.73,12.75 -3.98,0 -10.67,2.86 -20.44,8.38 -9.77,5.71 -14.47,5.52 -14.47,-0.57 0,-9.9 5.43,-19.42 16.65,-28.18 11.03,-8.56 20.62,-14.46 28.39,-17.51 3.8,-2.85 12.49,-8.95 25.87,-18.08 13.39,-9.14 21.17,-14.28 23.34,-15.42 2.9,-2.86 3.8,-7.24 2.9,-12.76 -0.92,-5.52 -1.28,-11.61 -1.28,-17.89 0,-0.76 1.46,-8.19 4.17,-22.46 2.89,-14.47 4.34,-23.61 4.34,-27.6 1.62,-11.24 4.52,-28.94 8.5,-53.11 0.91,-9.33 1.81,-18.47 2.35,-27.61 0.54,-9.13 1.63,-18.27 3.44,-27.6 1.08,-5.9 2.17,-15.42 3.62,-28.74 1.45,-13.14 2.17,-23.23 2.17,-30.27l-14.29 -233.19 5.78 -73.1 0 -50.06c0,-16.38 -3.07,-31.6 -9.03,-45.88 -3.44,-9.14 -7.07,-15.42 -10.5,-18.28 -3.62,-3.04 -7.06,-7.99 -10.68,-15.03 -5.96,-6.48 -15.55,-15.23 -28.57,-26.85 -13.03,-11.61 -24.97,-17.32 -35.46,-17.32l-24.42 2.86c-5.06,1.14 -9.77,-7.05 -14.65,-24.37 -4.71,-17.13 -7.06,-29.31 -7.06,-36.55 0,-9.9 2.17,-22.08 6.52,-36.36 4.52,-14.46 8.49,-26.27 11.93,-35.4 3.26,-7.24 8.69,-15.61 16.28,-25.13 7.6,-9.71 16.29,-14.85 26.24,-15.61 7.77,-4.19 11.57,-4.76 11.57,-1.71 -2.17,5.9 -7.96,9.7 -17.73,11.42 -9.77,1.71 -16.28,10.47 -19.9,26.46 -2.17,5.14 -3.61,10.66 -4.51,16.18 -0.92,5.52 -1.82,10.47 -2.9,14.47 -1.08,3.04 -3.26,7.8 -6.69,14.46 -3.26,6.86 -4.89,10.47 -4.89,11.23zm810.77 368.73l-15.91 71.39c-2.72,11.42 -2.72,28.74 0,51.96 2.89,23.42 4.88,39.6 5.96,48.93 2.72,19.99 6.69,34.64 11.58,43.97 3.98,8.19 8.14,13.9 12.66,16.75 2.9,1.91 6.88,3.43 11.76,4.57 4.88,0.95 7.42,3.62 7.42,7.81 -2.17,9.89 -10.49,13.51 -24.96,10.47l-6.88 -1.53c-15.56,-1.14 -28.04,-8.75 -37.62,-23.03 -5.97,-4.76 -9.95,-11.04 -11.94,-18.66 -2,-7.61 -4.88,-13.51 -8.69,-17.51 -17.37,27.03 -34.01,54.82 -49.92,83.38 -15.92,28.36 -44.14,39.59 -84.66,33.69l-4.35 -1.71c-12.29,-0.95 -24.96,-5.52 -38.16,-13.52 -13.03,-7.99 -22.44,-15.61 -28.04,-22.65 -15.56,-14.47 -21.89,-39.4 -19,-74.81 2,-20.37 4.53,-35.22 7.42,-44.36 2.71,-8.94 9.95,-19.79 21.71,-31.98 13.39,-15.22 33.11,-27.41 59.33,-36.16 13.39,-4.19 24.25,-8.57 32.38,-13.14 7.96,-4.76 18.45,-9.9 31.11,-15.99 9.59,-5.14 19,-11.23 28.22,-18.27 9.05,-7.24 16.1,-17.71 21.17,-31.79 7.78,-19.42 10.13,-31.98 6.88,-38.08 -5.61,-6.28 -15.2,-13.89 -28.59,-22.84 -10.67,-5.14 -22.06,-11.04 -34.19,-17.89 -12.29,-6.67 -24.96,-10.85 -38.52,-12.76l-2.54 -1.71c-18.45,-1.71 -34.01,5.9 -46.67,22.84 -12.3,19.42 -15.01,30.65 -7.78,33.51 7.24,3.04 10.49,9.13 9.41,18.46 -1.09,5.14 -5.97,9.9 -14.29,13.9 -6.88,-4 -13.02,-8.19 -18.82,-12.19 -5.97,-4.18 -7.95,-12.37 -6.15,-24.55 1.08,-11.23 6.88,-22.84 17.55,-35.22 10.49,-12.18 19.72,-20.75 27.49,-25.7 11.58,-6.28 21.17,-12.94 28.41,-19.98 7.23,-7.05 20.8,-9.14 41.06,-6.1l5.79 0c13.39,3.24 28.4,9.71 44.68,19.23 16.46,9.52 30.57,17.32 42.14,23.6 5.8,4.19 14.12,7.43 25.33,9.9 11.04,2.29 18.09,5.52 20.81,9.71 7.77,14.47 10.31,31.22 7.41,50.26l0 7.8zm-75.25 128.11c1.81,-18.46 -2.89,-28.74 -14.29,-30.64l-4.71 0c-16.27,-2.1 -28.03,8.94 -35.27,33.5 -7.23,24.56 -13.74,36.17 -19.36,35.22l-1.62 0c-4.89,0 -7.78,-3.43 -8.69,-10.09 -0.9,-6.67 -2.71,-10.47 -5.6,-11.23l-3.07 0c-26.24,-3.24 -40.7,7.8 -43.6,33.5 0,1.9 0.36,3.81 0.9,5.9 0.54,2.09 0.72,3.62 0.72,4.76 5.61,9.9 9.23,15.99 10.86,18.08 1.63,2.1 6.69,6.67 15.2,13.71 6.69,5.9 11.39,10.47 14.28,13.9 3.08,1.9 5.43,4.37 6.88,7.42 1.45,3.24 3.43,5.14 6.33,5.9 13.39,-19.99 26.77,-37.69 40.34,-52.92 5.97,-6.28 13.57,-15.04 22.8,-26.27 9.03,-11.04 14.64,-21.7 16.46,-31.79l1.44 -8.95zm320.19 -316.76c-2.9,1.91 -5.97,3.81 -9.23,5.91 -3.44,2.09 -6.51,3.61 -9.23,4.75 -3.25,3.05 -6.69,5.14 -10.49,6.67 -3.62,1.52 -7.05,2.85 -10.31,4 -6.69,3.99 -12.12,10.85 -16.46,20.55 -4.16,9.71 -7.78,14.47 -10.49,14.47 -7.78,0 -11.76,-1.14 -11.76,-3.23 0,-5.33 0.55,-11.05 1.45,-17.71 0.9,-6.47 1.81,-12.75 2.89,-18.65 0,-6.29 1.27,-10.85 3.62,-13.9 2.53,-3.05 5.25,-7.04 7.96,-12.18 2.89,-6.09 7.23,-15.23 13.02,-27.41 5.79,-12.38 13.03,-18.47 21.53,-18.47 3.8,0 8.14,1.33 13.02,4 4.71,2.47 9.59,4.38 14.48,5.52 14.47,3.04 21.7,6.85 21.7,11.8 0,14.47 -7.23,25.7 -21.7,33.88zm-156.3 107.75c4.89,-3.05 11.22,-4.57 19,-4.57 7.77,0 15.92,0 24.41,0 10.68,0 18.46,-0.57 23.34,-1.52 6.69,0 10.85,-0.57 12.13,-1.53 1.44,-0.95 4.15,-1.33 7.95,-1.33 5.07,0 11.21,-1.52 18.82,-4.57 7.59,-2.85 13.93,-5.52 18.81,-7.8 2.17,0 8.68,-1.33 19.72,-4.38 10.85,-3.05 16.28,-1.52 16.28,4.38 0,5.33 -7.42,8.56 -22.26,10.09 -14.83,1.52 -23.15,7.8 -25.32,19.03 -1.81,11.04 -2.53,23.8 -2.17,38.08 0.36,14.46 0.54,27.22 0.54,38.26 0,10.09 0.36,23.79 0.73,40.93 0.54,17.32 0.36,30.07 -0.73,38.26 -0.72,5.9 -1.26,11.99 -1.8,18.08 -0.55,6.28 -0.91,11.61 -0.91,16.56 -2.71,12.19 -4.16,23.42 -4.16,33.51l0 15.61c0,5.9 0.18,16.56 0.73,31.79 0.54,15.22 1.8,24.74 3.43,28.93 3.98,15.23 13.75,25.89 29.3,31.79 0.54,0 0.91,1.71 0.91,4.95 -0.55,1.9 -5.97,2.86 -15.74,2.86 -4.71,-1.15 -11.4,-1.72 -20.26,-1.72 -8.5,0 -15.56,-0.76 -21.34,-2.28 -5.97,-1.33 -12.12,-2.1 -18.82,-2.1 -6.15,0 -16.82,1.72 -32.2,5.33 -15.37,3.43 -26.04,5.71 -32.02,6.86 -8.5,1.9 -18.08,6.09 -28.57,12.94 -10.68,6.66 -18.46,9.9 -23.34,9.9 -2.89,0 -4.35,-1.9 -4.35,-6.09 0,-3.05 3.62,-5.71 11.04,-8.38 7.24,-2.66 12.12,-5.33 15.01,-8.37 4.89,-4 11.58,-11.61 20.08,-22.85 10.68,-14.08 19,-34.45 24.96,-60.72 5.62,-22.46 10.68,-47.02 15.2,-73.86 4.34,-27.03 6.52,-54.25 6.52,-81.86l0 -21.13c0,-20.36 -1.46,-40.73 -4.16,-60.72 -2.17,-13.52 -5.61,-21.13 -10.32,-23.22 -4.88,-2.1 -12.48,-3.43 -23.15,-4.19 -3.79,0 -2.89,-1.72 2.71,-4.95zm453.69 -42.45c-1.09,5.9 -2.36,12.56 -3.8,19.8 -1.45,7.23 -1.99,13.89 -1.99,19.79 0,3.05 0.9,6.48 2.89,10.66 1.81,4 2.9,7.62 2.9,10.47 0,4.19 0,8.19 0,12.38 0,3.99 0,7.61 0,10.66 0,9.13 -2.72,16.56 -7.97,22.27 -5.42,5.52 -9.39,11.23 -12.29,17.32 -7.79,12.18 -12.31,18.66 -13.75,19.23 -1.45,0.57 -7.42,3.81 -17.91,9.71 -3.26,-1.15 -8.14,-2.48 -14.83,-4 -6.88,-1.33 -10.13,-4.76 -10.13,-9.9 0,-6.09 3.79,-11.04 11.57,-15.04 2.9,-1.14 5.79,-2.85 8.87,-4.76 2.89,-2.09 5.79,-3.99 8.68,-5.9 2.89,-1.9 6.51,-7.61 10.86,-17.32 4.33,-9.71 5.06,-17.7 1.8,-23.99 -0.72,0 -3.44,-3.23 -8.32,-9.71 -5.07,-6.47 -8.86,-9.7 -11.76,-9.7 -10.67,0 -18.27,-1.72 -22.97,-4.76 -4.89,-3.24 -8.68,-4.76 -11.4,-4.76 -6.69,0 -11.03,0.76 -13.02,2.47 -1.99,1.72 -8.32,2.86 -18.81,3.62 -7.79,4 -11.77,6.09 -11.77,6.09l-4.15 35.22 0 10.47c0,6.47 3.97,14.85 12.12,25.51 8.14,10.47 13.57,17.89 16.46,21.89 5.97,8.94 11.22,16.56 15.37,22.65 4.34,6.09 11.22,12.37 20.62,18.66 3.26,3.04 6.88,5.52 11.22,7.61 4.17,2.09 8.32,4.57 12.12,7.42 5.07,5.33 11.76,11.43 20.44,18.47 8.69,7.04 14.47,13.51 17.19,19.61 1.09,2.85 2.89,6.66 5.43,11.42 2.35,4.57 3.97,10.47 4.7,17.51 0,5.9 0.72,11.04 2.17,15.04 1.26,4 1.62,10.85 0.9,20.18 0,9.9 -3.98,24.36 -12.3,43.21 -8.32,18.65 -14.83,31.22 -19.35,37.5 -11.76,14.09 -21.71,23.99 -30.03,29.7 -8.33,5.52 -19.72,12.37 -34.19,20.56 -6.69,5.9 -15.56,11.04 -26.41,15.03 -11.03,4.19 -19.54,7.62 -25.51,10.66 -8.5,2.86 -15.37,5.52 -20.62,7.43 -5.24,2.09 -12.3,3.04 -21.16,3.04 -7.78,0 -17.01,-7.04 -27.68,-21.13 -7.78,-9.32 -17.54,-21.7 -29.67,-37.31 -11.93,-15.61 -17.9,-30.45 -17.9,-44.73l0 -12.18c0,-4.19 2.16,-12.38 6.51,-24.56 4.52,-12.18 8.13,-19.8 10.85,-22.84 10.67,-12.95 26.59,-19.61 47.76,-19.61 14.46,0 21.7,7.99 21.7,23.98 0,2.29 -1.44,5.91 -4.52,10.85 -2.9,5.14 -5.79,7.62 -8.68,7.62 -4.53,0 -7.42,-2.29 -8.5,-7.04 -1.09,-4.57 -3.62,-6.86 -7.42,-6.86l-1.63 0c-2.71,0 -4.16,0.95 -4.16,3.05 0,2.09 -1.44,3.04 -4.34,3.04 -10.49,0 -15.92,6.1 -15.92,18.47l0 21.13c0,4.19 7.59,13.32 22.61,27.6 15.01,14.28 32.56,18.85 52.64,13.71 11.76,-3.05 20.44,-7.05 26.23,-12 5.97,-5.14 14.47,-12.18 25.87,-21.51 3.08,-5.14 5.79,-9.51 8.14,-13.13 2.35,-3.43 4.89,-8.19 7.59,-14.28 6.16,-12.18 10.32,-21.32 12.49,-27.6 2.35,-6.09 3.43,-15.61 3.43,-28.55 -3.43,-9.33 -12.66,-20.37 -27.67,-32.94 -15.01,-12.75 -27.31,-25.12 -36.9,-37.5 -1.09,-2.85 -5.8,-7.42 -14.11,-13.51 -8.33,-6.28 -13.75,-10.28 -16.64,-12 -6.7,-4.18 -16.83,-13.32 -30.21,-27.41 -2.9,-2.28 -5.8,-8.18 -8.69,-17.89 -3.07,-9.52 -5.42,-16.94 -7.24,-21.7 -2.7,-5.14 -6.69,-11.04 -11.57,-17.9 -5.07,-6.66 -7.41,-12.94 -7.41,-18.84l0 -4.57c0,-2.09 0.18,-4 0.72,-5.52 0.54,-1.52 0.72,-3.81 0.72,-6.66 2.89,-5.14 5.61,-10.66 7.95,-16.18 2.54,-5.52 6.7,-11.43 12.31,-17.33 8.87,-12.18 17.9,-20.75 27.49,-25.7 24.06,-15.22 51.56,-22.84 82.68,-22.84 6.69,0 15.91,0.57 27.31,1.52 11.58,0.77 20.26,0.77 26.23,-0.38 2.89,-0.76 10.13,-3.42 21.71,-7.99 11.75,-4.76 17.9,-7.04 18.63,-7.04 6.69,0 9.94,3.04 9.94,8.94 0,3.24 -0.72,8 -2.52,13.9z"/>
   <path class="fil0" d="M2676.38 395.02c-0.72,15.23 -0.72,30.46 0.19,45.69 0.9,15.23 1.44,30.45 1.44,45.68 0,10.09 0.18,20.56 0.73,31.22 0.54,10.85 0.72,20.75 0.72,29.7 0,21.51 -0.54,42.07 -1.45,61.87 -1.08,19.6 -1.08,41.3 0,64.72 0,5.9 0.54,12.56 1.99,19.79 1.44,7.24 2.72,13.9 3.8,19.8 11.57,2.29 20.8,3.24 27.49,3.24 14.47,0 26.06,0.19 34.73,0.57 8.69,0.38 19.36,-7.42 32.03,-23.41 3.98,-6.29 8.67,-12.57 14.29,-18.66 5.79,-6.09 10.49,-12.75 14.28,-19.8 8.87,-15.23 15.2,-31.41 19.18,-48.54 2.9,-8.18 5.97,-17.13 9.23,-26.65 3.44,-9.71 5.06,-19.04 5.06,-27.98 0,-9.33 -1.26,-20.56 -3.8,-33.7 -2.35,-13.13 -4.52,-23.41 -6.33,-30.45 -2.71,-5.91 -7.59,-12.95 -14.29,-21.13 -6.69,-8.19 -11.94,-15.42 -15.92,-21.7 -8.86,-12 -21.88,-24.37 -39.07,-37.13 -17.36,-12.94 -33.28,-19.22 -47.75,-19.22 -18.46,0 -30.57,1.9 -36.55,6.09zm37.63 -48.54c18.27,1.9 39.26,7.99 62.4,18.46 12.49,5.9 21.72,10.85 27.69,15.04 18.99,14.09 33.46,27.03 43.23,38.84 9.58,11.61 20.81,27.98 33.64,49.3 4.53,9.33 7.97,19.8 10.49,31.41 2.54,11.8 5.61,22.65 9.59,32.74 2.9,8.19 7.24,18.27 13.57,30.27 6.15,12.18 9.23,21.89 9.23,29.31 0,7.81 -6.7,20.75 -20.08,38.46 -13.57,17.89 -22.98,31.4 -28.76,40.73 -4.89,5.9 -9.77,12.19 -14.48,18.66 -4.88,6.66 -9.04,12.94 -13.02,19.22 -8.86,12.38 -17.37,20.75 -25.51,25.13 -8.14,4.57 -17.9,9.9 -29.66,16.18 -7.78,3.05 -15.93,4.95 -24.6,5.9 -8.69,0.95 -15.74,4.57 -21.54,10.85 -3.06,3.05 -5.6,5.9 -7.59,8.95 -1.99,3.05 -4.34,5.9 -7.24,8.95 -7.77,7.42 -15.56,10.09 -23.69,7.99 -8.14,-1.9 -16.1,-4.76 -23.88,-7.99 -9.59,-1.91 -18.27,-3.62 -26.05,-5.14 -7.78,-1.33 -17.37,-2.1 -29.12,-2.1 -12.3,0 -25.33,0 -38.9,0 -13.56,0 -25.68,3.43 -36.36,10.47 -2.89,3.05 -6.32,7.62 -10.67,13.71 -4.16,6.09 -7.96,9.33 -11.03,9.33 -1.82,0 -2.72,-2.1 -2.72,-6.28 0,-1.15 1.27,-3.81 3.8,-8.38 2.35,-4.38 3.62,-7.81 3.62,-9.9 3.98,-6.09 7.6,-10.09 11.22,-12.37 4.88,-2.86 10.49,-4.95 17,-5.9 6.33,-0.77 12.85,-3.05 19.54,-6.29 2.89,-0.76 7.78,-3.42 15.01,-8.18 7.24,-4.57 11.39,-8.38 12.49,-11.42 2.89,-8.19 4.7,-17.14 5.6,-26.65 0.91,-9.71 1.27,-19.04 1.27,-27.99 0,-15.23 -0.18,-30.26 -0.54,-45.11 -0.37,-14.85 -0.55,-29.89 -0.55,-44.74 0,-18.46 -3.44,-37.5 -10.49,-56.72 -3.98,-10.09 -5.78,-19.61 -5.78,-28.56l3.06 -33.5c0,-6.28 -0.72,-12.56 -1.98,-18.66 -1.46,-6.09 -2.18,-12.75 -2.18,-19.79 -1.08,-2.86 -4.52,-10.28 -10.31,-21.89 -5.97,-11.81 -10.13,-18.09 -13.02,-18.85 -2.9,0 -7.42,-0.57 -13.75,-1.52 -6.33,-1.15 -10.49,-2.29 -12.3,-3.43 -11.58,-4.19 -22.25,-14.66 -31.66,-31.79 -3.98,-7.04 -7.23,-14.66 -10.13,-22.84 0,-1.91 -0.36,-7.24 -0.72,-15.99 -0.54,-8.76 0.54,-12.95 3.44,-12.95 2.71,0 6.15,4.19 9.95,12.95 3.97,8.75 6.33,14.65 7.41,17.7 1.81,2.86 3.26,5.71 4.34,8.38 1.09,2.47 1.99,5.33 3.08,8.37 5.79,12.18 14.29,17.13 26.05,15.04 8.5,-1.9 16.82,-2.86 25.15,-2.86 8.31,0 17.18,-2.09 26.76,-6.09 17.38,-6.28 33.65,-11.23 49.21,-14.84 15.56,-3.43 32.38,-4.76 50.47,-3.62zm504.51 85.28c-14.47,4.19 -29.12,5.71 -44.14,4.57 -15.01,-1.14 -29.3,-1.72 -42.68,-1.72 -3.99,0 -7.24,-0.38 -10.13,-1.33 -2.9,-0.95 -5.61,-1.52 -8.51,-1.52 -3.07,0 -7.05,1.33 -11.94,4 -4.7,2.66 -7.6,3.8 -8.68,3.8 -2.89,1.91 -5.61,8.95 -8.51,21.32 -6.69,19.23 -10.13,35.41 -10.13,48.55 0,22.27 5.98,33.31 17.56,33.31 1.8,0 8.86,-3.43 21.52,-10.47 12.49,-7.04 22.62,-10.66 30.39,-10.66 19.54,0 35.82,5.52 49.39,16.75 3.8,2.86 9.4,7.81 16.63,14.47 7.25,6.66 10.87,12.94 10.87,19.03 0,9.33 -1.46,17.14 -4.53,23.61 -3.08,6.47 -5.42,12.94 -7.24,19.23 -4.88,15.99 -11.57,23.98 -20.08,23.98 -8.86,0 -12.29,-2.28 -10.49,-7.23 3.08,-4 7.06,-6.09 11.95,-6.09 4.69,0 7.05,-4.76 7.05,-13.9 0,-16.37 -10.67,-24.56 -31.84,-24.56 -5.97,0 -12.66,1.15 -20.08,3.24 -9.95,0 -24.42,0.95 -43.41,2.85 -5.07,0 -9.23,0.19 -12.49,0.77 -3.43,0.57 -6.51,0.95 -9.22,0.95 -2.9,4 -6.16,9.33 -9.59,15.8 -3.62,6.47 -5.24,12.37 -5.24,17.7 0,7.04 0.9,14.85 2.89,23.61 1.81,8.75 2.89,15.22 2.89,19.22 -0.72,7.81 -1.08,20.56 -1.08,37.88 0,5.33 3.07,8.38 9.22,9.33 6.16,0.95 10.68,1.33 13.57,1.33 10.67,0 21.52,-1.33 32.57,-3.8 11.21,-2.67 20.62,-4 28.39,-4 8.87,-0.76 18.27,0.76 28.4,4.76 9.95,3.81 19.36,5.9 28.23,5.9 16.27,0 32.55,-8.57 48.83,-25.7 3.8,-4.19 5.07,-14.85 3.62,-32.17 -1.26,-17.13 1.81,-25.89 9.59,-25.89 3.98,0 6.87,4.95 8.69,14.47 1.98,9.71 3.07,15.99 3.07,19.03 0,18.28 -2.35,31.98 -6.69,41.31 -4.35,9.33 -10.5,18.28 -18.28,27.22 -7.41,7.05 -14.29,16.18 -20.62,27.42 -6.51,11.23 -15.38,16.75 -27.13,16.75 -8.51,0 -16.83,-0.76 -25.14,-2.29 -8.33,-1.52 -16.65,-2.28 -25.15,-2.28 -9.95,0 -19.18,0 -27.86,0 -8.68,0 -17.18,0 -25.69,0 -4.88,0 -9.59,0 -14.11,0 -4.34,0 -8.86,0 -13.38,0 -23.34,0 -45.58,-2.86 -66.94,-8.76 -2.7,-1.14 -7.77,-2.85 -15.01,-4.76 -7.23,-2.09 -12.3,-3.61 -15.2,-4.76 -3.79,0 -7.95,0.19 -12.29,0.77 -4.53,0.57 -8.69,0.76 -12.49,0.76 -5.61,0 -8.49,-1.91 -8.49,-6.09 0,-8.19 6.69,-12.38 20.07,-12.76 13.38,-0.38 21.71,-3.81 24.97,-10.09 5.61,-15.99 8.49,-36.74 8.49,-62.44 0,-8.18 -1.44,-16.75 -4.34,-25.69 -3.79,-14.09 -5.79,-24.37 -5.79,-30.65 0,-5.9 1.46,-12.95 4.35,-21.13 2.71,-8.19 4.7,-16.37 5.78,-24.56 0,-7.04 0.73,-15.42 2,-25.13 1.44,-9.7 2.17,-18.46 2.17,-26.27 0,-25.5 -0.91,-43.97 -2.53,-55.2 -2.18,-12.18 -3.62,-22.84 -4.34,-31.79 -1.09,-9.33 -7.43,-15.42 -19,-18.27 -5.79,-1.91 -11.76,-2.67 -18.09,-2.29 -6.33,0.38 -9.04,-2.47 -7.96,-8.38 0,-1.14 3.07,-3.23 9.23,-6.09 6.33,-3.04 11.21,-4.57 15.19,-4.57 5.97,0 11.04,1.34 15.38,4 4.16,2.48 10.31,3.81 17.9,3.81 2.9,0 5.79,0 8.87,0 2.9,0 5.79,0 8.69,0 9.58,0 20.07,-1.33 31.83,-3.81 11.57,-2.66 21.7,-5.33 30.21,-8.37 14.47,-2.29 24.78,-4.38 30.75,-6.1 6.7,-2.28 17.37,-4.37 31.84,-6.28 9.4,0 20.44,-0.95 33.1,-3.04 12.49,-1.91 21.16,-5.9 26.23,-12 2.72,-5.14 7.78,-12.56 15.01,-22.27 7.25,-9.71 14.84,-14.46 22.62,-14.46 4.52,0 6.87,1.52 6.87,4.37 0,1.15 -1.26,5.9 -3.43,14.09 -2.36,8.19 -3.44,12.56 -3.44,13.33 -6.69,14.46 -10.67,23.22 -11.75,26.26 -2,4 -3.81,8.95 -5.25,14.47 -1.45,5.52 -2.72,9.9 -3.8,12.76 -3.44,11.23 -7.6,18.84 -12.67,22.84zm377.17 -57.87c3.98,-1.9 8.5,-5.52 13.93,-10.66 5.24,-5.14 10.85,-7.8 16.82,-7.8l1.63 0c18.09,0 37.26,3.8 57.52,11.42 20.26,7.61 40.52,11.04 60.6,10.28l27.68 -1.72c3.07,0 4.71,0.76 4.71,2.29 0,1.52 -1.64,2.28 -4.71,2.28 -14.47,0 -22.07,4.57 -22.79,13.9 -1.09,5.9 -2.89,14.08 -5.25,24.36 -2.53,10.09 -4.16,17.71 -4.88,22.47 -2.17,9.32 -3.61,18.27 -4.53,26.84 -0.9,8.56 -1.26,17.51 -1.26,26.65 0,7.23 -0.72,16.56 -2.35,28.17 -1.63,11.8 -2.35,20.56 -2.35,26.65 -1.81,9.14 -2.53,19.23 -1.99,29.7 0.54,10.66 0.9,19.41 0.9,26.46l-13.21 128.3c-1.08,8.95 3.26,15.99 12.85,20.94 9.77,5.14 17.36,9.33 23.16,12.56 4.88,3.05 12.66,5.9 23.33,8.95 10.49,3.05 19.72,4.38 27.5,4.38l10.13 0c10.49,0 18.27,-1.33 23.15,-4.38 4.7,-3.05 7.24,-6.85 7.78,-11.42 0.54,-4.57 5.25,-6.47 14.11,-5.33 2.71,1.14 1.09,6.47 -5.42,16.18 -6.34,9.71 -9.41,14.47 -9.41,14.47 -4.7,4.18 -10.13,6.28 -16.47,6.66 -6.33,0.38 -12.48,1.14 -18.08,2.28 -11.59,1.91 -23.34,5.9 -34.92,12.38 -5.6,2.85 -17.73,4.38 -35.99,4.38 -3.98,-3.05 -14.29,-5.53 -31.12,-7.62 -16.82,-1.9 -28.94,-4.57 -36.72,-7.42 -5.07,-1.15 -11.4,-2.48 -19.18,-4 -7.77,-1.33 -13.02,-2.67 -15.92,-3.81 -9.4,-4.19 -20.98,-6.09 -34.37,-6.09 -2.16,0 -3.25,-0.76 -3.25,-2.28 0,-1.53 1.45,-2.86 4.35,-4 3.06,-0.95 6.32,-1.52 9.75,-1.52 3.26,0 6.88,-1.53 10.87,-4.57 0.72,-0.76 2.34,-2.48 4.7,-4.95 2.53,-2.67 5.25,-5.52 7.95,-8.38 6.7,-7.04 10.13,-19.41 10.13,-36.74 0,-3.04 0.55,-4.57 1.64,-4.57 0,0 0.36,-0.38 1.26,-1.33 0.9,-0.95 1.81,-2.09 2.89,-3.04 2.18,-4.19 2.9,-10.09 2.36,-17.71 -0.54,-7.61 0.18,-14.27 1.98,-20.37 0.91,-7.42 2,-15.03 3.08,-23.03 1.09,-8 2.53,-15.61 4.35,-22.65 2.7,-13.33 5.6,-27.03 8.67,-41.31 3.08,-14.09 4.52,-30.84 4.52,-50.07 0,-12.37 -0.36,-29.31 -0.9,-51.01 -0.36,-21.89 -2.16,-38.26 -4.88,-49.5 -2.17,-7.42 -3.44,-15.41 -3.8,-23.98 -0.36,-8.57 -1.09,-16.37 -2.17,-23.42 -1.99,-9.13 -5.07,-14.84 -8.87,-16.75 -7.41,-5.14 -13.2,-7.8 -17,-7.8l-4.88 0c-3.44,0 -8.15,1.14 -14.29,3.42 -12.3,4.76 -19.54,7.24 -21.71,7.24 -2.72,0 -4.16,0 -4.16,0 0,-3.05 0.9,-4.38 2.53,-4.38zm565.48 95.94l-15.92 71.39c-2.71,11.42 -2.71,28.74 0,51.96 2.9,23.42 4.89,39.6 5.97,48.93 2.72,19.99 6.69,34.64 11.58,43.97 3.98,8.19 8.14,13.9 12.66,16.75 2.9,1.91 6.87,3.43 11.76,4.57 4.88,0.95 7.42,3.62 7.42,7.81 -2.18,9.89 -10.49,13.51 -24.96,10.47l-6.88 -1.53c-15.56,-1.14 -28.04,-8.75 -37.63,-23.03 -5.96,-4.76 -9.95,-11.04 -11.93,-18.66 -2,-7.61 -4.89,-13.51 -8.69,-17.51 -17.37,27.03 -34.01,54.82 -49.92,83.38 -15.92,28.36 -44.15,39.59 -84.67,33.69l-4.34 -1.71c-12.29,-0.95 -24.96,-5.52 -38.16,-13.52 -13.03,-7.99 -22.44,-15.61 -28.04,-22.65 -15.56,-14.47 -21.89,-39.4 -19,-74.81 2,-20.37 4.52,-35.22 7.42,-44.36 2.71,-8.94 9.95,-19.79 21.71,-31.98 13.39,-15.22 33.1,-27.41 59.33,-36.16 13.39,-4.19 24.24,-8.57 32.38,-13.14 7.96,-4.76 18.45,-9.9 31.11,-15.99 9.59,-5.14 19,-11.23 28.22,-18.27 9.05,-7.24 16.1,-17.71 21.17,-31.79 7.78,-19.42 10.13,-31.98 6.88,-38.08 -5.61,-6.28 -15.2,-13.89 -28.59,-22.84 -10.67,-5.14 -22.06,-11.04 -34.19,-17.89 -12.3,-6.67 -24.96,-10.85 -38.52,-12.76l-2.54 -1.71c-18.46,-1.71 -34.01,5.9 -46.67,22.84 -12.31,19.42 -15.01,30.65 -7.78,33.51 7.24,3.04 10.49,9.13 9.41,18.46 -1.09,5.14 -5.97,9.9 -14.3,13.9 -6.87,-4 -13.02,-8.19 -18.81,-12.19 -5.97,-4.18 -7.96,-12.37 -6.15,-24.55 1.08,-11.23 6.88,-22.84 17.55,-35.22 10.49,-12.18 19.72,-20.75 27.49,-25.7 11.58,-6.28 21.17,-12.94 28.41,-19.98 7.23,-7.05 20.8,-9.14 41.06,-6.1l5.79 0c13.38,3.24 28.4,9.71 44.68,19.23 16.46,9.52 30.57,17.32 42.14,23.6 5.8,4.19 14.11,7.43 25.33,9.9 11.04,2.29 18.09,5.52 20.81,9.71 7.77,14.47 10.31,31.22 7.41,50.26l0 7.8zm-75.25 128.11c1.8,-18.46 -2.89,-28.74 -14.29,-30.64l-4.71 0c-16.28,-2.1 -28.03,8.94 -35.27,33.5 -7.23,24.56 -13.74,36.17 -19.36,35.22l-1.62 0c-4.89,0 -7.78,-3.43 -8.69,-10.09 -0.9,-6.67 -2.71,-10.47 -5.61,-11.23l-3.07 0c-26.23,-3.24 -40.7,7.8 -43.6,33.5 0,1.9 0.37,3.81 0.91,5.9 0.54,2.09 0.72,3.62 0.72,4.76 5.61,9.9 9.23,15.99 10.86,18.08 1.63,2.1 6.69,6.67 15.2,13.71 6.69,5.9 11.39,10.47 14.28,13.9 3.08,1.9 5.43,4.37 6.88,7.42 1.44,3.24 3.43,5.14 6.33,5.9 13.39,-19.99 26.77,-37.69 40.34,-52.92 5.97,-6.28 13.57,-15.04 22.79,-26.27 9.04,-11.04 14.65,-21.7 16.46,-31.79l1.45 -8.95zm390.73 -251.46c-1.08,5.9 -2.35,12.56 -3.8,19.8 -1.44,7.23 -1.98,13.89 -1.98,19.79 0,3.05 0.9,6.48 2.89,10.66 1.81,4 2.89,7.62 2.89,10.47 0,4.19 0,8.19 0,12.38 0,3.99 0,7.61 0,10.66 0,9.13 -2.71,16.56 -7.96,22.27 -5.43,5.52 -9.4,11.23 -12.3,17.32 -7.78,12.18 -12.3,18.66 -13.75,19.23 -1.44,0.57 -7.41,3.81 -17.9,9.71 -3.26,-1.15 -8.14,-2.48 -14.83,-4 -6.88,-1.33 -10.13,-4.76 -10.13,-9.9 0,-6.09 3.79,-11.04 11.57,-15.04 2.9,-1.14 5.79,-2.85 8.87,-4.76 2.89,-2.09 5.78,-3.99 8.67,-5.9 2.9,-1.9 6.52,-7.61 10.86,-17.32 4.34,-9.71 5.07,-17.7 1.81,-23.99 -0.72,0 -3.44,-3.23 -8.32,-9.71 -5.07,-6.47 -8.86,-9.7 -11.76,-9.7 -10.67,0 -18.27,-1.72 -22.98,-4.76 -4.88,-3.24 -8.67,-4.76 -11.39,-4.76 -6.69,0 -11.03,0.76 -13.02,2.47 -2,1.72 -8.32,2.86 -18.82,3.62 -7.78,4 -11.76,6.09 -11.76,6.09l-4.15 35.22 0 10.47c0,6.47 3.97,14.85 12.11,25.51 8.15,10.47 13.57,17.89 16.46,21.89 5.98,8.94 11.22,16.56 15.38,22.65 4.34,6.09 11.22,12.37 20.62,18.66 3.26,3.04 6.88,5.52 11.22,7.61 4.16,2.09 8.32,4.57 12.12,7.42 5.06,5.33 11.75,11.43 20.44,18.47 8.68,7.04 14.47,13.51 17.19,19.61 1.08,2.85 2.89,6.66 5.42,11.42 2.35,4.57 3.98,10.47 4.71,17.51 0,5.9 0.72,11.04 2.17,15.04 1.26,4 1.62,10.85 0.9,20.18 0,9.9 -3.98,24.36 -12.3,43.21 -8.32,18.65 -14.83,31.22 -19.36,37.5 -11.75,14.09 -21.7,23.99 -30.02,29.7 -8.33,5.52 -19.72,12.37 -34.2,20.56 -6.69,5.9 -15.55,11.04 -26.4,15.03 -11.04,4.19 -19.54,7.62 -25.51,10.66 -8.5,2.86 -15.38,5.52 -20.62,7.43 -5.25,2.09 -12.31,3.04 -21.16,3.04 -7.79,0 -17.01,-7.04 -27.68,-21.13 -7.79,-9.32 -17.55,-21.7 -29.67,-37.31 -11.94,-15.61 -17.91,-30.45 -17.91,-44.73l0 -12.18c0,-4.19 2.17,-12.38 6.51,-24.56 4.53,-12.18 8.14,-19.8 10.86,-22.84 10.67,-12.95 26.58,-19.61 47.76,-19.61 14.46,0 21.7,7.99 21.7,23.98 0,2.29 -1.44,5.91 -4.52,10.85 -2.9,5.14 -5.79,7.62 -8.69,7.62 -4.52,0 -7.41,-2.29 -8.49,-7.04 -1.1,-4.57 -3.62,-6.86 -7.42,-6.86l-1.63 0c-2.72,0 -4.16,0.95 -4.16,3.05 0,2.09 -1.45,3.04 -4.34,3.04 -10.5,0 -15.92,6.1 -15.92,18.47l0 21.13c0,4.19 7.59,13.32 22.61,27.6 15.01,14.28 32.56,18.85 52.64,13.71 11.76,-3.05 20.44,-7.05 26.23,-12 5.97,-5.14 14.47,-12.18 25.86,-21.51 3.08,-5.14 5.79,-9.51 8.15,-13.13 2.35,-3.43 4.88,-8.19 7.59,-14.28 6.16,-12.18 10.31,-21.32 12.49,-27.6 2.35,-6.09 3.43,-15.61 3.43,-28.55 -3.43,-9.33 -12.66,-20.37 -27.67,-32.94 -15.02,-12.75 -27.31,-25.12 -36.9,-37.5 -1.1,-2.85 -5.8,-7.42 -14.11,-13.51 -8.33,-6.28 -13.76,-10.28 -16.64,-12 -6.7,-4.18 -16.83,-13.32 -30.21,-27.41 -2.9,-2.28 -5.8,-8.18 -8.69,-17.89 -3.08,-9.52 -5.42,-16.94 -7.24,-21.7 -2.71,-5.14 -6.69,-11.04 -11.57,-17.9 -5.07,-6.66 -7.42,-12.94 -7.42,-18.84l0 -4.57c0,-2.09 0.18,-4 0.73,-5.52 0.54,-1.52 0.72,-3.81 0.72,-6.66 2.89,-5.14 5.6,-10.66 7.95,-16.18 2.54,-5.52 6.7,-11.43 12.31,-17.33 8.86,-12.18 17.9,-20.75 27.49,-25.7 24.06,-15.22 51.56,-22.84 82.67,-22.84 6.69,0 15.92,0.57 27.31,1.52 11.59,0.77 20.26,0.77 26.23,-0.38 2.9,-0.76 10.13,-3.42 21.72,-7.99 11.75,-4.76 17.9,-7.04 18.62,-7.04 6.7,0 9.95,3.04 9.95,8.94 0,3.24 -0.72,8 -2.53,13.9z"/>
   <path class="fil0" d="M5207.83 727.39c-5.97,14.09 -12.12,28.74 -18.27,44.16 -6.15,15.23 -12.12,28.94 -17.73,41.12 -2.17,3.81 -12.3,14.47 -30.75,32.36 -18.27,17.89 -27.85,28.36 -28.58,31.22 -3.26,3.05 -8.32,4 -15.56,3.05 -7.23,-0.77 -10.85,-4.76 -10.85,-12 0,-2.85 2.35,-5.71 7.42,-8.37 4.88,-2.48 8.67,-5.33 11.57,-8.38 5.61,-6.28 10.49,-13.32 14.29,-21.13 7.78,-19.22 11.22,-39.78 10.13,-61.29 -0.72,-8.95 -1.99,-16.95 -3.98,-23.99 -1.98,-7.04 -3.44,-15.23 -4.52,-24.56 -2.89,-8.18 -4.7,-16.37 -5.79,-24.55 -1.08,-8.19 -1.98,-16.75 -2.71,-25.7 -3.26,-11.04 -8.14,-25.32 -14.83,-42.64 -6.7,-17.32 -11.94,-31.98 -15.93,-44.36 -4.52,-9.89 -16.09,-38.83 -34.36,-86.61 -18.45,-47.78 -29.12,-73.29 -31.84,-76.14 -4.89,3.99 -8.87,19.22 -11.76,45.68 -2.72,26.46 -4.7,44.36 -5.78,53.49 -2.72,17.14 -5.43,34.46 -7.97,51.59 -2.35,17.32 -4.52,34.46 -6.33,51.59 -3.08,16.37 -3.62,35.22 -1.62,56.35 1.08,26.46 -0.91,44.35 -5.8,53.49 -9.59,14.27 -17,27.22 -22.24,38.83 -5.25,11.8 -7.06,29.32 -5.25,52.73 0,11.8 1.81,29.89 5.79,53.87 3.8,23.99 7.24,39.41 10.13,46.45 8.68,18.27 20.44,27.41 34.91,27.41 14.47,0 24.6,4 30.21,12.18 -2.9,5.33 -6.15,8.76 -10.13,10.66 -1.08,0 -11.21,-3.61 -30.39,-10.66 -19.36,-7.04 -30.39,-11.04 -33.11,-12.18 -12.84,-5.9 -22.42,-11.61 -29.11,-16.75 -6.7,-5.14 -14.84,-10.85 -24.43,-16.75 -14.47,-5.9 -25.86,-9.14 -34.19,-9.71 -8.32,-0.57 -19.72,-2.86 -34.19,-7.04 -10.67,-2.86 -23.34,-4.76 -38.16,-5.33 -14.84,-0.57 -22.26,-6.86 -22.26,-19.23 0,-4.76 2.72,-6.09 7.97,-4.19 5.24,2.1 10.31,3.05 14.83,3.05 15.56,1.9 31.11,0.19 46.67,-4.95 3.8,-0.76 7.77,-6.66 11.57,-17.9 0.72,-3.23 3.08,-7.42 6.88,-12.56 3.97,-4.95 7.23,-10.09 10.13,-15.23 6.69,-11.99 10.67,-22.27 11.58,-31.03 1.08,-8.75 3.62,-20.75 7.41,-35.97 2.9,-11.05 6.34,-21.9 10.13,-32.56 3.98,-10.66 7.24,-22.08 10.13,-34.26 1.99,-11.23 3.26,-24.18 3.62,-38.83 0.36,-14.66 2,-28.18 4.88,-40.36 2,-12.37 3.81,-24.56 5.25,-36.55 1.44,-12.18 3.44,-24.37 6.33,-36.55 2.9,-9.33 6.16,-20.94 10.13,-35.22 3.8,-14.08 5.8,-26.65 5.8,-37.88 -0.74,-13.32 -1.64,-28.17 -2.72,-44.35 -1.09,-16.18 -0.54,-30.27 1.62,-42.64 0,-11.23 1.46,-23.04 4.35,-35.6 2.71,-12.75 4.16,-26.65 4.16,-41.88 -1.09,-11.23 -7.97,-29.88 -20.98,-56.34 -12.85,-26.46 -21.71,-44.17 -26.77,-53.5 -11.59,-19.03 -23.34,-33.69 -34.92,-44.16 -1.81,-0.76 -7.96,-2.85 -18.63,-6.66 -10.49,-3.62 -19.18,-7.05 -25.87,-10.09 -8.87,-0.95 -21.89,-0.57 -39.26,1.71 -7.78,0 -13.57,4.38 -17.55,12.95 -3.79,8.37 -5.78,17.32 -5.78,26.65 2.17,16.37 5.96,25.51 11.76,27.6 5.61,2.09 15.74,2.47 30.21,1.52l1.44 0c2.9,0 4.35,-0.76 4.35,-2.28 0,-1.53 2.52,-3.43 7.41,-5.71 1.09,0 1.63,1.14 1.63,3.42 0,11.23 -2.53,18.28 -7.42,21.13 0,0 -4.16,1.15 -12.29,3.05 -8.15,2.09 -12.13,3.24 -12.13,3.24l-3.25 0c-5.61,0.95 -13.03,-3.24 -22.26,-12.95 -9.22,-9.71 -16.27,-16.56 -21.16,-20.56 -9.59,-8.18 -13.39,-18.46 -11.57,-30.65 4.88,-8.94 8.49,-15.03 11.03,-18.27 2.53,-3.05 3.8,-5.52 3.8,-7.42 3.79,-4.19 22.43,-12.76 55.54,-25.89 33.27,-13.33 55.17,-19.8 65.84,-19.8l53.36 6.09c5.06,1.9 9.41,4.76 13.39,8.95 12.3,18.08 24.24,35.4 35.99,51.78 11.59,16.37 24.79,33.12 39.26,50.25 5.61,8.19 11.57,16.37 17.91,24.56 6.33,8.18 12.48,16.75 18.09,25.7 1.81,5.14 4.16,10.47 7.06,16.18 3.07,5.52 5.97,9.7 8.85,12.75 2.72,5.9 5.43,11.42 7.97,16.75 2.34,5.14 5.06,9.9 7.96,13.9 2.71,4.76 5.43,9.9 7.95,15.04 2.36,5.33 5.07,9.32 7.97,12.37 8.67,8.76 14.65,18.46 17.36,28.93 1.81,14.09 4.34,27.23 7.78,39.41 3.25,11.99 6.51,24.17 9.77,36.36 1.81,11.23 5.61,22.27 11.4,32.93 5.78,10.85 11.57,19.8 17.18,26.84 2.89,5.9 8.32,15.8 16.65,29.51 8.31,13.7 16.45,20.18 24.23,19.03 0.73,-5.9 5.43,-16.18 14.29,-30.45 8.87,-14.28 15.19,-27.04 19,-38.27 1.8,-5.9 3.44,-11.99 4.88,-18.08 1.26,-6.09 3.44,-12.18 6.33,-18.09 0,-1.14 2.36,-7.61 7.42,-19.22 4.88,-11.8 7.41,-18.09 7.41,-19.23 2.72,-7.8 6.88,-17.51 12.13,-29.31 5.42,-11.62 9.41,-22.85 12.29,-33.13 2.72,-8.94 5.07,-19.6 7.07,-31.79 1.98,-12.37 5.42,-24.36 10.31,-36.36 5.06,-11.04 11.21,-19.6 18.8,-25.31 7.6,-5.71 16.83,-12.19 27.32,-19.23 3.98,-3.05 8.14,-5.71 12.48,-8.18 4.34,-2.29 8.87,-5.53 13.57,-9.71 4.88,-3.24 9.05,-6.48 12.48,-9.52 3.26,-2.86 8.32,-5.9 15.01,-8.76 8.87,-3.04 19.18,-7.61 31.3,-13.7 11.94,-6.1 24.43,-9.9 37.08,-10.85 13.39,-1.15 26.23,2.28 38.18,10.47 11.93,8.18 18.98,19.98 21.16,35.21 0,2.29 -4.34,9.33 -13.21,21.13 -3.98,4.19 -5.25,8 -4.34,11.42 1.09,3.62 -1.27,7.05 -7.42,10.28 -3.8,-0.95 -4.34,-4.18 -1.44,-9.32 1.08,-1.15 2.17,-2.48 3.61,-4 1.46,-1.52 3.26,-3.05 5.25,-4.95 1.09,-3.05 1.63,-6.47 1.63,-10.66 0,-6.28 -6.16,-13.33 -18.81,-20.94 -12.49,-7.62 -20.44,-11.42 -23.52,-11.42l-2.71 1.71c-10.49,1.14 -20.8,5.9 -30.39,14.47 -9.77,8.56 -16.11,16.37 -18.82,23.41 -11.75,19.42 -16.46,42.83 -14.29,70.24l0.9 15.04c0,16.37 2,36.17 5.97,59.4 3.8,23.22 7.78,42.64 11.59,57.87 5.06,21.51 7.95,40.92 8.86,58.25 0.72,17.32 2.35,37.5 4.33,60.53l1.64 7.8c0,9.33 1.62,17.14 5.06,23.61 3.43,6.47 6.51,12.94 9.23,19.23 5.07,11.99 7.23,19.22 6.69,21.89 -0.54,2.47 0,10.28 1.81,23.41l0 13.9c1.08,15.23 3.08,30.46 5.78,45.68 2.9,15.23 5.98,29.89 9.05,43.98 0,7.23 1.26,13.7 3.44,19.79 2.35,6.29 4.88,12.19 7.77,18.28 3.08,11.04 5.62,22.84 7.43,35.03 0,4.18 1.44,7.23 4.16,9.51 7.77,7.81 12.66,12.38 14.83,13.33 2.89,5.33 5.07,9.33 6.33,12.37 1.44,2.86 5.07,5.9 10.67,8.95 3.8,3.23 13.03,5.71 27.5,7.23 14.47,1.53 25.15,1.72 31.84,0.57 2.89,2.1 4.34,4.19 4.34,6.1 0,1.9 -0.9,5.13 -2.72,9.7 -1.8,4.76 -3.8,7.05 -5.78,7.05 -3.99,0 -8.51,-0.96 -13.94,-3.05 -5.24,-2.09 -9.76,-3.04 -13.74,-3.04 -4.52,0 -11.76,1.9 -21.71,6.09 -3.8,2.28 -7.95,2.85 -12.12,1.71 -4.34,-1.14 -8.32,-1.71 -12.3,-1.71 -11.58,1.14 -25.87,4.38 -42.87,10.09 -17.01,5.52 -28.22,10.28 -33.83,14.46 -8.51,4.76 -16.64,8.76 -24.42,12 -7.78,3.04 -15.02,7.04 -21.71,11.99 -11.75,6.28 -23.15,12.94 -34.19,19.99 -11.21,7.04 -18.63,11.61 -22.6,13.51 -5.61,2.1 -9.59,-0.76 -12.13,-8.94 -2.53,-8.19 -1.26,-12.38 3.62,-12.38 7.77,0 13.75,-0.38 17.54,-1.14 7.42,-3.24 13.75,-8.19 19.18,-14.66 5.24,-6.66 9.41,-12.37 12.67,-17.7 4.52,-9.9 8.31,-16.37 11.39,-18.85 2.9,-2.66 6.33,-11.99 10.31,-27.98 0.72,-9.14 2.54,-17.7 5.61,-25.32 2.9,-7.61 4.88,-17.51 5.42,-29.88 0,-2.86 -1.08,-7.24 -3.43,-12.76 -2.17,-5.52 -3.98,-10.47 -4.88,-14.47 -3.98,-11.23 -5.43,-16.56 -4.34,-15.99 1.08,0.57 1.62,-3.8 1.62,-13.13 0,-4.76 -1.62,-11.23 -5.06,-19.42 -3.26,-8.18 -5.61,-15.42 -6.69,-21.7 -4.89,-10.09 -8.15,-24.17 -9.95,-42.45 -3.26,-14.09 -5.43,-30.84 -6.88,-50.25 -1.45,-19.23 -2.17,-37.12 -2.17,-53.5 -1.81,-18.27 -3.62,-35.21 -5.61,-50.82 -1.81,-15.61 -3.98,-32.17 -5.96,-49.5 -2.9,-15.22 -6.88,-30.83 -12.31,-46.63 -5.25,-15.8 -7.95,-30.27 -7.95,-43.22 -3.81,0 -6.16,0.96 -6.88,2.86 -3.8,4 -10.13,16.75 -19,38.07 -8.86,21.51 -17.54,44.55 -26.23,69.48 -8.67,24.94 -16.46,48.74 -23.15,71.77 -6.7,22.84 -9.95,37.12 -9.95,43.21l-4.34 12.18 -27.5 79.19 -4.34 7.81zm640.19 -257.56l-15.92 71.39c-2.71,11.42 -2.71,28.74 0,51.96 2.9,23.42 4.89,39.6 5.97,48.93 2.72,19.99 6.69,34.64 11.58,43.97 3.98,8.19 8.14,13.9 12.66,16.75 2.9,1.91 6.87,3.43 11.76,4.57 4.88,0.95 7.42,3.62 7.42,7.81 -2.18,9.89 -10.49,13.51 -24.96,10.47l-6.88 -1.53c-15.56,-1.14 -28.04,-8.75 -37.63,-23.03 -5.96,-4.76 -9.95,-11.04 -11.93,-18.66 -2,-7.61 -4.89,-13.51 -8.69,-17.51 -17.37,27.03 -34.01,54.82 -49.93,83.38 -15.91,28.36 -44.14,39.59 -84.66,33.69l-4.34 -1.71c-12.29,-0.95 -24.96,-5.52 -38.16,-13.52 -13.03,-7.99 -22.44,-15.61 -28.04,-22.65 -15.56,-14.47 -21.89,-39.4 -19,-74.81 2,-20.37 4.52,-35.22 7.42,-44.36 2.71,-8.94 9.95,-19.79 21.71,-31.98 13.39,-15.22 33.1,-27.41 59.33,-36.16 13.39,-4.19 24.24,-8.57 32.38,-13.14 7.96,-4.76 18.45,-9.9 31.11,-15.99 9.59,-5.14 19,-11.23 28.22,-18.27 9.05,-7.24 16.1,-17.71 21.17,-31.79 7.78,-19.42 10.13,-31.98 6.88,-38.08 -5.61,-6.28 -15.2,-13.89 -28.59,-22.84 -10.67,-5.14 -22.06,-11.04 -34.19,-17.89 -12.3,-6.67 -24.96,-10.85 -38.52,-12.76l-2.54 -1.71c-18.46,-1.71 -34.01,5.9 -46.67,22.84 -12.31,19.42 -15.01,30.65 -7.78,33.51 7.24,3.04 10.49,9.13 9.41,18.46 -1.09,5.14 -5.97,9.9 -14.3,13.9 -6.87,-4 -13.02,-8.19 -18.81,-12.19 -5.97,-4.18 -7.96,-12.37 -6.15,-24.55 1.08,-11.23 6.88,-22.84 17.55,-35.22 10.49,-12.18 19.72,-20.75 27.49,-25.7 11.58,-6.28 21.16,-12.94 28.41,-19.98 7.23,-7.05 20.8,-9.14 41.06,-6.1l5.78 0c13.39,3.24 28.41,9.71 44.69,19.23 16.46,9.52 30.57,17.32 42.14,23.6 5.8,4.19 14.11,7.43 25.33,9.9 11.04,2.29 18.09,5.52 20.81,9.71 7.77,14.47 10.31,31.22 7.41,50.26l0 7.8zm-75.25 128.11c1.8,-18.46 -2.89,-28.74 -14.29,-30.64l-4.71 0c-16.28,-2.1 -28.03,8.94 -35.27,33.5 -7.23,24.56 -13.74,36.17 -19.36,35.22l-1.63 0c-4.88,0 -7.77,-3.43 -8.68,-10.09 -0.9,-6.67 -2.71,-10.47 -5.61,-11.23l-3.07 0c-26.23,-3.24 -40.7,7.8 -43.6,33.5 0,1.9 0.37,3.81 0.91,5.9 0.54,2.09 0.72,3.62 0.72,4.76 5.61,9.9 9.23,15.99 10.86,18.08 1.63,2.1 6.69,6.67 15.2,13.71 6.69,5.9 11.39,10.47 14.28,13.9 3.08,1.9 5.42,4.37 6.88,7.42 1.44,3.24 3.43,5.14 6.33,5.9 13.39,-19.99 26.77,-37.69 40.34,-52.92 5.96,-6.28 13.57,-15.04 22.79,-26.27 9.04,-11.04 14.65,-21.7 16.46,-31.79l1.45 -8.95zm321.81 -205.78l-26.05 2.86c-3.08,9.33 -5.42,15.23 -6.87,17.89 -1.45,2.48 -3.44,6.29 -6.34,11.04 -2.16,3.05 -4.51,8.38 -7.41,16 -2.9,7.61 -3.62,13.13 -2.72,16.37l5.98 40.73c0,5.14 0,9.9 0,13.9 0,4.19 0,8.18 0,12.37 0,5.9 -0.55,10.28 -1.63,12.76 -1.09,2.66 -1.09,6.28 0,11.23 5.6,4 10.85,4.57 15.91,1.71 4.89,-3.04 10.13,-5.14 15.93,-6.28 10.49,0 18.81,-5.33 24.6,-15.8 5.79,-10.66 10.13,-20.94 13.02,-31.03 0.9,-6.28 2.18,-13.51 3.62,-21.7 1.45,-8.19 3.62,-15.8 6.33,-22.84 0,-3.05 3.26,-9.52 9.59,-19.61 6.33,-9.9 9.59,-15.61 9.59,-16.75 0,-2.1 -2.9,-5.71 -8.87,-10.85 -5.79,-4.95 -9.77,-8 -11.75,-9.14 -10.67,-3.05 -21.72,-4 -32.93,-2.86zm-112.87 118.79c0,-11.04 -1.09,-22.46 -2.9,-34.27 -1.99,-11.61 -2.89,-23.6 -2.89,-35.97 -1.09,-15.99 -4.53,-27.99 -10.49,-36.17 -5.8,-8.19 -17.37,-12.38 -34.56,-12.38 -5.78,-2.85 -8.5,-6.47 -8.5,-10.47 0,-4.18 5.25,-6.28 15.92,-6.28 8.32,-0.95 17.55,-2.85 27.14,-5.52 9.76,-2.66 19.34,-4.19 28.93,-4.95 14.48,-1.14 28.95,-2.09 43.42,-3.04 14.47,-0.95 29.13,-2.67 43.6,-4.76 6.69,0 13.38,0.19 20.08,0.76 6.69,0.57 14.46,0.95 23.33,0.95 10.49,-1.14 24.6,-0.57 41.79,1.52 14.47,6.1 25.15,10.47 31.84,13.52 5.96,2.86 11.39,5.52 15.91,7.8 7.79,1.72 12.12,5.91 13.21,12.19 0,5.9 -1.27,10.66 -3.62,14.27 -2.54,3.43 -4.16,7.24 -4.88,11.43 -5.97,22.27 -9.41,39.59 -10.49,51.77 0,8.95 -0.91,17.52 -2.72,25.7 -2.71,9.33 -12.48,20.94 -28.94,35.22 -16.29,14.09 -28.94,22.84 -37.81,26.08 2.18,8.95 4.16,17.51 6.15,25.7 1.81,8.18 4.34,16.37 7.06,24.55 5.61,19.42 15.38,37.5 29.13,54.64 5.78,9.32 10.49,17.89 14.28,25.7 1.81,6.28 5.98,16.75 12.3,31.41 6.33,14.84 11.4,23.03 15.38,24.93 5.61,4 9.23,6.67 10.49,7.81 1.45,1.14 5.25,4.57 11.21,10.47 4.53,7.23 14.12,10.66 28.59,10.66 4.88,0 9.05,-2.29 12.48,-6.67 3.44,-4.37 7.42,-7.23 12.48,-8.37 4.53,0 7.96,4.19 9.95,12.37 0,1.72 -4.7,5.9 -14.29,12.19 -1.99,1.9 -4.52,4.56 -7.41,7.99 -2.72,3.62 -4.71,5.33 -5.8,5.33 -5.61,3.05 -12.84,5.14 -21.7,6.09 -7.79,0 -15.02,1.14 -21.71,3.24 -6.7,1.9 -13.39,2.47 -20.08,1.33 -2.17,0 -7.06,-1.52 -14.65,-4.57 -7.6,-2.85 -12.49,-4.95 -14.65,-6.09 -8.33,-2.85 -16.1,-9.52 -23.34,-19.42 -2.71,-4.18 -5.07,-8.75 -7.05,-13.7 -2,-4.95 -4.35,-10.09 -7.24,-15.42 -4.52,-9.9 -9.22,-20.18 -14.29,-30.65 -11.58,-18.08 -19.35,-39.4 -23.34,-63.58 -1.62,-9.33 -3.26,-19.04 -4.7,-29.32 -1.44,-10.08 -2.72,-20.17 -3.62,-30.26 0,-10.09 -3.43,-14.66 -10.13,-13.9 -4.88,0 -13.38,0.95 -25.51,3.05 -11.93,1.9 -18.99,4.76 -21.16,7.99 1.08,18.28 1.08,35.03 0,50.26 -1.8,26.46 -2.17,46.06 -1.08,59.01 0.72,22.46 14.65,31.41 41.96,27.41 7.79,0 13.03,4.57 15.92,13.9 0,4.19 -3.43,6.09 -10.13,6.09 -5.97,1.14 -11.21,1.52 -15.38,0.95 -4.34,-0.57 -9.4,-0.95 -15.37,-0.95 -21.16,0 -36.54,0.57 -46.13,1.71 -7.78,1.91 -15.55,4.57 -23.34,8.19 -7.77,3.42 -15.01,6.28 -21.7,8.56 -26.77,7.05 -48.85,11.04 -66.21,11.81 -15.55,2.09 -23.34,-2.29 -23.34,-13.52 0,-2.86 2.36,-4.76 7.06,-5.33 4.89,-0.57 8.32,-1.33 10.5,-2.47 4.52,0 11.75,-1.91 21.7,-6.1 2.72,-0.76 7.59,-3.8 14.29,-8.94 6.69,-5.14 11.03,-9.9 13.2,-13.9 2.9,-5.9 5.25,-11.8 7.24,-17.32 1.81,-5.52 4.35,-11.23 7.05,-17.32 1.82,-4 3.62,-10.47 5.61,-19.23 2,-8.76 3.44,-15.99 4.52,-21.89 0,-6.47 0.91,-13.52 2.9,-21.51 1.99,-8 3.44,-15.23 4.53,-21.51 0,-5.9 0.18,-13.71 0.54,-23.42 0.36,-9.71 0.54,-17.51 0.54,-23.41 -0.72,-12.38 -1.08,-29.51 -1.08,-51.97zm595.14 -41.12l-15.92 71.39c-2.72,11.42 -2.72,28.74 0,51.96 2.9,23.42 4.88,39.6 5.97,48.93 2.71,19.99 6.69,34.64 11.57,43.97 3.98,8.19 8.14,13.9 12.67,16.75 2.9,1.91 6.87,3.43 11.75,4.57 4.89,0.95 7.42,3.62 7.42,7.81 -2.17,9.89 -10.49,13.51 -24.96,10.47l-6.88 -1.53c-15.56,-1.14 -28.03,-8.75 -37.62,-23.03 -5.97,-4.76 -9.95,-11.04 -11.94,-18.66 -1.99,-7.61 -4.88,-13.51 -8.68,-17.51 -17.37,27.03 -34.01,54.82 -49.93,83.38 -15.92,28.36 -44.14,39.59 -84.66,33.69l-4.34 -1.71c-12.3,-0.95 -24.97,-5.52 -38.17,-13.52 -13.02,-7.99 -22.43,-15.61 -28.04,-22.65 -15.55,-14.47 -21.88,-39.4 -18.99,-74.81 1.99,-20.37 4.52,-35.22 7.42,-44.36 2.71,-8.94 9.95,-19.79 21.7,-31.98 13.39,-15.22 33.11,-27.41 59.34,-36.16 13.39,-4.19 24.24,-8.57 32.37,-13.14 7.97,-4.76 18.46,-9.9 31.12,-15.99 9.58,-5.14 18.99,-11.23 28.22,-18.27 9.05,-7.24 16.1,-17.71 21.16,-31.79 7.78,-19.42 10.13,-31.98 6.88,-38.08 -5.61,-6.28 -15.19,-13.89 -28.58,-22.84 -10.67,-5.14 -22.07,-11.04 -34.19,-17.89 -12.3,-6.67 -24.97,-10.85 -38.53,-12.76l-2.54 -1.71c-18.45,-1.71 -34.01,5.9 -46.66,22.84 -12.31,19.42 -15.02,30.65 -7.79,33.51 7.24,3.04 10.49,9.13 9.41,18.46 -1.08,5.14 -5.97,9.9 -14.29,13.9 -6.87,-4 -13.02,-8.19 -18.82,-12.19 -5.96,-4.18 -7.95,-12.37 -6.14,-24.55 1.08,-11.23 6.88,-22.84 17.55,-35.22 10.49,-12.18 19.71,-20.75 27.49,-25.7 11.57,-6.28 21.16,-12.94 28.4,-19.98 7.23,-7.05 20.8,-9.14 41.06,-6.1l5.79 0c13.39,3.24 28.4,9.71 44.68,19.23 16.46,9.52 30.57,17.32 42.15,23.6 5.79,4.19 14.11,7.43 25.32,9.9 11.05,2.29 18.1,5.52 20.81,9.71 7.78,14.47 10.31,31.22 7.42,50.26l0 7.8zm-75.26 128.11c1.81,-18.46 -2.89,-28.74 -14.29,-30.64l-4.7 0c-16.28,-2.1 -28.04,8.94 -35.28,33.5 -7.23,24.56 -13.74,36.17 -19.35,35.22l-1.63 0c-4.88,0 -7.77,-3.43 -8.68,-10.09 -0.91,-6.67 -2.71,-10.47 -5.61,-11.23l-3.07 0c-26.24,-3.24 -40.7,7.8 -43.6,33.5 0,1.9 0.36,3.81 0.9,5.9 0.54,2.09 0.73,3.62 0.73,4.76 5.6,9.9 9.22,15.99 10.86,18.08 1.62,2.1 6.69,6.67 15.19,13.71 6.69,5.9 11.4,10.47 14.28,13.9 3.08,1.9 5.43,4.37 6.88,7.42 1.45,3.24 3.44,5.14 6.33,5.9 13.39,-19.99 26.77,-37.69 40.34,-52.92 5.97,-6.28 13.57,-15.04 22.8,-26.27 9.04,-11.04 14.64,-21.7 16.46,-31.79l1.44 -8.95zm334.48 71.39c0,-2.86 2.71,-9.9 7.96,-21.13 5.24,-11.23 9.4,-19.42 12.3,-24.56 3.07,-5.14 6.15,-12.75 8.87,-22.84 2.89,-10.09 5.24,-18.66 6.87,-25.7 3.26,-15.23 6.69,-33.5 10.13,-55.2 1.08,-8.95 2.53,-17.9 4.52,-27.03 1.99,-9.14 2.89,-19.42 2.89,-30.84l0 -13.52c0,-2.85 -3.61,-5.71 -10.85,-8.37 -7.23,-2.48 -13.2,-3.81 -17.72,-3.81 -5.97,-5.9 -9.05,-10.09 -9.05,-12.38 0,-2.85 5.25,-5.9 15.92,-8.94 5.96,0 12.66,1.33 19.9,3.61 7.23,2.48 13.75,3.62 19.35,3.62 9.41,2.29 17.18,3.43 23.34,3.43 11.22,0 21.71,-2.1 31.48,-6.09 9.76,-4.19 19.35,-8.19 28.94,-12.38 14.46,-4.76 23.51,-8.37 27.49,-10.47 1.09,0 3.26,-0.57 6.69,-1.52 3.26,-0.76 6.34,-1.33 9.23,-1.33 6.7,1.9 10.13,5.71 10.13,11.8 0,4 -6.15,8.95 -18.08,14.47 -12.13,5.52 -19.54,8.94 -22.26,10.09 -3.98,2.85 -10.49,7.8 -19.54,14.46 -9.22,6.67 -14.83,11.43 -16.46,14.47 -3.26,8.19 -6.33,16.37 -9.04,24.56 -2.89,8.18 -5.61,15.8 -8.5,22.84 -3.98,8.19 -7.6,15.8 -10.86,22.84 -3.43,7.05 -6.51,14.09 -9.22,21.13 -3.26,6.1 -6.88,13.52 -11.22,22.66 -4.16,9.13 -6.87,17.32 -7.95,24.74 -1.82,8.95 -4.17,17.52 -7.07,25.7 -3.06,8.19 -5.42,16.37 -7.23,24.56 -4.88,15.23 -10.31,31.98 -16.09,50.25 -5.97,18.09 -8.87,36.36 -8.87,54.64l0 4.38c0,6.28 5.61,11.8 16.82,16.18 11.03,4.56 16.65,9.89 16.65,16.18 0,7.04 -0.91,10.66 -2.72,10.66 -5.97,0 -11.75,-0.76 -17.36,-2.29 -5.8,-1.52 -10.49,-2.28 -14.29,-2.28 -6.15,0 -11.77,0.19 -17.01,0.57 -5.43,0.38 -10.31,0.57 -14.84,0.57 -11.75,0 -23.87,0.76 -36.36,2.28 -12.47,1.53 -24.6,2.29 -36.35,2.29 -10.49,1.14 -22.62,6.28 -36,15.61 -2.72,1.9 -5.24,3.81 -7.06,5.9 -1.99,1.9 -4.52,3.62 -7.77,4.57 -2.9,1.14 -7.79,3.42 -15.02,7.04 -7.24,3.62 -10.85,1.71 -10.85,-5.33 0,-7.42 4.16,-13.32 12.84,-17.89 8.68,-4.38 16.1,-9.14 22.07,-14.47 10.68,-8.19 19.17,-21.7 26.05,-40.74 3.8,-9.13 5.97,-18.46 6.51,-27.6 0.54,-8.95 1.63,-19.23 3.44,-30.27 1.08,-10.47 1.81,-21.32 2.35,-32.36 0.54,-11.23 0.9,-22.27 0.9,-33.5 0,-8.95 -0.9,-16.94 -2.35,-23.99 -1.62,-7.04 -2.53,-14.27 -2.53,-21.7 -0.73,-5.9 -2.17,-13.13 -4.7,-21.32 -2.54,-8.18 -3.62,-15.23 -3.62,-21.13 -1.81,-15.23 -4.88,-28.93 -9.41,-41.31 -4.34,-12.18 -8.5,-24.36 -12.48,-36.16 -3.8,-9.33 -8.14,-17.71 -12.84,-25.32 -4.89,-7.62 -9.23,-15.99 -13.03,-24.94 -3.97,-7.42 -10.67,-17.13 -20.08,-28.93 -2.17,-3.43 -6.69,-6.86 -13.38,-10.66 -5.61,-3.24 -10.86,-6.48 -15.93,-9.52 -4.87,-2.86 -11.03,-4.38 -18.44,-4.38 -5.07,0 -10.13,0 -15.38,0 -5.24,0 -9.95,0.95 -13.75,2.86 -5.06,3.23 -7.41,10.47 -7.41,21.7 0,5.9 4.15,8.94 12.48,8.94 8.14,0 12.29,4 12.29,12.19 -9.76,1.14 -22.42,2.66 -37.8,4.76 -15.37,2.09 -23.16,-4.19 -23.16,-18.66l0 -17.89c0,-10.28 3.99,-19.04 11.77,-26.27 7.77,-7.05 15.55,-11.43 23.33,-13.33 10.49,-2.28 19.72,-5.14 27.32,-8.56 7.59,-3.62 17.18,-5.33 28.75,-5.33 17.37,0 33.83,7.04 49.39,21.13 5.61,6.47 10.31,12.56 14.29,18.46 3.8,5.9 8.33,11.99 13.21,18.46 9.59,18.09 17.18,31.8 22.79,40.55 3.98,7.62 7.78,14.85 11.76,21.89 3.79,7.05 8.14,13.52 13.2,19.42 5.61,12.37 12.85,26.46 21.36,42.64 8.67,16.18 15.01,31.6 18.98,46.07 3.08,11.99 6.52,30.07 9.95,54.63 1.09,4.19 1.64,9.52 1.64,15.99 0,6.47 0.54,11.42 1.62,14.66 1.63,10.09 2.53,20.18 2.53,30.27 0,5.14 0.55,5.71 1.63,1.52z"/>
   <path class="fil0" d="M7094.22 690.65c0,-8.95 0,-18.47 0,-28.75 0,-10.27 1.08,-19.98 3.25,-29.31 1.08,-5.9 1.26,-15.04 0.72,-27.41 -0.54,-12.19 -0.72,-22.27 -0.72,-30.08 0,-9.33 -0.73,-18.65 -2.17,-28.36 -1.45,-9.71 -2.18,-19.04 -2.18,-27.99 0,-3.23 -0.18,-7.8 -0.72,-13.32 -0.54,-5.52 -0.72,-10.47 -0.72,-14.47 -1.08,-4.19 -1.45,-8.95 -0.9,-14.47 0.54,-5.71 0.9,-10.85 0.9,-15.61 -2.17,-9.32 -2.9,-19.03 -2.35,-29.12 0.36,-9.9 0.72,-19.61 0.72,-28.94 -1.08,-7.04 -2.53,-11.23 -4.52,-12.18 -2,-1.14 -4.7,-3.81 -8.14,-7.8 -7.05,-4.95 -16.28,-7.43 -27.68,-7.43 -3.8,0 -8.68,0.57 -14.47,1.53 -5.97,0.95 -8.86,-1.72 -8.86,-7.62 0,-2.85 3.44,-4.95 10.13,-6.09 6.69,-1.14 11.93,-2.09 15.91,-2.86 9.59,-1.14 24.61,-1.52 45.05,-1.52 9.58,0 20.62,1.91 33.1,6.09 12.48,4 25.15,6.09 37.99,6.09l40.16 -1.71c2.89,0 7.6,0.57 14.29,1.52 6.7,0.77 10.13,2.48 10.13,4.57 0,3.05 -4.53,4.57 -13.57,4.57 -9.04,0 -15.01,0 -18.27,0 -3.8,1.14 -8.14,2.67 -13.03,4.76 -4.7,2.09 -8.49,3.05 -11.39,3.05 -9.41,4.76 -14.29,15.03 -14.29,30.83 0,15.8 0,27.8 0,35.98 0,10.09 0.72,20.37 2.17,31.03 1.45,10.66 2.17,21.7 2.17,33.12 0,11.24 0,22.47 0,33.51 0,11.23 0,22.27 0,33.5 0,11.8 0.72,22.65 1.99,32.36 1.45,9.71 2.72,19.61 3.8,30.08 0,5.9 0.36,11.23 1.26,15.99 0.91,4.57 1.46,9.33 1.46,14.09 0,9.32 0,18.08 0,26.27 0,8.18 0,16.18 0,23.98 0,21.51 5.78,37.31 17.36,47.4 7.78,5.9 16.1,9.9 24.6,11.99 8.69,2.1 15.92,6.29 21.52,12.57 3.26,5.9 -8.49,6.66 -35.27,2.28 -26.59,-4.57 -41.96,-7.42 -45.77,-8.37 -2.88,0 -9.94,-2.1 -21.52,-6.29 -11.39,-3.99 -22.98,-6.66 -34.73,-7.8 -15.56,0 -33.83,2.09 -54.99,6.28 -8.51,2.86 -12.84,3.43 -12.84,1.52 0.72,-3.99 5.06,-7.23 12.84,-9.32 8.68,-0.77 14.65,-2.29 17.37,-4.57 15.55,-10.09 24.23,-19.04 26.04,-27.22 2.89,-16.38 4.17,-35.22 4.17,-56.35zm200.78 -316.76c3.98,-1.9 8.51,-5.52 13.93,-10.66 5.25,-5.14 10.85,-7.8 16.82,-7.8l1.64 0c18.08,0 37.26,3.8 57.52,11.42 20.26,7.61 40.52,11.04 60.6,10.28l27.68 -1.72c3.07,0 4.7,0.76 4.7,2.29 0,1.52 -1.63,2.28 -4.7,2.28 -14.48,0 -22.08,4.57 -22.8,13.9 -1.08,5.9 -2.89,14.08 -5.25,24.36 -2.52,10.09 -4.16,17.71 -4.88,22.47 -2.17,9.32 -3.61,18.27 -4.52,26.84 -0.91,8.56 -1.27,17.51 -1.27,26.65 0,7.23 -0.72,16.56 -2.34,28.17 -1.64,11.8 -2.36,20.56 -2.36,26.65 -1.81,9.14 -2.53,19.23 -1.99,29.7 0.54,10.66 0.91,19.41 0.91,26.46l-13.21 128.3c-1.09,8.95 3.26,15.99 12.84,20.94 9.77,5.14 17.37,9.33 23.16,12.56 4.88,3.05 12.66,5.9 23.33,8.95 10.49,3.05 19.72,4.38 27.5,4.38l10.13 0c10.49,0 18.27,-1.33 23.15,-4.38 4.71,-3.05 7.24,-6.85 7.78,-11.42 0.55,-4.57 5.25,-6.47 14.12,-5.33 2.7,1.14 1.08,6.47 -5.43,16.18 -6.34,9.71 -9.41,14.47 -9.41,14.47 -4.7,4.18 -10.13,6.28 -16.47,6.66 -6.32,0.38 -12.47,1.14 -18.08,2.28 -11.58,1.91 -23.34,5.9 -34.91,12.38 -5.61,2.85 -17.73,4.38 -36,4.38 -3.98,-3.05 -14.29,-5.53 -31.12,-7.62 -16.82,-1.9 -28.94,-4.57 -36.72,-7.42 -5.06,-1.15 -11.39,-2.48 -19.18,-4 -7.77,-1.33 -13.02,-2.67 -15.91,-3.81 -9.41,-4.19 -20.99,-6.09 -34.38,-6.09 -2.16,0 -3.25,-0.76 -3.25,-2.28 0,-1.53 1.45,-2.86 4.35,-4 3.07,-0.95 6.33,-1.52 9.76,-1.52 3.26,0 6.88,-1.53 10.86,-4.57 0.72,-0.76 2.35,-2.48 4.7,-4.95 2.53,-2.67 5.25,-5.52 7.96,-8.38 6.7,-7.04 10.13,-19.41 10.13,-36.74 0,-3.04 0.54,-4.57 1.63,-4.57 0,0 0.36,-0.38 1.26,-1.33 0.91,-0.95 1.81,-2.09 2.89,-3.04 2.18,-4.19 2.9,-10.09 2.36,-17.71 -0.54,-7.61 0.18,-14.27 1.99,-20.37 0.9,-7.42 1.99,-15.03 3.08,-23.03 1.08,-8 2.52,-15.61 4.34,-22.65 2.71,-13.33 5.6,-27.03 8.67,-41.31 3.08,-14.09 4.53,-30.84 4.53,-50.07 0,-12.37 -0.36,-29.31 -0.91,-51.01 -0.36,-21.89 -2.16,-38.26 -4.88,-49.5 -2.17,-7.42 -3.44,-15.41 -3.8,-23.98 -0.36,-8.57 -1.08,-16.37 -2.17,-23.42 -1.98,-9.13 -5.06,-14.84 -8.86,-16.75 -7.42,-5.14 -13.2,-7.8 -17,-7.8l-4.89 0c-3.44,0 -8.14,1.14 -14.29,3.42 -12.3,4.76 -19.54,7.24 -21.71,7.24 -2.71,0 -4.16,0 -4.16,0 0,-3.05 0.91,-4.38 2.53,-4.38zm300.47 0c3.98,-1.9 8.5,-5.52 13.93,-10.66 5.25,-5.14 10.85,-7.8 16.82,-7.8l1.63 0c18.09,0 37.27,3.8 57.53,11.42 20.25,7.61 40.51,11.04 60.59,10.28l27.69 -1.72c3.07,0 4.7,0.76 4.7,2.29 0,1.52 -1.63,2.28 -4.7,2.28 -14.48,0 -22.08,4.57 -22.8,13.9 -1.08,5.9 -2.89,14.08 -5.25,24.36 -2.52,10.09 -4.16,17.71 -4.88,22.47 -2.17,9.32 -3.61,18.27 -4.52,26.84 -0.91,8.56 -1.27,17.51 -1.27,26.65 0,7.23 -0.72,16.56 -2.35,28.17 -1.63,11.8 -2.35,20.56 -2.35,26.65 -1.81,9.14 -2.53,19.23 -1.99,29.7 0.54,10.66 0.9,19.41 0.9,26.46l-13.2 128.3c-1.09,8.95 3.25,15.99 12.84,20.94 9.77,5.14 17.36,9.33 23.16,12.56 4.88,3.05 12.66,5.9 23.33,8.95 10.49,3.05 19.72,4.38 27.5,4.38l10.13 0c10.49,0 18.27,-1.33 23.15,-4.38 4.7,-3.05 7.24,-6.85 7.78,-11.42 0.55,-4.57 5.25,-6.47 14.12,-5.33 2.7,1.14 1.08,6.47 -5.43,16.18 -6.34,9.71 -9.41,14.47 -9.41,14.47 -4.7,4.18 -10.13,6.28 -16.47,6.66 -6.33,0.38 -12.47,1.14 -18.08,2.28 -11.58,1.91 -23.34,5.9 -34.91,12.38 -5.61,2.85 -17.74,4.38 -36,4.38 -3.98,-3.05 -14.29,-5.53 -31.12,-7.62 -16.82,-1.9 -28.94,-4.57 -36.72,-7.42 -5.07,-1.15 -11.39,-2.48 -19.18,-4 -7.77,-1.33 -13.02,-2.67 -15.91,-3.81 -9.41,-4.19 -20.99,-6.09 -34.38,-6.09 -2.16,0 -3.25,-0.76 -3.25,-2.28 0,-1.53 1.45,-2.86 4.35,-4 3.07,-0.95 6.33,-1.52 9.76,-1.52 3.26,0 6.88,-1.53 10.86,-4.57 0.72,-0.76 2.34,-2.48 4.7,-4.95 2.53,-2.67 5.25,-5.52 7.96,-8.38 6.69,-7.04 10.13,-19.41 10.13,-36.74 0,-3.04 0.54,-4.57 1.63,-4.57 0,0 0.36,-0.38 1.26,-1.33 0.91,-0.95 1.81,-2.09 2.89,-3.04 2.18,-4.19 2.9,-10.09 2.36,-17.71 -0.54,-7.61 0.18,-14.27 1.99,-20.37 0.9,-7.42 1.99,-15.03 3.07,-23.03 1.09,-8 2.53,-15.61 4.35,-22.65 2.71,-13.33 5.6,-27.03 8.67,-41.31 3.08,-14.09 4.53,-30.84 4.53,-50.07 0,-12.37 -0.36,-29.31 -0.91,-51.01 -0.36,-21.89 -2.16,-38.26 -4.88,-49.5 -2.17,-7.42 -3.44,-15.41 -3.8,-23.98 -0.36,-8.57 -1.09,-16.37 -2.17,-23.42 -1.98,-9.13 -5.06,-14.84 -8.86,-16.75 -7.42,-5.14 -13.2,-7.8 -17.01,-7.8l-4.88 0c-3.44,0 -8.14,1.14 -14.29,3.42 -12.3,4.76 -19.54,7.24 -21.71,7.24 -2.71,0 -4.16,0 -4.16,0 0,-3.05 0.9,-4.38 2.53,-4.38zm565.48 95.94l-15.92 71.39c-2.71,11.42 -2.71,28.74 0,51.96 2.9,23.42 4.89,39.6 5.97,48.93 2.72,19.99 6.69,34.64 11.58,43.97 3.98,8.19 8.14,13.9 12.66,16.75 2.9,1.91 6.87,3.43 11.76,4.57 4.88,0.95 7.42,3.62 7.42,7.81 -2.18,9.89 -10.49,13.51 -24.96,10.47l-6.88 -1.53c-15.56,-1.14 -28.04,-8.75 -37.62,-23.03 -5.97,-4.76 -9.95,-11.04 -11.94,-18.66 -2,-7.61 -4.88,-13.51 -8.69,-17.51 -17.37,27.03 -34.01,54.82 -49.92,83.38 -15.92,28.36 -44.14,39.59 -84.66,33.69l-4.35 -1.71c-12.29,-0.95 -24.96,-5.52 -38.16,-13.52 -13.03,-7.99 -22.44,-15.61 -28.04,-22.65 -15.56,-14.47 -21.89,-39.4 -19,-74.81 2,-20.37 4.52,-35.22 7.42,-44.36 2.71,-8.94 9.95,-19.79 21.71,-31.98 13.39,-15.22 33.11,-27.41 59.33,-36.16 13.39,-4.19 24.24,-8.57 32.38,-13.14 7.96,-4.76 18.45,-9.9 31.11,-15.99 9.59,-5.14 19,-11.23 28.22,-18.27 9.05,-7.24 16.1,-17.71 21.17,-31.79 7.78,-19.42 10.13,-31.98 6.88,-38.08 -5.61,-6.28 -15.2,-13.89 -28.59,-22.84 -10.67,-5.14 -22.06,-11.04 -34.19,-17.89 -12.3,-6.67 -24.96,-10.85 -38.52,-12.76l-2.54 -1.71c-18.45,-1.71 -34.01,5.9 -46.67,22.84 -12.3,19.42 -15.01,30.65 -7.78,33.51 7.24,3.04 10.49,9.13 9.41,18.46 -1.09,5.14 -5.97,9.9 -14.3,13.9 -6.87,-4 -13.01,-8.19 -18.81,-12.19 -5.97,-4.18 -7.95,-12.37 -6.15,-24.55 1.08,-11.23 6.88,-22.84 17.55,-35.22 10.49,-12.18 19.72,-20.75 27.49,-25.7 11.58,-6.28 21.17,-12.94 28.41,-19.98 7.23,-7.05 20.8,-9.14 41.06,-6.1l5.79 0c13.39,3.24 28.4,9.71 44.68,19.23 16.46,9.52 30.57,17.32 42.14,23.6 5.8,4.19 14.12,7.43 25.33,9.9 11.04,2.29 18.09,5.52 20.81,9.71 7.77,14.47 10.31,31.22 7.41,50.26l0 7.8zm-75.25 128.11c1.8,-18.46 -2.89,-28.74 -14.29,-30.64l-4.71 0c-16.28,-2.1 -28.03,8.94 -35.27,33.5 -7.23,24.56 -13.74,36.17 -19.36,35.22l-1.62 0c-4.89,0 -7.78,-3.43 -8.69,-10.09 -0.9,-6.67 -2.71,-10.47 -5.61,-11.23l-3.07 0c-26.23,-3.24 -40.7,7.8 -43.59,33.5 0,1.9 0.36,3.81 0.9,5.9 0.54,2.09 0.72,3.62 0.72,4.76 5.61,9.9 9.23,15.99 10.86,18.08 1.63,2.1 6.69,6.67 15.2,13.71 6.69,5.9 11.39,10.47 14.28,13.9 3.08,1.9 5.43,4.37 6.88,7.42 1.44,3.24 3.43,5.14 6.33,5.9 13.39,-19.99 26.77,-37.69 40.34,-52.92 5.97,-6.28 13.57,-15.04 22.8,-26.27 9.03,-11.04 14.64,-21.7 16.45,-31.79l1.45 -8.95zm390.73 -251.46c-1.08,5.9 -2.35,12.56 -3.8,19.8 -1.44,7.23 -1.98,13.89 -1.98,19.79 0,3.05 0.9,6.48 2.89,10.66 1.81,4 2.89,7.62 2.89,10.47 0,4.19 0,8.19 0,12.38 0,3.99 0,7.61 0,10.66 0,9.13 -2.71,16.56 -7.96,22.27 -5.42,5.52 -9.4,11.23 -12.3,17.32 -7.78,12.18 -12.3,18.66 -13.75,19.23 -1.44,0.57 -7.41,3.81 -17.9,9.71 -3.26,-1.15 -8.14,-2.48 -14.83,-4 -6.88,-1.33 -10.13,-4.76 -10.13,-9.9 0,-6.09 3.79,-11.04 11.57,-15.04 2.9,-1.14 5.79,-2.85 8.87,-4.76 2.89,-2.09 5.78,-3.99 8.67,-5.9 2.9,-1.9 6.52,-7.61 10.87,-17.32 4.33,-9.71 5.06,-17.7 1.8,-23.99 -0.72,0 -3.44,-3.23 -8.32,-9.71 -5.07,-6.47 -8.86,-9.7 -11.76,-9.7 -10.67,0 -18.27,-1.72 -22.98,-4.76 -4.88,-3.24 -8.67,-4.76 -11.39,-4.76 -6.69,0 -11.03,0.76 -13.02,2.47 -1.99,1.72 -8.32,2.86 -18.81,3.62 -7.79,4 -11.77,6.09 -11.77,6.09l-4.15 35.22 0 10.47c0,6.47 3.97,14.85 12.11,25.51 8.15,10.47 13.57,17.89 16.46,21.89 5.98,8.94 11.23,16.56 15.38,22.65 4.34,6.09 11.22,12.37 20.62,18.66 3.26,3.04 6.88,5.52 11.22,7.61 4.16,2.09 8.32,4.57 12.12,7.42 5.06,5.33 11.75,11.43 20.44,18.47 8.68,7.04 14.47,13.51 17.19,19.61 1.08,2.85 2.89,6.66 5.43,11.42 2.34,4.57 3.97,10.47 4.7,17.51 0,5.9 0.72,11.04 2.17,15.04 1.26,4 1.62,10.85 0.9,20.18 0,9.9 -3.98,24.36 -12.3,43.21 -8.32,18.65 -14.83,31.22 -19.35,37.5 -11.76,14.09 -21.71,23.99 -30.03,29.7 -8.33,5.52 -19.72,12.37 -34.19,20.56 -6.69,5.9 -15.56,11.04 -26.41,15.03 -11.04,4.19 -19.54,7.62 -25.51,10.66 -8.5,2.86 -15.37,5.52 -20.62,7.43 -5.24,2.09 -12.31,3.04 -21.16,3.04 -7.78,0 -17.01,-7.04 -27.68,-21.13 -7.79,-9.32 -17.55,-21.7 -29.67,-37.31 -11.94,-15.61 -17.9,-30.45 -17.9,-44.73l0 -12.18c0,-4.19 2.16,-12.38 6.5,-24.56 4.53,-12.18 8.14,-19.8 10.86,-22.84 10.67,-12.95 26.59,-19.61 47.76,-19.61 14.46,0 21.7,7.99 21.7,23.98 0,2.29 -1.44,5.91 -4.52,10.85 -2.9,5.14 -5.79,7.62 -8.69,7.62 -4.52,0 -7.41,-2.29 -8.49,-7.04 -1.09,-4.57 -3.62,-6.86 -7.42,-6.86l-1.63 0c-2.72,0 -4.16,0.95 -4.16,3.05 0,2.09 -1.45,3.04 -4.34,3.04 -10.49,0 -15.92,6.1 -15.92,18.47l0 21.13c0,4.19 7.59,13.32 22.61,27.6 15.01,14.28 32.56,18.85 52.64,13.71 11.76,-3.05 20.44,-7.05 26.23,-12 5.97,-5.14 14.47,-12.18 25.87,-21.51 3.08,-5.14 5.78,-9.51 8.14,-13.13 2.35,-3.43 4.88,-8.19 7.59,-14.28 6.16,-12.18 10.31,-21.32 12.49,-27.6 2.35,-6.09 3.43,-15.61 3.43,-28.55 -3.43,-9.33 -12.66,-20.37 -27.67,-32.94 -15.02,-12.75 -27.31,-25.12 -36.9,-37.5 -1.09,-2.85 -5.8,-7.42 -14.11,-13.51 -8.33,-6.28 -13.75,-10.28 -16.64,-12 -6.7,-4.18 -16.83,-13.32 -30.21,-27.41 -2.9,-2.28 -5.8,-8.18 -8.69,-17.89 -3.08,-9.52 -5.42,-16.94 -7.24,-21.7 -2.71,-5.14 -6.69,-11.04 -11.57,-17.9 -5.07,-6.66 -7.42,-12.94 -7.42,-18.84l0 -4.57c0,-2.09 0.19,-4 0.73,-5.52 0.54,-1.52 0.72,-3.81 0.72,-6.66 2.89,-5.14 5.61,-10.66 7.95,-16.18 2.54,-5.52 6.7,-11.43 12.31,-17.33 8.87,-12.18 17.9,-20.75 27.49,-25.7 24.06,-15.22 51.56,-22.84 82.68,-22.84 6.69,0 15.91,0.57 27.31,1.52 11.58,0.77 20.26,0.77 26.22,-0.38 2.9,-0.76 10.13,-3.42 21.72,-7.99 11.75,-4.76 17.9,-7.04 18.62,-7.04 6.7,0 9.95,3.04 9.95,8.94 0,3.24 -0.72,8 -2.53,13.9z"/>
  </g>
 </g>
</svg>
